<svg
  id="b0702195-1a1f-41db-ab32-a42f66050803"
  data-name="Layer 1"
  xmlns="http://www.w3.org/2000/svg"
  xmlns:xlink="http://www.w3.org/1999/xlink"
  width="1366"
  height="768.5"
  viewBox="0 0 1366 768.5"
>
  <defs>
    <linearGradient
      id="a85bdfd7-958b-4804-9d16-e807c27d8f2a"
      x1="0.58"
      y1="476.29"
      x2="1366.08"
      y2="476.29"
      gradientUnits="userSpaceOnUse"
    >
      <stop offset="0" stop-color="#fff" />
      <stop offset="1" stop-color="#FCE3F4" />
    </linearGradient>
    <linearGradient
      id="a8e77ebd-7e64-44ce-82fc-2627568b2bb5"
      x1="0.5"
      y1="258.75"
      x2="1366"
      y2="258.75"
      gradientUnits="userSpaceOnUse"
    >
      <stop offset="0" stop-color="#fff" />
      <stop offset="1" stop-color="#F8CDEA" />
    </linearGradient>
    <linearGradient
      id="f43cf21c-caaf-4242-85ed-50ef0bc0a9c0"
      x1="0.5"
      y1="119.5"
      x2="1366.5"
      y2="119.5"
      gradientUnits="userSpaceOnUse"
    >
      <stop offset="0" stop-color="#fff" />
      <stop offset="1" stop-color="#F2B6DE" />
    </linearGradient>
  </defs>
  <path
    d="M1366.08,399.88q0,184.07-.08,368.12c-32-26.6-81.41-62-148-88-175.48-68.54-270,6.34-499-2-55.86-2-262.8-14.23-473-134C130,477.88,49.66,399.91.58,345.06V184.58C137.78,320.52,265,376,351,402c242.58,73.23,400.59-15.08,740,43a1586,1586,0,0,1,275,73Q1366,458.95,1366.08,399.88Z"
    transform="translate(-0.5 0.5)"
    fill="url(#a85bdfd7-958b-4804-9d16-e807c27d8f2a)"
  />
  <path
    d="M1366,239.32V518a1586,1586,0,0,0-275-73c-339.41-58.08-497.42,30.23-740-43C265,376,137.78,320.52.58,184.58L.5,184.5V-.5a1424,1424,0,0,1,190,25c221.44,44.47,263.4,108.12,431,139,160.48,29.57,178.93-18.3,387-2A1359.75,1359.75,0,0,1,1366,239.32Z"
    transform="translate(-0.5 0.5)"
    fill="url(#a8e77ebd-7e64-44ce-82fc-2627568b2bb5)"
  />
  <path
    d="M1366.5-.5v240l-.5-.18a1359.75,1359.75,0,0,0-357.5-77.82c-208.07-16.3-226.52,31.57-387,2C453.9,132.62,411.94,69,190.5,24.5A1424,1424,0,0,0,.5-.5Z"
    transform="translate(-0.5 0.5)"
    fill="url(#f43cf21c-caaf-4242-85ed-50ef0bc0a9c0)"
  />
</svg>