<?xml version="1.0" standalone="no"?>
<!DOCTYPE svg PUBLIC "-//W3C//DTD SVG 20010904//EN"
 "http://www.w3.org/TR/2001/REC-SVG-20010904/DTD/svg10.dtd">
<svg version="1.0" xmlns="http://www.w3.org/2000/svg"
 width="1558.000000pt" height="1558.000000pt" viewBox="0 0 1558.000000 1558.000000"
 preserveAspectRatio="xMidYMid meet">
<metadata>
Created by potrace 1.14, written by Peter Selinger 2001-2017
</metadata>
<g transform="translate(0.000000,1558.000000) scale(0.100000,-0.100000)"
fill="#000000" stroke="none">
<path d="M7759 15576 c-2 -2 -40 -6 -84 -10 -44 -4 -93 -9 -110 -11 -16 -3
-48 -7 -70 -10 -22 -3 -66 -10 -98 -16 -32 -5 -70 -12 -85 -14 -15 -2 -38 -7
-52 -10 -14 -3 -36 -8 -50 -11 -38 -9 -41 -10 -90 -23 -25 -7 -54 -15 -64 -17
-25 -5 -232 -73 -271 -89 -110 -45 -162 -65 -172 -65 -7 0 -13 -4 -13 -10 0
-5 -6 -10 -14 -10 -13 0 -179 -82 -286 -141 -74 -41 -263 -161 -286 -180 -11
-11 -23 -19 -27 -19 -4 0 -15 -7 -24 -15 -10 -9 -52 -41 -93 -72 -41 -31 -77
-59 -80 -62 -12 -16 -114 -91 -122 -91 -5 0 -18 -9 -30 -20 -12 -11 -28 -20
-35 -20 -7 0 -13 -3 -13 -8 0 -4 -17 -16 -37 -27 -29 -16 -214 -146 -258 -182
-5 -5 -32 -26 -60 -48 -27 -22 -57 -48 -66 -57 -9 -10 -19 -18 -22 -18 -25 0
-444 -424 -505 -512 -8 -10 -23 -30 -35 -43 -59 -65 -67 -75 -67 -84 0 -5 -3
-11 -7 -13 -19 -8 -216 -293 -300 -433 -85 -142 -223 -406 -238 -455 -4 -14
-15 -36 -24 -49 -8 -13 -23 -45 -33 -70 -9 -25 -35 -93 -58 -151 -23 -58 -42
-109 -44 -115 -1 -5 -4 -14 -7 -20 -3 -5 -23 -64 -44 -130 -21 -66 -40 -127
-43 -135 -5 -15 -6 -19 -17 -55 -9 -33 -64 -248 -69 -270 -36 -172 -53 -256
-62 -325 -3 -25 -8 -54 -11 -65 -2 -11 -6 -40 -9 -65 -2 -25 -7 -56 -9 -69 -4
-24 -14 -115 -21 -196 -1 -22 -7 -101 -11 -175 -10 -168 -11 -8993 -1 -9110 4
-47 10 -101 13 -120 3 -19 7 -53 10 -75 2 -22 7 -51 10 -65 3 -14 7 -36 10
-50 3 -14 9 -40 14 -58 5 -18 10 -35 10 -37 1 -3 1 -6 2 -7 2 -8 9 -36 14 -60
3 -15 10 -40 16 -55 6 -16 13 -39 16 -53 2 -13 7 -29 12 -35 4 -5 13 -28 20
-50 23 -68 73 -174 155 -327 11 -21 23 -38 28 -38 4 0 8 -5 8 -11 0 -9 74
-123 90 -139 3 -3 17 -21 31 -40 86 -114 332 -333 402 -356 9 -4 17 -10 17
-14 0 -5 10 -12 23 -16 12 -3 34 -15 49 -25 14 -11 33 -19 42 -19 9 0 16 -4
16 -10 0 -5 4 -10 9 -10 5 0 22 -5 38 -12 15 -6 33 -12 38 -14 6 -1 34 -12 63
-22 28 -11 52 -19 52 -17 0 2 21 -2 48 -9 26 -7 55 -12 65 -10 9 1 17 -1 17
-4 0 -15 221 -17 1975 -17 1831 0 1948 2 2045 30 8 3 33 7 55 11 22 3 43 8 47
11 5 2 17 6 28 9 11 2 28 6 38 8 64 15 197 68 317 126 333 163 592 387 861
745 8 11 41 62 72 114 39 64 91 130 164 205 147 153 308 349 308 375 0 5 4 11
9 13 21 7 261 432 261 462 0 3 11 29 25 58 21 46 82 205 89 233 2 6 6 17 9 25
8 21 48 152 52 173 2 10 7 27 10 37 3 10 8 27 10 37 13 65 34 143 40 154 6 8
4 10 -5 4 -9 -5 -11 -4 -6 3 7 12 13 33 22 82 2 14 6 34 9 46 2 11 7 43 10 70
3 27 8 60 10 74 3 14 7 54 11 90 3 36 8 81 11 100 3 19 7 583 8 1252 2 669 4
1245 5 1280 1 35 1 68 0 73 -5 28 0 447 5 455 4 6 3 10 -2 10 -4 0 -8 150 -9
333 0 355 -7 496 -30 637 -3 19 -7 51 -10 70 -2 19 -7 49 -11 65 -3 17 -7 39
-9 50 -1 11 -9 48 -17 83 -9 34 -13 62 -11 62 3 0 0 8 -5 18 -5 9 -11 31 -14
47 -7 36 -55 202 -67 230 -5 11 -20 52 -33 90 -32 92 -79 197 -143 320 -50 97
-130 235 -143 245 -3 3 -13 17 -21 31 -20 36 -42 66 -124 168 -86 108 -351
371 -373 371 -3 0 -26 17 -52 39 -49 41 -207 141 -222 141 -5 0 -9 4 -9 10 0
5 -3 9 -7 8 -5 -1 -44 16 -88 38 -151 75 -346 137 -500 159 -16 2 -46 8 -65
11 -53 11 -3857 14 -3893 3 -47 -13 -86 -57 -94 -104 -3 -22 -7 -159 -7 -305
l-1 -265 -245 0 c-184 -1 -251 -4 -270 -15 -44 -23 -76 -66 -79 -107 -7 -84
-4 -5592 3 -5648 32 -252 206 -443 409 -450 162 -6 283 63 373 210 26 42 52
102 60 138 1 4 2 8 4 10 2 3 7 25 15 72 24 137 -14 205 -120 210 -84 5 -139
-47 -150 -143 -10 -93 -31 -145 -73 -187 -51 -51 -128 -47 -179 10 -70 78 -64
-155 -63 2874 0 1504 3 2737 6 2740 3 3 74 5 159 6 l155 0 0 -120 c6 -1517 9
-2512 10 -2799 1 -308 3 -365 17 -394 44 -93 189 -99 242 -11 18 29 19 74 16
1072 -4 1031 -6 2208 -5 2237 0 13 170 15 1472 14 1307 -1 1538 -4 1616 -19
11 -2 36 -6 57 -9 44 -7 124 -26 145 -33 8 -3 24 -8 34 -10 62 -12 332 -134
348 -158 4 -5 8 -7 8 -2 0 6 145 -87 160 -103 3 -3 23 -19 45 -35 70 -52 77
-58 186 -167 92 -91 203 -223 259 -308 8 -12 22 -32 31 -44 8 -11 19 -28 22
-36 4 -8 16 -28 27 -45 24 -37 152 -289 168 -330 6 -16 21 -55 32 -85 19 -50
56 -158 80 -235 10 -35 37 -139 44 -175 8 -41 15 -71 20 -88 3 -9 7 -39 11
-66 3 -27 8 -52 9 -55 2 -3 7 -33 10 -66 3 -33 8 -71 11 -85 15 -75 18 -451
18 -2040 0 -1567 -3 -1906 -19 -2030 -2 -19 -6 -57 -9 -85 -7 -69 -51 -282
-76 -369 -11 -39 -22 -78 -24 -86 -4 -18 -38 -119 -59 -175 -24 -67 -95 -226
-116 -262 -11 -19 -20 -41 -20 -49 0 -8 -4 -14 -10 -14 -5 0 -10 -6 -10 -14 0
-14 -18 -30 -110 -96 -30 -22 -66 -47 -80 -57 -14 -10 -43 -27 -65 -38 -22
-11 -42 -22 -45 -25 -14 -16 -177 -84 -240 -101 -69 -19 -102 -27 -147 -34
-18 -3 -47 -7 -64 -10 -16 -3 -63 -8 -102 -11 -98 -7 -3570 -7 -3629 0 -27 3
-67 8 -90 11 -24 3 -54 7 -68 10 -14 4 -36 8 -50 11 -45 9 -144 48 -210 83
-174 91 -358 263 -488 458 -23 34 -42 66 -42 72 0 5 -4 11 -9 13 -12 4 -121
219 -121 238 0 9 -5 21 -12 28 -6 6 -13 17 -14 24 -4 27 -9 43 -15 48 -6 6
-48 142 -55 180 -3 14 -11 52 -18 85 -8 33 -17 85 -21 115 -4 30 -9 64 -11 75
-15 74 -17 614 -17 4565 0 3969 2 4519 18 4633 10 79 17 136 20 182 2 28 6 57
9 65 3 8 7 29 10 45 2 17 7 48 11 70 5 35 38 196 51 248 2 9 6 25 8 35 2 9 9
37 16 62 7 25 14 52 15 60 2 8 4 15 5 15 1 0 3 7 5 16 3 18 54 187 62 209 4 8
7 17 8 20 20 67 30 96 35 100 3 3 6 12 8 20 17 75 201 483 292 645 54 97 75
130 82 133 4 2 8 8 8 13 0 12 82 143 92 147 4 2 8 8 8 13 0 6 4 15 10 22 5 7
44 59 86 117 42 58 83 112 90 120 7 8 45 53 85 100 113 136 347 370 368 370 6
0 11 4 11 9 0 4 28 23 63 40 34 18 69 37 77 42 104 62 491 218 586 235 16 3
32 11 36 17 4 7 8 9 8 5 0 -3 26 1 58 9 79 21 97 25 212 48 104 20 126 24 195
31 33 4 63 8 66 10 12 7 228 18 364 18 134 0 264 -7 370 -19 28 -3 64 -8 80
-10 34 -4 65 -9 180 -31 44 -8 91 -18 105 -20 14 -3 41 -10 60 -15 19 -6 49
-15 65 -19 17 -5 64 -19 105 -31 41 -13 77 -23 80 -24 3 -1 14 -5 25 -9 11 -4
34 -13 50 -18 93 -33 263 -108 365 -162 52 -27 105 -54 117 -60 13 -6 23 -14
23 -18 0 -5 5 -8 11 -8 11 0 186 -106 199 -120 3 -3 12 -9 21 -15 47 -29 129
-88 139 -100 7 -8 18 -15 25 -15 8 0 15 -4 17 -9 2 -4 37 -36 79 -69 157 -126
344 -309 484 -474 53 -62 102 -120 109 -128 59 -68 246 -334 246 -349 0 -5 4
-11 8 -13 5 -1 32 -43 61 -93 30 -49 61 -101 69 -115 9 -14 17 -31 18 -38 2
-8 9 -21 17 -30 19 -21 197 -390 197 -408 0 -4 11 -30 24 -58 13 -28 33 -78
44 -111 12 -33 32 -90 46 -127 14 -38 23 -68 21 -68 -2 0 4 -20 15 -45 11 -25
17 -45 14 -45 -2 0 2 -13 11 -30 9 -16 13 -30 11 -30 -3 0 0 -15 6 -32 13 -45
28 -98 34 -128 3 -14 7 -33 10 -42 5 -18 12 -47 20 -88 3 -14 7 -32 9 -40 3
-8 7 -32 11 -54 3 -21 8 -48 10 -60 12 -61 24 -136 29 -176 3 -25 7 -52 10
-60 2 -8 7 -49 10 -90 4 -41 8 -93 10 -115 37 -406 40 -526 33 -1711 -2 -387
-1 -391 20 -426 51 -82 177 -84 236 -5 21 28 21 31 20 910 0 485 -3 938 -7
1007 -8 160 -16 270 -22 295 -2 11 -7 49 -10 85 -4 36 -9 76 -11 90 -5 25 -17
99 -29 175 -3 22 -8 46 -11 54 -2 8 -7 30 -10 50 -3 20 -7 42 -10 50 -2 8 -7
30 -10 50 -3 20 -12 61 -21 91 -8 30 -16 66 -19 80 -3 14 -9 39 -14 55 -6 17
-24 80 -41 140 -17 61 -33 117 -36 125 -4 8 -7 17 -7 20 -5 26 -95 264 -127
337 -11 24 -19 47 -19 53 0 6 -4 18 -10 28 -5 9 -45 92 -88 183 -44 91 -105
213 -137 270 -56 99 -183 308 -195 319 -3 3 -14 18 -24 35 -11 16 -23 34 -27
40 -5 5 -45 60 -90 120 -158 212 -399 478 -549 605 -14 12 -49 42 -79 68 -55
48 -230 185 -271 212 -12 8 -28 20 -34 25 -7 6 -21 15 -31 22 -11 7 -66 42
-122 78 -57 36 -107 65 -113 65 -5 0 -10 4 -10 8 0 4 -27 21 -60 36 -33 16
-60 33 -60 37 0 5 -5 9 -12 9 -6 0 -52 20 -102 44 -126 61 -205 96 -216 96 -6
0 -10 5 -10 12 0 6 -3 9 -6 5 -3 -3 -29 3 -58 15 -28 11 -91 34 -141 50 -49
16 -97 32 -105 35 -18 7 -11 5 -80 22 -30 8 -59 16 -65 20 -5 3 -19 7 -29 8
-11 2 -45 10 -75 18 -31 8 -72 17 -91 20 -19 3 -42 8 -50 10 -16 5 -49 10
-115 20 -23 3 -51 7 -64 10 -23 4 -74 9 -241 24 -47 4 -174 6 -282 6 -109 -1
-196 1 -193 3 2 2 26 9 52 14 26 5 57 11 68 13 11 3 36 7 55 9 19 3 44 7 56
10 12 2 45 7 75 11 30 4 70 9 89 11 117 15 449 24 457 12 2 -5 12 -4 22 2 10
5 21 7 23 4 3 -2 38 -7 79 -9 104 -7 238 -22 284 -32 11 -2 34 -6 50 -8 17 -3
64 -12 105 -20 41 -9 84 -18 95 -19 11 -2 47 -11 80 -20 33 -9 69 -19 80 -21
59 -13 303 -97 390 -135 137 -59 180 -79 270 -125 144 -75 170 -89 173 -97 2
-5 8 -8 13 -8 12 0 93 -52 97 -62 2 -5 8 -8 14 -8 6 0 58 -35 117 -77 102 -75
127 -94 177 -138 12 -11 44 -38 70 -60 78 -66 235 -224 318 -320 43 -49 87
-98 98 -107 11 -10 17 -18 14 -18 -4 0 5 -12 19 -27 14 -16 38 -46 53 -68 15
-22 32 -44 38 -50 19 -17 184 -255 184 -265 0 -6 3 -10 8 -10 4 0 23 -27 42
-60 19 -33 38 -60 43 -60 4 0 7 -5 7 -11 0 -6 13 -29 28 -52 16 -23 40 -62 53
-87 13 -25 26 -47 29 -50 15 -14 202 -385 243 -480 8 -19 24 -55 35 -80 11
-25 24 -58 27 -73 4 -15 11 -30 16 -33 5 -3 9 -12 9 -20 0 -8 9 -33 19 -57 18
-40 85 -240 102 -302 4 -16 17 -66 29 -110 12 -44 23 -91 26 -105 2 -14 11
-55 19 -92 8 -36 17 -83 21 -105 3 -21 8 -51 10 -68 7 -38 12 -77 19 -140 3
-27 8 -61 10 -75 2 -14 7 -72 11 -130 5 -92 8 -4328 4 -6565 -1 -440 1 -810 4
-823 3 -12 0 -22 -5 -22 -6 0 -7 -5 -4 -11 4 -6 8 -52 10 -103 1 -50 7 -101
13 -113 20 -36 66 -63 113 -64 54 -2 87 11 119 46 l25 27 0 3751 c0 2064 -4
3808 -8 3877 -12 164 -15 204 -17 210 -1 3 -2 9 -1 14 2 10 -13 119 -35 261
-10 63 -36 183 -55 260 -12 44 -22 88 -24 97 -2 9 -8 25 -14 36 -6 11 -8 22
-4 25 3 4 0 13 -7 22 -7 8 -10 15 -7 15 3 0 -6 33 -19 73 -14 39 -27 77 -28
82 -2 6 -6 17 -9 25 -3 8 -17 47 -30 85 -14 39 -30 84 -37 100 -7 17 -16 39
-20 50 -40 102 -97 227 -184 400 -76 150 -194 358 -268 473 -10 15 -25 41 -34
57 -9 17 -20 32 -23 35 -3 3 -28 39 -56 80 -87 132 -212 299 -298 401 -12 14
-38 46 -58 70 -140 168 -340 362 -524 506 -44 35 -85 67 -90 71 -36 29 -256
172 -265 172 -5 0 -10 4 -10 9 0 5 -8 11 -17 15 -10 3 -49 24 -88 46 -66 38
-215 113 -315 158 -177 80 -449 172 -645 218 -16 4 -37 9 -45 11 -8 2 -24 5
-35 7 -11 1 -29 6 -40 9 -11 3 -38 8 -60 12 -22 3 -47 7 -55 10 -20 5 -132 21
-218 31 -20 2 -57 6 -82 9 -50 7 -566 16 -571 11z m-3132 -2282 c-65 -134
-106 -228 -151 -349 -21 -55 -42 -109 -46 -120 -5 -11 -14 -38 -21 -60 -6 -22
-14 -44 -18 -50 -3 -5 -6 -14 -6 -20 -1 -5 -4 -17 -7 -25 -6 -14 -65 -225 -73
-260 -2 -8 -11 -46 -20 -85 -9 -38 -19 -79 -21 -90 -2 -11 -7 -31 -10 -45 -3
-14 -7 -38 -10 -55 -3 -16 -9 -55 -14 -85 -25 -149 -34 -218 -45 -332 -4 -40
-9 -86 -11 -103 -15 -137 -17 -793 -16 -4590 0 -2376 2 -4324 2 -4330 1 -5 1
-21 0 -35 -3 -39 15 -251 24 -290 3 -14 8 -41 10 -60 2 -19 7 -46 10 -60 3
-14 7 -38 10 -55 3 -16 12 -57 21 -89 8 -33 17 -67 19 -75 2 -9 6 -23 9 -31
37 -99 69 -187 69 -197 1 -7 5 -13 10 -13 4 0 8 -5 8 -10 0 -30 89 -203 159
-310 20 -30 38 -60 41 -65 33 -69 266 -325 355 -391 22 -16 42 -32 45 -35 19
-24 204 -130 300 -172 51 -23 190 -66 230 -71 19 -3 60 -10 90 -15 64 -11
3831 -9 3870 2 14 4 39 9 55 12 34 5 51 9 115 25 70 17 75 18 75 20 0 1 11 3
24 6 23 4 22 2 -10 -29 -28 -27 -114 -100 -179 -150 -37 -29 -167 -108 -228
-139 -37 -18 -70 -37 -73 -41 -3 -5 -10 -9 -15 -9 -5 0 -25 -7 -44 -15 -39
-16 -159 -57 -175 -58 -5 -1 -28 -7 -50 -13 -63 -18 -96 -23 -152 -27 -28 -2
-55 -5 -60 -7 -4 -3 -28 -6 -53 -9 -82 -7 -3684 -4 -3730 3 -25 4 -58 10 -75
13 -16 3 -39 7 -50 8 -11 1 -22 5 -25 9 -3 4 -19 9 -35 12 -34 6 -218 95 -223
107 -2 5 -10 9 -18 9 -8 0 -17 7 -20 15 -4 8 -11 15 -16 15 -42 0 -347 321
-348 367 0 6 -4 13 -9 15 -15 5 -112 188 -164 308 -18 41 -57 157 -62 183 -2
9 -6 21 -9 25 -3 5 -7 19 -10 33 -3 13 -12 58 -21 99 -31 138 -44 240 -50 389
-3 62 -8 117 -10 122 -3 4 -1 10 4 14 6 3 8 11 5 19 -7 18 -10 215 -3 211 3
-2 4 11 2 28 -6 64 -8 215 -2 212 3 -2 4 11 2 28 -7 69 -8 215 -2 211 4 -2 4
11 -1 29 -4 18 -4 41 0 52 4 11 3 33 -1 50 -11 37 -11 37 -1 31 4 -3 7 10 5
27 -6 64 -8 215 -2 212 3 -2 4 11 2 28 -6 64 -8 215 -2 212 3 -2 4 11 2 28 -6
64 -8 215 -2 212 3 -2 4 11 2 28 -6 64 -8 215 -2 212 3 -2 4 11 2 28 -6 64 -8
215 -2 212 3 -2 4 11 2 28 -6 64 -8 215 -2 212 3 -2 4 11 2 28 -6 64 -8 215
-2 212 3 -2 4 11 2 28 -6 64 -8 215 -2 212 3 -2 4 11 2 28 -6 64 -8 215 -2
212 3 -2 4 11 2 28 -7 74 -7 215 -1 211 4 -3 6 1 3 8 -7 18 -11 237 -4 233 3
-2 4 11 2 28 -6 64 -8 215 -2 212 3 -2 4 11 2 28 -6 64 -8 215 -2 212 3 -2 4
11 2 28 -6 64 -8 215 -2 212 3 -2 4 11 2 28 -6 64 -8 215 -2 212 3 -2 4 11 2
28 -5 43 -5 48 -3 82 0 17 0 71 -2 122 -2 50 -1 90 3 88 3 -2 4 11 2 28 -6 64
-8 215 -2 212 3 -2 4 11 2 28 -6 64 -8 215 -2 212 3 -2 4 11 2 28 -6 64 -8
215 -2 212 3 -2 4 11 2 28 -6 64 -8 215 -2 212 3 -2 4 11 2 28 -5 41 -5 47 -3
77 1 14 0 34 -3 45 -2 11 -1 33 3 50 4 17 3 41 -1 53 -5 13 -4 22 2 22 6 0 6
6 1 18 -5 9 -8 26 -6 37 7 38 7 82 0 93 -4 7 -2 12 4 12 7 0 8 6 2 18 -5 9 -8
26 -6 37 7 38 7 82 0 93 -4 7 -2 12 4 12 7 0 8 6 2 18 -5 9 -8 26 -6 37 7 38
7 82 0 93 -4 7 -2 12 4 12 7 0 8 6 2 18 -5 9 -8 26 -6 37 7 38 7 82 0 93 -4 7
-2 12 4 12 7 0 8 6 2 18 -5 9 -8 26 -6 37 7 38 7 82 0 93 -4 7 -2 12 4 12 7 0
8 6 2 18 -5 9 -8 26 -6 37 7 38 7 82 0 93 -4 7 -2 12 4 12 7 0 8 6 2 18 -5 9
-8 26 -6 37 4 19 4 44 3 110 0 17 1 39 2 50 2 11 -1 33 -5 48 -4 16 -3 26 2
23 4 -2 7 10 5 27 -6 64 -8 215 -2 212 3 -2 4 11 2 28 -6 64 -8 215 -2 212 5
-4 4 10 -5 87 -2 21 -1 36 3 34 4 -3 6 8 5 22 -1 15 -3 27 -4 27 -6 0 -4 88 2
92 5 2 5 9 2 15 -8 13 -8 123 0 137 4 6 3 11 -2 11 -8 0 -7 93 2 117 3 7 2 13
-2 13 -4 0 -7 14 -7 30 0 17 2 30 5 30 3 0 4 19 2 42 -5 84 8 432 23 593 3 28
7 75 10 105 5 67 18 171 30 250 2 14 7 45 11 70 4 25 8 54 10 65 1 11 3 20 4
20 1 0 3 11 6 25 2 14 11 59 20 100 9 41 17 80 18 85 1 6 5 19 9 30 3 11 8 31
11 45 3 14 13 52 22 85 9 33 18 67 19 75 2 8 4 16 5 18 2 1 3 5 4 10 12 45 51
159 57 167 4 6 8 13 8 18 1 23 51 166 80 232 47 103 58 134 53 139 -3 3 0 6 6
6 7 0 12 6 12 13 0 8 13 40 29 73 16 32 39 82 51 109 13 28 31 62 42 78 11 15
16 27 12 27 -3 0 -2 6 4 13 5 6 25 39 43 72 18 33 37 63 43 67 6 4 8 8 3 8 -4
0 8 24 27 53 141 220 179 277 182 274 2 -2 -11 -35 -29 -73z m4638 -3968 c82
-7 136 -13 187 -21 21 -4 40 -7 43 -6 2 0 19 -5 37 -10 32 -10 49 -14 93 -23
62 -14 239 -91 334 -147 40 -23 175 -114 200 -135 145 -117 249 -220 348 -344
69 -87 163 -224 163 -240 0 -5 4 -10 9 -10 23 0 239 -478 257 -569 3 -13 9
-32 15 -43 5 -10 7 -18 4 -18 -3 0 -1 -8 4 -18 6 -11 12 -30 15 -43 2 -13 14
-64 26 -112 12 -49 23 -103 26 -120 3 -18 7 -42 9 -54 2 -12 6 -34 9 -50 3
-15 8 -55 12 -88 3 -33 8 -69 10 -80 2 -11 7 -76 10 -145 6 -138 6 -137 3
-165 -2 -11 1 -33 5 -48 4 -17 3 -26 -3 -23 -5 4 -6 -8 -1 -29 4 -19 5 -35 1
-35 -5 0 -5 -21 -1 -47 4 -27 4 -50 -1 -53 -4 -3 -4 -12 0 -19 5 -8 5 -26 1
-42 -5 -15 -6 -30 -3 -33 10 -10 11 -66 1 -66 -5 0 -6 -5 -3 -11 10 -15 12
-98 3 -92 -5 2 -3 -8 2 -23 6 -14 7 -32 3 -38 -7 -10 -9 -32 -3 -46 6 -16 5
-62 -2 -66 -5 -3 -5 -10 -2 -16 9 -14 11 -168 3 -168 -3 0 -3 -21 1 -47 4 -27
5 -50 1 -53 -8 -6 -6 -48 2 -56 3 -3 1 -19 -3 -35 -5 -16 -5 -31 -1 -34 5 -2
7 -17 5 -32 -4 -27 -4 -54 -3 -118 0 -16 -1 -39 -2 -50 -2 -11 1 -33 5 -48 4
-17 3 -26 -3 -23 -5 4 -6 -8 -1 -29 4 -19 4 -35 0 -35 -5 0 -7 -8 -5 -17 12
-58 14 -83 7 -79 -8 5 -9 -34 -1 -50 3 -5 4 -20 3 -34 -5 -38 -5 -74 -2 -202
2 -64 1 -115 -3 -113 -6 5 -3 -54 4 -61 3 -3 1 -19 -3 -35 -5 -16 -5 -31 -1
-34 8 -4 4 -86 -4 -93 -2 -2 0 -15 5 -28 7 -16 6 -24 -1 -24 -8 0 -8 -4 -2
-12 5 -7 8 -24 7 -38 -5 -38 -5 -74 -2 -202 2 -64 1 -115 -3 -113 -6 5 -3 -54
4 -61 3 -3 1 -19 -3 -35 -5 -16 -5 -31 -1 -34 5 -2 7 -17 5 -32 -5 -36 -5 -64
-2 -205 2 -64 1 -115 -3 -113 -3 2 -4 -11 -2 -28 7 -65 8 -197 1 -197 -3 0 -5
-8 -3 -17 12 -58 14 -83 7 -79 -4 2 -7 -44 -8 -102 -1 -125 -8 -217 -29 -354
-12 -79 -51 -283 -55 -283 -1 0 -4 -13 -6 -28 -3 -16 -23 -85 -45 -155 -22
-70 -41 -135 -44 -144 -7 -33 -107 -263 -146 -337 l-39 -76 5 48 c3 27 7 52 9
56 3 4 8 30 12 57 3 27 7 56 9 64 1 8 6 44 10 80 4 36 9 74 11 85 14 69 17
464 17 1960 0 1498 -4 1942 -18 2025 -2 14 -6 50 -10 80 -3 30 -7 66 -9 80
-11 79 -20 146 -21 150 -4 16 -18 97 -20 110 -1 8 -5 22 -8 30 -3 8 -8 29 -10
45 -22 139 -131 456 -227 660 -73 153 -235 423 -262 433 -4 2 -8 8 -8 14 0 19
-141 181 -259 298 -247 245 -538 422 -841 513 -94 28 -218 55 -289 63 -25 2
-68 7 -96 10 -27 3 -716 7 -1530 9 -814 1 -1482 3 -1485 4 -3 0 -5 90 -5 199
l0 197 1515 5 c1646 5 1958 5 2065 -4z"/>
<path d="M5483 5095 c-74 -31 -116 -151 -79 -223 44 -85 128 -116 209 -77 32
15 79 71 83 100 1 5 3 19 5 30 7 47 -13 100 -52 137 -22 21 -45 39 -52 39 -58
6 -89 4 -114 -6z"/>
<path d="M5485 4656 c-124 -55 -127 -238 -4 -302 31 -16 104 -14 137 5 24 13
66 51 57 51 -3 0 2 11 11 25 8 13 16 44 16 69 0 116 -116 197 -217 152z"/>
<path d="M5489 4222 c-57 -25 -99 -91 -99 -155 0 -145 173 -218 269 -114 27
30 53 116 40 133 -5 6 -6 14 -3 17 13 13 -42 90 -78 108 -37 19 -98 24 -129
11z"/>
<path d="M5491 3784 c-152 -64 -123 -299 40 -318 102 -12 189 93 167 199 -9
42 -48 95 -84 113 -34 18 -89 20 -123 6z"/>
</g>
</svg>
