<svg xmlns="http://www.w3.org/2000/svg" viewBox="0 0 427.13 779.12"><defs><style>.cls-1,.cls-4{fill:#231f20;}.cls-2,.cls-3{fill:#c5258f;}.cls-3{stroke:#c5258f;}.cls-3,.cls-4{stroke-miterlimit:10;stroke-width:0.93px;}.cls-4{stroke:#231f20;}</style></defs><g id="Layer_14" data-name="Layer 14"><path class="cls-1" d="M364.81,729.23V450.38l-7,7H537a82.41,82.41,0,0,1,43.67,12.4c37.73,23.29,54.88,69.77,55,112.42.06,22.48,0,44.95,0,67.42v89.53c0,9.12.13,18.24-.7,27.33-2.21,23.88-10.21,47.41-23.85,67.2-11.75,17.06-28.55,31.45-48.45,37.93-10.18,3.32-20.36,3.93-30.91,3.93H448.51l-80.29,0h-4.46c-9,0-9.05,14,0,14h62.1l95.14,0c6.37,0,12.75.12,19.11,0,22.42-.5,43.4-9.45,60.52-23.67,33.79-28.06,49-73.25,49-116.11q0-37.44,0-74.86V588.48c0-38.56-9.19-76.38-34.27-106.59-14-16.85-32.9-30.1-54.23-35.61-10.21-2.63-20.5-2.92-30.94-2.92H357.79a7.12,7.12,0,0,0-7,7V729.23c0,9,14,9,14,0Z" transform="translate(-286.39 -110.53)"/><path class="cls-2" d="M395.33,620l-.24-69-.38-109.5-.09-25.39-6.92,6.92H538.85c21,0,43.31-2.26,62.85,7,42.48,20.18,62.67,69.7,62.85,114.48.07,19.78,0,39.55,0,59.33v91c0,6.32.06,12.65,0,19-.35,25.17-6.41,50.53-18.29,72.78-10.21,19.14-24.89,36.59-44.49,46.51-10.6,5.36-21.75,7.1-33.45,7.1H405.38c-8.9,0-8.92,13.84,0,13.84H559c7.48,0,15.09.34,22.52-.58,21.79-2.7,41.16-14.59,55.93-30.52,28.67-30.93,41-73.51,41-115V548.52c0-40-11.95-80.63-40.79-109.56-15.36-15.41-35.07-26.34-56.81-29.06-7.33-.92-14.75-.67-22.12-.67h-171a7,7,0,0,0-6.92,6.92l.24,69,.38,109.5.09,25.39c0,8.9,13.87,8.92,13.84,0Z" transform="translate(-286.39 -110.53)"/><path class="cls-2" d="M332.08,325.08c1.73-83.52,50.18-170.67,134.32-194.75,44.6-12.77,94.33-4.66,133.82,19.24,21.11,12.77,38.09,30.23,52.52,50.1,15.15,20.84,27.76,43.76,36.11,68.17a192.78,192.78,0,0,1,10.84,62c0,3.65,0,7.3,0,10.95v236c0,39.63-.67,79.33,0,119,0,.62,0,1.24,0,1.86,0,8.9,13.84,8.92,13.84,0V345.26c0-21.35-.82-42.3-6-63.23-6.61-26.49-18.22-51.8-32.87-74.78-13.47-21.14-29.38-41.4-49.18-56.95-39.11-30.72-90.95-45-140.26-38.05-88.27,12.38-150.36,92.61-163.73,177.07a264.55,264.55,0,0,0-3.2,35.76c-.19,8.91,13.65,8.91,13.84,0Z" transform="translate(-286.39 -110.53)"/><path class="cls-2" d="M332,329.5c0-1.59,0-3.18,0-4.78a6.92,6.92,0,1,0-13.84,0c0,1.6,0,3.19,0,4.78,0,3.62,3.18,7.08,6.92,6.92A7,7,0,0,0,332,329.5Z" transform="translate(-286.39 -110.53)"/><path class="cls-2" d="M405.38,840.25c-11.85,0-22.55-.52-33.15-6.58-13.55-7.74-23.45-20.52-30.14-34.41C334.41,783.31,332,766,332,748.52V402.23c0-22.39.78-44.94,0-67.33,0-.34,0-.67,0-1,0-8.91-13.84-8.92-13.84,0v412.6c0,15.39,1.25,30.64,6.17,45.38,10,30,33.57,58.89,67,62,4.67.44,9.42.22,14.1.22,8.91,0,8.92-13.84,0-13.84Z" transform="translate(-286.39 -110.53)"/><path class="cls-1" d="M373.37,875.62c-10.09,0-19.71.11-29.18-4.07-12.3-5.43-22.14-15.43-29.09-26.78-10.61-17.28-14.75-37.19-14.75-57.29V401.36c0-32.12-1-64.55,6-96.1,12.41-56.49,45.46-109.6,95.86-139.47,48.06-28.48,107.79-30.94,157.67-5.47,51.78,26.45,87.53,77.14,102.71,132.49,11.62,42.39,8.79,86.7,8.79,130.2v14.16c0,8.95,13.92,9,13.92,0V389.11c0-18.76.57-37.64-1.3-56.33-6.15-61.51-34-122-82.43-161.57C556.15,134.08,495.78,119,438.8,135,381.67,151,336,195.34,311.09,248.32a258.87,258.87,0,0,0-23.9,94c-1.14,18.08-.7,36.37-.76,54.48-.05,17.22,0,34.44,0,51.66V781.72c0,11.77.4,23.41,2.86,35,6.17,29.13,24,57.87,52.79,68.91,10.15,3.89,20.61,3.9,31.29,3.9,9,0,9-13.92,0-13.92Z" transform="translate(-286.39 -110.53)"/><path class="cls-1" d="M350.89,728.86c.39,12.17,8.15,25.8,21.86,25.69s21.46-13.34,21.86-25.69c.28-8.89-13.52-8.88-13.81,0-.14,4.5-2.33,11.9-8.05,11.88s-7.91-7.35-8.06-11.88c-.28-8.86-14.09-8.9-13.8,0Z" transform="translate(-286.39 -110.53)"/><ellipse class="cls-3" cx="101.31" cy="553.85" rx="7.38" ry="7.8"/><ellipse class="cls-4" cx="101.31" cy="597.63" rx="7.38" ry="7.8"/><ellipse class="cls-3" cx="101.31" cy="531.96" rx="7.38" ry="7.8"/><ellipse class="cls-4" cx="101.31" cy="575.74" rx="7.38" ry="7.8"/></g></svg>
