<svg width="700" height="700" viewBox="0 0 700 700" fill="none" xmlns="http://www.w3.org/2000/svg">
<g clip-path="url(#clip0_3_11)">
<path d="M451 659H565" stroke="#17235B" stroke-width="50"/>
<path d="M497 393H567" stroke="#4AA3EA" stroke-width="30" stroke-linecap="round"/>
<path d="M451.907 480.907L571.904 480.162" stroke="#4AA3EA" stroke-width="30" stroke-linecap="round"/>
<path d="M450.907 568.907L570.904 568.162" stroke="#4AA3EA" stroke-width="30" stroke-linecap="round"/>
<path d="M442 284C428.193 284 417 295.193 417 309C417 322.807 428.193 334 442 334V309V284ZM442 309V334H565V309V284H442V309Z" fill="#17235B"/>
<path d="M634 381V587" stroke="#17235B" stroke-width="50"/>
<path d="M559 309C578.891 309 597.968 316.902 612.033 330.967C626.098 345.032 634 364.109 634 384" stroke="#17235B" stroke-width="50"/>
<path d="M120 659H307" stroke="#17235B" stroke-width="50" stroke-linecap="round"/>
<path d="M121 309H307" stroke="#17235B" stroke-width="50"/>
<path d="M47 381V587" stroke="#17235B" stroke-width="50"/>
<path d="M380 381V587" stroke="#17235B" stroke-width="50"/>
<path d="M47 384C47 364.109 54.9018 345.032 68.967 330.967C83.0322 316.902 102.109 309 122 309" stroke="#17235B" stroke-width="50"/>
<path d="M305 309C324.891 309 343.968 316.902 358.033 330.967C372.098 345.032 380 364.109 380 384" stroke="#17235B" stroke-width="50"/>
<path d="M122 659C102.109 659 83.0322 651.098 68.967 637.033C54.9018 622.968 47 603.891 47 584" stroke="#17235B" stroke-width="50"/>
<path d="M455 659C435.109 659 416.032 651.098 401.967 637.033C387.902 622.968 380 603.891 380 584" stroke="#17235B" stroke-width="50"/>
<path d="M634 584C634 603.891 626.098 622.968 612.033 637.033C597.968 651.098 578.891 659 559 659" stroke="#17235B" stroke-width="50"/>
<path d="M150 205V286" stroke="#17235B" stroke-width="50"/>
<path d="M294.999 204.728L295.999 296.728" stroke="#17235B" stroke-width="50"/>
<path d="M143.311 106.178C145.004 87.6419 153.529 70.3978 167.229 57.7978C180.929 45.1977 198.824 38.1419 217.437 38.0021C236.049 37.8623 254.049 44.6484 267.936 57.0412C281.824 69.434 290.607 86.548 292.578 105.056" stroke="#17235B" stroke-width="50"/>
<path d="M139 230C128.757 230 118.622 227.902 109.221 223.835C99.8198 219.768 91.3514 213.818 84.3379 206.352C77.3244 198.887 71.9145 190.064 68.4418 180.427C64.9691 170.791 63.5071 160.545 64.1461 150.322C64.785 140.098 67.5114 130.114 72.157 120.985C76.8026 111.856 83.269 103.775 91.1575 97.2411C99.046 90.7069 108.189 85.8579 118.024 82.9931C127.858 80.1282 138.175 79.3082 148.339 80.5837" stroke="#17235B" stroke-width="50"/>
<path d="M280.964 80.4318C291.148 79.3342 301.449 80.3344 311.232 83.3707C321.015 86.407 330.072 91.4151 337.845 98.0861C345.618 104.757 351.942 112.95 356.427 122.159C360.913 131.368 363.464 141.398 363.924 151.631C364.384 161.863 362.744 172.082 359.103 181.657C355.462 191.231 349.899 199.958 342.756 207.3C335.613 214.642 327.042 220.442 317.571 224.345C308.101 228.247 297.931 230.168 287.689 229.989" stroke="#17235B" stroke-width="50"/>
<path d="M154.058 405.132L125.132 439.604" stroke="#17235B" stroke-width="30" stroke-linecap="round"/>
<path d="M183.854 440.247L154.928 405.775" stroke="#17235B" stroke-width="30" stroke-linecap="round"/>
<path d="M285.058 405.132L256.132 439.604" stroke="#17235B" stroke-width="30" stroke-linecap="round"/>
<path d="M314.854 440.247L285.928 405.775" stroke="#17235B" stroke-width="30" stroke-linecap="round"/>
<mask id="mask0_3_11" style="mask-type:luminance" maskUnits="userSpaceOnUse" x="147" y="528" width="150" height="55">
<path d="M297 528C297 542.587 289.098 556.576 275.033 566.891C260.968 577.205 241.891 583 222 583C202.109 583 183.032 577.205 168.967 566.891C154.902 556.576 147 542.587 147 528H222H297Z" fill="white"/>
</mask>
<g mask="url(#mask0_3_11)">
<path d="M297 528C297 542.587 289.098 556.576 275.033 566.891C260.968 577.205 241.891 583 222 583C202.109 583 183.032 577.205 168.967 566.891C154.902 556.576 147 542.587 147 528H222H297Z" stroke="#17235B" stroke-width="60"/>
</g>
</g>
<defs>
<clipPath id="clip0_3_11">
<rect width="700" height="700" fill="white"/>
</clipPath>
</defs>
</svg>
