<svg width="700" height="700" viewBox="0 0 700 700" fill="none" xmlns="http://www.w3.org/2000/svg">
<g clip-path="url(#clip0_1_2)">
<path d="M451 659H565" stroke="#17235B" stroke-width="50"/>
<path d="M497 393H567" stroke="#4AA3EA" stroke-width="30" stroke-linecap="round"/>
<path d="M451.907 480.907L571.904 480.162" stroke="#4AA3EA" stroke-width="30" stroke-linecap="round"/>
<path d="M450.907 568.907L570.904 568.162" stroke="#4AA3EA" stroke-width="30" stroke-linecap="round"/>
<path d="M442 284C428.193 284 417 295.193 417 309C417 322.807 428.193 334 442 334V309V284ZM442 309V334H565V309V284H442V309Z" fill="#17235B"/>
<path d="M634 381V587" stroke="#17235B" stroke-width="50"/>
<path d="M559 309C578.891 309 597.968 316.902 612.033 330.967C626.098 345.032 634 364.109 634 384" stroke="#17235B" stroke-width="50"/>
<path d="M120 659H307" stroke="#17235B" stroke-width="50" stroke-linecap="round"/>
<path d="M121 309H307" stroke="#17235B" stroke-width="50"/>
<path d="M47 381V587" stroke="#17235B" stroke-width="50"/>
<path d="M380 381V587" stroke="#17235B" stroke-width="50"/>
<path d="M47 384C47 364.109 54.9018 345.032 68.967 330.967C83.0322 316.902 102.109 309 122 309" stroke="#17235B" stroke-width="50"/>
<path d="M305 309C324.891 309 343.968 316.902 358.033 330.967C372.098 345.032 380 364.109 380 384" stroke="#17235B" stroke-width="50"/>
<path d="M122 659C102.109 659 83.0322 651.098 68.967 637.033C54.9018 622.968 47 603.891 47 584" stroke="#17235B" stroke-width="50"/>
<path d="M455 659C435.109 659 416.032 651.098 401.967 637.033C387.902 622.968 380 603.891 380 584" stroke="#17235B" stroke-width="50"/>
<path d="M634 584C634 603.891 626.098 622.968 612.033 637.033C597.968 651.098 578.891 659 559 659" stroke="#17235B" stroke-width="50"/>
<path d="M149 205V286" stroke="#17235B" stroke-width="50"/>
<path d="M293.999 204.728L294.999 296.728" stroke="#17235B" stroke-width="50"/>
<path d="M142.311 106.178C144.004 87.6419 152.529 70.3978 166.229 57.7978C179.929 45.1977 197.824 38.1419 216.437 38.0021C235.049 37.8623 253.049 44.6484 266.936 57.0412C280.824 69.434 289.607 86.548 291.578 105.056" stroke="#17235B" stroke-width="50"/>
<path d="M138 230C127.757 230 117.622 227.902 108.221 223.835C98.8198 219.768 90.3514 213.818 83.3379 206.352C76.3244 198.887 70.9145 190.064 67.4418 180.427C63.9691 170.791 62.5071 160.545 63.1461 150.322C63.785 140.098 66.5114 130.114 71.157 120.985C75.8026 111.856 82.269 103.775 90.1575 97.2411C98.046 90.7069 107.189 85.8579 117.024 82.9931C126.858 80.1282 137.175 79.3082 147.339 80.5837" stroke="#17235B" stroke-width="50"/>
<path d="M279.964 80.4318C290.148 79.3342 300.449 80.3344 310.232 83.3707C320.015 86.407 329.072 91.4151 336.845 98.0861C344.618 104.757 350.942 112.95 355.427 122.159C359.913 131.368 362.464 141.398 362.924 151.631C363.384 161.863 361.744 172.082 358.103 181.657C354.462 191.231 348.899 199.958 341.756 207.3C334.613 214.642 326.042 220.442 316.571 224.345C307.101 228.247 296.931 230.168 286.689 229.989" stroke="#17235B" stroke-width="50"/>
<path d="M154.058 405.132L125.132 439.604" stroke="#17235B" stroke-width="30" stroke-linecap="round"/>
<path d="M183.854 440.247L154.928 405.775" stroke="#17235B" stroke-width="30" stroke-linecap="round"/>
<path d="M285.058 405.132L256.132 439.604" stroke="#17235B" stroke-width="30" stroke-linecap="round"/>
<path d="M314.854 440.247L285.928 405.775" stroke="#17235B" stroke-width="30" stroke-linecap="round"/>
<mask id="mask0_1_2" style="mask-type:luminance" maskUnits="userSpaceOnUse" x="147" y="528" width="150" height="55">
<path d="M297 528C297 542.587 289.098 556.576 275.033 566.891C260.968 577.205 241.891 583 222 583C202.109 583 183.032 577.205 168.967 566.891C154.902 556.576 147 542.587 147 528H222H297Z" fill="white"/>
</mask>
<g mask="url(#mask0_1_2)">
<path d="M297 528C297 542.587 289.098 556.576 275.033 566.891C260.968 577.205 241.891 583 222 583C202.109 583 183.032 577.205 168.967 566.891C154.902 556.576 147 542.587 147 528H222H297Z" stroke="#17235B" stroke-width="60"/>
</g>
</g>
<defs>
<clipPath id="clip0_1_2">
<rect width="700" height="700" fill="white"/>
</clipPath>
</defs>
</svg>
