<?xml version="1.0" encoding="UTF-8"?>
<svg id="Calque_2" data-name="Calque 2" xmlns="http://www.w3.org/2000/svg" viewBox="0 0 230.78 263.24">
  <defs>
    <style>
      .cls-1 {
        fill: #d042a7;
      }

      .cls-1, .cls-2, .cls-3, .cls-4 {
        stroke-miterlimit: 10;
      }

      .cls-1, .cls-3 {
        stroke-width: 3.81px;
      }

      .cls-1, .cls-3, .cls-4 {
        stroke: #000;
      }

      .cls-2 {
        stroke: #d042a7;
        stroke-width: 15.54px;
      }

      .cls-2, .cls-3, .cls-4 {
        fill: none;
      }

      .cls-4 {
        stroke-width: 4.44px;
      }
    </style>
  </defs>
  <g id="Calque_1-2" data-name="Calque 1">
    <g>
      <g>
        <polyline class="cls-4" points="63.4 196.26 63.4 196.33 63.4 208.46 63.4 237.27 90.57 261.02 142.56 261.02 168.5 237.27 168.5 208.46"/>
        <path class="cls-4" d="M214.25,117.15l-39.59,68.56"/>
        <path class="cls-4" d="M162.44,185.66l-40.39-69.91c3.65-2.1,6.1-6.05,6.1-10.57h76.32"/>
        <polyline class="cls-4" points="156.29 196.33 75.6 196.33 63.4 196.33 63.37 196.33 57.24 185.71 17.5 116.91 17.5 116.9 10.78 105.26 10.82 105.19 10.83 105.18 17.58 93.48 57.31 24.69 63.37 14.19 75.6 14.19 156.29 14.19 168.51 14.19 168.53 14.19 174.59 24.69 214.17 93.24"/>
        <path class="cls-4" d="M162.44,185.66l-40.39-69.91c3.65-2.1,6.1-6.05,6.1-10.57h76.32"/>
        <line class="cls-4" x1="63.39" y1="237.27" x2="168.5" y2="237.27"/>
        <line class="cls-4" x1="115.99" y1="105.18" x2="168.56" y2="14.11"/>
        <line class="cls-4" x1="128.15" y1="105.18" x2="115.99" y2="105.18"/>
        <polyline class="cls-4" points="63.37 14.19 69.45 24.71 109.84 94.62 115.96 105.22 122.05 115.75"/>
        <line class="cls-4" x1="115.99" y1="105.18" x2="63.39" y2="196.26"/>
      </g>
      <g>
        <polyline class="cls-2" points="168.56 14.11 63.39 14.11 10.81 105.18 63.39 196.26"/>
        <line class="cls-2" x1="115.94" y1="105.26" x2="10.8" y2="105.18"/>
      </g>
      <circle class="cls-1" cx="63.39" cy="14.11" r="12.21"/>
      <circle class="cls-1" cx="63.39" cy="196.26" r="12.21"/>
      <path class="cls-3" d="M180.71,196.26c0,6.74-5.47,12.2-12.21,12.2s-12.17-5.42-12.21-12.13v-.07c0-4.54,2.48-8.5,6.15-10.6,1.79-1.03,3.85-1.61,6.06-1.61s4.35.6,6.16,1.66c3.62,2.12,6.05,6.05,6.05,10.55Z"/>
      <circle class="cls-1" cx="168.5" cy="14.11" r="12.21"/>
      <path class="cls-3" d="M228.88,105.18c0,6.74-5.46,12.21-12.21,12.21-.83,0-1.64-.08-2.42-.24-5.58-1.12-9.78-6.06-9.78-11.97s4.16-10.79,9.7-11.94c.81-.17,1.64-.26,2.5-.26,6.75,0,12.21,5.46,12.21,12.2Z"/>
      <circle class="cls-1" cx="14.11" cy="105.18" r="12.21"/>
      <path class="cls-1" d="M128.15,105.18c0,4.52-2.45,8.47-6.1,10.57-1.8,1.04-3.88,1.64-6.1,1.64s-4.28-.59-6.07-1.62c-3.65-2.09-6.11-6.02-6.14-10.52v-.07c0-4.51,2.45-8.45,6.1-10.56,1.8-1.04,3.88-1.64,6.11-1.64s4.33.6,6.13,1.65c3.63,2.11,6.07,6.04,6.07,10.55Z"/>
    </g>
  </g>
</svg>