<svg xml:space="preserve" viewBox="6.48 421.2 1051.92 159.84" version="1.1" xmlns:xlink="http://www.w3.org/1999/xlink" xmlns="http://www.w3.org/2000/svg" style="max-height: 500px" width="1051.92" height="159.84">
<desc>Created with Fabric.js 5.2.4</desc>
<defs>
</defs>
<g id="38b08448-eeb5-40b5-8592-fc1c37606458" transform="matrix(1 0 0 1 540 540)">
</g>
<g id="d1cf8c62-0a9f-4042-a7ff-e387571722f7" transform="matrix(1 0 0 1 540 540)">
<rect height="1080" width="1080" ry="0" rx="0" y="-540" x="-540" style="stroke: none; stroke-width: 1; stroke-dasharray: none; stroke-linecap: butt; stroke-dashoffset: 0; stroke-linejoin: miter; stroke-miterlimit: 4; fill: rgb(255,255,255); fill-rule: nonzero; opacity: 1; visibility: hidden;"/>
</g>
<g transform="matrix(0.63 0 0 0.63 57.82 502.69)">
<path stroke-linecap="round" d="M 179.45 46.58 L 136.07999999999998 46.58 L 136.07999999999998 70.22999999999999 L 174.79 70.22999999999999 L 174.79 81.61999999999999 L 136.07999999999998 81.61999999999999 L 136.07999999999998 120.08999999999999 L 123.94999999999999 120.08999999999999 L 123.94999999999999 34.57 L 179.45 34.57 L 179.45 46.58 Z" transform="translate(-151.7, -77.33)" style="stroke: none; stroke-width: 1; stroke-dasharray: none; stroke-linecap: butt; stroke-dashoffset: 0; stroke-linejoin: miter; stroke-miterlimit: 4; fill: rgb(197,37,143); fill-rule: nonzero; opacity: 1;"/>
</g>
<g transform="matrix(0.63 0 0 0.63 97.68 502.69)">
<path stroke-linecap="round" d="M 254.06 120.08 L 240.83 120.08 L 232.13000000000002 96.56 L 198.32000000000002 96.56 L 189.62000000000003 120.08 L 176.51000000000005 120.08 L 209.34000000000003 34.56999999999999 L 221.10000000000002 34.56999999999999 L 254.06000000000003 120.08 Z M 228.21 85.78 L 215.22 51.35 L 202.36 85.78 L 228.21 85.78 Z" transform="translate(-215.29, -77.32)" style="stroke: none; stroke-width: 1; stroke-dasharray: none; stroke-linecap: butt; stroke-dashoffset: 0; stroke-linejoin: miter; stroke-miterlimit: 4; fill: rgb(197,37,143); fill-rule: nonzero; opacity: 1;"/>
</g>
<g transform="matrix(0.63 0 0 0.63 132.3 502.69)">
<path stroke-linecap="round" d="M 276.85 120.08 L 264.6 120.08 L 264.6 34.57 L 276.85 34.57 L 276.85 120.08 Z" transform="translate(-270.73, -77.32)" style="stroke: none; stroke-width: 1; stroke-dasharray: none; stroke-linecap: butt; stroke-dashoffset: 0; stroke-linejoin: miter; stroke-miterlimit: 4; fill: rgb(197,37,143); fill-rule: nonzero; opacity: 1;"/>
</g>
<g transform="matrix(0.63 0 0 0.63 167.85 502.69)">
<path stroke-linecap="round" d="M 334.31 81.98 C 336.27 83.45 338.11 86.15 339.46 88.35000000000001 L 359.17999999999995 120.08000000000001 L 344.96999999999997 120.08000000000001 L 327.33 90.43 C 324.76 86.02000000000001 322.66999999999996 83.2 316.91999999999996 83.2 L 307.72999999999996 83.2 L 307.72999999999996 120.08000000000001 L 295.47999999999996 120.08000000000001 L 295.47999999999996 34.57 L 325.85999999999996 34.57 C 342.15 34.57 354.28 41.92 354.28 59.2 C 354.28 71.08 347.04999999999995 79.54 334.30999999999995 81.99000000000001 Z M 325.86 46.45 L 307.73 46.45 L 307.73 72.42 L 325.86 72.42 C 334.93 72.42 342.03000000000003 69.73 342.03000000000003 59.31 C 342.03000000000003 48.89 334.68 46.45 325.86 46.45 Z" transform="translate(-327.33, -77.33)" style="stroke: none; stroke-width: 1; stroke-dasharray: none; stroke-linecap: butt; stroke-dashoffset: 0; stroke-linejoin: miter; stroke-miterlimit: 4; fill: rgb(197,37,143); fill-rule: nonzero; opacity: 1;"/>
</g>
<g transform="matrix(0.63 0 0 0.63 237.11 502.69)">
<path stroke-linecap="round" d="M 430.6 120.08 L 406.34000000000003 120.08 L 406.34000000000003 34.57 L 430.6 34.57 C 464.17 34.57 469.44000000000005 46.58 469.44000000000005 77.33 C 469.44000000000005 108.08 464.1700000000001 120.09 430.6 120.09 Z M 454.12 53.67999999999999 C 450.93 48.529999999999994 444.69 46.56999999999999 433.05 46.56999999999999 L 418.59000000000003 46.56999999999999 L 418.59000000000003 107.94999999999999 L 433.05 107.94999999999999 C 444.81 107.94999999999999 451.06 105.99 454.24 100.6 C 456.94 95.94 457.18 88.47 457.18 77.44999999999999 C 457.18 66.42999999999998 456.94 58.459999999999994 454.12 53.67999999999999 Z" transform="translate(-437.89, -77.33)" style="stroke: none; stroke-width: 1; stroke-dasharray: none; stroke-linecap: butt; stroke-dashoffset: 0; stroke-linejoin: miter; stroke-miterlimit: 4; fill: rgb(0,0,0); fill-rule: nonzero; opacity: 1;"/>
</g>
<g transform="matrix(0.63 0 0 0.63 283.42 502.69)">
<path stroke-linecap="round" d="M 550.55 120.08 L 537.3199999999999 120.08 L 528.6199999999999 96.56 L 494.8099999999999 96.56 L 486.1099999999999 120.08 L 472.9999999999999 120.08 L 505.82999999999987 34.56999999999999 L 517.5899999999999 34.56999999999999 L 550.55 120.08 Z M 524.6999999999999 85.78 L 511.7099999999999 51.35 L 498.8499999999999 85.78 L 524.6999999999999 85.78 Z" transform="translate(-511.77, -77.32)" style="stroke: none; stroke-width: 1; stroke-dasharray: none; stroke-linecap: butt; stroke-dashoffset: 0; stroke-linejoin: miter; stroke-miterlimit: 4; fill: rgb(0,0,0); fill-rule: nonzero; opacity: 1;"/>
</g>
<g transform="matrix(0.63 0 0 0.63 323.95 502.69)">
<path stroke-linecap="round" d="M 608.37 46.58 L 582.64 46.58 L 582.64 120.08 L 570.39 120.08 L 570.39 46.58 L 544.66 46.58 L 544.66 34.57 L 608.37 34.57 L 608.37 46.58 Z" transform="translate(-576.51, -77.32)" style="stroke: none; stroke-width: 1; stroke-dasharray: none; stroke-linecap: butt; stroke-dashoffset: 0; stroke-linejoin: miter; stroke-miterlimit: 4; fill: rgb(0,0,0); fill-rule: nonzero; opacity: 1;"/>
</g>
<g transform="matrix(0.63 0 0 0.63 364.55 502.69)">
<path stroke-linecap="round" d="M 680.05 120.08 L 666.8199999999999 120.08 L 658.1199999999999 96.56 L 624.31 96.56 L 615.6099999999999 120.08 L 602.4999999999999 120.08 L 635.3299999999999 34.56999999999999 L 647.0899999999999 34.56999999999999 L 680.05 120.08 Z M 654.1999999999999 85.78 L 641.2099999999999 51.35 L 628.3499999999999 85.78 L 654.1999999999999 85.78 Z" transform="translate(-641.27, -77.32)" style="stroke: none; stroke-width: 1; stroke-dasharray: none; stroke-linecap: butt; stroke-dashoffset: 0; stroke-linejoin: miter; stroke-miterlimit: 4; fill: rgb(0,0,0); fill-rule: nonzero; opacity: 1;"/>
</g>
<g transform="matrix(0.63 0 0 0.63 421.34 502.69)">
<path stroke-linecap="round" d="M 738.24 120.08 L 725.99 120.08 L 725.99 34.57 L 738.24 34.57 L 738.24 120.08 Z" transform="translate(-732.12, -77.32)" style="stroke: none; stroke-width: 1; stroke-dasharray: none; stroke-linecap: butt; stroke-dashoffset: 0; stroke-linejoin: miter; stroke-miterlimit: 4; fill: rgb(197,37,143); fill-rule: nonzero; opacity: 1;"/>
</g>
<g transform="matrix(0.63 0 0 0.63 456 502.69)">
<path stroke-linecap="round" d="M 817.75 120.08 L 807.21 120.08 L 769.11 59.19 L 769.11 120.08 L 756.86 120.08 L 756.86 34.57 L 767.52 34.57 L 805.5 95.46000000000001 L 805.5 34.57 L 817.75 34.57 L 817.75 120.08 Z" transform="translate(-787.31, -77.32)" style="stroke: none; stroke-width: 1; stroke-dasharray: none; stroke-linecap: butt; stroke-dashoffset: 0; stroke-linejoin: miter; stroke-miterlimit: 4; fill: rgb(197,37,143); fill-rule: nonzero; opacity: 1;"/>
</g>
<g transform="matrix(0.63 0 0 0.63 505.2 502.69)">
<path stroke-linecap="round" d="M 896.29 120.08 L 885.75 120.08 L 847.65 59.19 L 847.65 120.08 L 835.4 120.08 L 835.4 34.57 L 846.06 34.57 L 884.04 95.46000000000001 L 884.04 34.57 L 896.29 34.57 L 896.29 120.08 Z" transform="translate(-865.85, -77.32)" style="stroke: none; stroke-width: 1; stroke-dasharray: none; stroke-linecap: butt; stroke-dashoffset: 0; stroke-linejoin: miter; stroke-miterlimit: 4; fill: rgb(197,37,143); fill-rule: nonzero; opacity: 1;"/>
</g>
<g transform="matrix(0.63 0 0 0.63 554.91 502.7)">
<path stroke-linecap="round" d="M 945.17 121.07 C 919.4399999999999 121.07 910.25 99.86999999999999 910.25 77.32999999999998 C 910.25 54.78999999999998 919.44 33.58999999999998 945.17 33.58999999999998 C 970.8999999999999 33.58999999999998 980.0899999999999 54.65999999999998 980.0899999999999 77.32999999999998 C 980.0899999999999 99.99999999999999 970.78 121.07 945.17 121.07 Z M 945.17 45.599999999999994 C 926.3 45.599999999999994 922.5 62.629999999999995 922.5 77.33 C 922.5 92.03 926.3 109.06 945.17 109.06 C 964.04 109.06 967.7099999999999 92.03 967.7099999999999 77.33 C 967.7099999999999 62.629999999999995 964.03 45.599999999999994 945.17 45.599999999999994 Z" transform="translate(-945.17, -77.33)" style="stroke: none; stroke-width: 1; stroke-dasharray: none; stroke-linecap: butt; stroke-dashoffset: 0; stroke-linejoin: miter; stroke-miterlimit: 4; fill: rgb(197,37,143); fill-rule: nonzero; opacity: 1;"/>
</g>
<g transform="matrix(0.63 0 0 0.63 601.42 502.69)">
<path stroke-linecap="round" d="M 1054.33 34.57 L 1025.4199999999998 120.08000000000001 L 1013.4099999999999 120.08000000000001 L 984.4999999999999 34.57000000000001 L 997.3599999999999 34.57000000000001 L 1019.4099999999999 101.83000000000001 L 1041.4599999999998 34.57000000000001 L 1054.3199999999997 34.57000000000001 Z" transform="translate(-1019.41, -77.33)" style="stroke: none; stroke-width: 1; stroke-dasharray: none; stroke-linecap: butt; stroke-dashoffset: 0; stroke-linejoin: miter; stroke-miterlimit: 4; fill: rgb(197,37,143); fill-rule: nonzero; opacity: 1;"/>
</g>
<g transform="matrix(0.63 0 0 0.63 643.76 502.69)">
<path stroke-linecap="round" d="M 1125.76 120.08 L 1112.53 120.08 L 1103.83 96.56 L 1070.02 96.56 L 1061.32 120.08 L 1048.21 120.08 L 1081.04 34.56999999999999 L 1092.8 34.56999999999999 L 1125.76 120.08 Z M 1099.91 85.78 L 1086.92 51.35 L 1074.0600000000002 85.78 L 1099.91 85.78 Z" transform="translate(-1086.99, -77.32)" style="stroke: none; stroke-width: 1; stroke-dasharray: none; stroke-linecap: butt; stroke-dashoffset: 0; stroke-linejoin: miter; stroke-miterlimit: 4; fill: rgb(197,37,143); fill-rule: nonzero; opacity: 1;"/>
</g>
<g transform="matrix(0.63 0 0 0.63 684.29 502.69)">
<path stroke-linecap="round" d="M 1183.58 46.58 L 1157.85 46.58 L 1157.85 120.08 L 1145.6 120.08 L 1145.6 46.58 L 1119.87 46.58 L 1119.87 34.57 L 1183.58 34.57 L 1183.58 46.58 Z" transform="translate(-1151.72, -77.32)" style="stroke: none; stroke-width: 1; stroke-dasharray: none; stroke-linecap: butt; stroke-dashoffset: 0; stroke-linejoin: miter; stroke-miterlimit: 4; fill: rgb(197,37,143); fill-rule: nonzero; opacity: 1;"/>
</g>
<g transform="matrix(0.63 0 0 0.63 716.13 502.69)">
<path stroke-linecap="round" d="M 1208.82 120.08 L 1196.57 120.08 L 1196.57 34.57 L 1208.82 34.57 L 1208.82 120.08 Z" transform="translate(-1202.69, -77.32)" style="stroke: none; stroke-width: 1; stroke-dasharray: none; stroke-linecap: butt; stroke-dashoffset: 0; stroke-linejoin: miter; stroke-miterlimit: 4; fill: rgb(197,37,143); fill-rule: nonzero; opacity: 1;"/>
</g>
<g transform="matrix(0.63 0 0 0.63 751.31 502.7)">
<path stroke-linecap="round" d="M 1258.69 121.07 C 1232.96 121.07 1223.77 99.86999999999999 1223.77 77.32999999999998 C 1223.77 54.78999999999998 1232.96 33.58999999999998 1258.69 33.58999999999998 C 1284.42 33.58999999999998 1293.6100000000001 54.65999999999998 1293.6100000000001 77.32999999999998 C 1293.6100000000001 99.99999999999999 1284.3000000000002 121.07 1258.69 121.07 Z M 1258.69 45.599999999999994 C 1239.8200000000002 45.599999999999994 1236.02 62.629999999999995 1236.02 77.33 C 1236.02 92.03 1239.82 109.06 1258.69 109.06 C 1277.5600000000002 109.06 1281.23 92.03 1281.23 77.33 C 1281.23 62.629999999999995 1277.55 45.599999999999994 1258.69 45.599999999999994 Z" transform="translate(-1258.69, -77.33)" style="stroke: none; stroke-width: 1; stroke-dasharray: none; stroke-linecap: butt; stroke-dashoffset: 0; stroke-linejoin: miter; stroke-miterlimit: 4; fill: rgb(197,37,143); fill-rule: nonzero; opacity: 1;"/>
</g>
<g transform="matrix(0.63 0 0 0.63 800.99 502.69)">
<path stroke-linecap="round" d="M 1368.46 120.08 L 1357.92 120.08 L 1319.8200000000002 59.19 L 1319.8200000000002 120.08 L 1307.5700000000002 120.08 L 1307.5700000000002 34.57 L 1318.2300000000002 34.57 L 1356.2100000000003 95.46000000000001 L 1356.2100000000003 34.57 L 1368.4600000000003 34.57 L 1368.4600000000003 120.08 Z" transform="translate(-1338.02, -77.32)" style="stroke: none; stroke-width: 1; stroke-dasharray: none; stroke-linecap: butt; stroke-dashoffset: 0; stroke-linejoin: miter; stroke-miterlimit: 4; fill: rgb(197,37,143); fill-rule: nonzero; opacity: 1;"/>
</g>
<g transform="matrix(0.63 0 0 0.63 849.05 502.78)">
<path stroke-linecap="round" d="M 1416 121.31 C 1398.48 121.31 1386.35 113.84 1382.31 97.3 L 1393.95 95.09 C 1396.77 105.87 1405.71 109.67 1416 109.67 C 1424.58 109.67 1434.87 105.14 1434.87 95.09 C 1434.87 74.26 1385.25 87.25 1385.25 56.74 C 1385.25 41.06 1399.34 33.59 1413.55 33.59 C 1427.76 33.59 1437.81 38.86 1444.18 51.72 L 1433.64 56.5 C 1429.23 48.29 1423.1000000000001 45.11 1413.5500000000002 45.11 C 1406.8100000000002 45.11 1397.38 47.93 1397.38 56.75 C 1397.38 74.64 1447.1200000000001 63.24 1447.1200000000001 95.1 C 1447.1200000000001 112.00999999999999 1431.8100000000002 121.32 1416.0000000000002 121.32 Z" transform="translate(-1414.72, -77.45)" style="stroke: none; stroke-width: 1; stroke-dasharray: none; stroke-linecap: butt; stroke-dashoffset: 0; stroke-linejoin: miter; stroke-miterlimit: 4; fill: rgb(197,37,143); fill-rule: nonzero; opacity: 1;"/>
</g>
<g transform="matrix(0.63 0 0 0.63 920 502.69)">
<path stroke-linecap="round" d="M 1559.83 120.08 L 1547.58 120.08 L 1547.58 81.72999999999999 L 1508.3799999999999 81.72999999999999 L 1508.3799999999999 120.07999999999998 L 1496.1299999999999 120.07999999999998 L 1496.1299999999999 34.57 L 1508.3799999999999 34.57 L 1508.3799999999999 70.22 L 1547.58 70.22 L 1547.58 34.57 L 1559.83 34.57 L 1559.83 120.08 Z" transform="translate(-1527.98, -77.32)" style="stroke: none; stroke-width: 1; stroke-dasharray: none; stroke-linecap: butt; stroke-dashoffset: 0; stroke-linejoin: miter; stroke-miterlimit: 4; fill: rgb(0,0,0); fill-rule: nonzero; opacity: 1;"/>
</g>
<g transform="matrix(0.63 0 0 0.63 970.23 503)">
<path stroke-linecap="round" d="M 1639.95 84.31 C 1639.95 106.12 1631.6200000000001 121.06 1608.22 121.06 C 1584.82 121.06 1576.3700000000001 105.87 1576.3700000000001 84.31 L 1576.3700000000001 34.57 L 1588.6200000000001 34.57 L 1588.6200000000001 83.7 C 1588.6200000000001 97.05 1591.5600000000002 109.18 1608.1000000000001 109.18 C 1624.64 109.18 1627.8200000000002 97.30000000000001 1627.8200000000002 83.7 L 1627.8200000000002 34.57 L 1639.9500000000003 34.57 L 1639.9500000000003 84.31 Z" transform="translate(-1608.16, -77.81)" style="stroke: none; stroke-width: 1; stroke-dasharray: none; stroke-linecap: butt; stroke-dashoffset: 0; stroke-linejoin: miter; stroke-miterlimit: 4; fill: rgb(0,0,0); fill-rule: nonzero; opacity: 1;"/>
</g>
<g transform="matrix(0.63 0 0 0.63 1020.06 502.69)">
<path stroke-linecap="round" d="M 1689.08 120.08 L 1656.61 120.08 L 1656.61 34.57 L 1686.99 34.57 C 1703.04 34.57 1715.66 41.06 1715.66 58.46 C 1715.66 64.83 1712.96 71.32 1706.47 75.49000000000001 C 1715.17 79.41000000000001 1718.84 87.25000000000001 1718.84 95.21000000000001 C 1718.84 113.46000000000001 1705.85 120.08000000000001 1689.07 120.08000000000001 Z M 1687.12 46.2 L 1668.87 46.2 L 1668.87 71.31 L 1687.4899999999998 71.31 C 1696.3099999999997 71.31 1703.6599999999999 69.10000000000001 1703.6599999999999 58.57 C 1703.6599999999999 48.03999999999999 1695.6999999999998 46.2 1687.12 46.2 Z M 1689.08 81.97 L 1668.87 81.97 L 1668.87 108.43 L 1689.08 108.43 C 1698.1499999999999 108.43 1706.6 106.59 1706.6 95.32000000000001 C 1706.6 84.05000000000001 1698.27 81.97000000000001 1689.08 81.97000000000001 Z" transform="translate(-1687.72, -77.33)" style="stroke: none; stroke-width: 1; stroke-dasharray: none; stroke-linecap: butt; stroke-dashoffset: 0; stroke-linejoin: miter; stroke-miterlimit: 4; fill: rgb(0,0,0); fill-rule: nonzero; opacity: 1;"/>
</g>
</svg>