<svg xmlns="http://www.w3.org/2000/svg" fill="none" viewBox="110.30799999999999 14.18791946308725 397.21000000000004 116.54362416107382" style="max-height: 500px" width="397.21000000000004" height="116.54362416107382">
<g clip-path="url(#clip0_402_41755)">
<path fill="#231F20" d="M15.2 119.92V65.92L13.84 67.28H48.57C51.5442 67.2615 54.4643 68.0755 57 69.63C64.31 74.15 67.63 83.15 67.66 91.42C67.66 95.78 67.66 100.13 67.66 104.49V121.84C67.66 123.61 67.66 125.38 67.52 127.14C67.1093 131.795 65.5193 136.269 62.9 140.14C60.6511 143.545 57.355 146.125 53.51 147.49C51.5648 148.07 49.5385 148.33 47.51 148.26H15C14.6367 148.26 14.2882 148.404 14.0313 148.661C13.7743 148.918 13.63 149.267 13.63 149.63C13.63 149.993 13.7743 150.342 14.0313 150.599C14.2882 150.856 14.6367 151 15 151H45.47C46.71 151 47.94 151 49.18 151C53.4965 150.84 57.6315 149.222 60.91 146.41C67.45 140.97 70.4 132.21 70.4 123.91V92.64C70.4 85.16 68.62 77.83 63.76 71.98C61.0636 68.6385 57.3882 66.2255 53.25 65.08C51.2824 64.6357 49.2661 64.4441 47.25 64.51H13.84C13.4801 64.5126 13.1357 64.6567 12.8812 64.9112C12.6268 65.1657 12.4826 65.5101 12.48 65.87V119.92C12.5092 120.259 12.6646 120.575 12.9155 120.806C13.1664 121.036 13.4945 121.163 13.835 121.163C14.1755 121.163 14.5037 121.036 14.7546 120.806C15.0055 120.575 15.1608 120.259 15.19 119.92H15.2Z"/>
<path fill="#C52790" d="M21.11 98.75V85.37L21 64.15V59.23L19.65 60.57H48.95C53.02 60.57 57.35 60.13 61.13 61.93C69.37 65.84 73.28 75.44 73.31 84.12C73.31 87.95 73.31 91.78 73.31 95.62V113.25C73.31 114.48 73.31 115.7 73.31 116.94C73.2541 121.843 72.0339 126.662 69.75 131C67.8608 134.808 64.8533 137.948 61.13 140C59.1076 140.97 56.8818 141.44 54.64 141.37H23.06C22.7046 141.37 22.3638 141.511 22.1125 141.762C21.8612 142.014 21.72 142.355 21.72 142.71C21.72 143.065 21.8612 143.406 22.1125 143.658C22.3638 143.909 22.7046 144.05 23.06 144.05H52.84C54.293 144.123 55.7491 144.107 57.2 144C61.3808 143.355 65.2027 141.263 68 138.09C73.56 132.09 75.95 123.84 75.95 115.8V84.89C75.95 77.14 73.63 69.27 68.04 63.66C65.1063 60.6057 61.2332 58.6234 57.04 58.03C55.6141 57.8966 54.1813 57.8532 52.75 57.9H19.64C19.2854 57.9026 18.9461 58.0446 18.6954 58.2954C18.4446 58.5461 18.3026 58.8854 18.3 59.24L18.35 72.61L18.42 93.83V98.76C18.42 99.1154 18.5612 99.4562 18.8125 99.7075C19.0638 99.9588 19.4046 100.1 19.76 100.1C20.1154 100.1 20.4562 99.9588 20.7075 99.7075C20.9588 99.4562 21.1 99.1154 21.1 98.76L21.11 98.75Z"/>
<path fill="#C5268F" d="M8.84999 41.59C9.18999 25.4 18.58 8.51 34.85 3.84C39.2069 2.66578 43.7572 2.39093 48.2237 3.0322C52.6903 3.67347 56.9795 5.21743 60.83 7.57C64.8372 10.0915 68.2959 13.3937 71 17.28C73.9787 21.3098 76.3381 25.7624 78 30.49C79.3572 34.3471 80.07 38.4013 80.11 42.49V90.37C80.11 98.05 79.98 105.75 80.11 113.44V113.8C80.11 114.155 80.2512 114.496 80.5025 114.748C80.7538 114.999 81.0946 115.14 81.45 115.14C81.8054 115.14 82.1462 114.999 82.3975 114.748C82.6488 114.496 82.79 114.155 82.79 113.8V45.5C82.9057 41.3808 82.5127 37.263 81.62 33.24C80.2895 28.099 78.1385 23.2061 75.25 18.75C72.7144 14.5736 69.4925 10.8548 65.72 7.75C61.9091 4.7706 57.5429 2.58002 52.8763 1.30606C48.2098 0.0321097 43.3362 -0.299699 38.54 0.329997C21.43 2.73 9.38999 18.28 6.79999 34.65C6.4384 36.9469 6.23127 39.2654 6.17999 41.59C6.17999 41.9454 6.32117 42.2862 6.57247 42.5375C6.82377 42.7888 7.1646 42.93 7.51999 42.93C7.87538 42.93 8.21622 42.7888 8.46752 42.5375C8.71881 42.2862 8.85999 41.9454 8.85999 41.59H8.84999Z"/>
<path fill="#C52790" d="M8.84 42.44V41.52C8.84 41.344 8.80534 41.1698 8.738 41.0072C8.67066 40.8446 8.57196 40.6969 8.44753 40.5725C8.3231 40.448 8.17538 40.3493 8.0128 40.282C7.85022 40.2147 7.67598 40.18 7.5 40.18C7.32403 40.18 7.14978 40.2147 6.98721 40.282C6.82463 40.3493 6.67691 40.448 6.55248 40.5725C6.42805 40.6969 6.32935 40.8446 6.26201 41.0072C6.19466 41.1698 6.16 41.344 6.16 41.52V42.44C6.16 42.7954 6.30118 43.1362 6.55248 43.3875C6.80378 43.6388 7.14461 43.78 7.5 43.78C7.85539 43.78 8.19623 43.6388 8.44753 43.3875C8.69883 43.1362 8.84 42.7954 8.84 42.44Z"/>
<path fill="#C52790" d="M23.06 141.44C20.8429 141.613 18.6212 141.17 16.64 140.16C14.062 138.577 12.0228 136.252 10.79 133.49C9.4076 130.402 8.741 127.042 8.83999 123.66V56.54C8.83999 52.2 8.98999 47.83 8.83999 43.54V43.3C8.83999 42.9446 8.69881 42.6038 8.44751 42.3525C8.19621 42.1012 7.85538 41.96 7.49999 41.96C7.1446 41.96 6.80376 42.1012 6.55246 42.3525C6.30116 42.6038 6.15999 42.9446 6.15999 43.3V123.3C6.07962 126.275 6.48149 129.243 7.34999 132.09C9.28999 137.91 13.86 143.51 20.35 144.09C21.25 144.17 22.17 144.09 23.08 144.09C23.4354 144.09 23.7762 143.949 24.0275 143.698C24.2788 143.446 24.42 143.105 24.42 142.75C24.42 142.395 24.2788 142.054 24.0275 141.802C23.7762 141.551 23.4354 141.41 23.08 141.41L23.06 141.44Z"/>
<path fill="#231F20" d="M16.86 148.29C14.9385 148.435 13.0083 148.166 11.2 147.5C8.84114 146.376 6.8757 144.567 5.56 142.31C3.59872 138.946 2.60871 135.103 2.7 131.21V56.37C2.7 50.14 2.51 43.86 3.87 37.74C6.27 26.8 12.68 16.5 22.45 10.74C27.0397 8.00389 32.2453 6.46959 37.5853 6.27907C42.9252 6.08854 48.227 7.24794 53 9.65C63 14.78 70 24.65 72.9 35.33C75.16 43.55 74.61 52.14 74.61 60.57V63.31C74.61 63.668 74.7522 64.0114 75.0054 64.2646C75.2586 64.5178 75.602 64.66 75.96 64.66C76.318 64.66 76.6614 64.5178 76.9146 64.2646C77.1678 64.0114 77.31 63.668 77.31 63.31V54C77.4085 50.3579 77.3217 46.7132 77.05 43.08C75.86 31.16 70.46 19.43 61.05 11.76C56.7408 8.14355 51.6234 5.61911 46.1313 4.40058C40.6392 3.18205 34.9343 3.30534 29.5 4.76C18.43 7.87 9.57 16.46 4.75 26.76C2.09224 32.4751 0.531847 38.6387 0.149997 44.93C-0.0700032 48.43 -3.18233e-06 52 -3.18233e-06 55.49C-3.18233e-06 58.82 -3.18233e-06 62.16 -3.18233e-06 65.49V130.08C-0.0568238 132.356 0.127537 134.632 0.549997 136.87C1.75 142.51 5.2 148.08 10.78 150.22C12.7379 150.851 14.7969 151.109 16.85 150.98C17.208 150.98 17.5514 150.838 17.8046 150.585C18.0578 150.331 18.2 149.988 18.2 149.63C18.2 149.272 18.0578 148.929 17.8046 148.675C17.5514 148.422 17.208 148.28 16.85 148.28L16.86 148.29Z"/>
<path fill="#231F20" d="M12.5 119.85C12.58 122.21 14.08 124.85 16.74 124.85C19.4 124.85 20.9 122.26 20.97 119.85C21.03 118.12 18.35 118.13 18.3 119.85C18.3 120.72 17.85 122.15 16.74 122.15C15.63 122.15 15.2 120.72 15.18 119.85C15.12 118.13 12.44 118.12 12.5 119.85Z"/>
<path stroke-miterlimit="10" stroke-width="0.93" stroke="#C52790" fill="#C52790" d="M19.63 108.86C20.4198 108.86 21.06 108.184 21.06 107.35C21.06 106.516 20.4198 105.84 19.63 105.84C18.8402 105.84 18.2 106.516 18.2 107.35C18.2 108.184 18.8402 108.86 19.63 108.86Z"/>
<path stroke-miterlimit="10" stroke-width="0.93" stroke="#231F20" fill="#231F20" d="M19.63 117.34C20.4198 117.34 21.06 116.664 21.06 115.83C21.06 114.996 20.4198 114.32 19.63 114.32C18.8402 114.32 18.2 114.996 18.2 115.83C18.2 116.664 18.8402 117.34 19.63 117.34Z"/>
<path stroke-miterlimit="10" stroke-width="0.93" stroke="#C52790" fill="#C52790" d="M19.63 104.62C20.4198 104.62 21.06 103.944 21.06 103.11C21.06 102.276 20.4198 101.6 19.63 101.6C18.8402 101.6 18.2 102.276 18.2 103.11C18.2 103.944 18.8402 104.62 19.63 104.62Z"/>
<path stroke-miterlimit="10" stroke-width="0.93" stroke="#231F20" fill="#231F20" d="M19.63 113.1C20.4198 113.1 21.06 112.424 21.06 111.59C21.06 110.756 20.4198 110.08 19.63 110.08C18.8402 110.08 18.2 110.756 18.2 111.59C18.2 112.424 18.8402 113.1 19.63 113.1Z"/>
<path fill="#C5268F" d="M139.39 34.26H123.58V41.56H137.66V47.08H123.58V61.08H117.74V28.46H139.39V34.26Z"/>
<path fill="#C5268F" d="M168.53 61.11H162.17L159 52.6H147.5L144.41 61.11H138.05L150.58 28.46H155.87L168.53 61.11ZM157.16 47.45L153.28 36.93L149.45 47.45H157.16Z"/>
<path fill="#C5268F" d="M178 61.11H172.11V28.46H178V61.11Z"/>
<path fill="#C5268F" d="M200.84 47C201.478 47.5728 202.016 48.2489 202.43 49L210.1 61.11H203.27L196.63 50C195.63 48.32 195.09 47.57 192.98 47.57H190.64V61.11H184.75V28.46H196.54C202.85 28.46 207.71 31.41 207.71 38.19C207.741 40.2217 207.077 42.2031 205.827 43.8055C204.578 45.4078 202.818 46.535 200.84 47ZM196.58 34.14H190.64V42.4H196.58C199.53 42.4 201.82 41.61 201.82 38.19C201.82 34.77 199.44 34.12 196.58 34.12V34.14Z"/>
<path stroke="white" fill="#010101" d="M227.28 61.11V61.61H227.78H237C243.375 61.61 247.4 60.5653 249.788 57.8234C252.158 55.1028 252.79 50.8417 252.79 44.79C252.79 38.7385 252.16 34.475 249.792 31.7519C247.406 29.0072 243.38 27.96 237 27.96H227.78H227.28V28.46V61.11ZM238.31 54.81H234.18V34.76H238.31C242.029 34.76 243.855 35.2881 244.815 36.6632L244.931 36.8572C245.3 37.4712 245.55 38.302 245.704 39.5785C245.857 40.8553 245.91 42.5371 245.91 44.83C245.91 47.1234 245.86 48.7578 245.713 49.9885C245.568 51.2111 245.332 52.0026 244.978 52.6273C244.031 54.1887 242.223 54.81 238.31 54.81Z"/>
<path stroke="white" fill="#010101" d="M283.8 61.61H284.53L284.266 60.9296L271.636 28.2796L271.513 27.96H271.17H265.89H265.546L265.423 28.2807L252.883 60.9307L252.622 61.61H253.35H259.71H260.06L260.18 61.2806L263.15 53.1H273.961L276.971 61.2826L277.091 61.61H277.44H283.8ZM265.434 46.95L268.553 38.3832L271.713 46.95H265.434Z"/>
<path stroke="white" fill="#010101" d="M306.2 34.76H306.7V34.26V28.46V27.96H306.2H281.51H281.01V28.46V34.26V34.76H281.51H290.41V61.11V61.61H290.91H296.8H297.3V61.11V34.76H306.2Z"/>
<path stroke="white" fill="#010101" d="M334.35 61.61H335.08L334.816 60.9296L322.186 28.2796L322.063 27.96H321.72H316.44H316.096L315.973 28.2808L303.443 60.9308L303.183 61.61H303.91H310.27H310.621L310.74 61.2802L313.701 53.1H324.521L327.531 61.2826L327.651 61.61H328H334.35ZM315.995 46.95L319.122 38.3815L322.283 46.95H315.995Z"/>
<path fill="#C5268F" d="M123.77 117.22H117.88V84.58H123.77V117.22Z"/>
<path fill="#C5268F" d="M154.22 117.22H149.4L136.4 96.79V117.22H130.51V84.58H135.38L148.38 105.02V84.58H154.23L154.22 117.22Z"/>
<path fill="#C5268F" d="M184.52 117.22H179.7L166.75 96.79V117.22H160.85V84.58H165.72L178.67 105V84.58H184.52V117.22Z"/>
<path fill="#C5268F" d="M203.27 117.6C193.45 117.6 189.75 109.6 189.75 100.9C189.75 92.2 193.45 84.21 203.27 84.21C213.09 84.21 216.79 92.21 216.79 100.9C216.79 109.59 213.09 117.6 203.27 117.6ZM203.27 90.01C196.86 90.01 195.65 95.81 195.65 100.9C195.65 105.99 196.86 111.8 203.27 111.8C209.68 111.8 210.85 106 210.85 100.9C210.85 95.8 209.72 90 203.27 90V90.01Z"/>
<path fill="#C5268F" d="M246 84.58L235 117.22H229.39L218.39 84.58H224.56L232.18 108.34L239.85 84.58H246Z"/>
<path fill="#C5268F" d="M273.74 117.22H267.39L264.25 108.71H252.75L249.66 117.22H243.3L255.83 84.58H261.12L273.74 117.22ZM262.38 103.57L258.5 93.05L254.66 103.57H262.38Z"/>
<path fill="#C5268F" d="M296.15 90.38H286.74V117.22H280.85V90.38H271.45V84.58H296.15V90.38Z"/>
<path fill="#C5268F" d="M306.85 117.22H301V84.58H306.89L306.85 117.22Z"/>
<path fill="#C5268F" d="M325.75 117.6C315.92 117.6 312.23 109.6 312.23 100.9C312.23 92.2 315.92 84.21 325.75 84.21C335.58 84.21 339.26 92.21 339.26 100.9C339.26 109.59 335.57 117.6 325.75 117.6ZM325.75 90.01C319.34 90.01 318.12 95.81 318.12 100.9C318.12 105.99 319.34 111.8 325.75 111.8C332.16 111.8 333.32 106 333.32 100.9C333.32 95.8 332.2 90 325.75 90V90.01Z"/>
<path fill="#C5268F" d="M368.16 117.22H363.34L350.39 96.79V117.22H344.5V84.58H349.36L362.36 105.02V84.58H368.2L368.16 117.22Z"/>
<path fill="#C5268F" d="M386.4 117.69C379.52 117.69 374.94 114.61 373.3 108.06L378.87 106.98C379.87 110.63 382.7 112.08 386.4 112.08C389.16 112.08 392.57 110.68 392.57 107.4C392.57 100.67 374.38 105.11 374.38 93.4C374.38 87.23 379.94 84.24 385.46 84.24C391.26 84.24 394.96 86.39 397.46 91.49L392.36 93.82C390.82 90.92 388.86 89.71 385.44 89.71C383.34 89.71 380.25 90.64 380.25 93.4C380.25 99.11 398.44 95.4 398.44 107.4C398.46 114 392.48 117.69 386.4 117.69Z"/>
<path stroke="white" fill="#010101" d="M442.09 117.72H442.59V117.22V84.58V84.08H442.09H436.2H435.7V84.58V97.18H423.75V84.58V84.08H423.25H417.35H416.85V84.58V117.22V117.72H417.35H423.25H423.75V117.22V103.72H435.7V117.22V117.72H436.2H442.09Z"/>
<path stroke="white" fill="#010101" d="M448.3 84.08H447.8V84.58V103.66C447.8 107.881 448.664 111.498 450.737 114.068C452.826 116.657 456.074 118.1 460.65 118.1C465.225 118.1 468.473 116.668 470.563 114.083C472.636 111.518 473.5 107.9 473.5 103.66V84.58V84.08H473H467.15H466.65V84.58V103.38C466.65 105.708 466.396 107.714 465.535 109.13C464.707 110.492 463.265 111.39 460.65 111.39C458.042 111.39 456.597 110.463 455.766 109.08C454.903 107.644 454.65 105.636 454.65 103.38V84.58V84.08H454.15H448.3Z"/>
<path stroke="white" fill="#010101" d="M478.68 117.22V117.72H479.18H491.76C495.065 117.72 498.075 117.059 500.278 115.421C502.505 113.767 503.837 111.168 503.87 107.461C503.926 105.904 503.562 104.36 502.816 102.992C502.177 101.819 501.277 100.812 500.19 100.046C500.91 99.3443 501.497 98.5156 501.921 97.5995C502.438 96.4803 502.697 95.2593 502.68 94.0264C502.679 90.4773 501.381 87.9582 499.222 86.3433C497.086 84.7457 494.169 84.08 491 84.08H479.18H478.68V84.58V117.22ZM485.56 97.6V90.65H491.06C492.45 90.65 493.655 90.794 494.504 91.2863C494.917 91.5256 495.245 91.8471 495.474 92.2847C495.706 92.7262 495.85 93.313 495.85 94.1C495.85 95.6535 495.305 96.4722 494.518 96.9418C493.676 97.4439 492.472 97.6 491.06 97.6H485.56ZM485.57 111.16V103.79H491.76C493.247 103.79 494.542 103.937 495.457 104.463C495.902 104.72 496.257 105.065 496.505 105.539C496.755 106.016 496.91 106.65 496.91 107.5C496.91 108.35 496.755 108.981 496.507 109.453C496.261 109.92 495.908 110.259 495.464 110.509C494.551 111.025 493.256 111.16 491.76 111.16H485.57Z"/>
</g>
<defs>
<clipPath id="clip0_402_41755">
<rect fill="white" height="151" width="505.18"/>
</clipPath>
</defs>
</svg>