<?xml version="1.0" encoding="UTF-8"?>
<svg width="123px" height="155px" viewBox="0 0 123 155" version="1.1" xmlns="http://www.w3.org/2000/svg" xmlns:xlink="http://www.w3.org/1999/xlink">
    <title>DMP-Navy-Portrait</title>
    <g id="Page-1" stroke="none" stroke-width="1" fill="none" fill-rule="evenodd">
        <g id="A4-Copy-19" transform="translate(-661.000000, -117.000000)" fill="#020057" fill-rule="nonzero">
            <g id="DMP-Navy-Portrait" transform="translate(661.246958, 117.319213)">
                <path d="M0,101.65 L0,59.05 L15.90375,59.05 C20.57625,59.05 24.4848437,60 27.6295313,61.9 C30.7742188,63.8 33.141875,66.36 34.7325,69.58 C36.323125,72.8 37.1184375,76.37 37.1184375,80.29 C37.1184375,84.61 36.243125,88.37 34.4925,91.57 C32.741875,94.77 30.2771875,97.25 27.0984375,99.01 C23.9196875,100.77 20.188125,101.65 15.90375,101.65 L0,101.65 Z M27.1275,80.29 C27.1275,77.795625 26.685625,75.5978125 25.801875,73.6965625 C24.918125,71.7953125 23.6385937,70.3140625 21.9632812,69.2528125 C20.2879687,68.1915625 18.268125,67.6609375 15.90375,67.6609375 L9.8465625,67.6609375 L9.8465625,93.0390625 L15.90375,93.0390625 C18.308125,93.0390625 20.3409375,92.4854687 22.0021875,91.3782812 C23.6634375,90.2710937 24.9329687,88.7498437 25.8107812,86.8145312 C26.6885937,84.8792187 27.1275,82.704375 27.1275,80.29 Z" id="Shape-Copy"></path>
                <polygon id="Path-Copy" points="74.339375 101.65 74.339375 76.2446875 65.16875 94.7425 59.7940625 94.7425 50.6065625 76.2446875 50.6065625 101.65 40.76 101.65 40.76 59.05 51.456875 59.05 62.4725 81.3315625 73.548125 59.05 84.1859375 59.05 84.1859375 101.65"></polygon>
                <path d="M90.1530417,101.65 L90.1530417,59.05 L108.336792,59.05 C110.357417,59.05 112.218823,59.4628125 113.92101,60.2884375 C115.623198,61.1140625 117.096167,62.2176562 118.339917,63.5992187 C119.583667,64.9807812 120.546792,66.5309375 121.229292,68.2496875 C121.911792,69.9684375 122.253042,71.7153125 122.253042,73.4903125 C122.253042,75.9334375 121.683667,78.25625 120.544917,80.45875 C119.406167,82.66125 117.822573,84.4548437 115.794135,85.8395312 C113.765698,87.2242187 111.385542,87.9165625 108.653667,87.9165625 L99.9996042,87.9165625 L99.9996042,101.65 L90.1530417,101.65 Z M99.9996042,79.305625 L108.015229,79.305625 C108.789604,79.305625 109.493823,79.0890625 110.127885,78.6559375 C110.761948,78.2228125 111.27601,77.56625 111.670073,76.68625 C112.064135,75.80625 112.261167,74.7340625 112.261167,73.4696875 C112.261167,72.1315625 112.035385,71.0325 111.583823,70.1725 C111.13226,69.3125 110.559292,68.6789062 109.864917,68.2717187 C109.170542,67.8645312 108.448042,67.6609375 107.697417,67.6609375 L99.9996042,67.6609375 L99.9996042,79.305625 Z" id="Shape-Copy-2"></path>
                <polygon id="Path-Copy-2" points="28.2162162 122.79051 16.2972973 122.79051 16.2972973 153.439159 11.9189189 153.439159 11.9189189 122.79051 0 122.79051 0 118.898618 28.2162162 118.898618"></polygon>
                <path d="M35.7297297,153.925645 C33.8162162,153.925645 32.0810811,153.576996 30.5243243,152.879699 C28.9675676,152.182402 27.6216216,151.225645 26.4864865,150.009429 C25.3513514,148.793213 24.4756757,147.393424 23.8594595,145.810062 C23.2432432,144.226701 22.9351351,142.553517 22.9351351,140.79051 C22.9351351,138.995071 23.2432432,137.30567 23.8594595,135.722309 C24.4756757,134.138947 25.3513514,132.739159 26.4864865,131.522942 C27.6216216,130.306726 28.9756757,129.349969 30.5486486,128.652672 C32.1216216,127.955375 33.8567568,127.606726 35.7540541,127.606726 C37.6513514,127.606726 39.3783784,127.955375 40.9351351,128.652672 C42.4918919,129.349969 43.8459459,130.306726 44.9972973,131.522942 C46.1486486,132.739159 47.0324324,134.138947 47.6486486,135.722309 C48.2648649,137.30567 48.572973,138.995071 48.572973,140.79051 C48.572973,142.553517 48.2648649,144.226701 47.6486486,145.810062 C47.0324324,147.393424 46.1567568,148.793213 45.0216216,150.009429 C43.8864865,151.225645 42.5324324,152.182402 40.9594595,152.879699 C39.3864865,153.576996 37.6432432,153.925645 35.7297297,153.925645 Z M27.3135135,140.834598 C27.3135135,142.58899 27.6945946,144.179699 28.4567568,145.606726 C29.2189189,147.033753 30.2324324,148.16078 31.4972973,148.987807 C32.7621622,149.814834 34.172973,150.228348 35.7297297,150.228348 C37.2864865,150.228348 38.7054054,149.806726 39.9864865,148.963483 C41.2675676,148.12024 42.2891892,146.976996 43.0513514,145.533753 C43.8135135,144.09051 44.1945946,142.493213 44.1945946,140.741861 C44.1945946,138.99051 43.8135135,137.401321 43.0513514,135.974294 C42.2891892,134.547267 41.2652872,133.412132 39.9796453,132.568888 C38.6940034,131.725645 37.2773649,131.304023 35.7297297,131.304023 C34.172973,131.304023 32.7596284,131.73502 31.4896959,132.597013 C30.2197635,133.459007 29.20625,134.60225 28.4491554,136.026743 C27.6920608,137.451236 27.3135135,139.053855 27.3135135,140.834598 Z" id="Shape-Copy-3"></path>
                <path d="M63.4108108,153.925645 C61.4972973,153.925645 59.7621622,153.576996 58.2054054,152.879699 C56.6486486,152.182402 55.3027027,151.225645 54.1675676,150.009429 C53.0324324,148.793213 52.1567568,147.393424 51.5405405,145.810062 C50.9243243,144.226701 50.6162162,142.553517 50.6162162,140.79051 C50.6162162,138.995071 50.9243243,137.30567 51.5405405,135.722309 C52.1567568,134.138947 53.0324324,132.739159 54.1675676,131.522942 C55.3027027,130.306726 56.6567568,129.349969 58.2297297,128.652672 C59.8027027,127.955375 61.5378378,127.606726 63.4351351,127.606726 C65.3324324,127.606726 67.0594595,127.955375 68.6162162,128.652672 C70.172973,129.349969 71.527027,130.306726 72.6783784,131.522942 C73.8297297,132.739159 74.7135135,134.138947 75.3297297,135.722309 C75.9459459,137.30567 76.2540541,138.995071 76.2540541,140.79051 C76.2540541,142.553517 75.9459459,144.226701 75.3297297,145.810062 C74.7135135,147.393424 73.8378378,148.793213 72.7027027,150.009429 C71.5675676,151.225645 70.2135135,152.182402 68.6405405,152.879699 C67.0675676,153.576996 65.3243243,153.925645 63.4108108,153.925645 Z M54.9945946,140.834598 C54.9945946,142.58899 55.3756757,144.179699 56.1378378,145.606726 C56.9,147.033753 57.9135135,148.16078 59.1783784,148.987807 C60.4432432,149.814834 61.8540541,150.228348 63.4108108,150.228348 C64.9675676,150.228348 66.3864865,149.806726 67.6675676,148.963483 C68.9486486,148.12024 69.9702703,146.976996 70.7324324,145.533753 C71.4945946,144.09051 71.8756757,142.493213 71.8756757,140.741861 C71.8756757,138.99051 71.4945946,137.401321 70.7324324,135.974294 C69.9702703,134.547267 68.9463682,133.412132 67.6607264,132.568888 C66.3750845,131.725645 64.9584459,131.304023 63.4108108,131.304023 C61.8540541,131.304023 60.4407095,131.73502 59.170777,132.597013 C57.9008446,133.459007 56.8873311,134.60225 56.1302365,136.026743 C55.3731419,137.451236 54.9945946,139.053855 54.9945946,140.834598 Z" id="Shape-Copy-4"></path>
                <path d="M80.0972973,117.925645 L84.3783784,117.925645 L84.3783784,146.871591 C84.3783784,148.266186 84.572973,149.125645 84.9621622,149.449969 C85.3513514,149.774294 85.8216216,149.936456 86.372973,149.936456 C87.0540541,149.936456 87.7027027,149.863483 88.3189189,149.717537 C88.9351351,149.571591 89.4540541,149.417537 89.8756757,149.255375 L90.5567568,152.758077 C89.8432432,153.049969 89,153.293213 88.027027,153.487807 C87.0540541,153.682402 86.1945946,153.779699 85.4486486,153.779699 C83.7945946,153.779699 82.4891892,153.309429 81.5324324,152.368888 C80.5756757,151.428348 80.0972973,150.114834 80.0972973,148.428348 L80.0972973,117.925645 Z" id="Path-Copy-3"></path>
                <path d="M40.3919632,0 C40.9617701,0 41.5105731,0.203719436 41.9409962,0.570823953 L42.0799526,0.699188096 L61.0799526,19.6991881 C61.9698283,20.5890639 62.0102772,22.0067058 61.2012993,22.9445603 L61.0799526,23.0751669 L42.0799526,42.0751669 C41.1477018,43.0074177 39.6362246,43.0074177 38.7039738,42.0751669 C37.814098,41.1852911 37.7736491,39.7676492 38.5826271,38.8297947 L38.7039738,38.6991881 L56.0153123,21.3863197 L39.4033123,4.77431969 L27.1553123,4.77431969 L42.0799526,19.6991881 C42.9698283,20.5890639 43.0102772,22.0067058 42.2012993,22.9445603 L42.0799526,23.0751669 L23.0799526,42.0751669 C22.6770382,42.4780812 22.1449245,42.7220921 21.5809873,42.7668651 L21.3919632,42.774355 L2.39196318,42.774355 C0.318383889,42.774355 -0.74594662,40.3299854 0.595979125,38.8139206 L0.703973801,38.6991881 L18.0153123,21.3863197 L0.703973801,4.07516686 C-0.185901958,3.1852911 -0.226350856,1.76764916 0.582627106,0.829794655 L0.703973801,0.699188096 C1.59384956,-0.190687662 3.01149151,-0.231136561 3.94934601,0.577841401 L4.07995257,0.699188096 L23.0799526,19.6991881 C23.9698283,20.5890639 24.0102772,22.0067058 23.2012993,22.9445603 L23.0799526,23.0751669 L8.15431228,37.9993197 L20.4023123,37.9993197 L37.0153123,21.3863197 L19.7039738,4.07516686 C18.2377318,2.60892488 19.2135668,0.127899265 21.2344713,0.00476438519 L21.3919632,0 L40.3919632,0 Z" id="Path-Copy-5"></path>
            </g>
        </g>
    </g>
</svg>