<svg width="156" height="156" viewBox="0 0 156 156" fill="none" xmlns="http://www.w3.org/2000/svg">
<path d="M76.3566 53.5168C74.8577 49.8701 70.7053 44.4844 69.1096 41.7125C67.349 38.6535 64.6042 36.5824 61.834 34.1048C61.834 33.9662 61.3446 32.3906 60.5046 30.9899C59.5615 29.4174 57.1505 26.4854 55.475 24.2834C55.3682 24.1432 49.9213 16.3194 43.2124 14.5681C39.4666 13.5902 33.1712 12.3475 28.2299 12.9654C20.6841 13.9084 11.6307 13.385 5.52193 10.974C5.44993 38.5823 5.40812 36.6133 5.53897 36.5948C5.95939 36.8433 15.1149 42.2468 18.215 44.2746C21.3879 46.3495 26.6373 48.9123 29.9317 50.2556C37.1694 53.2063 38.9146 57.8905 47.7519 60.5075C51.0471 61.4831 54.9532 63.3142 56.4181 64.6575C57.883 66.0008 60.5688 65.0237 60.9343 60.7514C60.9893 60.1095 60.8197 59.439 60.4813 58.7507C63.0426 58.1747 62.6856 55.2108 62.7731 54.4738C62.8614 53.7274 63.0248 47.9623 63.0248 47.8841C64.389 49.6208 65.5403 51.5239 67.9142 53.3395C70.5079 55.3231 72.5202 56.6633 74.3528 56.8321C76.7189 57.0505 77.1092 55.344 76.3582 53.516L76.3566 53.5168ZM38.2108 39.5385C37.6262 38.0186 36.9054 35.7841 38.505 34.4276C39.6579 33.4497 41.1537 33.5217 42.7347 34.1791C43.6406 36.4143 44.9468 39.5779 44.9468 39.5779C44.9468 39.5779 45.3192 40.0417 45.1326 41.0173C44.9468 41.9913 46.2475 45.2408 46.2475 45.2408C46.2475 45.9121 46.4271 47.1408 46.551 47.9073C42.7634 45.5273 39.1128 41.8852 38.2108 39.5385Z" fill="white"/>
<path d="M76.5832 53.4254C75.0726 49.7446 70.9195 44.3605 69.323 41.591C67.5554 38.5203 64.8347 36.4538 62.0551 33.9716C61.2166 30.8568 59.2616 28.9583 55.6451 24.103C54.6556 22.7744 49.5339 15.9656 43.2726 14.3312C40.5511 13.6204 33.637 12.0425 28.1979 12.723C20.0884 13.7365 11.2224 12.9607 5.60988 10.7471C5.3056 10.6302 5.13139 11.0847 5.43025 11.2016C11.1125 13.4446 20.0729 14.2313 28.2575 13.2077C33.6138 12.5388 40.4551 14.1012 43.1487 14.8042C47.8314 16.0275 52.4188 20.5925 55.2487 24.3895C59.2616 29.7751 60.4246 30.8157 61.3297 33.3135C60.6801 32.7142 60.0343 32.0878 59.4049 31.415C55.8023 27.5639 46.4733 21.534 44.509 19.5697C44.2814 19.3421 43.9369 19.6867 44.1645 19.9143C46.1396 21.8894 55.5143 27.9711 59.0479 31.7472C62.5785 35.5216 66.6132 37.8583 68.9003 41.8326C70.5564 44.7043 74.6421 49.9808 76.1318 53.6089C76.8867 55.4462 76.4005 56.7779 74.3735 56.5898C72.6523 56.4295 70.7539 55.207 68.0602 53.1451C64.2633 50.244 63.6036 47.0502 60.0351 44.7043C59.6015 44.3094 58.5369 42.9537 59.027 39.413C59.0712 39.0925 58.5873 39.0298 58.5439 39.3472C58.2125 41.7342 58.5555 43.2061 58.9883 44.0856C57.2246 43.1132 55.7651 41.9224 54.3529 40.7695C49.8165 37.0663 51.3976 38.9671 44.3039 34.7064C41.7775 33.1911 39.7737 33.034 38.3499 34.241C36.5141 35.798 37.5083 38.3817 37.9852 39.6244C38.9979 42.2561 43.3593 46.4394 47.51 48.7582C51.1645 50.8007 61.0494 56.5356 60.6894 60.7297C60.3386 64.8449 57.8672 65.6524 56.582 64.4771C55.1287 63.1446 51.2807 61.298 47.8213 60.2737C38.9925 57.6567 37.2915 52.988 30.0259 50.0296C26.7299 48.6878 21.5184 46.1428 18.3502 44.0709C15.2075 42.0168 5.7415 36.4322 5.64704 36.3756C5.36831 36.2146 5.12132 36.6327 5.39851 36.7968C5.49296 36.8518 14.9504 42.4318 18.0823 44.4797C21.2769 46.5687 26.5247 49.1314 29.8409 50.4825C33.1043 51.8111 35.8243 53.945 38.5713 56.0625C41.33 58.1894 44.3929 59.7673 47.6827 60.7413C51.0244 61.7308 54.8701 63.5681 56.2529 64.8363C57.8029 66.2548 60.7846 65.3783 61.181 60.77C61.2306 60.1947 61.1175 59.5838 60.8434 58.9381C62.529 58.4418 62.9827 55.2921 63.0137 54.0766C63.0524 52.5691 63.1801 49.8066 63.239 48.5616C64.6032 50.3586 65.6477 51.911 67.7676 53.5323C70.5332 55.6468 72.4936 56.9049 74.3324 57.0737C76.7272 57.2967 77.4829 55.6042 76.5855 53.4223L76.5832 53.4254ZM55.2549 42.1268C55.1999 42.2623 55.7132 47.1617 56.1244 48.2581C56.2583 48.7265 55.3486 50.5437 56.0307 53.6445C54.757 52.6597 53.2496 51.6253 51.5091 50.5437C51.5176 50.5088 51.5191 50.4717 51.5114 50.4345C50.7635 46.732 51.3914 45.8834 51.3062 44.8018C51.6546 44.9443 52.202 45.0813 53.0181 45.0813C53.3417 45.0813 53.3433 44.5935 53.0196 44.5935C51.8435 44.5935 51.3147 44.2807 51.1754 44.1801C50.7936 42.9483 49.9513 39.2891 49.7592 38.2416C51.9643 39.2822 52.713 40.1207 55.2549 42.1276V42.1268ZM38.442 39.4502C37.7754 37.7182 37.2814 35.788 38.6658 34.6142C39.6065 33.8175 40.8685 33.72 42.4294 34.3185C42.7592 35.2623 44.0933 38.8509 44.722 39.6066C45.5024 40.7912 43.8486 40.1153 45.9964 45.1851C45.9786 45.4491 45.9329 46.4703 46.2054 47.3932C42.6578 45.0573 39.2968 41.6723 38.442 39.4502ZM46.917 47.8454C46.4857 47.089 46.4617 45.9485 46.4749 45.4344C46.91 45.4955 47.3939 45.4979 47.8608 45.4282C48.1782 45.3848 48.1116 44.8994 47.7903 44.9466C47.1701 45.038 46.6429 44.9706 46.4191 44.9311C44.6043 40.6255 45.6472 40.8144 45.4064 39.9047C45.967 40.0355 46.5747 39.9682 47.1732 39.6678C47.4659 39.5191 47.2391 39.0863 46.9549 39.2303C46.0003 39.7088 45.267 39.3712 45.0859 39.2706C44.3766 38.1781 43.4181 35.6184 43.0426 34.5817C43.9709 35.0215 46.2627 36.5266 49.2413 37.9915C49.2931 38.8261 50.5079 43.6977 50.7317 44.3992C51.1026 45.5668 50.206 46.1761 50.9694 50.2115C48.9579 48.9836 47.7524 48.3587 46.9162 47.8454H46.917ZM62.522 54.0673C62.4786 55.7559 61.8623 58.2165 60.6266 58.4914C59.936 57.1767 58.6105 55.725 56.6571 54.1401C55.8379 51.1592 56.5394 49.3598 56.616 48.5113C57.3508 48.7087 58.1723 48.7644 58.9628 48.6166C59.2794 48.5585 59.1912 48.08 58.8745 48.1381C57.813 48.3347 56.8661 48.0831 56.551 47.9832C56.184 46.7498 55.8534 43.5406 55.7543 42.5155C59.2678 45.2083 60.1753 44.695 62.7752 47.9693C62.7489 48.5105 62.5692 52.2222 62.522 54.0665V54.0673Z" fill="black"/>
<path d="M58.4766 62.7436C59.7015 60.3101 57.2061 58.3086 54.6417 57.3873C54.284 57.2572 53.8892 57.4639 53.7893 57.8356C53.0847 60.5052 51.9094 60.4076 51.8823 60.4045C51.5656 60.3596 51.4913 60.8319 51.8057 60.8861C51.8715 60.8985 53.4277 61.1192 54.2616 57.9602C54.2833 57.8689 54.3847 57.8147 54.4768 57.8472C56.7067 58.6478 59.1107 60.3976 58.0399 62.5244C57.7821 63.0385 57.3632 63.3993 56.973 63.4466C56.668 63.4845 56.6989 63.9328 57.0024 63.9328C57.3865 63.9328 58.0678 63.5542 58.4766 62.742V62.7436Z" fill="black"/>
<path d="M87.1919 54.6828C87.9747 54.85 88.4795 55.6289 88.3107 56.4163C86.6879 64.004 86.7862 63.7957 86.5679 63.9877C86.2907 64.2324 85.9005 64.2053 85.662 63.9692C83.3989 61.7277 79.5725 63.2352 79.3712 66.3554C79.2319 68.5094 80.9383 70.2979 83.0621 70.2979C84.0516 70.2979 84.3806 69.951 84.7252 70.037C85.1015 70.1314 85.2981 70.4822 85.2269 70.819L83.92 76.9301C83.7504 77.7183 82.9746 78.2216 82.1864 78.052L75.5619 76.6344C75.0571 76.5252 74.6305 77.0168 74.8086 77.5015C75.6719 79.8506 73.9863 82.3096 71.5854 82.4676C68.1725 82.6921 66.3499 78.5917 68.6912 76.1938C69.052 75.8245 68.8631 75.202 68.3591 75.0928L61.6718 73.6612C60.8837 73.4917 60.3804 72.7159 60.55 71.9277C62.0172 65.0825 61.8808 65.4697 62.093 65.2815C62.3678 65.0376 62.7558 65.0609 62.9958 65.2924C65.2775 67.4974 69.0558 65.9675 69.2563 62.8759C69.3957 60.722 67.6893 58.9319 65.5656 58.9319C64.5374 58.9319 64.3089 59.2679 63.945 59.1758C63.5718 59.0813 63.3767 58.729 63.4479 58.3953L64.9423 51.4154C65.1118 50.6273 65.8876 50.124 66.6758 50.2936L73.3174 51.7143C73.8477 51.8297 74.2852 51.2823 74.0475 50.7891C72.9217 48.4439 74.5376 45.6961 77.0996 45.5033C80.6789 45.2338 82.4891 49.7144 79.7723 52.0147C79.3573 52.3662 79.5284 53.0445 80.0603 53.1567L87.1912 54.6828H87.1919Z" fill="#D142A7"/>
<path d="M71.3353 82.7185C67.8496 82.7185 66.082 78.5205 68.5162 76.0251C68.7423 75.7936 68.6231 75.4018 68.3072 75.3329L61.62 73.9013C60.7002 73.7046 60.1133 72.7972 60.3099 71.8782L61.6548 65.592C61.8097 64.8666 62.6668 64.6382 63.1638 65.1182C65.3008 67.1808 68.8244 65.7438 69.011 62.8612C69.1403 60.8637 67.5654 59.1774 65.564 59.1774C64.614 59.1774 64.3384 59.5289 63.8823 59.4135C63.4008 59.2919 63.105 58.8235 63.2072 58.3443L64.7015 51.3644C64.8982 50.4454 65.8071 49.8577 66.7246 50.0544L73.3661 51.4751C73.7053 51.5479 73.9731 51.1987 73.8253 50.8929C72.6368 48.4354 74.3007 45.4646 77.0771 45.2579C80.8919 44.9737 82.8228 49.7485 79.9248 52.1983C79.6654 52.4181 79.7723 52.8448 80.106 52.9152L87.2384 54.4413C88.1582 54.6364 88.7443 55.5446 88.5477 56.4644C86.9008 64.1906 87.0301 63.9003 86.7274 64.1666C86.3627 64.4879 85.83 64.4756 85.4894 64.1395C84.7732 63.4311 83.7829 63.0734 82.7741 63.1547C79.9264 63.3839 78.5575 66.8432 80.5419 68.9608C81.5484 70.0347 83.035 70.2933 84.2575 69.8403C84.9784 69.574 85.6078 70.2066 85.4654 70.8662L84.1584 76.9774C83.9618 77.8964 83.0543 78.4841 82.1353 78.2874L75.5108 76.8698C75.3645 76.8396 75.212 76.8891 75.1128 77.0022C74.7822 77.3808 75.3591 77.5867 75.2716 79.0268C75.1461 81.0802 73.435 82.7177 71.3353 82.7177V82.7185ZM62.131 65.6942L60.7861 71.9804C60.646 72.6362 61.0648 73.2842 61.7206 73.4244L68.4078 74.8559C69.0977 75.0038 69.3602 75.8578 68.8654 76.3657C66.6774 78.6118 68.38 82.432 71.5683 82.2253C73.864 82.0766 75.3722 79.7461 74.5778 77.5875C74.3309 76.9162 74.9239 76.2496 75.6115 76.3967L82.236 77.8144C82.8917 77.9545 83.5398 77.5356 83.6799 76.8798L84.9869 70.7694C85.048 70.4837 84.7856 70.171 84.424 70.301C81.7273 71.2774 78.9423 69.1869 79.1242 66.3415C79.3364 63.0238 83.4097 61.4026 85.83 63.795C86.0484 64.011 86.4487 63.9305 86.5269 63.572L88.0699 56.3637C88.2101 55.7172 87.8036 55.0622 87.1354 54.9182L80.0046 53.3921C79.2752 53.2381 79.0399 52.3067 79.6097 51.8266C81.1954 50.4887 81.2418 48.0607 79.7274 46.6546C77.5788 44.6609 74.1048 46.1026 73.9306 48.9704C73.8942 49.5728 74.0057 50.1473 74.2627 50.6799C74.5864 51.3504 73.9948 52.1092 73.2608 51.9497L66.6193 50.529C65.9635 50.3888 65.3155 50.8077 65.1753 51.4635L63.681 58.4434C63.6183 58.7345 63.8893 59.0419 64.2393 58.911C65.6074 58.4008 67.3216 58.7391 68.438 59.9299C70.7035 62.3456 69.1364 66.2772 65.9116 66.5529C64.7681 66.6504 63.6454 66.2532 62.8239 65.4627C62.6033 65.2498 62.2092 65.3381 62.1302 65.6942H62.131Z" fill="black"/>
<path d="M128.407 4.56167C126.343 10.3205 128.854 12.7277 132.448 26.7819C133.142 29.4957 134.026 33.5365 134.215 36.8185C134.404 40.1006 133.899 41.6793 130.87 46.2241C127.841 50.769 127.209 51.1484 125.63 54.4312C124.052 57.7132 123.105 58.7229 121.023 61.3747C117.156 66.2966 118.226 66.5699 114.167 69.1489L107.128 69.9139L95.0265 64.5987L93.7822 54.5326L98.4184 44.976C98.4184 44.976 102.095 43.45 102.942 43.1101C103.79 42.7702 104.865 40.9615 105.6 40.2833C106.334 39.6051 108.37 37.6261 108.37 37.6261L111.424 31.518C111.424 31.518 101.98 5.28017 101.98 4.48889C101.98 4.48889 107.802 4.5787 109.274 4.48889C116.739 4.0344 128.325 4.13042 128.406 4.5609L128.407 4.56167Z" fill="white"/>
<path d="M120.476 39.5872C120.342 39.7196 117.191 42.8987 115.897 46.6646C115.166 48.7931 114.94 50.0535 114.776 50.9749C114.652 51.6648 114.569 52.1247 114.336 52.6008C112.483 54.3073 110.789 56.6564 110.663 59.192C110.221 59.2927 109.756 59.4336 109.34 59.6287C109.05 59.7665 109.25 60.2047 109.548 60.0693C110.729 59.5126 112.426 59.4289 112.443 59.4289C112.758 59.422 112.749 58.928 112.42 58.9427C112.379 58.945 111.843 58.9714 111.157 59.0921C111.44 55.0877 115.866 51.9644 115.911 51.9342C116.179 51.7546 115.908 51.3489 115.64 51.5285C115.64 51.5285 115.418 51.6818 115.076 51.9597C115.324 50.9501 115.372 49.6935 116.359 46.8234C117.617 43.1658 120.788 39.9635 120.82 39.9317C121.048 39.708 120.706 39.3573 120.476 39.5872Z" fill="black"/>
<path d="M134.459 36.8061C134.112 30.8026 131.539 22.2548 129.735 16.4882C127.975 10.8563 127.245 8.52504 128.638 4.64297C128.744 4.33559 128.286 4.17687 128.177 4.47806C126.73 8.51343 127.474 10.8904 129.269 16.633C131.043 22.3106 133.629 30.8754 133.972 36.8332C134.197 40.7378 133.38 42.3358 128.336 49.4744C124.182 55.3618 126.191 54.4668 121.557 60.3054C117.008 66.0155 118.074 66.3787 114.036 68.9437C113.765 69.1195 114.027 69.526 114.297 69.3564C115.475 68.6077 116.356 67.9643 116.774 67.5454C118.189 66.1309 119.133 64.1728 121.212 61.5264C123.332 58.8173 124.238 57.889 125.849 54.5373C127.42 51.2691 128.089 50.8394 131.073 46.3604C134.087 41.8395 134.657 40.2314 134.459 36.8053V36.8061Z" fill="black"/>
<path d="M111.948 40.7292C111.763 40.8941 107.409 44.7592 106.012 46.8536C105.61 47.4575 105.358 48.0142 105.206 48.5066C104.809 48.5716 101.221 50.1023 99.1818 52.3631L99.1632 52.3608C99.1005 52.3546 97.6356 52.23 96.5362 52.9175C96.3287 53.0476 96.4208 53.3689 96.6655 53.3689C96.8916 53.3689 97.2911 52.8447 98.8164 52.8385C98.5818 53.2071 98.3782 53.6972 98.2907 54.3963C98.2504 54.7176 98.7359 54.7788 98.7753 54.4575C99.085 51.9907 102.779 50.0373 105.062 49.085C104.877 50.1077 105.12 50.7442 105.138 50.786C105.257 51.081 105.708 50.9091 105.591 50.6079C105.568 50.5498 105.058 49.1655 106.417 47.1253C107.778 45.0821 112.226 41.1349 112.271 41.0955C112.514 40.8779 112.185 40.5171 111.948 40.7292Z" fill="black"/>
<path d="M99.6102 44.6276C100.695 43.4097 102.96 43.2084 103.545 42.3893C106.074 38.8486 108.022 38.3972 108.637 36.673C109.291 34.8434 110.355 33.2159 110.399 33.1478C110.574 32.8807 110.985 33.14 110.808 33.4165C110.797 33.4335 109.73 35.0648 109.098 36.8379C108.417 38.7456 106.468 39.1374 103.943 42.6726C103.228 43.6745 100.974 43.8263 99.9757 44.9505C99.7682 45.1835 99.3896 44.8738 99.6095 44.6276H99.6102Z" fill="black"/>
<path d="M114.921 40.7625C113.184 38.3159 112.313 34.9185 112.277 34.7753C112.199 34.4617 112.67 34.3448 112.749 34.656C112.758 34.6909 113.632 38.1107 115.316 40.4784C115.505 40.744 115.103 41.0196 114.92 40.7618L114.921 40.7625Z" fill="black"/>
<path d="M115.951 41.3425C115.779 41.5074 111.77 45.3887 110.979 50.2681C108.446 51.1561 105.346 52.9199 103.877 55.2155C103.194 55.3557 99.5425 56.1717 97.7168 57.9966C97.4892 58.2243 97.833 58.5696 98.0614 58.3412C99.6323 56.7702 102.783 55.9611 103.769 55.7389C103.779 56.5743 104.132 57.2139 104.148 57.2433C104.307 57.5244 104.731 57.2867 104.573 57.0041C104.568 56.9971 104.2 56.3281 104.263 55.5152C105.98 52.7929 109.825 51.2134 110.953 50.7969C111.025 51.7484 111.648 52.3314 111.677 52.3585C111.913 52.5722 112.245 52.2262 112.008 52.0001C112.002 51.9939 111.365 51.3884 111.44 50.4601C112.161 45.693 116.245 41.735 116.286 41.6956C116.518 41.4741 116.183 41.1195 115.949 41.3433L115.951 41.3425Z" fill="black"/>
<path d="M116.606 72.2305C116.394 69.4517 113.424 67.7964 110.965 68.9872C110.654 69.1343 110.31 68.8648 110.383 68.528L111.79 61.8834C111.985 60.9636 111.395 60.0585 110.476 59.8634L103.493 58.383C102.837 58.2452 102.207 58.8638 102.464 59.5846C103.287 61.8842 101.512 64.3517 98.9872 64.1969C96.0992 64.0141 94.6638 60.4905 96.7186 58.3544C97.194 57.8588 96.9765 57.0033 96.2409 56.8461L89.9517 55.5136C89.0427 55.3177 88.1291 55.8953 87.9317 56.826L86.514 63.5163C86.4482 63.8314 86.0564 63.953 85.8234 63.7269C84.2238 62.1668 81.6819 62.2659 80.193 63.8624C77.9252 66.2904 79.514 70.2879 82.8309 70.4853C84.2168 70.5689 84.4855 70.0037 84.8556 70.3235C84.9686 70.4226 85.0205 70.5751 84.988 70.7215L83.5835 77.3491C83.3884 78.2681 83.9783 79.174 84.8974 79.3691L91.0124 80.6667C91.6752 80.8053 92.3054 80.1743 92.0383 79.4558C91.5776 78.2193 91.847 76.7382 92.9101 75.7371C95.03 73.7457 98.4855 75.1177 98.7208 77.9584C98.8045 78.9688 98.4483 79.9598 97.7422 80.6768C97.4069 81.0198 97.3961 81.5517 97.7182 81.9164C97.99 82.2183 97.688 82.0573 105.424 83.7188C106.315 83.9101 107.241 83.3526 107.441 82.4073L108.953 75.2718C109.024 74.938 109.45 74.8304 109.67 75.0906C112.147 78.0049 116.897 76.0135 116.606 72.2289V72.2305Z" fill="black"/>
<path d="M102.075 4.56165C98.8769 10.5366 96.3947 14.5178 95.3425 19.2701C94.2918 24.0163 94.3197 28.0966 92.5358 32.6182C91.4077 35.4798 89.6053 38.1038 89.0153 41.1226C88.5322 43.5956 88.8992 46.163 88.5415 48.6576C87.8733 53.3209 83.6389 56.1183 88.0382 58.3179C89.8964 59.2478 92.4321 57.8503 94.1432 56.2693C95.8535 54.6867 97.0187 52.6071 97.9912 50.4895C99.4212 47.3747 99.3113 44.8707 100.876 41.8217C102.251 39.1428 104.197 36.0567 106.674 34.2062C107.289 33.7471 108.013 33.4498 108.774 33.3491C109.622 33.2361 110.871 33.1184 112.078 33.1873L102.076 4.56165H102.075Z" fill="white"/>
<path d="M117.6 35.527C116.924 33.0053 114.44 33.0734 112.094 32.9395C110.862 32.8706 109.593 32.9914 108.744 33.1044C107.945 33.2113 107.18 33.5233 106.53 34.0087C104.469 35.5487 102.495 38.1386 100.662 41.7087C99.0782 44.7941 99.1897 47.3026 97.772 50.3857C96.9567 52.1618 95.7868 54.4172 93.9805 56.0881C91.4286 58.448 89.2452 58.6462 88.1504 58.0988C86.0785 57.0621 86.1397 55.9355 86.4718 54.9685C87.2538 52.6992 88.4361 51.1143 88.7845 48.6916C89.1407 46.1978 88.7822 43.5971 89.2552 41.1706C89.8328 38.2091 91.6415 35.5549 92.7634 32.7088C94.5674 28.136 94.5279 24.0712 95.5809 19.3235C96.6455 14.5185 99.2988 10.2787 102.291 4.67776C102.442 4.39206 102.013 4.16288 101.86 4.4478C98.746 10.2686 96.1662 14.4117 95.1024 19.219C94.0533 23.9435 94.0757 28.0416 92.3066 32.5307C91.1785 35.39 89.3714 38.017 88.7721 41.0761C88.2836 43.5746 88.6513 46.1645 88.2967 48.6235C87.6394 53.197 83.292 56.2174 87.9274 58.537C89.966 59.5559 92.6364 57.9943 94.3096 56.4465C96.1802 54.7161 97.3787 52.4081 98.2141 50.5886C99.6581 47.4443 99.5435 44.9543 101.094 41.9317C102.892 38.4297 104.819 35.8956 106.821 34.3997C107.404 33.9638 108.09 33.6835 108.807 33.5883C110.601 33.3506 111.568 33.4048 112.639 33.4559C114.579 33.5426 116.585 33.6325 117.128 35.6548C117.759 38.0093 117.996 42.6594 117.999 42.7067C118.018 43.0288 118.502 43.0048 118.487 42.6819C118.476 42.4883 118.243 37.9326 117.598 35.5286L117.6 35.527Z" fill="black"/>
<path d="M89.3798 56.8018C88.0737 56.8018 87.2452 56.1615 86.9146 55.0931C86.8194 54.7849 87.2862 54.6409 87.3815 54.9498C87.5882 55.6242 88.0814 56.1073 88.6969 56.2413C90.2036 56.5696 91.6259 55.7992 92.9282 53.9557C93.982 52.4629 94.5712 51.0793 94.3389 50.6597C94.3188 50.6233 94.2568 50.5134 93.944 50.5366C91.7916 50.6945 89.7197 50.0024 89.6307 49.9722C89.3233 49.8676 89.4851 49.4023 89.7878 49.5099C89.808 49.5169 91.8566 50.2013 93.9076 50.0496C94.4217 50.0117 94.6563 50.2292 94.7632 50.4181C95.2827 51.3379 93.7954 53.5724 93.3269 54.236C92.1222 55.9424 90.7975 56.8018 89.3814 56.8018H89.3798Z" fill="black"/>
<path d="M52.4965 93.0477L48.2714 97.0862C49.6039 94.398 48.6694 92.0822 47.2084 91.2878C45.7304 90.4834 44.9886 91.3049 43.4974 92.1093C41.7073 93.0748 40.3958 93.5742 39.085 94.3539C38.1698 94.8982 36.475 96.8114 34.9605 98.0006C33.4461 99.1899 29.893 100.961 28.1634 103.878C26.4337 106.797 25.2437 109.608 19.5142 114.906C13.7847 120.203 12.7031 126.04 10.865 129.177C10.0017 130.649 8.99445 131.86 8.16987 132.729C7.19121 133.426 6.55091 133.938 6.38599 134.187C5.40811 135.658 5.74027 145.815 5.89667 149.49C5.92841 150.237 6.53233 150.829 7.27793 150.847L25.3296 151.299C27.705 149.15 32.5673 147.114 38.1094 144.627C43.6515 142.138 49.871 138.633 51.3406 136.824C56.1611 130.888 64.4007 122.303 65.137 117.146C65.4761 114.77 67.5124 107.985 67.5124 107.985L52.4958 93.0485L52.4965 93.0477ZM34.0035 115.877C34.2683 114.209 35.528 111.045 38.7698 107.368C38.7242 108.163 38.6978 109.173 38.7869 109.929C38.9572 111.387 39.1299 114.3 38.529 115.585C38.2929 116.092 37.5728 118.061 37.2314 119.258C36.8899 120.455 36.4633 123.686 36.4633 123.686C34.6864 122.207 33.7047 117.763 34.0043 115.877L34.0035 115.877Z" fill="white"/>
<path d="M40.0606 124.865C42.2316 124.645 47.9092 122.695 48.6966 122.105C49.5831 121.441 52.8714 117.699 54.7652 116.473C56.491 115.356 57.4851 109.073 59.2372 106.987C59.4447 106.74 59.8172 107.055 59.6089 107.302C57.921 109.295 56.9702 115.628 55.0284 116.885C53.1911 118.074 49.8951 121.817 48.9893 122.497C48.0509 123.202 42.2269 125.14 40.1086 125.352C39.8074 125.4 39.7284 124.9 40.0606 124.866V124.865Z" fill="black"/>
<path d="M25.1983 150.726C27.6736 148.483 33.0786 146.237 38.0408 144.012C43.3491 141.632 49.7158 138.084 51.1837 136.277C52.9343 134.121 56.3712 130.217 59.5511 126.213C62.7588 122.174 64.6185 118.89 64.9282 116.717C65.2658 114.351 67.2285 107.8 67.3114 107.521C67.4035 107.212 67.8712 107.353 67.7775 107.661C67.7574 107.728 65.7435 114.457 65.4098 116.786C64.6464 122.114 55.9988 131.121 51.56 136.584C49.9891 138.517 43.5225 142.082 38.239 144.456C33.6702 146.508 27.9639 148.879 25.5235 151.086C25.2881 151.299 24.9598 150.943 25.1991 150.726H25.1983Z" fill="black"/>
<path d="M51.9829 81.6012C51.5703 81.9775 50.9663 81.7251 50.8819 81.2381C50.34 78.0993 46.3487 77.1067 44.3744 79.5301C42.6764 81.6152 43.6915 84.7354 46.2651 85.4415C46.8225 85.5948 46.91 86.2359 46.5516 86.5634L41.7628 90.9039C41.1666 91.4466 41.1241 92.3703 41.6668 92.9665L46.4726 98.2445C46.7025 98.4977 47.1021 98.5434 47.3963 98.2949C47.6742 98.0603 47.5635 97.6422 48.1419 96.8339C49.3784 95.1065 51.8265 94.7627 53.4966 96.1293C55.8937 98.0912 54.9367 102.058 51.8165 102.626C51.489 102.686 51.2427 102.989 51.283 103.355C51.314 103.638 51.1042 103.332 55.7899 108.478C56.3327 109.074 57.2564 109.117 57.8525 108.574L62.9099 103.969C63.2932 103.622 63.9072 103.832 63.9985 104.339C64.5924 107.655 68.9886 108.529 70.7848 105.639C72.0554 103.595 71.0419 100.799 68.6247 100.128C68.1238 99.9889 67.9797 99.3564 68.3576 99.0111L73.3678 94.4492C73.9639 93.9064 74.0065 92.9827 73.4638 92.3866L69.2557 87.765C69.0242 87.5103 68.6224 87.4654 68.3289 87.7178C68.0541 87.9532 68.1625 88.3992 67.5725 89.223C66.3352 90.9503 63.8878 91.2949 62.2178 89.9291C59.8091 87.9586 60.7862 83.9666 63.9374 83.4246C64.2664 83.3681 64.5157 83.0661 64.4786 82.6991C64.4492 82.4111 64.5537 82.6078 59.3375 76.8752C58.7979 76.2821 57.875 76.2333 57.2749 76.7792L51.9829 81.6005V81.6012Z" fill="#E6E2E2"/>
<path d="M73.5264 94.6334C74.2217 94.0016 74.2743 92.9246 73.6395 92.2263L69.4314 87.6047C69.1008 87.2401 68.5441 87.2114 68.164 87.5358C67.7915 87.8548 67.9712 88.2412 67.3696 89.0851C66.202 90.7118 63.9164 91.013 62.3671 89.744C60.1226 87.9083 61.0238 84.1771 63.9737 83.67C64.6636 83.5523 64.9802 82.7177 64.477 82.1649L59.514 76.7141C58.8815 76.0188 57.8053 75.9662 57.1069 76.6011L51.8149 81.4223C51.5454 81.6686 51.1722 81.499 51.1196 81.1978C50.5405 77.8383 46.279 76.8078 44.1838 79.3776C42.3543 81.6268 43.4901 84.9413 46.1992 85.6792C46.5647 85.7806 46.6057 86.184 46.3866 86.3853L41.5978 90.7258C40.9026 91.3583 40.8522 92.4376 41.4848 93.1329L46.2906 98.411C46.7458 98.9088 47.62 98.7633 47.8275 98.0362C48.186 96.7789 49.266 95.7537 50.6953 95.5648C53.5716 95.1839 55.5723 98.3072 54.126 100.744C53.6135 101.609 52.7556 102.208 51.7731 102.388C51.3054 102.474 50.9895 102.902 51.0414 103.382C51.0816 103.777 50.964 103.537 55.6095 108.643C56.2366 109.333 57.3136 109.394 58.0104 108.759L63.0678 104.154C63.311 103.934 63.6965 104.071 63.7523 104.386C64.374 107.91 69.0706 108.856 70.9853 105.772C72.3705 103.544 71.213 100.592 68.6827 99.8975C68.3653 99.8069 68.2778 99.409 68.5147 99.1945L73.5249 94.6326L73.5264 94.6334ZM73.2825 92.5491C73.7424 93.0578 73.6906 93.8266 73.202 94.2687L68.1934 98.8306C67.6684 99.3122 67.8806 100.177 68.5596 100.364C69.0203 100.492 69.4469 100.714 69.8263 101.022C72.0701 102.847 71.1851 106.51 68.3157 107.083C66.3747 107.47 64.5676 106.164 64.2401 104.298C64.1146 103.602 63.2715 103.316 62.7473 103.79L57.6899 108.395C57.1944 108.846 56.4232 108.81 55.9718 108.314C51.2636 103.145 51.5447 103.498 51.5276 103.331C51.5036 103.106 51.6484 102.909 51.8629 102.868C52.9848 102.662 53.9619 101.979 54.548 100.993C56.098 98.3816 54.1872 95.0469 51.1614 95.0469C49.3164 95.0469 47.8221 96.2702 47.3575 97.8976C47.253 98.26 46.8519 98.2964 46.6514 98.0773L41.8456 92.7992C41.3927 92.3037 41.4291 91.5325 41.9246 91.0811L46.7133 86.7407C47.2135 86.2823 47.0641 85.4028 46.3262 85.2022C45.0518 84.8546 44.0081 83.7753 43.8122 82.3282C43.4259 79.4472 46.5538 77.435 49.0005 78.896C49.8699 79.4155 50.4669 80.2834 50.6396 81.2745C50.7216 81.7475 51.149 82.0657 51.6321 82.0154C52.0239 81.9767 51.7305 82.1532 57.4367 76.9549C57.9361 76.5004 58.7065 76.5415 59.1548 77.0354C64.5614 82.991 64.2168 82.5497 64.2331 82.7192C64.2563 82.9461 64.11 83.1443 63.8932 83.1814C62.762 83.3766 61.771 84.0548 61.1763 85.0458C59.5016 87.8347 61.7934 91.4117 65.0809 90.9751C66.6364 90.7699 67.9433 89.6472 68.3668 88.1119C68.4713 87.7472 68.8747 87.7069 69.0745 87.9276L73.2825 92.5483V92.5491Z" fill="black"/>
<path d="M6.57422 133.866C6.57422 133.866 9.0588 131.922 10.8969 128.786C12.7334 125.651 13.815 119.814 19.546 114.515C25.2755 109.219 26.4647 106.407 28.1952 103.488C29.9256 100.57 33.4795 98.7989 34.9923 97.6104C36.506 96.4212 38.2016 94.5072 39.1168 93.9637C40.4276 93.184 41.7392 92.6846 43.5292 91.7192C45.0205 90.9147 45.763 90.094 47.2402 90.8992C47.9812 91.3034 48.6261 92.0885 48.846 93.2475C49.1604 94.906 48.7578 96.1688 47.4113 98.2236C46.1872 100.093 43.8575 102.089 41.3861 104.354C36.1963 109.111 34.359 113.435 34.0338 115.489C33.7094 117.543 34.7903 121.652 36.5207 123.488C26.0079 128.455 6.57499 133.866 6.57499 133.866H6.57422Z" fill="white"/>
<path d="M6.57232 134.106C6.3261 134.106 6.24945 133.814 6.42134 133.676C6.44611 133.656 8.89431 131.72 10.6859 128.663C12.5255 125.522 13.5901 119.69 19.3792 114.337C24.3189 109.768 25.8404 107.107 27.3076 104.533C28.551 102.352 29.1301 101.238 33.4257 98.3978C34.7551 97.5191 35.0416 97.3433 36.9702 95.4983C38.734 93.8104 38.7417 93.7887 41.2147 92.6033C42.3365 92.0652 43.1549 91.6696 44.1545 91.0742C45.1997 90.4517 46.0251 89.9577 47.3529 90.6824C48.2526 91.1733 48.8666 92.0668 49.0803 93.1995C49.8932 97.5028 44.9736 101.384 41.5453 104.531C38.559 107.272 34.8588 111.792 34.2696 115.523C33.9584 117.493 35.0346 121.561 36.6923 123.318C37.5865 124.266 38.0851 125.04 40.0587 124.866C40.3823 124.837 40.4234 125.324 40.1067 125.351C37.8598 125.543 38.2338 125.663 36.3369 123.652C34.5615 121.769 33.4528 117.565 33.788 115.446C33.9259 114.574 34.9293 109.927 41.2162 104.17C43.4979 102.08 45.9616 99.9788 47.2019 98.085C48.5399 96.0433 48.8921 94.8332 48.6002 93.2885C48.3486 91.9576 47.5635 91.3506 47.1183 91.1082C46.0344 90.5183 45.4196 90.8845 44.403 91.4907C43.4174 92.0784 42.5967 92.4802 41.4237 93.0415C39.0003 94.2014 38.9995 94.2277 37.307 95.8482C35.3667 97.7056 35.0439 97.9085 33.6936 98.8012C29.4344 101.617 28.9095 102.705 27.7303 104.771C26.2422 107.378 24.7037 110.072 19.7091 114.69C13.9982 119.97 12.9777 125.711 11.1056 128.905C9.26518 132.044 6.82395 133.974 6.72097 134.055C6.67684 134.09 6.62342 134.107 6.57154 134.107L6.57232 134.106Z" fill="black"/>
<path d="M44.4116 98.9514C44.235 98.9514 43.9338 98.8724 43.7681 98.3754C43.2865 96.9337 40.8059 95.4851 40.7811 95.4711C40.5016 95.3109 40.7462 94.8858 41.0265 95.0492C41.1349 95.1119 43.6922 96.6047 44.2311 98.2221C44.2613 98.3134 44.3241 98.466 44.4108 98.4644C44.9551 98.4567 46.2442 96.305 46.5817 95.0523C46.831 94.1255 46.701 93.4945 46.1304 92.872C45.6759 92.3765 45.3167 92.3207 44.6849 92.3796C44.362 92.4098 44.3201 91.9243 44.6391 91.8949C45.3894 91.8252 45.9058 91.9057 46.4904 92.5429C47.1702 93.2854 47.3444 94.0984 47.0532 95.1808C46.7761 96.2098 45.4344 98.953 44.4108 98.953L44.4116 98.9514Z" fill="black"/>
<path d="M55.1709 110.481C53.171 110.183 52.0413 110.736 51.5714 111.062C51.5032 110.758 51.4003 110.483 51.2524 110.255C50.7855 109.538 49.5568 105.451 49.3191 103.826C49.2316 103.225 48.997 102.627 48.7454 101.997C49.1828 100.972 50.8273 100.667 52.015 100.68C52.1474 100.69 52.2605 100.575 52.262 100.44C52.2636 100.304 52.1552 100.193 52.0212 100.193C50.7708 100.193 49.2866 100.435 48.5193 101.423C48.1523 100.466 47.8085 99.3742 47.8372 97.9743C47.841 97.6484 47.3563 97.6468 47.3494 97.965C47.2936 100.772 48.6091 102.337 48.8375 103.896C49.0674 105.468 50.3055 109.693 50.8443 110.52C51.2454 111.137 51.3019 112.452 51.0015 114.129C50.7329 115.626 50.1886 120.522 50.1661 120.73C50.1289 121.059 50.6167 121.097 50.6508 120.785C50.657 120.734 51.2168 115.697 51.4816 114.217C51.6232 113.428 51.7332 112.472 51.6581 111.634C52.533 110.864 53.9336 110.79 55.0996 110.965C55.4194 111.012 55.4906 110.53 55.1709 110.482V110.481Z" fill="black"/>
<path d="M41.7629 112.154C40.4808 111.897 39.6647 112.253 39.2203 112.574C39.1824 110.811 38.7906 108.284 39.043 107.074C39.1088 106.758 38.6311 106.659 38.5653 106.975C38.3903 107.82 38.4941 109.124 38.6033 110.502C38.8487 113.579 38.841 114.005 37.829 116.597C37.0083 118.709 36.9944 118.878 36.2767 123.456C36.2294 123.775 36.7149 123.848 36.7598 123.52C36.8132 123.012 37.3211 119.783 37.6254 118.658C37.6471 118.652 37.6679 118.642 37.6881 118.629C37.6989 118.623 38.8503 117.926 41.2435 118.47C41.5563 118.539 41.6654 118.068 41.3503 117.995C39.5339 117.582 38.3726 117.835 37.8143 118.038C38.3462 116.453 39.1569 114.966 39.2165 113.232C39.3373 113.083 40.0518 112.31 41.6654 112.632C41.9813 112.698 42.0781 112.217 41.7614 112.155L41.7629 112.154Z" fill="black"/>
<path d="M48.8484 114.377C46.8973 114.156 45.7506 114.589 45.2574 114.852C45.084 113.335 44.3686 111.758 44.3175 110.032C44.3012 109.483 44.2424 108.92 44.1688 108.337C44.1316 108.044 45.0615 107.233 46.6766 107.556C46.9886 107.621 47.0908 107.141 46.7726 107.078C45.3209 106.787 44.4669 107.282 44.0736 107.621C43.8297 105.834 43.6075 104.221 43.856 102.393C43.9001 102.075 43.4162 102.006 43.3729 102.327C42.9703 105.289 43.7639 107.787 43.8305 110.046C43.897 112.296 45.0677 114.409 44.7541 116.032C44.4313 117.715 42.9354 124.273 42.9199 124.338C42.8487 124.648 43.3179 124.769 43.3922 124.444C43.4077 124.378 44.9059 117.813 45.2311 116.122C45.2768 115.887 45.2953 115.647 45.293 115.401C45.4293 115.305 46.5086 114.603 48.7942 114.861C49.1147 114.898 49.1697 114.413 48.8491 114.377H48.8484Z" fill="black"/>
<path d="M148.855 142.378C144.176 140.461 129.982 141.307 126.147 141.383C122.311 141.459 118.783 141.689 114.564 139.234C110.345 136.779 109.348 133.634 108.427 132.483C107.507 131.331 104.439 127.957 102.981 125.731C101.524 123.507 99.2229 120.746 97.9957 118.597C96.7685 116.449 97.3051 114.072 97.3051 114.072C94.03 110.658 95.3269 112.183 91.5903 107.255C91.5903 107.255 93.1636 100.412 99.0828 98.4629C99.0828 98.4629 98.6724 96.3422 98.9117 95.7259C99.1509 95.1096 99.9724 94.4259 101.272 94.7682C102.572 95.1104 103.837 97.6422 103.837 97.6422C103.837 97.6422 105.89 97.7792 106.849 99.1473C106.849 99.1473 108.491 98.9081 109.756 100.618C111.022 102.33 112.287 105.545 112.287 105.545C112.287 105.545 113.724 107.084 114.066 107.974C114.408 108.863 115.914 112.113 115.914 112.113C115.914 112.113 119.883 113.584 121.046 114.473C121.046 114.473 121.97 111.12 122.347 110.539C122.723 109.958 150.946 117.244 150.946 117.244C150.969 125.936 151.46 136.232 150.699 140.69C150.417 142.341 149.401 142.186 148.854 142.376L148.855 142.378Z" fill="white"/>
<path d="M98.2579 81.9605C97.7252 81.8482 97.5626 81.2118 97.9149 80.8533C100.145 78.5817 98.6396 74.7631 95.5147 74.5687C92.818 74.4007 90.887 77.0626 91.8084 79.5472C92.0081 80.0868 91.5381 80.5343 91.0628 80.4329L84.7464 79.0671C83.9582 78.8976 83.1824 79.4008 83.0129 80.189L81.5186 87.1689C81.4473 87.5026 81.6424 87.8549 82.0156 87.9493C82.3695 88.0391 82.6366 87.7054 83.6361 87.7054C85.7599 87.7054 87.4656 89.4955 87.327 91.6495C87.128 94.7411 83.3481 96.271 81.0664 94.0659C80.8272 93.8344 80.4385 93.812 80.1636 94.0551C79.953 94.2417 80.0777 93.9041 78.6205 100.701C78.4517 101.489 78.9542 102.265 79.7424 102.435L86.4296 103.866C86.9337 103.975 87.1226 104.598 86.7618 104.967C84.4166 107.369 86.2516 111.464 89.6559 111.241C92.0623 111.084 93.7409 108.619 92.8791 106.275C92.7011 105.79 93.1277 105.299 93.6325 105.408L100.257 106.826C101.045 106.995 101.821 106.492 101.991 105.704L103.297 99.5925C103.369 99.2573 103.173 98.9019 102.796 98.8105C102.436 98.723 102.148 99.0715 101.133 99.0715C99.0089 99.0715 97.3032 97.2814 97.4418 95.129C97.6408 92.0234 101.457 90.4943 103.733 92.7427C103.97 92.9773 104.361 93.0052 104.638 92.7613C104.864 92.5631 104.763 92.7536 106.381 85.1899C106.549 84.4025 106.047 83.6244 105.258 83.4563L98.2579 81.9605Z" fill="#D142A7"/>
<path d="M105.316 83.2171L98.3158 81.7212C97.9589 81.6477 97.8792 81.2443 98.0928 81.026C100.488 78.5894 98.8369 74.5315 95.5347 74.3264C92.6483 74.1467 90.6043 76.9991 91.5845 79.6339C91.7115 79.9892 91.4095 80.2579 91.1184 80.1967L84.8013 78.831C83.8815 78.6343 82.9748 79.2212 82.7782 80.141L81.2838 87.1209C81.1437 87.7767 81.7616 88.4077 82.4824 88.1514C83.7003 87.7155 85.1628 87.9795 86.1601 89.0433C88.1491 91.1656 86.7632 94.6048 83.9465 94.8479C82.9446 94.9331 81.9582 94.5854 81.2405 93.8917C80.8975 93.5611 80.3671 93.5533 80.0056 93.8747C79.7075 94.1364 79.8329 93.8878 78.3866 100.652C78.1899 101.572 78.7768 102.478 79.6959 102.675L86.3831 104.106C86.6974 104.175 86.8174 104.566 86.5921 104.799C84.0712 107.371 86.0749 111.73 89.6814 111.484C92.3007 111.312 94.0234 108.654 93.1167 106.191C93.0045 105.883 93.2739 105.576 93.5898 105.645L100.214 107.062C101.134 107.258 102.042 106.672 102.237 105.753L103.546 99.6428C103.689 98.9801 103.054 98.3506 102.339 98.6162C101.104 99.0707 99.6259 98.8059 98.6232 97.7366C96.638 95.6191 98.0085 92.1612 100.855 91.9305C101.865 91.8484 102.854 92.2077 103.571 92.9154C103.911 93.2522 104.442 93.2646 104.809 92.9425C105.111 92.6769 104.98 92.9789 106.629 85.2402C106.826 84.315 106.233 83.4114 105.317 83.2171H105.316ZM106.147 85.1365C104.458 92.9843 104.611 92.4601 104.482 92.5755C104.312 92.7264 104.065 92.7218 103.909 92.5677C103.091 91.761 101.963 91.3506 100.811 91.4443C97.5687 91.7075 95.9923 95.6492 98.2616 98.0703C99.3247 99.2031 100.991 99.6289 102.503 99.0738C102.861 98.946 103.129 99.2518 103.066 99.5422L101.758 105.653C101.615 106.32 100.965 106.726 100.313 106.588L93.6881 105.17C92.999 105.023 92.4091 105.691 92.6545 106.361C93.4466 108.503 91.9538 110.848 89.645 110.999C86.452 111.209 84.7548 107.374 86.9413 105.139C87.4345 104.633 87.1751 103.778 86.4837 103.63L79.7965 102.199C79.1407 102.058 78.7219 101.41 78.862 100.755L80.2069 94.4685C80.2889 94.1015 80.6931 94.0411 80.899 94.2393C81.719 95.0306 82.8447 95.427 83.9868 95.3295C87.2193 95.0523 88.7771 91.1191 86.5147 88.705C85.4609 87.5823 83.811 87.1542 82.3159 87.6868C81.9799 87.8185 81.6934 87.5188 81.7577 87.2184L83.252 80.2386C83.3921 79.5828 84.0402 79.1639 84.696 79.304L91.0131 80.6683C91.4947 80.7689 91.9646 80.4685 92.0816 79.9838C92.1946 79.5317 91.8237 79.2522 91.8237 78.2627C91.8206 76.2597 93.5015 74.6848 95.5014 74.808C98.4358 74.9899 99.8179 78.5731 97.7429 80.6791C97.2551 81.1777 97.4812 82.0395 98.2136 82.1951L105.214 83.6925C105.885 83.8373 106.287 84.4954 106.148 85.138L106.147 85.1365Z" fill="black"/>
<path d="M148.946 142.152C144.324 140.257 130.534 141.029 125.501 141.151C121.958 141.238 118.611 141.305 114.688 139.023C111.496 137.166 110.19 134.925 109.325 133.441C108.761 132.473 108.829 132.555 107.43 130.926C103.073 125.845 104.104 126.732 101.043 122.596C99.9971 121.179 98.9132 119.715 98.207 118.478C97.3383 116.958 97.3941 115.294 97.48 114.539C99.1718 116 101.892 118.857 104.34 121.452C106.048 123.264 107.363 124.372 108.757 125.545C111.492 127.845 111.954 128.244 113.659 130.874C114.33 131.907 114.374 132.024 114.552 132.024C114.741 132.024 114.867 131.808 114.752 131.64C113.759 130.214 112.864 128.507 111.2 127.009C108.793 124.849 107.214 123.788 104.694 121.116C102.076 118.339 99.1423 115.262 97.4669 113.89C95.8239 112.543 93.1597 108.831 93.1326 108.792C92.9475 108.53 92.548 108.811 92.7362 109.076C92.8446 109.227 95.3446 112.716 97.0387 114.166C96.9404 114.733 96.6872 116.798 97.7843 118.719C98.9875 120.822 101.364 123.709 102.777 125.865C104.252 128.117 107.267 131.425 108.237 132.634C109.148 133.774 110.156 136.951 114.442 139.443C118.967 142.077 122.79 141.754 128.374 141.555C133.706 141.369 144.799 140.98 148.762 142.604C149.067 142.726 149.239 142.267 148.946 142.149V142.152Z" fill="black"/>
<path d="M99.3315 98.2058C99.2061 97.7056 98.9521 96.2663 99.258 95.6353C99.7481 94.6249 101.598 94.3849 103.059 96.7146C105.056 99.8999 104.579 102.62 105.427 105.115C105.13 105.009 104.716 104.927 104.171 104.957C103.851 104.974 103.873 105.459 104.198 105.444C105.282 105.383 105.656 105.797 105.734 105.839C106.558 107.418 106.598 106.265 108.317 111.982C106.712 111.295 106.585 111.374 106.478 111.23C106.066 110.688 103.9 107.896 101.75 106.388C101.486 106.204 101.204 106.599 101.469 106.788C103.56 108.254 105.685 110.993 106.089 111.526C106.512 112.087 108.047 111.906 112.902 115.019C112.941 115.081 113.005 115.122 113.075 115.131C114.148 115.823 115.139 116.52 115.664 116.624C116.667 116.825 120.387 117.532 120.86 117.622C120.976 118.705 121.236 119.779 121.741 120.641C121.903 120.916 122.324 120.67 122.161 120.394C120.586 117.71 121.588 112.578 121.598 112.526C121.664 112.21 121.182 112.114 121.121 112.43C121.105 112.506 120.973 113.184 120.877 114.155C119.889 113.476 118.111 112.542 116.776 112.178C116.171 111.967 116.051 112.119 115.588 110.849C115.022 109.302 113.805 106.932 113.223 106.24C112.993 105.967 112.841 105.831 112.729 105.732C112.104 105.177 111.887 103.283 110.262 100.925C109.007 99.1032 107.697 98.6796 106.891 98.8701C105.932 97.533 104.442 97.4695 104.042 97.478C103.866 97.1234 103.672 96.7727 103.472 96.4545C101.779 93.7546 99.4624 94.0914 98.819 95.4208C98.3738 96.3406 98.8376 98.2414 98.8569 98.3227C98.9374 98.6355 99.4074 98.5194 99.3315 98.205V98.2058ZM109.861 101.203C111.02 102.887 111.56 104.622 111.926 105.428C111.619 105.365 111.234 105.339 110.844 105.445C110.535 105.529 110.66 105.999 110.972 105.915C111.621 105.738 112.32 106.071 112.398 106.092C112.503 106.185 112.642 106.308 112.849 106.555C113.393 107.203 114.587 109.539 115.129 111.018C115.291 111.462 115.424 111.768 115.568 111.988C114.647 112.002 114.215 112.344 113.565 112.745C113.293 112.914 113.548 113.328 113.825 113.157C114.472 112.757 115.085 112.26 116.37 112.568C116.491 112.608 116.686 112.662 116.695 112.663C118.323 113.112 120.422 114.399 120.831 114.727C120.78 115.447 120.76 116.275 120.816 117.115C119.997 116.96 116.696 116.333 115.761 116.146C115.346 116.063 114.439 115.428 113.288 114.687C112.874 113.655 112.488 113.085 112.145 112.577C110.807 110.592 111.685 111.103 109.761 106.685C109.436 105.935 109.461 105.979 109.385 105.744C109.298 105.342 109.242 102.58 107.188 99.3215C107.779 99.289 108.795 99.6575 109.861 101.204V101.203ZM106.555 99.241C107.769 101.062 108.604 103.16 108.839 105.363C108.467 105.206 107.901 105.072 107.237 105.271C106.931 105.362 107.066 105.829 107.377 105.738C108.149 105.506 108.752 105.841 108.94 105.966C109.001 106.157 109.131 106.456 109.315 106.878C110.557 109.735 110.537 110.209 110.804 111.027C110.485 110.856 110.063 110.71 109.539 110.694C109.219 110.684 109.199 111.171 109.524 111.182C110.587 111.215 111.133 111.882 111.155 111.911C111.274 112.059 111.157 111.986 111.742 112.848C111.991 113.216 112.263 113.62 112.553 114.22C111.54 113.59 110.323 112.889 108.906 112.242C108.595 111.218 107.604 107.844 107.013 106.931C106.342 105.907 105.999 105.57 105.691 104.24C105.218 102.17 105.162 99.9696 104.275 97.9704C104.788 98.0022 105.861 98.1973 106.556 99.2402L106.555 99.241Z" fill="black"/>
<path d="M143.392 112.265C139.691 108.565 135.622 105.605 133.031 103.632C130.441 101.659 127.358 98.8213 125.633 97.588C123.907 96.3546 120.083 94.6288 118.479 93.7639C116.874 92.9006 114.654 91.5441 113.545 90.5577C112.435 89.5714 110.339 89.4475 107.872 87.844C105.405 86.2397 103.432 85.3772 102.445 87.35C101.459 89.3228 102.075 93.27 107.379 97.2163C112.682 101.162 112.559 99.066 114.654 102.027C116.751 104.986 119.094 105.727 120.08 108.192C121.067 110.659 121.067 112.756 122.917 115.345L150.79 117.197C150.79 117.197 147.09 115.964 143.391 112.264L143.392 112.265Z" fill="white"/>
<path d="M108.225 92.6668C107.621 92.6668 107.114 92.2998 106.387 91.891C105.41 91.3413 104.484 90.8303 104.13 89.8431C103.604 88.3813 104.716 87.1735 104.765 87.1216C104.987 86.8878 105.34 87.2192 105.121 87.4553C105.105 87.4716 104.167 88.5029 104.589 89.6782C104.881 90.4927 105.727 90.9658 106.624 91.4652C107.217 91.795 107.946 92.3114 108.408 92.1543C108.595 92.0908 108.608 91.9537 108.789 91.4087C108.943 90.9441 109.116 90.4153 109.37 90.0088C109.541 89.7339 109.953 89.9918 109.785 90.2651C109.045 91.4629 109.328 92.666 108.225 92.666L108.225 92.6668Z" fill="black"/>
<path d="M150.79 117.44C150.322 117.44 146.493 115.715 143.217 112.439C139.798 109.021 136.334 106.455 132.881 103.828C130.827 102.264 126.91 98.8058 125.486 97.7884C123.77 96.562 119.968 94.8478 118.36 93.9814C116.674 93.0725 114.48 91.7206 113.381 90.7427C112.358 89.8338 110.171 89.634 107.737 88.0514C106.321 87.1309 104.731 86.2265 103.689 86.5099C101.842 87.0116 100.764 91.9939 107.522 97.0227C112.805 100.954 112.697 98.8437 114.853 101.887C116.927 104.814 119.291 105.566 120.307 108.104C121.32 110.636 121.272 112.614 123.115 115.204C123.303 115.469 122.904 115.749 122.718 115.488C120.828 112.831 120.842 110.752 119.854 108.284C118.895 105.889 116.565 105.15 114.455 102.168C112.447 99.3323 112.496 101.331 107.233 97.4129C100.182 92.1643 101.263 86.6624 103.563 86.0376C104.787 85.7047 106.421 86.6106 108.004 87.6403C110.45 89.2306 112.542 89.3414 113.706 90.3758C114.776 91.3273 116.931 92.6551 118.592 93.5502C120.202 94.4166 124.025 96.1416 125.772 97.3897C127.499 98.6231 130.578 101.453 133.179 103.438C136.506 105.978 140.021 108.551 143.563 112.092C147.176 115.704 150.831 116.954 150.868 116.967C151.129 117.053 151.066 117.44 150.79 117.44V117.44Z" fill="black"/>
</svg>
