<svg width="156" height="156" viewBox="0 0 156 156" fill="none" xmlns="http://www.w3.org/2000/svg">
<path d="M20.9827 7.6574C29.9532 4.09584 39.3619 6.599 42.0013 13.2467C44.6407 19.8944 39.509 28.1704 30.5385 31.7312C21.568 35.292 12.1562 32.7911 9.51681 26.1419C6.87738 19.4926 12.0138 11.2182 20.9827 7.6574Z" fill="white"/>
<path d="M4.66168 123.394C4.7639 125.217 5.34957 126.994 6.38524 128.625C7.42091 130.257 8.8863 131.709 10.6977 132.901C12.5092 134.092 14.6312 134.999 16.9427 135.569C19.2541 136.139 21.7097 136.361 24.1692 136.223C26.6288 136.085 29.0441 135.59 31.2773 134.765C33.5105 133.94 35.5179 132.802 37.1847 131.415C38.8516 130.029 40.1454 128.421 40.9922 126.685C41.839 124.948 42.2222 123.116 42.1199 121.293C42.0177 119.47 41.432 117.693 40.3964 116.061C39.3607 114.43 37.8953 112.977 36.0839 111.786C34.2724 110.595 32.1504 109.688 29.839 109.118C27.5275 108.548 25.0719 108.326 22.6124 108.464C20.1528 108.601 17.7375 109.097 15.5043 109.922C13.2711 110.747 11.2637 111.885 9.59687 113.272C7.93 114.658 6.63623 116.265 5.78945 118.002C4.94267 119.739 4.55945 121.571 4.66168 123.394Z" fill="white"/>
<path d="M124.665 92.2492C132.931 91.1289 140.305 95.1859 141.132 101.308C141.959 107.43 135.935 113.309 127.67 114.428C119.405 115.548 112.03 111.492 111.2 105.37C110.37 99.2477 116.399 93.3695 124.665 92.2492Z" fill="white"/>
<path d="M127.528 23.6404C137.537 19.667 148.038 22.4597 150.98 29.8786C153.922 37.2975 148.197 46.5312 138.188 50.5046C128.178 54.4781 117.677 51.6846 114.733 44.2665C111.788 36.8484 117.518 27.6131 127.528 23.6404Z" fill="white"/>
<path d="M54.9507 26.7095H92.9107C94.4215 26.7097 95.8705 27.3092 96.9397 28.3765C98.0089 29.4439 98.611 30.8918 98.6139 32.4025V107.429C98.6139 108.942 98.013 110.392 96.9435 111.462C95.8739 112.531 94.4233 113.132 92.9107 113.132H55.32C53.794 113.139 52.3256 112.55 51.2268 111.491C50.128 110.432 49.4855 108.986 49.4357 107.461V32.442C49.4109 31.7008 49.5349 30.9621 49.8005 30.2697C50.0661 29.5772 50.4679 28.9451 50.9821 28.4106C51.4963 27.8761 52.1124 27.4502 52.7941 27.158C53.4758 26.8658 54.2091 26.7133 54.9507 26.7095Z" fill="#D142A7"/>
<path d="M122.671 37.7264C125.898 38.4557 129.207 38.7513 132.512 38.6051L133.259 37.2665C134.074 37.2301 134.226 37.2378 134.976 37.2378C137.447 35.0806 139.319 32.3223 140.412 29.2297C142.541 32.1805 144.05 35.532 144.849 39.0821C137.276 43.6308 135.278 43.8848 128.178 48.2283C126.755 44.5265 124.907 41.0023 122.671 37.7264Z" fill="#D142A7"/>
<path d="M35.8637 18.535C35.1537 16.5492 34.3037 14.6162 33.3203 12.7506C33.0644 12.2629 32.6399 11.885 32.126 11.687C31.6121 11.489 31.0438 11.4845 30.5268 11.6743C25.9794 13.3484 21.5378 15.2971 17.2267 17.5099C16.7787 17.74 16.4198 18.1123 16.2063 18.5684C15.9927 19.0245 15.9366 19.5386 16.0468 20.0301C16.5819 22.4274 17.5222 24.7159 18.8271 26.797C19.104 27.2354 19.5227 27.5657 20.0135 27.733C20.5044 27.9002 21.0376 27.8942 21.5246 27.7161C24.5881 26.6001 27.5742 25.2823 30.4633 23.7713L34.3129 25.0875L33.1593 22.2878C33.7591 21.9409 34.3457 21.5907 34.9191 21.2371C35.363 20.9637 35.6992 20.5459 35.8712 20.0538C36.0432 19.5617 36.0406 19.0254 35.8637 18.535Z" fill="#D142A7"/>
<path d="M29.2135 122.963C28.9386 120.128 28.7575 118.667 28.543 117.066C28.4538 116.399 28.1146 115.791 27.594 115.364C27.0734 114.938 26.4103 114.725 25.7387 114.768C25.7387 114.768 16.3617 115.405 13.1478 115.658C12.8002 115.685 12.4614 115.78 12.1506 115.938C11.8399 116.097 11.5634 116.314 11.3369 116.579C11.1104 116.844 10.9384 117.152 10.8306 117.483C10.7228 117.815 10.6815 118.164 10.7089 118.512C10.9037 120.861 11.3676 123.179 12.0917 125.422C12.2738 125.992 12.6434 126.484 13.1404 126.818C13.6374 127.152 14.2327 127.307 14.8295 127.26C15.4071 127.215 15.9895 127.165 16.5769 127.111L16.9981 129.589L18.662 126.906C21.4718 126.621 24.6385 126.209 26.986 125.84C27.6541 125.735 28.2568 125.378 28.6708 124.844C29.0849 124.309 29.279 123.636 29.2135 122.963Z" fill="#D142A7"/>
<path d="M117.364 101.003C117.306 100.262 117.535 99.5279 118.003 98.9515C118.471 98.375 119.143 98.0006 119.88 97.9058L130.912 96.4564C131.644 96.3608 132.384 96.5471 132.983 96.9775C133.582 97.4079 133.995 98.0501 134.137 98.7737C134.497 100.603 134.819 102.619 135.051 104.694C135.13 105.398 134.949 106.107 134.542 106.687C134.135 107.267 133.53 107.678 132.84 107.842C129.019 108.751 125.503 109.402 121.705 109.932C120.996 110.032 120.275 109.866 119.681 109.465C119.087 109.065 118.662 108.459 118.488 107.764C117.929 105.545 117.553 103.284 117.364 101.003Z" fill="#D142A7"/>
<path d="M125.718 104.934C126.947 104.517 128.01 103.718 128.752 102.653C128.669 102.475 128.562 102.308 128.434 102.157C128.274 101.968 128.189 101.726 128.195 101.478C128.201 101.23 128.297 100.993 128.466 100.811C128.535 100.735 128.61 100.664 128.689 100.599C128.87 100.442 129.105 100.363 129.344 100.38C129.583 100.397 129.806 100.507 129.963 100.688C130.134 100.888 130.265 101.118 130.35 101.367C130.881 102.928 129.249 104.545 128.793 104.999C127.671 106.117 125.529 107.391 124.203 106.587C124.09 106.518 123.993 106.425 123.92 106.314C123.847 106.203 123.799 106.078 123.78 105.946C123.761 105.815 123.771 105.681 123.81 105.554C123.849 105.427 123.915 105.31 124.004 105.212C124.129 105.073 124.267 104.947 124.417 104.836C124.612 104.694 124.851 104.627 125.091 104.646C125.331 104.665 125.556 104.77 125.726 104.941L125.718 104.934Z" fill="#FDFDFD"/>
<path d="M69.4656 28.4392H78.8464C79.1103 28.4392 79.3634 28.544 79.55 28.7306C79.7365 28.9172 79.8414 29.1703 79.8414 29.4341C79.8414 29.698 79.7365 29.951 79.55 30.1376C79.3634 30.3242 79.1103 30.429 78.8464 30.429H69.4656C69.2018 30.429 68.9487 30.3242 68.7621 30.1376C68.5755 29.951 68.4707 29.698 68.4707 29.4341C68.4707 29.1703 68.5755 28.9172 68.7621 28.7306C68.9487 28.544 69.2018 28.4392 69.4656 28.4392Z" fill="black"/>
<path d="M72.5337 108.811C72.5337 109.127 72.5959 109.44 72.7169 109.732C72.8378 110.024 73.0151 110.289 73.2385 110.513C73.462 110.736 73.7272 110.913 74.0192 111.034C74.3111 111.155 74.6241 111.218 74.9401 111.218C75.2561 111.218 75.569 111.155 75.8609 111.034C76.1529 110.913 76.4182 110.736 76.6416 110.513C76.8651 110.289 77.0423 110.024 77.1633 109.732C77.2842 109.44 77.3464 109.127 77.3464 108.811C77.3464 108.495 77.2842 108.182 77.1633 107.89C77.0423 107.598 76.8651 107.333 76.6416 107.11C76.4182 106.886 76.1529 106.709 75.8609 106.588C75.569 106.467 75.2561 106.405 74.9401 106.405C74.6241 106.405 74.3111 106.467 74.0192 106.588C73.7272 106.709 73.462 106.886 73.2385 107.11C73.0151 107.333 72.8378 107.598 72.7169 107.89C72.5959 108.182 72.5337 108.495 72.5337 108.811Z" fill="black"/>
<path d="M58.1416 44.0722C58.1416 45.9271 58.8784 47.706 60.19 49.0176C61.5016 50.3291 63.2805 51.066 65.1354 51.066C66.9903 51.066 68.7692 50.3291 70.0808 49.0176C71.3924 47.706 72.1292 45.9271 72.1292 44.0722C72.1292 42.2173 71.3924 40.4384 70.0808 39.1268C68.7692 37.8152 66.9903 37.0784 65.1354 37.0784C63.2805 37.0784 61.5016 37.8152 60.19 39.1268C58.8784 40.4384 58.1416 42.2173 58.1416 44.0722Z" fill="white"/>
<path d="M58.1416 67.6681C58.1416 69.523 58.8784 71.3019 60.19 72.6135C61.5016 73.9251 63.2805 74.6619 65.1354 74.6619C66.9903 74.6619 68.7692 73.9251 70.0808 72.6135C71.3924 71.3019 72.1292 69.523 72.1292 67.6681C72.1292 65.8133 71.3924 64.0344 70.0808 62.7228C68.7692 61.4112 66.9903 60.6743 65.1354 60.6743C63.2805 60.6743 61.5016 61.4112 60.19 62.7228C58.8784 64.0344 58.1416 65.8133 58.1416 67.6681Z" fill="white"/>
<path d="M58.1715 93.0613C58.0164 91.3603 58.4897 89.6615 59.5019 88.2857C60.5141 86.91 61.9952 85.9526 63.6652 85.5945C65.3352 85.2364 67.0786 85.5024 68.5659 86.3422C70.0532 87.182 71.1814 88.5375 71.7373 90.1524C72.2933 91.7674 72.2384 93.5301 71.5832 95.1075C70.928 96.6848 69.7177 97.9675 68.1811 98.7132C66.6445 99.459 64.888 99.6161 63.2434 99.1549C61.5989 98.6937 60.1802 97.6462 59.2554 96.2102L58.1715 93.0613Z" fill="white"/>
<path d="M73.5735 148.592C85.4355 150.408 97.5672 148.376 108.19 142.794C106.564 135.259 104.805 124.129 105.377 116.404C105.681 112.945 106.308 109.521 107.249 106.179C108.37 101.757 108.538 102.338 109.282 99.1468C110.121 95.5489 110.931 92.0826 110.499 87.6299C110.222 84.8863 109.54 82.1988 108.476 79.6551C107.939 78.1605 107.104 76.7907 106.022 75.629C105.104 74.6895 104.02 73.9283 102.825 73.3836C98.4037 72.501 96.599 69.4551 93.1187 66.0089C91.9829 64.7576 90.5849 63.7726 89.0245 63.124C88.4363 62.8268 87.7642 62.7399 87.1198 62.8778C85.6185 63.306 85.0804 65.3159 84.9519 65.7867C84.6715 67.1079 84.7552 68.4805 85.1942 69.7578C85.7697 71.6237 86.6472 73.3827 87.7919 74.9647C88.8719 76.6636 90.107 78.2589 91.4812 79.7302C92.3222 80.7354 93.3223 81.596 94.4419 82.2775C95.6365 82.9191 96.9646 83.2728 98.3201 83.3103L98.7847 84.3029C92.0688 96.0328 91.2264 97.0478 90.4026 100.296C89.9355 102.074 89.7585 103.917 89.8785 105.752C90.0767 108.35 90.8938 110.863 92.2616 113.081H58.3262C58.6771 115.259 59.5435 117.322 60.8532 119.098C62.163 120.873 63.8782 122.31 65.8558 123.288L73.5735 148.592Z" fill="#FDFDFD"/>
<path d="M49.3705 67.0233C46.4193 63.2026 43.7153 59.1972 41.2749 55.0317C38.2786 49.9022 37.7296 48.0138 37.9116 46.096C37.9844 45.3218 38.1276 43.9947 39.1264 43.2785C40.4225 42.3494 42.2923 43.0772 42.6732 43.2228C43.8114 43.6571 44.3859 44.3447 45.8244 45.9807C46.505 46.7549 47.7183 48.1292 49.3705 49.9758V67.0233Z" fill="#FDFDFD"/>
<path d="M49.3706 67.6704C48.9069 67.7985 48.4739 68.0192 48.0978 68.3192C47.4768 68.8671 47.0291 69.5842 46.8094 70.3826C46.2418 71.6868 45.8883 73.074 45.7626 74.4908C45.6773 77.0235 46.4181 79.5152 47.8732 81.5899C46.8177 82.8931 46.1517 84.4679 45.9518 86.133C45.752 87.7981 46.0264 89.4857 46.7436 91.0017C45.8389 92.2804 45.3069 93.7851 45.2067 95.3483C45.0217 98.3261 46.6112 100.447 47.6549 101.852C49.2266 103.963 52.7874 107.558 55.0018 106.544C55.5133 106.228 55.9369 105.788 56.2334 105.265C56.5299 104.742 56.6897 104.153 56.6981 103.552C56.7357 102.694 56.4945 101.848 56.0106 101.139C56.6965 101.034 57.3414 100.746 57.8773 100.305C58.3269 99.8875 58.6855 99.3817 58.9308 98.8193C59.1761 98.2568 59.3027 97.6498 59.3027 97.0362C59.3383 96.0848 59.169 95.1369 58.8064 94.2567C58.3159 92.9605 57.6331 91.7455 56.781 90.6525C56.1306 89.7188 55.5244 88.9685 55.0598 88.4227C55.2402 88.466 57.2061 88.9252 58.4356 87.698C59.0491 87.0004 59.3626 86.0889 59.3082 85.1615C59.3283 84.2541 59.1068 83.2971 57.4499 80.4456C56.7593 79.2555 56.726 79.2927 55.7598 77.7055C54.6905 75.9487 52.8044 72.7503 51.8482 70.8921C51.7817 70.7628 51.5773 70.4113 51.1731 69.7106C50.8028 68.8572 50.1718 68.1431 49.3706 67.6704Z" fill="#FDFDFD"/>
<path d="M62.5698 41.4792C62.5698 42.1585 62.8397 42.8099 63.32 43.2903C63.8003 43.7706 64.4518 44.0404 65.131 44.0404C65.8103 44.0404 66.4618 43.7706 66.9421 43.2903C67.4224 42.8099 67.6923 42.1585 67.6923 41.4792C67.6923 40.7999 67.4224 40.1485 66.9421 39.6681C66.4618 39.1878 65.8103 38.918 65.131 38.918C64.4518 38.918 63.8003 39.1878 63.32 39.6681C62.8397 40.1485 62.5698 40.7999 62.5698 41.4792Z" fill="black"/>
<path d="M62.6592 65.4917C62.6592 66.1858 62.9349 66.8514 63.4257 67.3422C63.9164 67.833 64.5821 68.1087 65.2761 68.1087C65.9702 68.1087 66.6358 67.833 67.1266 67.3422C67.6174 66.8514 67.8931 66.1858 67.8931 65.4917C67.8931 64.7977 67.6174 64.132 67.1266 63.6412C66.6358 63.1505 65.9702 62.8748 65.2761 62.8748C64.5821 62.8748 63.9164 63.1505 63.4257 63.6412C62.9349 64.132 62.6592 64.7977 62.6592 65.4917Z" fill="black"/>
<path d="M62.7656 89.8862C62.7656 90.5655 63.0355 91.2169 63.5158 91.6972C63.9961 92.1776 64.6476 92.4474 65.3268 92.4474C66.0061 92.4474 66.6576 92.1776 67.1379 91.6972C67.6182 91.2169 67.8881 90.5655 67.8881 89.8862C67.8881 89.2069 67.6182 88.5554 67.1379 88.0751C66.6576 87.5948 66.0061 87.325 65.3268 87.325C64.6476 87.325 63.9961 87.5948 63.5158 88.0751C63.0355 88.5554 62.7656 89.2069 62.7656 89.8862Z" fill="black"/>
<path d="M20.5093 21.5707C20.5093 21.9009 20.6404 22.2175 20.8739 22.451C21.1074 22.6845 21.4241 22.8157 21.7543 22.8157C22.0845 22.8157 22.4011 22.6845 22.6346 22.451C22.8681 22.2175 22.9993 21.9009 22.9993 21.5707C22.9993 21.2405 22.8681 20.9238 22.6346 20.6903C22.4011 20.4569 22.0845 20.3257 21.7543 20.3257C21.4241 20.3257 21.1074 20.4569 20.8739 20.6903C20.6404 20.9238 20.5093 21.2405 20.5093 21.5707Z" fill="#FDFDFD"/>
<path d="M24.5142 19.6964C24.5142 20.0266 24.6453 20.3433 24.8788 20.5768C25.1123 20.8102 25.429 20.9414 25.7592 20.9414C26.0894 20.9414 26.406 20.8102 26.6395 20.5768C26.873 20.3433 27.0042 20.0266 27.0042 19.6964C27.0042 19.3662 26.873 19.0495 26.6395 18.8161C26.406 18.5826 26.0894 18.4514 25.7592 18.4514C25.429 18.4514 25.1123 18.5826 24.8788 18.8161C24.6453 19.0495 24.5142 19.3662 24.5142 19.6964Z" fill="#FDFDFD"/>
<path d="M28.9082 17.8219C28.9082 18.1521 29.0394 18.4688 29.2729 18.7022C29.5063 18.9357 29.823 19.0669 30.1532 19.0669C30.4834 19.0669 30.8001 18.9357 31.0335 18.7022C31.267 18.4688 31.3982 18.1521 31.3982 17.8219C31.3982 17.4917 31.267 17.175 31.0335 16.9416C30.8001 16.7081 30.4834 16.5769 30.1532 16.5769C29.823 16.5769 29.5063 16.7081 29.2729 16.9416C29.0394 17.175 28.9082 17.4917 28.9082 17.8219Z" fill="#FDFDFD"/>
<path d="M14.0151 121.075C14.0151 121.412 14.1488 121.735 14.3868 121.973C14.6248 122.211 14.9476 122.344 15.2841 122.344C15.6207 122.344 15.9435 122.211 16.1815 121.973C16.4194 121.735 16.5531 121.412 16.5531 121.075C16.5531 120.739 16.4194 120.416 16.1815 120.178C15.9435 119.94 15.6207 119.806 15.2841 119.806C14.9476 119.806 14.6248 119.94 14.3868 120.178C14.1488 120.416 14.0151 120.739 14.0151 121.075Z" fill="#FDFDFD"/>
<path d="M18.6953 120.81C18.6953 120.977 18.7281 121.142 18.7919 121.296C18.8557 121.45 18.9492 121.59 19.067 121.708C19.1848 121.826 19.3247 121.919 19.4787 121.983C19.6326 122.047 19.7977 122.079 19.9643 122.079C20.131 122.079 20.296 122.047 20.4499 121.983C20.6039 121.919 20.7438 121.826 20.8616 121.708C20.9795 121.59 21.0729 121.45 21.1367 121.296C21.2005 121.142 21.2333 120.977 21.2333 120.81C21.2333 120.644 21.2005 120.479 21.1367 120.325C21.0729 120.171 20.9795 120.031 20.8616 119.913C20.7438 119.795 20.6039 119.702 20.4499 119.638C20.296 119.574 20.131 119.542 19.9643 119.542C19.7977 119.542 19.6326 119.574 19.4787 119.638C19.3247 119.702 19.1848 119.795 19.067 119.913C18.9492 120.031 18.8557 120.171 18.7919 120.325C18.7281 120.479 18.6953 120.644 18.6953 120.81Z" fill="#FDFDFD"/>
<path d="M23.3745 120.412C23.3745 120.748 23.5082 121.071 23.7462 121.309C23.9842 121.547 24.307 121.681 24.6435 121.681C24.9801 121.681 25.3028 121.547 25.5408 121.309C25.7788 121.071 25.9125 120.748 25.9125 120.412C25.9125 120.075 25.7788 119.752 25.5408 119.514C25.3028 119.276 24.9801 119.143 24.6435 119.143C24.307 119.143 23.9842 119.276 23.7462 119.514C23.5082 119.752 23.3745 120.075 23.3745 120.412Z" fill="#FDFDFD"/>
<path d="M122.671 37.7264C125.423 34.3328 127.809 30.6573 129.787 26.7615C133.189 28.1008 136.769 28.9325 140.412 29.2298C139.32 32.3239 137.448 35.0837 134.976 37.2417L133.259 37.2704L132.512 38.6091C129.207 38.7464 125.899 38.4496 122.671 37.7264Z" fill="#FDFDFD"/>
<path d="M145.225 38.9968C144.427 35.4171 142.912 32.0364 140.77 29.0593C140.73 28.9891 140.672 28.931 140.602 28.8913C140.532 28.8516 140.453 28.8318 140.372 28.834C136.781 28.5277 133.254 27.6983 129.903 26.3719C129.812 26.3359 129.711 26.3357 129.62 26.3711C129.529 26.4066 129.455 26.4752 129.412 26.5631C127.526 30.4389 125.187 34.0775 122.444 37.4026C122.331 37.5405 122.188 37.7038 122.352 37.9446C126.43 43.9218 127.611 48.2344 127.922 48.5155C127.992 48.5743 128.081 48.608 128.173 48.6112C128.265 48.6144 128.355 48.587 128.43 48.5333C135.931 43.9869 137.315 44.0589 145.005 39.4397C145.09 39.4063 145.159 39.3425 145.2 39.2607C145.241 39.1789 145.25 39.0849 145.225 38.9968ZM128.172 47.1923C126.905 44.0795 125.338 41.0974 123.494 38.2884C126.25 38.8537 129.063 39.0974 131.875 39.0146C130.451 41.6504 129.213 44.383 128.172 47.1923ZM132.303 38.228C129.493 38.3354 126.681 38.119 123.92 37.583C126.914 36.2118 137.512 31.1165 139.683 30.0256C138.6 32.641 136.938 34.9761 134.82 36.8545C134.296 36.8514 133.77 36.8622 133.243 36.887C133.178 36.8901 133.115 36.9095 133.06 36.9435C133.004 36.9775 132.958 37.0249 132.926 37.0813C132.707 37.4545 132.512 37.8447 132.303 38.2257V38.228ZM140.51 30.0488C142.262 32.6148 143.547 35.4703 144.304 38.4835C141.604 37.5453 138.782 37.0067 135.927 36.8847C137.924 34.9581 139.486 32.6265 140.507 30.0465L140.51 30.0488ZM129.956 27.2251C132.891 28.3484 135.956 29.1001 139.078 29.4627C136.992 30.5095 126.866 35.3772 124.002 36.6919C126.3 33.7446 128.294 30.5721 129.953 27.2228L129.956 27.2251ZM128.955 47.3084C130.208 43.9727 131.725 40.7424 133.492 37.6481C137.037 37.5041 140.578 38.021 143.934 39.1726C136.936 43.321 135.619 43.345 128.955 47.3084Z" fill="black"/>
<path d="M18.4998 27.0031C17.1716 24.8836 16.2144 22.5533 15.6691 20.1123C15.54 19.5371 15.6056 18.9354 15.8556 18.4016C16.1056 17.8678 16.5259 17.4321 17.0504 17.1631C21.3753 14.9433 25.8311 12.988 30.393 11.3082C30.9985 11.0886 31.663 11.0952 32.264 11.3269C32.865 11.5585 33.362 11.9995 33.6635 12.5687C34.6548 14.45 35.512 16.399 36.2286 18.4012C36.4316 18.9749 36.4327 19.6008 36.2316 20.1752C36.0306 20.7496 35.6394 21.2382 35.1229 21.5601C34.6398 21.8585 34.1476 22.154 33.6464 22.4466L34.6716 24.9335C34.7002 25.0024 34.7084 25.078 34.695 25.1514C34.6817 25.2248 34.6475 25.2928 34.5964 25.3472C34.5454 25.4015 34.4798 25.44 34.4074 25.458C34.335 25.4759 34.259 25.4726 34.1884 25.4484L30.4952 24.1887C27.6387 25.6772 24.6873 26.9764 21.6603 28.0778C21.0897 28.2843 20.4659 28.2905 19.8914 28.0951C19.3169 27.8998 18.8261 27.5146 18.4998 27.0031ZM30.6609 12.0415C26.1285 13.7101 21.7017 15.6526 17.405 17.8584C17.033 18.0488 16.7348 18.3576 16.5575 18.736C16.3802 19.1145 16.3338 19.5412 16.4255 19.9489C16.9518 22.3033 17.8752 24.5508 19.1563 26.5951C19.387 26.9581 19.7347 27.2314 20.1418 27.37C20.549 27.5085 20.9913 27.5039 21.3955 27.3569C24.4427 26.248 27.4124 24.9366 30.2846 23.4315C30.3311 23.4072 30.3821 23.3926 30.4344 23.3886C30.4867 23.3846 30.5393 23.3913 30.5889 23.4082L33.631 24.4457L32.8025 22.4327C32.7672 22.3463 32.7643 22.2501 32.7943 22.1618C32.8244 22.0734 32.8853 21.9989 32.9659 21.9519C33.5631 21.6066 34.1464 21.2581 34.7157 20.9066C35.0814 20.6784 35.3583 20.3324 35.5009 19.9256C35.6435 19.5189 35.6432 19.0756 35.5 18.6691C34.795 16.7009 33.9524 14.7848 32.9783 12.9349C32.7649 12.5314 32.4128 12.2186 31.9869 12.0544C31.5609 11.8901 31.09 11.8856 30.6609 12.0415Z" fill="black"/>
<path d="M34.0906 118.317C34.024 117.991 33.8405 117.702 33.5748 117.503C33.3092 117.304 32.9798 117.209 32.649 117.237L28.993 117.538C28.9705 117.364 28.9496 117.186 28.9264 117.014C28.8251 116.25 28.4368 115.552 27.8403 115.063C27.2437 114.575 26.4836 114.331 25.714 114.382C25.714 114.382 16.3378 115.018 13.1177 115.272C12.7189 115.303 12.3301 115.412 11.9736 115.594C11.6171 115.775 11.3 116.026 11.0403 116.33C10.7807 116.634 10.5838 116.987 10.4607 117.368C10.3377 117.748 10.2911 118.149 10.3234 118.548C10.5219 120.924 10.9913 123.27 11.7225 125.539C11.9292 126.194 12.3524 126.759 12.9227 127.142C13.4931 127.525 14.1767 127.703 14.8613 127.646C15.3228 127.609 15.7873 127.57 16.255 127.529L16.615 129.656C16.6281 129.734 16.6646 129.806 16.7194 129.862C16.7743 129.918 16.8451 129.957 16.9222 129.972C16.9994 129.987 17.0794 129.978 17.1515 129.947C17.2235 129.915 17.2844 129.863 17.3258 129.796L18.8898 127.275C19.3621 127.226 19.8506 127.162 20.3283 127.108L20.6729 129.108C20.733 129.45 20.9216 129.756 21.2 129.963C21.4785 130.17 21.8256 130.263 22.1703 130.222C25.028 129.868 27.693 129.436 30.6476 128.81L32.2441 130.119C32.2986 130.163 32.3651 130.19 32.4352 130.197C32.5053 130.204 32.5759 130.19 32.638 130.157C32.7002 130.124 32.7512 130.073 32.7847 130.011C32.8182 129.949 32.8327 129.879 32.8263 129.809L32.7009 128.353L34.0945 128.107C34.4227 128.049 34.7181 127.872 34.9242 127.61C35.1304 127.348 35.233 127.02 35.2125 126.687C35.0336 123.874 34.6587 121.077 34.0906 118.317ZM18.6227 126.524C18.5637 126.53 18.507 126.549 18.4568 126.581C18.4066 126.612 18.3643 126.655 18.3331 126.705L17.2089 128.518L16.9588 127.047C16.9435 126.957 16.8968 126.875 16.8271 126.816C16.7574 126.758 16.6691 126.725 16.5779 126.725C16.4764 126.725 16.6917 126.725 14.7971 126.876C14.2866 126.918 13.7769 126.786 13.3518 126.5C12.9267 126.214 12.6115 125.792 12.4581 125.303C11.7434 123.088 11.2854 120.799 11.0931 118.479C11.0698 118.182 11.1052 117.884 11.1974 117.601C11.2895 117.318 11.4366 117.056 11.6301 116.83C11.8236 116.604 12.0598 116.418 12.3251 116.283C12.5905 116.148 12.8798 116.067 13.1766 116.044C16.3928 115.79 25.762 115.155 25.762 115.155C26.3344 115.123 26.898 115.307 27.3413 115.671C27.7847 116.034 28.0757 116.551 28.1568 117.118C28.372 118.719 28.5664 120.327 28.8265 123.002C28.8818 123.577 28.7159 124.152 28.3626 124.608C28.0094 125.065 27.4952 125.37 26.9249 125.461C24.2762 125.867 21.3372 126.247 18.6227 126.524Z" fill="black"/>
<path d="M118.112 107.86C117.547 105.621 117.167 103.339 116.978 101.037C116.912 100.197 117.171 99.364 117.702 98.7099C118.233 98.0559 118.995 97.6311 119.83 97.5234L130.862 96.074C131.69 95.9708 132.527 96.1841 133.204 96.6712C133.882 97.1582 134.351 97.8832 134.517 98.701C134.898 100.648 135.219 102.692 135.435 104.654C135.525 105.452 135.319 106.255 134.858 106.912C134.396 107.569 133.711 108.035 132.93 108.221C129.11 109.128 125.465 109.804 121.757 110.312C120.954 110.425 120.138 110.237 119.465 109.785C118.792 109.332 118.31 108.646 118.112 107.86ZM117.75 100.974C117.936 103.234 118.309 105.475 118.864 107.674C119.015 108.275 119.384 108.799 119.898 109.145C120.413 109.491 121.037 109.635 121.651 109.548C125.445 109.025 129.037 108.35 132.752 107.468C133.349 107.325 133.873 106.969 134.226 106.467C134.578 105.965 134.735 105.351 134.667 104.741C134.454 102.813 134.138 100.792 133.758 98.8497C133.633 98.2231 133.275 97.6672 132.756 97.2945C132.237 96.9219 131.596 96.7605 130.962 96.8428L119.932 98.293C119.293 98.3743 118.711 98.6981 118.305 99.1973C117.898 99.6964 117.7 100.333 117.75 100.974Z" fill="black"/>
<path d="M124.465 103.61C124.409 103.611 124.354 103.599 124.304 103.577C124.253 103.554 124.208 103.521 124.172 103.48C124.135 103.439 124.108 103.39 124.091 103.337C124.075 103.284 124.07 103.229 124.077 103.174C124.156 102.557 124.4 101.973 124.782 101.482C125.165 100.992 125.672 100.613 126.251 100.386C126.298 100.368 126.349 100.358 126.4 100.359C126.451 100.36 126.501 100.371 126.548 100.391C126.594 100.412 126.637 100.441 126.672 100.478C126.707 100.514 126.735 100.558 126.754 100.605C126.772 100.652 126.781 100.703 126.78 100.754C126.779 100.805 126.768 100.855 126.748 100.902C126.727 100.949 126.698 100.991 126.661 101.026C126.624 101.061 126.581 101.089 126.533 101.107C126.083 101.284 125.689 101.578 125.393 101.96C125.096 102.341 124.907 102.796 124.846 103.275C124.834 103.368 124.788 103.452 124.718 103.514C124.648 103.576 124.558 103.61 124.465 103.61Z" fill="black"/>
<path d="M122.265 104.199H122.246C122.195 104.196 122.145 104.184 122.099 104.162C122.053 104.141 122.012 104.11 121.978 104.072C121.944 104.035 121.917 103.991 121.9 103.943C121.883 103.895 121.875 103.844 121.878 103.793C121.932 102.604 122.337 101.456 123.04 100.496C123.744 99.5351 124.716 98.8038 125.834 98.3936C125.882 98.3761 125.933 98.3681 125.984 98.3702C126.034 98.3723 126.084 98.3843 126.131 98.4057C126.177 98.427 126.218 98.4573 126.253 98.4946C126.287 98.532 126.314 98.5759 126.331 98.6236C126.349 98.6713 126.357 98.722 126.355 98.7729C126.353 98.8237 126.341 98.8736 126.319 98.9197C126.298 98.9659 126.268 99.0074 126.23 99.0419C126.193 99.0763 126.149 99.1031 126.101 99.1207C125.126 99.4778 124.278 100.116 123.664 100.954C123.05 101.792 122.697 102.793 122.651 103.831C122.646 103.93 122.604 104.024 122.532 104.092C122.46 104.161 122.364 104.199 122.265 104.199Z" fill="black"/>
<path d="M24.4668 62.6363C24.3712 62.6369 24.2788 62.6021 24.2073 62.5386C24.1358 62.4751 24.0904 62.3875 24.0797 62.2925L23.7421 59.252C23.7308 59.1499 23.7605 59.0476 23.8247 58.9674C23.8889 58.8873 23.9823 58.8359 24.0843 58.8246C24.1864 58.8133 24.2887 58.843 24.3689 58.9072C24.449 58.9714 24.5004 59.0648 24.5117 59.1668L24.8493 62.2058C24.8554 62.2597 24.85 62.3144 24.8336 62.3662C24.8172 62.4179 24.7901 62.4657 24.754 62.5063C24.7179 62.5469 24.6737 62.5794 24.6242 62.6018C24.5747 62.6242 24.5211 62.6359 24.4668 62.6363Z" fill="black"/>
<path d="M25.4731 69.6177C25.3823 69.6174 25.2944 69.5853 25.225 69.5268C25.1555 69.4684 25.1087 69.3873 25.0929 69.2979L24.3899 65.3268C24.3787 65.2758 24.3779 65.223 24.3876 65.1717C24.3973 65.1204 24.4173 65.0716 24.4463 65.0282C24.4754 64.9848 24.5129 64.9477 24.5567 64.9192C24.6004 64.8907 24.6495 64.8713 24.701 64.8623C24.7524 64.8532 24.8051 64.8547 24.856 64.8666C24.9068 64.8785 24.9548 64.9005 24.9969 64.9314C25.039 64.9623 25.0744 65.0013 25.1011 65.0463C25.1277 65.0912 25.1449 65.1411 25.1518 65.1928L25.8548 69.164C25.8645 69.2196 25.8619 69.2768 25.8472 69.3313C25.8325 69.3859 25.806 69.4365 25.7697 69.4798C25.7333 69.523 25.6879 69.5578 25.6367 69.5816C25.5854 69.6054 25.5296 69.6177 25.4731 69.6177Z" fill="black"/>
<path d="M20.8046 65.478C20.7129 65.4783 20.6239 65.4461 20.5538 65.387C20.4836 65.3278 20.4367 65.2457 20.4214 65.1552C20.4061 65.0647 20.4235 64.9717 20.4705 64.8929C20.5174 64.814 20.5908 64.7544 20.6777 64.7246L23.259 63.8257C23.356 63.792 23.4625 63.7981 23.555 63.8428C23.6475 63.8875 23.7184 63.9672 23.7522 64.0642C23.786 64.1612 23.7798 64.2677 23.7351 64.3602C23.6904 64.4527 23.6108 64.5236 23.5137 64.5574C22.6318 64.9232 21.7269 65.2308 20.8046 65.478Z" fill="black"/>
<path d="M26.0965 63.7327C26.003 63.7327 25.9127 63.699 25.8421 63.6377C25.7716 63.5764 25.7256 63.4916 25.7127 63.3991C25.6998 63.3065 25.7208 63.2124 25.7718 63.1341C25.8229 63.0558 25.9005 62.9986 25.9904 62.9731L29.9298 61.8489C29.9793 61.8328 30.0315 61.8268 30.0834 61.8313C30.1353 61.8358 30.1857 61.8507 30.2316 61.8752C30.2776 61.8996 30.3182 61.9331 30.3509 61.9736C30.3836 62.0141 30.4078 62.0608 30.4221 62.1108C30.4364 62.1609 30.4404 62.2133 30.434 62.265C30.4275 62.3166 30.4107 62.3664 30.3845 62.4115C30.3584 62.4565 30.3234 62.4957 30.2817 62.5269C30.2401 62.5581 30.1925 62.5806 30.1419 62.593C25.8665 63.8085 26.1793 63.7327 26.0965 63.7327Z" fill="black"/>
<path d="M29.309 58.5459C28.6013 58.5148 27.9347 58.2044 27.4555 57.6826C27.184 57.3828 26.9773 57.0303 26.8482 56.6471C26.7192 56.2638 26.6705 55.858 26.7052 55.4551C26.9243 52.9388 30.1785 53.7665 30.8777 55.651C31.367 56.9843 30.7383 58.5459 29.309 58.5459ZM27.8008 54.7838C27.3471 55.1199 27.3045 56.3997 28.0191 57.1515C28.4001 57.5588 29.2223 57.9939 29.7852 57.6424C30.017 57.4284 30.1766 57.1478 30.2422 56.8393C30.3078 56.5307 30.2761 56.2094 30.1514 55.9197C29.7697 54.8915 28.3257 54.3928 27.8008 54.7838Z" fill="black"/>
<path d="M119.107 16.7255C118.634 16.7286 118.178 16.5449 117.839 16.2141C117.499 15.8834 117.304 15.4323 117.296 14.9586C117.26 14.5862 117.301 14.2105 117.414 13.854C117.528 13.4976 117.712 13.1678 117.957 12.8844C118.87 11.8709 120.712 11.6681 121.548 12.6761C121.819 13.0879 121.956 13.5735 121.94 14.0663C121.924 14.559 121.755 15.0347 121.458 15.4278C121.193 15.8108 120.843 16.1272 120.435 16.3523C120.027 16.5774 119.573 16.7051 119.107 16.7255ZM118.497 15.7646C119.157 16.2571 120.338 15.7058 120.82 14.9966C121.019 14.739 121.138 14.4285 121.162 14.1038C121.187 13.7791 121.115 13.4544 120.956 13.1701C120.484 12.6034 119.21 12.6576 118.535 13.4024C117.946 14.0543 117.868 15.2931 118.497 15.7646Z" fill="black"/>
<path d="M140.174 125.796C138.577 125.796 137.966 123.801 138.757 122.449C139.392 121.365 140.978 120.785 141.968 121.516C142.364 121.888 142.616 122.388 142.682 122.928C142.747 123.468 142.621 124.013 142.326 124.47C142.105 124.852 141.793 125.174 141.418 125.405C141.042 125.637 140.615 125.771 140.174 125.796ZM139.753 124.921C140.364 125.248 141.279 124.738 141.655 124.083C141.847 123.788 141.936 123.437 141.91 123.086C141.884 122.735 141.743 122.402 141.509 122.138C140.913 121.701 139.836 122.138 139.424 122.841C139.044 123.491 139.114 124.58 139.753 124.921Z" fill="black"/>
<path d="M132.088 136.821C132.028 136.821 131.968 136.807 131.915 136.78C131.861 136.753 131.814 136.713 131.778 136.665C131.742 136.616 131.718 136.56 131.707 136.501C131.697 136.441 131.701 136.38 131.718 136.323L133.914 129.035C133.936 128.963 133.979 128.899 134.037 128.851C134.095 128.802 134.167 128.772 134.242 128.764C134.317 128.756 134.393 128.77 134.46 128.804C134.528 128.839 134.583 128.892 134.621 128.958L138.447 135.656C138.479 135.712 138.497 135.775 138.498 135.84C138.499 135.905 138.485 135.969 138.455 136.026C138.425 136.084 138.382 136.133 138.328 136.169C138.274 136.205 138.213 136.227 138.148 136.234C131.253 136.907 132.172 136.821 132.088 136.821ZM134.395 130.121L132.626 135.993L137.478 135.517L134.395 130.121Z" fill="black"/>
<path d="M46.9702 74.6993C46.9176 74.6994 46.8655 74.6887 46.8171 74.6679C46.7687 74.6472 46.725 74.6168 46.6888 74.5786C46.6526 74.5404 46.6245 74.4952 46.6063 74.4458C46.5882 74.3964 46.5802 74.3438 46.5831 74.2912C46.6102 73.5695 46.8766 72.8772 47.3402 72.3234C47.8039 71.7696 48.4385 71.3857 49.1443 71.2322C49.245 71.2116 49.3498 71.232 49.4355 71.2887C49.5213 71.3454 49.581 71.4338 49.6015 71.5345C49.622 71.6352 49.6017 71.74 49.545 71.8257C49.4883 71.9115 49.3999 71.9712 49.2992 71.9917C48.7615 72.1112 48.2788 72.406 47.9271 72.8299C47.5754 73.2538 47.3747 73.7826 47.3566 74.3331C47.3512 74.4319 47.3082 74.525 47.2363 74.5931C47.1645 74.6612 47.0692 74.6992 46.9702 74.6993Z" fill="black"/>
<path d="M46.5453 87.9854C46.5204 87.3357 46.6357 86.6882 46.8834 86.087C47.1311 85.4858 47.5054 84.9449 47.9808 84.5013C48.056 84.4313 48.156 84.394 48.2588 84.3977C48.3615 84.4014 48.4585 84.4458 48.5286 84.521C48.5986 84.5963 48.6358 84.6963 48.6321 84.799C48.6284 84.9017 48.5841 84.9988 48.5088 85.0688C48.1141 85.4369 47.8035 85.8857 47.5981 86.3848C47.3927 86.8839 47.2975 87.4214 47.3188 87.9606C47.3206 88.0115 47.3123 88.0622 47.2945 88.1098C47.2767 88.1575 47.2497 88.2011 47.215 88.2384C47.1803 88.2756 47.1386 88.3056 47.0923 88.3267C47.046 88.3478 46.996 88.3595 46.9452 88.3613C46.8944 88.3631 46.8437 88.3548 46.796 88.337C46.7484 88.3192 46.7047 88.2922 46.6675 88.2575C46.6303 88.2228 46.6003 88.1811 46.5792 88.1349C46.5581 88.0886 46.5463 88.0386 46.5445 87.9877L46.5453 87.9854Z" fill="black"/>
<path d="M90.379 100.742H57.9247C57.8221 100.742 57.7236 100.701 57.651 100.629C57.5784 100.556 57.5376 100.458 57.5376 100.355C57.5376 100.252 57.5784 100.154 57.651 100.081C57.7236 100.009 57.8221 99.9678 57.9247 99.9678H90.379C90.4817 99.9678 90.5802 100.009 90.6528 100.081C90.7254 100.154 90.7661 100.252 90.7661 100.355C90.7661 100.458 90.7254 100.556 90.6528 100.629C90.5802 100.701 90.4817 100.742 90.379 100.742Z" fill="black"/>
<path d="M88.7406 52.4572H59.8394C58.8565 52.4558 57.9143 52.0645 57.2196 51.3692C56.5249 50.6739 56.1344 49.7314 56.1338 48.7485V39.3956C56.135 38.4128 56.526 37.4706 57.2209 36.7756C57.9159 36.0807 58.8581 35.6897 59.8409 35.6885H88.7422C89.7244 35.6905 90.6658 36.0819 91.3601 36.7767C92.0544 37.4716 92.445 38.4133 92.4462 39.3956V48.7485C92.4456 49.7314 92.0551 50.6739 91.3604 51.3692C90.6656 52.0645 89.7235 52.4558 88.7406 52.4572ZM59.8394 36.4627C59.062 36.464 58.3169 36.7734 57.7674 37.3232C57.2179 37.873 56.9089 38.6183 56.908 39.3956V48.7485C56.9084 49.5261 57.2173 50.2718 57.7669 50.8219C58.3164 51.3721 59.0618 51.6817 59.8394 51.683H88.7406C89.5182 51.6817 90.2635 51.3721 90.8131 50.8219C91.3626 50.2718 91.6715 49.5261 91.6719 48.7485V39.3956C91.6711 38.618 91.3618 37.8725 90.812 37.3226C90.2622 36.7728 89.5167 36.4635 88.7391 36.4627H59.8394Z" fill="black"/>
<path d="M88.3001 76.0534H59.8418C58.8587 76.0516 57.9163 75.6603 57.2211 74.9652C56.5259 74.2701 56.1344 73.3278 56.1323 72.3447V62.9941C56.1342 62.0109 56.5256 61.0684 57.2208 60.3732C57.9161 59.6779 58.8585 59.2865 59.8418 59.2847H88.7384C89.7216 59.2865 90.6641 59.6779 91.3593 60.3732C92.0546 61.0684 92.446 62.0109 92.4478 62.9941V65.049C92.4478 65.1516 92.407 65.2501 92.3344 65.3227C92.2618 65.3953 92.1634 65.4361 92.0607 65.4361C91.958 65.4361 91.8595 65.3953 91.7869 65.3227C91.7143 65.2501 91.6736 65.1516 91.6736 65.049V62.9941C91.6729 62.2158 91.3635 61.4696 90.8132 60.9193C90.2629 60.369 89.5166 60.0595 88.7384 60.0589H59.8418C59.0638 60.0599 58.3179 60.3696 57.768 60.9198C57.218 61.4701 56.9087 62.2161 56.9081 62.9941V72.3447C56.9089 73.1229 57.2185 73.8689 57.7688 74.4191C58.3191 74.9692 59.0652 75.2785 59.8433 75.2792H88.3017C88.4044 75.2792 88.5028 75.3199 88.5754 75.3925C88.648 75.4651 88.6888 75.5636 88.6888 75.6663C88.6888 75.7689 88.648 75.8674 88.5754 75.94C88.5028 76.0126 88.4044 76.0534 88.3017 76.0534H88.3001Z" fill="black"/>
<path d="M65.1344 36.6919C63.6745 36.6919 62.2475 37.1248 61.0336 37.9359C59.8198 38.7469 58.8738 39.8997 58.3152 41.2485C57.7566 42.5972 57.6104 44.0813 57.8953 45.5131C58.1802 46.9449 58.8832 48.26 59.9155 49.2922C60.9478 50.3244 62.2631 51.0273 63.6949 51.312C65.1267 51.5967 66.6108 51.4505 67.9595 50.8917C69.3081 50.3329 70.4608 49.3868 71.2718 48.1729C72.0827 46.959 72.5155 45.5319 72.5153 44.0721C72.513 42.1153 71.7347 40.2393 70.3509 38.8557C68.9672 37.4721 67.0911 36.6939 65.1344 36.6919ZM70.1314 48.3831C69.7981 47.3184 69.1337 46.3879 68.2349 45.727C67.3361 45.0661 66.2498 44.7092 65.1342 44.7085C64.0186 44.7077 62.9318 45.063 62.0321 45.7226C61.1324 46.3823 60.4667 47.3119 60.1319 48.3761C59.3053 47.4177 58.7713 46.2421 58.5935 44.989C58.4157 43.7359 58.6016 42.4581 59.1291 41.3075C59.6565 40.157 60.5034 39.1823 61.5689 38.4992C62.6343 37.816 63.8736 37.4534 65.1393 37.4542C66.4049 37.4551 67.6437 37.8195 68.7082 38.5041C69.7727 39.1887 70.6182 40.1647 71.1441 41.3159C71.67 42.4672 71.8541 43.7452 71.6745 44.9981C71.495 46.2509 70.9594 47.4259 70.1314 48.3831Z" fill="black"/>
<path d="M65.1344 60.2881C63.6745 60.2881 62.2475 60.721 61.0336 61.532C59.8198 62.3431 58.8738 63.4959 58.3152 64.8446C57.7566 66.1934 57.6104 67.6775 57.8953 69.1093C58.1802 70.541 58.8832 71.8562 59.9155 72.8884C60.9478 73.9206 62.2631 74.6235 63.6949 74.9082C65.1267 75.1929 66.6108 75.0467 67.9595 74.4879C69.3081 73.9291 70.4608 72.983 71.2718 71.7691C72.0827 70.5552 72.5155 69.1281 72.5153 67.6682C72.513 65.7115 71.7347 63.8355 70.3509 62.4519C68.9672 61.0683 67.0911 60.2901 65.1344 60.2881ZM70.1182 71.9924C69.724 70.9967 69.0378 70.1433 68.1499 69.5445C67.262 68.9457 66.2137 68.6293 65.1428 68.6369C64.0718 68.6445 63.0281 68.9758 62.1488 69.5872C61.2695 70.1986 60.5956 71.0616 60.2155 72.0629C59.3673 71.1158 58.8104 69.944 58.6118 68.6881C58.4131 67.4323 58.5811 66.1458 59.0957 64.9831C59.6102 63.8205 60.4494 62.831 61.5125 62.1335C62.5756 61.4361 63.8174 61.0603 65.0888 61.0512C66.3602 61.0422 67.6072 61.4003 68.6801 62.0825C69.753 62.7648 70.6062 63.7422 71.1372 64.8975C71.6683 66.0527 71.8546 67.3367 71.6738 68.5952C71.4931 69.8537 70.9529 71.0334 70.1182 71.9924Z" fill="black"/>
<path d="M65.1344 85.0486C64.1089 85.0496 63.0949 85.2641 62.1568 85.6785C61.2188 86.0929 60.3774 86.6981 59.6861 87.4556C58.9948 88.2131 58.4689 89.1062 58.1417 90.0782C57.8146 91.0501 57.6934 92.0795 57.786 93.1008C57.7908 93.1516 57.8055 93.201 57.8294 93.2462C57.8533 93.2913 57.8858 93.3313 57.9251 93.3639C57.9645 93.3964 58.0098 93.4209 58.0586 93.436C58.1074 93.451 58.1587 93.4563 58.2095 93.4515C58.2604 93.4468 58.3098 93.432 58.3549 93.4081C58.4 93.3843 58.44 93.3517 58.4726 93.3124C58.5052 93.2731 58.5297 93.2277 58.5447 93.1789C58.5598 93.1301 58.565 93.0789 58.5603 93.028C58.4613 91.9614 58.6234 90.8868 59.0325 89.8968C59.4415 88.9068 60.0853 88.0313 60.9083 87.3457C61.7313 86.6601 62.7088 86.185 63.7564 85.9615C64.804 85.7379 65.8902 85.7727 66.9214 86.0627C67.9525 86.3526 68.8977 86.8892 69.6752 87.626C70.4527 88.3627 71.0393 89.2776 71.3843 90.2917C71.7293 91.3058 71.8224 92.3886 71.6555 93.4467C71.4886 94.5048 71.0668 95.5064 70.4264 96.365C69.911 95.4104 69.1473 94.6126 68.216 94.056C67.2847 93.4994 66.2204 93.2047 65.1355 93.2028C64.0505 93.201 62.9852 93.4922 62.0521 94.0457C61.1189 94.5991 60.3526 95.3943 59.8339 96.3472C59.7487 96.2319 59.6574 96.1227 59.5792 96.0011C59.5518 95.958 59.5162 95.9208 59.4744 95.8915C59.4326 95.8622 59.3854 95.8415 59.3356 95.8305C59.2858 95.8195 59.2342 95.8185 59.184 95.8275C59.1338 95.8365 59.0858 95.8554 59.0429 95.883C58.9999 95.9106 58.9629 95.9464 58.9339 95.9884C58.9049 96.0304 58.8844 96.0777 58.8737 96.1276C58.8631 96.1775 58.8624 96.2291 58.8717 96.2792C58.881 96.3294 58.9002 96.3773 58.928 96.42C59.6207 97.4965 60.5816 98.3742 61.7161 98.967C62.8507 99.5598 64.12 99.8472 65.3992 99.801C66.6785 99.7548 67.9237 99.3766 69.0126 98.7036C70.1014 98.0305 70.9965 97.0858 71.6097 95.9621C72.223 94.8385 72.5334 93.5747 72.5104 92.2948C72.4874 91.0149 72.1319 89.763 71.4787 88.6621C70.8255 87.5612 69.8971 86.6492 68.7848 86.0156C67.6725 85.3821 66.4145 85.0488 65.1344 85.0486Z" fill="black"/>
<path d="M92.0588 96.8218C91.9562 96.8218 91.8577 96.781 91.7851 96.7084C91.7125 96.6358 91.6717 96.5374 91.6717 96.4347V87.362C91.6711 86.7193 91.4155 86.103 90.961 85.6485C90.5065 85.194 89.8903 84.9384 89.2475 84.9378H59.2631C59.1604 84.9378 59.062 84.897 58.9894 84.8244C58.9168 84.7518 58.876 84.6534 58.876 84.5507C58.876 84.448 58.9168 84.3496 58.9894 84.277C59.062 84.2044 59.1604 84.1636 59.2631 84.1636H89.2468C90.0948 84.1644 90.9078 84.5016 91.5075 85.1013C92.1071 85.7009 92.4444 86.514 92.4452 87.362V96.4347C92.4452 96.5372 92.4045 96.6356 92.3321 96.7082C92.2596 96.7807 92.1614 96.8216 92.0588 96.8218Z" fill="black"/>
<path d="M87.9091 89.8217H77.1765C76.7752 89.8217 76.3904 89.6623 76.1067 89.3786C75.823 89.0948 75.6636 88.71 75.6636 88.3088C75.6636 87.9075 75.823 87.5227 76.1067 87.239C76.3904 86.9553 76.7752 86.7959 77.1765 86.7959H87.9091C88.3104 86.7959 88.6952 86.9553 88.9789 87.239C89.2626 87.5227 89.422 87.9075 89.422 88.3088C89.422 88.71 89.2626 89.0948 88.9789 89.3786C88.6952 89.6623 88.3104 89.8217 87.9091 89.8217ZM77.1765 87.5701C76.9806 87.5701 76.7927 87.648 76.6542 87.7865C76.5156 87.925 76.4378 88.1129 76.4378 88.3088C76.4378 88.5047 76.5156 88.6926 76.6542 88.8311C76.7927 88.9696 76.9806 89.0474 77.1765 89.0474H87.9091C88.105 89.0474 88.2929 88.9696 88.4314 88.8311C88.5699 88.6926 88.6478 88.5047 88.6478 88.3088C88.6478 88.1129 88.5699 87.925 88.4314 87.7865C88.2929 87.648 88.105 87.5701 87.9091 87.5701H77.1765Z" fill="black"/>
<path d="M87.9094 93.6413H77.1767C76.7813 93.6324 76.4051 93.469 76.1286 93.1862C75.8521 92.9034 75.6973 92.5235 75.6973 92.128C75.6973 91.7325 75.8521 91.3527 76.1286 91.0699C76.4051 90.7871 76.7813 90.6237 77.1767 90.6147H87.9094C88.3048 90.6237 88.681 90.7871 88.9575 91.0699C89.234 91.3527 89.3888 91.7325 89.3888 92.128C89.3888 92.5235 89.234 92.9034 88.9575 93.1862C88.681 93.469 88.3048 93.6324 87.9094 93.6413ZM77.1767 91.389C76.9848 91.3952 76.8029 91.4758 76.6694 91.6137C76.5359 91.7516 76.4612 91.9361 76.4612 92.128C76.4612 92.32 76.5359 92.5044 76.6694 92.6423C76.8029 92.7803 76.9848 92.8608 77.1767 92.867H87.9094C88.1012 92.8608 88.2832 92.7803 88.4167 92.6423C88.5502 92.5044 88.6249 92.32 88.6249 92.128C88.6249 91.9361 88.5502 91.7516 88.4167 91.6137C88.2832 91.4758 88.1012 91.3952 87.9094 91.389H77.1767Z" fill="black"/>
<path d="M87.9091 97.4591H77.1765C76.9778 97.4591 76.7811 97.42 76.5975 97.344C76.414 97.2679 76.2472 97.1565 76.1067 97.016C75.9662 96.8755 75.8548 96.7087 75.7787 96.5252C75.7027 96.3416 75.6636 96.1449 75.6636 95.9462C75.6636 95.7476 75.7027 95.5508 75.7787 95.3673C75.8548 95.1837 75.9662 95.017 76.1067 94.8765C76.2472 94.736 76.414 94.6245 76.5975 94.5485C76.7811 94.4725 76.9778 94.4333 77.1765 94.4333H87.9091C88.3104 94.4333 88.6952 94.5927 88.9789 94.8765C89.2626 95.1602 89.422 95.545 89.422 95.9462C89.422 96.3475 89.2626 96.7323 88.9789 97.016C88.6952 97.2997 88.3104 97.4591 87.9091 97.4591ZM77.1765 95.2076C76.9806 95.2076 76.7927 95.2854 76.6542 95.4239C76.5156 95.5625 76.4378 95.7503 76.4378 95.9462C76.4378 96.1421 76.5156 96.33 76.6542 96.4685C76.7927 96.6071 76.9806 96.6849 77.1765 96.6849H87.9091C88.105 96.6849 88.2929 96.6071 88.4314 96.4685C88.5699 96.33 88.6478 96.1421 88.6478 95.9462C88.6478 95.7503 88.5699 95.5625 88.4314 95.4239C88.2929 95.2854 88.105 95.2076 87.9091 95.2076H77.1765Z" fill="black"/>
<path d="M85.2457 65.3648H77.1765C76.7753 65.3644 76.3908 65.2048 76.1071 64.9212C75.8235 64.6376 75.664 64.253 75.6636 63.8519C75.6641 63.6547 75.7037 63.4595 75.7803 63.2778C75.8569 63.0961 75.9688 62.9314 76.1095 62.7933C76.2503 62.6552 76.4171 62.5464 76.6003 62.4734C76.7834 62.4003 76.9793 62.3644 77.1765 62.3676H87.9014C88.0075 62.3751 88.1067 62.423 88.1787 62.5013C88.2507 62.5796 88.29 62.6825 88.2885 62.7888C88.2875 62.8378 88.2765 62.8861 88.2563 62.9307C88.236 62.9753 88.2069 63.0154 88.1707 63.0484C88.1345 63.0814 88.0919 63.1067 88.0456 63.1228C87.9993 63.1389 87.9503 63.1454 87.9014 63.1419H77.1741C77.0791 63.1387 76.9843 63.1546 76.8954 63.1886C76.8066 63.2226 76.7254 63.2741 76.6568 63.34C76.5882 63.4058 76.5334 63.4848 76.4958 63.5722C76.4582 63.6596 76.4385 63.7536 76.4378 63.8488C76.4378 64.0447 76.5156 64.2326 76.6542 64.3711C76.7927 64.5096 76.9806 64.5874 77.1765 64.5874H85.2457C85.3484 64.5874 85.4468 64.6282 85.5194 64.7008C85.592 64.7734 85.6328 64.8719 85.6328 64.9745C85.6328 65.0772 85.592 65.1757 85.5194 65.2483C85.4468 65.3209 85.3484 65.3617 85.2457 65.3617V65.3648Z" fill="black"/>
<path d="M84.9481 69.1811H77.1762C76.9748 69.1856 76.7745 69.1499 76.5871 69.076C76.3997 69.002 76.229 68.8914 76.0849 68.7506C75.9409 68.6098 75.8264 68.4416 75.7483 68.2559C75.6701 68.0702 75.6299 67.8708 75.6299 67.6693C75.6299 67.4679 75.6701 67.2685 75.7483 67.0828C75.8264 66.8971 75.9409 66.7289 76.0849 66.5881C76.229 66.4473 76.3997 66.3366 76.5871 66.2627C76.7745 66.1888 76.9748 66.1531 77.1762 66.1576H84.7732C84.8758 66.1576 84.9743 66.1984 85.0469 66.271C85.1195 66.3436 85.1603 66.4421 85.1603 66.5447C85.1603 66.6474 85.1195 66.7459 85.0469 66.8185C84.9743 66.8911 84.8758 66.9319 84.7732 66.9319H77.1762C77.0774 66.9287 76.9789 66.9454 76.8866 66.981C76.7943 67.0166 76.7101 67.0704 76.6391 67.1392C76.568 67.208 76.5115 67.2904 76.4729 67.3815C76.4343 67.4725 76.4144 67.5704 76.4144 67.6693C76.4144 67.7682 76.4343 67.8661 76.4729 67.9572C76.5115 68.0483 76.568 68.1307 76.6391 68.1995C76.7101 68.2683 76.7943 68.3221 76.8866 68.3577C76.9789 68.3933 77.0774 68.41 77.1762 68.4068H84.9481C85.0508 68.4068 85.1493 68.4476 85.2219 68.5202C85.2945 68.5928 85.3353 68.6913 85.3353 68.7939C85.3353 68.8966 85.2945 68.9951 85.2219 69.0677C85.1493 69.1403 85.0508 69.1811 84.9481 69.1811Z" fill="black"/>
<path d="M86.3065 72.9997H77.1703C76.7749 72.9907 76.3987 72.8274 76.1222 72.5446C75.8457 72.2617 75.6909 71.8819 75.6909 71.4864C75.6909 71.0909 75.8457 70.7111 76.1222 70.4283C76.3987 70.1454 76.7749 69.9821 77.1703 69.9731H85.3813C85.484 69.9731 85.5824 70.0139 85.655 70.0865C85.7276 70.1591 85.7684 70.2576 85.7684 70.3603C85.7684 70.4629 85.7276 70.5614 85.655 70.634C85.5824 70.7066 85.484 70.7474 85.3813 70.7474H77.1719C76.98 70.7536 76.7981 70.8342 76.6646 70.9721C76.5311 71.11 76.4564 71.2945 76.4564 71.4864C76.4564 71.6784 76.5311 71.8628 76.6646 72.0007C76.7981 72.1386 76.98 72.2192 77.1719 72.2254H86.3081C86.4107 72.2254 86.5092 72.2662 86.5818 72.3388C86.6544 72.4114 86.6952 72.5099 86.6952 72.6126C86.6952 72.7152 86.6544 72.8137 86.5818 72.8863C86.5092 72.9589 86.4107 72.9997 86.3081 72.9997H86.3065Z" fill="black"/>
<path d="M87.9091 41.7672H77.1765C76.7752 41.7672 76.3904 41.6078 76.1067 41.3241C75.823 41.0404 75.6636 40.6556 75.6636 40.2543C75.6636 39.8531 75.823 39.4683 76.1067 39.1846C76.3904 38.9008 76.7752 38.7415 77.1765 38.7415H87.9091C88.3104 38.7415 88.6952 38.9008 88.9789 39.1846C89.2626 39.4683 89.422 39.8531 89.422 40.2543C89.422 40.6556 89.2626 41.0404 88.9789 41.3241C88.6952 41.6078 88.3104 41.7672 87.9091 41.7672ZM77.1765 39.5157C76.9806 39.5157 76.7927 39.5935 76.6542 39.732C76.5156 39.8706 76.4378 40.0584 76.4378 40.2543C76.4378 40.4502 76.5156 40.6381 76.6542 40.7766C76.7927 40.9152 76.9806 40.993 77.1765 40.993H87.9091C88.105 40.993 88.2929 40.9152 88.4314 40.7766C88.5699 40.6381 88.6478 40.4502 88.6478 40.2543C88.6478 40.0584 88.5699 39.8706 88.4314 39.732C88.2929 39.5935 88.105 39.5157 87.9091 39.5157H77.1765Z" fill="black"/>
<path d="M87.9091 45.5851H77.1765C76.7752 45.5851 76.3904 45.4257 76.1067 45.142C75.823 44.8583 75.6636 44.4735 75.6636 44.0722C75.6636 43.671 75.823 43.2862 76.1067 43.0024C76.3904 42.7187 76.7752 42.5593 77.1765 42.5593H87.9091C88.3104 42.5593 88.6952 42.7187 88.9789 43.0024C89.2626 43.2862 89.422 43.671 89.422 44.0722C89.422 44.4735 89.2626 44.8583 88.9789 45.142C88.6952 45.4257 88.3104 45.5851 87.9091 45.5851ZM77.1765 43.3336C76.9806 43.3336 76.7927 43.4114 76.6542 43.5499C76.5156 43.6884 76.4378 43.8763 76.4378 44.0722C76.4378 44.2681 76.5156 44.456 76.6542 44.5945C76.7927 44.733 76.9806 44.8108 77.1765 44.8108H87.9091C88.105 44.8108 88.2929 44.733 88.4314 44.5945C88.5699 44.456 88.6478 44.2681 88.6478 44.0722C88.6478 43.8763 88.5699 43.6884 88.4314 43.5499C88.2929 43.4114 88.105 43.3336 87.9091 43.3336H77.1765Z" fill="black"/>
<path d="M87.9091 49.4035H77.1765C76.7752 49.4035 76.3904 49.2441 76.1067 48.9603C75.823 48.6766 75.6636 48.2918 75.6636 47.8906C75.6636 47.4893 75.823 47.1045 76.1067 46.8208C76.3904 46.5371 76.7752 46.3777 77.1765 46.3777H87.9091C88.3104 46.3777 88.6952 46.5371 88.9789 46.8208C89.2626 47.1045 89.422 47.4893 89.422 47.8906C89.422 48.2918 89.2626 48.6766 88.9789 48.9603C88.6952 49.2441 88.3104 49.4035 87.9091 49.4035ZM77.1765 47.1519C76.9806 47.1519 76.7927 47.2298 76.6542 47.3683C76.5156 47.5068 76.4378 47.6947 76.4378 47.8906C76.4378 48.0865 76.5156 48.2743 76.6542 48.4129C76.7927 48.5514 76.9806 48.6292 77.1765 48.6292H87.9091C88.105 48.6292 88.2929 48.5514 88.4314 48.4129C88.5699 48.2743 88.6478 48.0865 88.6478 47.8906C88.6478 47.6947 88.5699 47.5068 88.4314 47.3683C88.2929 47.2298 88.105 47.1519 87.9091 47.1519H77.1765Z" fill="black"/>
<path d="M60.069 121.351C60.0088 121.351 59.9494 121.337 59.8956 121.31C52.3823 117.569 46.0659 111.8 41.6607 104.656C37.2555 97.5119 34.9374 89.2777 34.9686 80.8846C35.0489 76.3327 35.7318 71.8115 36.9994 67.439C37.9464 64.4005 39.2126 61.4709 40.777 58.6992C40.802 58.655 40.8355 58.616 40.8756 58.5847C40.9156 58.5534 40.9614 58.5302 41.0104 58.5166C41.0594 58.503 41.1106 58.4991 41.1611 58.5053C41.2116 58.5115 41.2604 58.5275 41.3047 58.5525C41.3489 58.5775 41.3879 58.611 41.4192 58.6511C41.4505 58.6911 41.4737 58.737 41.4873 58.786C41.5009 58.835 41.5048 58.8862 41.4986 58.9366C41.4924 58.9871 41.4764 59.0359 41.4514 59.0802C39.9127 61.8041 38.667 64.6833 37.735 67.6697C36.4893 71.9673 35.8181 76.4109 35.739 80.8846C35.7084 89.134 37.9868 97.2272 42.3166 104.249C46.6464 111.271 52.8547 116.941 60.2394 120.618C60.3171 120.657 60.3794 120.721 60.4163 120.799C60.4533 120.878 60.4627 120.967 60.443 121.051C60.4233 121.136 60.3758 121.212 60.3079 121.266C60.2401 121.32 60.1559 121.35 60.069 121.351Z" fill="black"/>
<path d="M107.251 116.982C107.17 116.982 107.091 116.956 107.025 116.909C106.959 116.861 106.91 116.794 106.884 116.717C106.858 116.64 106.858 116.557 106.882 116.479C106.906 116.402 106.954 116.334 107.019 116.285C108.718 114.998 110.323 113.589 111.819 112.072C111.893 112.005 111.989 111.969 112.088 111.971C112.186 111.973 112.281 112.012 112.352 112.082C112.422 112.151 112.463 112.245 112.467 112.344C112.471 112.443 112.436 112.539 112.371 112.614C110.846 114.157 109.213 115.589 107.484 116.899C107.417 116.951 107.336 116.98 107.251 116.982Z" fill="black"/>
<path d="M124.181 89.8598C124.124 89.8599 124.068 89.8472 124.016 89.8229C123.964 89.7986 123.919 89.7631 123.882 89.7191C123.846 89.6751 123.82 89.6236 123.806 89.5683C123.792 89.5129 123.79 89.4552 123.801 89.3992C124.343 86.5947 124.615 83.7449 124.614 80.8886C124.535 76.4164 123.863 71.9743 122.618 67.6783C119.597 58.0463 113.404 49.7205 105.049 44.0559C105.005 44.0281 104.967 43.9919 104.938 43.9493C104.908 43.9067 104.888 43.8587 104.877 43.808C104.867 43.7573 104.866 43.705 104.876 43.6542C104.886 43.6034 104.907 43.5552 104.936 43.5123C104.965 43.4694 105.002 43.4328 105.045 43.4046C105.089 43.3764 105.137 43.3571 105.188 43.3481C105.239 43.339 105.292 43.3402 105.342 43.3517C105.393 43.3631 105.44 43.3846 105.482 43.4148C113.983 49.1779 120.283 57.6483 123.357 67.4476C124.625 71.8189 125.308 76.3388 125.388 80.8894C125.389 83.7948 125.112 86.6937 124.561 89.5463C124.543 89.6344 124.496 89.7139 124.427 89.7711C124.358 89.8283 124.271 89.8597 124.181 89.8598Z" fill="black"/>
<path d="M144.508 59.0919C144.429 59.0919 144.352 59.0676 144.287 59.0223C144.222 58.9771 144.173 58.913 144.145 58.8387L142.431 54.18C142.414 54.1323 142.406 54.0816 142.408 54.0307C142.41 53.9799 142.422 53.93 142.443 53.8838C142.464 53.8376 142.494 53.796 142.532 53.7615C142.569 53.727 142.613 53.7002 142.661 53.6826C142.708 53.665 142.759 53.657 142.81 53.659C142.861 53.661 142.911 53.673 142.957 53.6943C143.003 53.7157 143.045 53.7459 143.079 53.7832C143.114 53.8206 143.141 53.8644 143.158 53.9121L144.872 58.5708C144.893 58.6293 144.9 58.6922 144.892 58.7541C144.884 58.8159 144.862 58.8749 144.826 58.9261C144.79 58.9773 144.743 59.0191 144.688 59.0479C144.632 59.0768 144.571 59.0919 144.508 59.0919Z" fill="black"/>
<path d="M72.2086 149.264C72.1068 149.252 72.014 149.2 71.9507 149.119C71.8874 149.038 71.8588 148.936 71.871 148.834C71.8771 148.783 71.893 148.735 71.9179 148.69C71.9428 148.646 71.9762 148.607 72.0162 148.576C72.0561 148.544 72.1019 148.521 72.1509 148.507C72.1998 148.493 72.251 148.489 72.3015 148.496C75.5387 148.902 78.8034 149.049 82.064 148.934C82.1655 148.934 82.2631 148.973 82.3372 149.042C82.4112 149.112 82.4561 149.206 82.4628 149.308C82.4645 149.359 82.4562 149.409 82.4384 149.457C82.4206 149.505 82.3935 149.548 82.3588 149.585C82.324 149.623 82.2823 149.653 82.236 149.674C82.1897 149.695 82.1397 149.706 82.0888 149.708C78.7888 149.824 75.4849 149.676 72.2086 149.264ZM91.4673 148.366C91.4584 148.316 91.4594 148.265 91.4704 148.215C91.4813 148.165 91.5019 148.118 91.531 148.077C91.5602 148.035 91.5972 147.999 91.6401 147.972C91.683 147.945 91.7308 147.926 91.7809 147.917C94.9909 147.346 98.1555 146.544 101.25 145.517C101.298 145.501 101.349 145.495 101.4 145.498C101.451 145.502 101.5 145.515 101.546 145.538C101.591 145.561 101.632 145.592 101.665 145.631C101.698 145.669 101.724 145.714 101.74 145.762C101.756 145.81 101.762 145.861 101.759 145.912C101.755 145.963 101.741 146.012 101.719 146.058C101.696 146.103 101.664 146.144 101.626 146.177C101.587 146.21 101.543 146.236 101.495 146.252C98.3641 147.29 95.1628 148.102 91.9156 148.68C91.8146 148.698 91.7106 148.675 91.6266 148.616C91.5425 148.557 91.4852 148.467 91.4673 148.366ZM62.5746 147.508C62.3586 147.508 59.8848 146.825 59.3173 146.656C59.2399 146.637 59.6038 146.811 53.3556 143.705C53.2632 143.66 53.1927 143.579 53.1597 143.481C53.1266 143.384 53.1337 143.277 53.1794 143.185C53.2251 143.092 53.3056 143.022 53.4033 142.989C53.5009 142.956 53.6077 142.963 53.7001 143.008L59.5519 145.916C59.8748 146.012 60.999 146.34 62.6667 146.743C62.7588 146.765 62.8395 146.82 62.8935 146.898C62.9476 146.976 62.9713 147.07 62.9602 147.165C62.949 147.259 62.9038 147.345 62.833 147.408C62.7622 147.471 62.6708 147.506 62.5761 147.506L62.5746 147.508ZM110.45 142.507C110.362 142.507 110.278 142.478 110.209 142.424C110.141 142.37 110.093 142.294 110.073 142.209C110.053 142.125 110.062 142.035 110.099 141.957C110.136 141.878 110.198 141.813 110.276 141.774C113.189 140.312 115.993 138.643 118.667 136.78C118.708 136.749 118.756 136.728 118.806 136.716C118.856 136.704 118.908 136.702 118.959 136.711C119.009 136.719 119.058 136.738 119.102 136.765C119.145 136.793 119.183 136.829 119.212 136.871C119.242 136.913 119.262 136.961 119.273 137.011C119.284 137.062 119.285 137.114 119.275 137.164C119.266 137.215 119.246 137.263 119.218 137.306C119.189 137.349 119.152 137.386 119.11 137.414C116.405 139.299 113.569 140.988 110.623 142.466C110.569 142.493 110.51 142.507 110.45 142.507ZM126.526 131.305C126.449 131.305 126.373 131.281 126.309 131.238C126.245 131.194 126.195 131.132 126.167 131.06C126.138 130.987 126.132 130.908 126.149 130.833C126.166 130.757 126.206 130.688 126.262 130.635C128.644 128.407 130.864 126.013 132.906 123.47C132.97 123.39 133.064 123.339 133.166 123.327C133.268 123.316 133.37 123.346 133.45 123.41C133.531 123.474 133.582 123.567 133.593 123.669C133.605 123.772 133.575 123.874 133.511 123.954C131.445 126.526 129.2 128.948 126.79 131.201C126.718 131.268 126.624 131.305 126.526 131.305ZM138.797 116.013C138.728 116.013 138.661 115.995 138.602 115.96C138.543 115.926 138.494 115.877 138.46 115.818C138.426 115.758 138.409 115.691 138.409 115.623C138.41 115.555 138.428 115.488 138.463 115.429C140.12 112.619 141.573 109.694 142.81 106.675C142.83 106.628 142.858 106.585 142.894 106.549C142.929 106.513 142.972 106.484 143.019 106.465C143.066 106.445 143.116 106.435 143.167 106.434C143.218 106.434 143.268 106.444 143.315 106.463C143.363 106.483 143.405 106.511 143.441 106.547C143.478 106.583 143.506 106.625 143.526 106.672C143.546 106.719 143.556 106.769 143.556 106.82C143.556 106.871 143.546 106.921 143.527 106.969C142.277 110.021 140.808 112.98 139.133 115.822C139.099 115.881 139.05 115.929 138.99 115.962C138.931 115.996 138.864 116.013 138.797 116.013ZM146.229 97.8657C146.17 97.8658 146.112 97.8525 146.059 97.8267C146.006 97.801 145.96 97.7635 145.924 97.7171C145.888 97.6708 145.862 97.6168 145.85 97.5592C145.838 97.5016 145.839 97.442 145.853 97.3849C146.64 94.2203 147.198 91.0032 147.523 87.7586C147.533 87.6559 147.584 87.5615 147.664 87.4962C147.744 87.4309 147.846 87.3999 147.949 87.4102C148.052 87.4205 148.146 87.4711 148.211 87.551C148.277 87.6308 148.308 87.7334 148.297 87.836C147.968 91.1177 147.404 94.3714 146.609 97.5722C146.588 97.6569 146.538 97.732 146.469 97.7853C146.4 97.8385 146.315 97.8669 146.228 97.8657H146.229ZM147.791 77.9945C147.614 74.7364 147.22 71.4937 146.613 68.2877C146.594 68.1868 146.616 68.0825 146.674 67.9978C146.732 67.9131 146.822 67.8548 146.923 67.836C147.024 67.8171 147.128 67.839 147.213 67.897C147.297 67.9551 147.356 68.0443 147.374 68.1453C147.987 71.3853 148.385 74.6624 148.564 77.955C148.57 78.0577 148.534 78.1583 148.465 78.2346C148.396 78.3109 148.3 78.3567 148.197 78.3619C148.094 78.3671 147.994 78.3314 147.918 78.2625C147.841 78.1936 147.795 78.0972 147.79 77.9945H147.791Z" fill="black"/>
<path d="M44.7021 139.375C44.5743 139.375 44.9661 139.543 40.0844 137.124C40.0373 137.102 39.995 137.071 39.9601 137.033C39.9251 136.995 39.8982 136.95 39.881 136.901C39.8637 136.852 39.8564 136.8 39.8596 136.749C39.8628 136.697 39.8763 136.646 39.8994 136.6C39.9225 136.553 39.9546 136.512 39.994 136.478C40.0333 136.445 40.079 136.419 40.1284 136.403C40.1778 136.388 40.2299 136.382 40.2815 136.387C40.3331 136.391 40.3833 136.406 40.429 136.431L44.8747 138.641C44.9526 138.68 45.015 138.745 45.0519 138.824C45.0888 138.902 45.098 138.991 45.0781 139.076C45.0581 139.161 45.0101 139.237 44.9419 139.291C44.8737 139.345 44.7892 139.374 44.7021 139.375Z" fill="black"/>
<path d="M45.2076 21.8287C45.1214 21.8291 45.0375 21.8008 44.9692 21.7482C44.9009 21.6955 44.8521 21.6216 44.8306 21.5381C44.8091 21.4547 44.8161 21.3664 44.8504 21.2873C44.8847 21.2082 44.9445 21.1429 45.0202 21.1016C46.4572 20.3119 47.9546 19.5531 49.4698 18.847C49.5162 18.8229 49.567 18.8085 49.6191 18.8046C49.6712 18.8006 49.7236 18.8073 49.7731 18.8242C49.8225 18.841 49.8681 18.8677 49.907 18.9027C49.9458 18.9376 49.9772 18.9801 49.9993 19.0275C50.0213 19.0749 50.0335 19.1262 50.0351 19.1785C50.0368 19.2307 50.0278 19.2827 50.0088 19.3314C49.9898 19.3801 49.9611 19.4244 49.9245 19.4617C49.8879 19.4991 49.8441 19.5286 49.7958 19.5485C48.2968 20.2453 46.8157 20.9987 45.3934 21.7806C45.3365 21.812 45.2726 21.8285 45.2076 21.8287Z" fill="black"/>
<path d="M105.398 17.7793C102.452 16.5814 99.425 15.5923 96.3397 14.8194C96.2903 14.807 96.2439 14.7851 96.203 14.7548C96.1621 14.7245 96.1276 14.6864 96.1015 14.6428C96.0753 14.5991 96.058 14.5507 96.0505 14.5004C96.043 14.4501 96.0455 14.3988 96.0579 14.3494C96.0828 14.2497 96.1464 14.164 96.2345 14.1111C96.2781 14.085 96.3265 14.0677 96.3768 14.0602C96.4272 14.0527 96.4785 14.0552 96.5278 14.0676C99.6482 14.8501 102.71 15.8511 105.69 17.0631C105.739 17.0806 105.784 17.1079 105.823 17.1434C105.861 17.1789 105.892 17.2218 105.914 17.2696C105.935 17.3174 105.947 17.369 105.948 17.4214C105.949 17.4738 105.939 17.5258 105.919 17.5743C105.899 17.6228 105.87 17.6668 105.833 17.7036C105.795 17.7404 105.751 17.7693 105.702 17.7884C105.654 17.8076 105.601 17.8167 105.549 17.8151C105.497 17.8136 105.445 17.8014 105.398 17.7793H105.398ZM58.2016 15.8499C58.1867 15.8012 58.1815 15.7501 58.1863 15.6995C58.1912 15.6488 58.2059 15.5996 58.2298 15.5546C58.2537 15.5097 58.2862 15.4699 58.3255 15.4375C58.3647 15.4052 58.41 15.3808 58.4587 15.366C61.5248 14.3993 64.6516 13.637 67.8186 13.0843C67.8687 13.0746 67.9203 13.0751 67.9702 13.0858C68.0201 13.0965 68.0673 13.1171 68.1091 13.1465C68.1508 13.1758 68.1863 13.2133 68.2132 13.2566C68.2402 13.2999 68.2582 13.3482 68.2661 13.3986C68.2837 13.4996 68.2604 13.6035 68.2015 13.6874C68.1426 13.7713 68.0528 13.8284 67.9518 13.8461C64.8185 14.3992 61.7244 15.1543 58.6886 16.1069C58.6398 16.1224 58.5884 16.1279 58.5374 16.1233C58.4863 16.1187 58.4367 16.104 58.3915 16.0801C58.3462 16.0562 58.3061 16.0236 58.2735 15.984C58.2409 15.9445 58.2165 15.8989 58.2016 15.8499ZM86.996 13.1617C83.8199 12.8235 80.6234 12.7166 77.4317 12.8419C77.3305 12.8411 77.2332 12.8026 77.1589 12.7339C77.0845 12.6651 77.0385 12.5712 77.0299 12.4703C77.0278 12.4194 77.0358 12.3686 77.0534 12.3207C77.071 12.2729 77.0979 12.2291 77.1325 12.1917C77.1671 12.1543 77.2087 12.1241 77.255 12.1028C77.3013 12.0815 77.3514 12.0696 77.4023 12.0677C80.6172 11.944 83.8368 12.0516 87.0363 12.3898C87.0871 12.3924 87.137 12.405 87.1829 12.4269C87.2289 12.4488 87.2701 12.4796 87.3041 12.5174C87.3382 12.5552 87.3645 12.5994 87.3815 12.6473C87.3985 12.6953 87.4059 12.7462 87.4033 12.797C87.4007 12.8479 87.388 12.8977 87.3661 12.9436C87.3442 12.9896 87.3135 13.0308 87.2757 13.0649C87.2379 13.0989 87.1937 13.1252 87.1457 13.1423C87.0977 13.1593 87.0469 13.1667 86.996 13.164V13.1617Z" fill="black"/>
<path d="M118.347 24.6881C118.269 24.688 118.192 24.6643 118.128 24.6199C116.787 23.7017 115.383 22.8144 113.956 21.9875C113.91 21.9633 113.869 21.93 113.836 21.8896C113.803 21.8491 113.778 21.8025 113.764 21.7523C113.749 21.7022 113.745 21.6496 113.751 21.5978C113.758 21.5459 113.774 21.4959 113.801 21.4507C113.827 21.4055 113.862 21.3661 113.903 21.3347C113.945 21.3034 113.993 21.2809 114.044 21.2684C114.094 21.256 114.147 21.254 114.199 21.2625C114.25 21.2709 114.299 21.2897 114.343 21.3177C115.787 22.1578 117.208 23.0544 118.564 23.9843C118.631 24.0313 118.681 24.0983 118.707 24.1757C118.734 24.253 118.735 24.3368 118.711 24.4149C118.687 24.4931 118.639 24.5616 118.573 24.6107C118.508 24.6597 118.429 24.6868 118.347 24.6881Z" fill="black"/>
<path d="M16.4424 107.379C16.3658 107.379 16.2909 107.357 16.2272 107.314C16.1636 107.272 16.114 107.211 16.0847 107.14C15.4792 105.682 14.8784 104.063 14.3488 102.461C14.3199 102.365 14.3297 102.261 14.3763 102.171C14.4228 102.082 14.5024 102.014 14.598 101.983C14.6937 101.951 14.798 101.958 14.8886 102.002C14.9793 102.046 15.0492 102.124 15.0836 102.218C15.7456 104.219 16.3828 105.838 16.8001 106.844C16.8244 106.903 16.8338 106.967 16.8276 107.03C16.8213 107.094 16.7995 107.155 16.7642 107.207C16.7288 107.26 16.6809 107.304 16.6248 107.334C16.5687 107.364 16.506 107.379 16.4424 107.379Z" fill="black"/>
<path d="M12.3632 93.4152C12.2725 93.415 12.1848 93.3829 12.1153 93.3246C12.0458 93.2663 11.999 93.1855 11.983 93.0962C11.4166 89.922 11.0717 86.7122 10.951 83.4901C10.949 83.4392 10.9571 83.3885 10.9748 83.3408C10.9925 83.2931 11.0194 83.2493 11.0539 83.212C11.0885 83.1747 11.1301 83.1446 11.1764 83.1233C11.2226 83.1021 11.2725 83.0902 11.3234 83.0882C11.3742 83.0863 11.4249 83.0944 11.4726 83.1121C11.5204 83.1297 11.5641 83.1566 11.6014 83.1912C11.6387 83.2258 11.6689 83.2674 11.6901 83.3136C11.7114 83.3598 11.7233 83.4098 11.7252 83.4606C11.8452 86.6469 12.1861 89.8209 12.7457 92.9599C12.7557 93.0158 12.7533 93.0731 12.7386 93.1279C12.724 93.1827 12.6975 93.2337 12.661 93.2771C12.6245 93.3205 12.5789 93.3554 12.5275 93.3793C12.476 93.4031 12.4199 93.4154 12.3632 93.4152ZM11.6478 74.2618C11.5935 74.262 11.5397 74.2509 11.4899 74.229C11.4402 74.2071 11.3956 74.175 11.3591 74.1348C11.3226 74.0946 11.2949 74.0471 11.278 73.9954C11.261 73.9438 11.2551 73.8892 11.2607 73.8352C11.5903 70.6279 12.1418 67.4474 12.9114 64.3165C12.9377 64.2188 13.0012 64.1353 13.0882 64.0839C13.1753 64.0324 13.2791 64.0171 13.3773 64.0412C13.4756 64.0653 13.5605 64.1268 13.6139 64.2127C13.6673 64.2986 13.685 64.402 13.6632 64.5008C12.9018 67.5967 12.3567 70.7418 12.0318 73.9134C12.0217 74.0082 11.9769 74.096 11.906 74.1599C11.8352 74.2238 11.7432 74.2592 11.6478 74.2594V74.2618ZM16.26 55.6573C16.1966 55.6572 16.1342 55.6416 16.0782 55.6118C16.0223 55.582 15.9745 55.5389 15.9391 55.4863C15.9037 55.4337 15.8817 55.3732 15.8752 55.3101C15.8686 55.2471 15.8777 55.1833 15.9015 55.1246C17.1181 52.1382 18.5456 49.2422 20.1731 46.4584C20.2281 46.3775 20.3117 46.3205 20.4071 46.2987C20.5025 46.277 20.6025 46.2922 20.6872 46.3412C20.7718 46.3903 20.8348 46.4695 20.8634 46.5631C20.8919 46.6566 20.884 46.7576 20.8412 46.8455C19.2325 49.5978 17.8213 52.461 16.6185 55.4134C16.5899 55.4852 16.5405 55.5468 16.4766 55.5902C16.4127 55.6337 16.3373 55.657 16.26 55.6573Z" fill="black"/>
<path d="M25.919 39.1037C25.8464 39.1035 25.7754 39.083 25.7139 39.0444C25.6525 39.0058 25.6031 38.9507 25.5715 38.8854C25.5398 38.82 25.5272 38.7472 25.5349 38.675C25.5427 38.6029 25.5706 38.5344 25.6155 38.4773C26.6421 37.1766 27.7269 35.8959 28.8402 34.6703C28.9101 34.5977 29.0055 34.5551 29.1062 34.5517C29.2069 34.5483 29.3049 34.5843 29.3795 34.652C29.4541 34.7198 29.4994 34.8139 29.5057 34.9145C29.5119 35.0151 29.4788 35.1141 29.4132 35.1906C28.3114 36.4031 27.2383 37.6682 26.2233 38.9566C26.187 39.0025 26.1407 39.0396 26.088 39.0651C26.0353 39.0906 25.9775 39.1037 25.919 39.1037Z" fill="black"/>
<path d="M106.104 112.979C107.128 105.128 108.984 103.655 110.167 96.8566C110.838 93.0031 111.599 88.6356 110.121 83.3273C108.97 79.1843 107.166 74.7641 103.212 73.1227V35.532C103.209 33.0961 102.24 30.7609 100.518 29.0385C98.7954 27.3162 96.46 26.3474 94.0241 26.3447H54.8873C53.3219 26.3464 51.8211 26.969 50.7143 28.076C49.6075 29.1829 48.985 30.6838 48.9836 32.2492V48.9629C44.5975 44.0464 44.3017 43.4417 42.8136 42.8642C41.2403 42.2494 39.8505 42.285 38.9005 42.9664C37.7392 43.8025 37.5959 45.3278 37.5262 46.0634C37.3427 47.999 37.8081 49.8649 40.9407 55.2297C43.3657 59.371 46.0521 63.3536 48.9836 67.1532V67.3336C47.3128 67.754 45.6412 71.1692 45.3911 74.0858C45.2466 76.7365 45.956 79.3637 47.415 81.5814C46.5778 82.705 45.9895 83.9941 45.6892 85.3628C45.3215 87.246 45.5376 89.1966 46.3086 90.9537C45.665 91.8242 45.2116 92.8203 44.9776 93.8773C44.208 97.5681 46.4774 101.62 49.2585 104.286V108.513C49.2601 109.84 49.788 111.112 50.7264 112.051C51.6647 112.989 52.937 113.517 54.264 113.518H57.9456C58.3369 115.639 59.2225 117.638 60.5308 119.352C61.839 121.067 63.5329 122.449 65.4752 123.386L73.2037 148.704C73.217 148.755 73.2403 148.802 73.2723 148.843C73.3042 148.884 73.3441 148.918 73.3895 148.944C73.435 148.969 73.4851 148.985 73.5369 148.99C73.5886 148.996 73.641 148.991 73.6908 148.976C73.7406 148.961 73.7868 148.936 73.8267 148.902C73.8666 148.869 73.8993 148.828 73.9229 148.781C73.9466 148.735 73.9606 148.684 73.9642 148.632C73.9678 148.58 73.9609 148.528 73.9439 148.479L66.4043 123.78C68.8172 124.687 71.4151 124.99 73.9718 124.662C74.0733 124.647 74.1648 124.593 74.226 124.51C74.2873 124.428 74.3134 124.325 74.2985 124.223C74.2826 124.122 74.2278 124.031 74.1458 123.97C74.0637 123.909 73.961 123.882 73.8595 123.896C72.7756 124.051 67.1437 124.641 62.7506 120.644C60.7023 118.747 59.2995 116.256 58.7392 113.521H92.0932C92.2921 113.857 92.4996 114.196 92.7273 114.539C92.7549 114.582 92.791 114.62 92.8333 114.649C92.8755 114.678 92.9232 114.699 92.9735 114.709C93.0238 114.72 93.0757 114.72 93.1262 114.711C93.1767 114.701 93.2247 114.681 93.2676 114.653C93.3104 114.625 93.3471 114.588 93.3756 114.545C93.4041 114.502 93.4238 114.454 93.4336 114.404C93.4433 114.353 93.4429 114.301 93.4324 114.251C93.4218 114.201 93.4014 114.153 93.3722 114.111C91.2658 111.085 90.1618 107.474 90.2156 103.787C90.3433 100.637 91.7517 97.9065 94.5568 92.4658C95.8599 89.9386 97.2667 87.4727 98.7378 85.1158L99.1179 85.9242C99.1617 86.0171 99.2405 86.0888 99.3372 86.1236C99.4338 86.1584 99.5403 86.1533 99.6332 86.1096C99.7261 86.0658 99.7979 85.987 99.8326 85.8904C99.8674 85.7937 99.8624 85.6872 99.8186 85.5943L98.6573 83.1167C98.6271 83.0525 98.5799 82.9978 98.5208 82.9587C98.4616 82.9195 98.3929 82.8973 98.322 82.8945C97.0602 82.8471 95.8216 82.5409 94.683 81.9948C93.836 81.5822 92.7064 80.8451 90.0189 77.3044C87.7968 74.377 86.6811 72.9067 85.9479 70.81C85.4121 69.2661 84.6789 67.154 85.5995 65.1254C85.8416 64.4109 86.3106 63.795 86.9351 63.3718C87.9258 65.5522 89.341 67.5134 91.0982 69.1407C92.5151 70.4995 93.1492 70.7782 95.2962 70.6892C95.8227 70.6632 96.3464 70.5964 96.8625 70.4894C97.5978 71.3044 98.4652 71.9894 99.4284 72.5157C101.104 73.4494 101.844 73.3673 103.026 73.8822C103.72 74.1911 104.364 74.6036 104.934 75.1055C104.001 75.3982 103.169 75.9477 102.534 76.6912C102.467 76.7692 102.434 76.8706 102.442 76.9731C102.45 77.0755 102.498 77.1706 102.576 77.2374C102.654 77.3043 102.756 77.3374 102.858 77.3295C102.96 77.3215 103.056 77.2733 103.122 77.1952C103.76 76.446 104.631 75.9314 105.595 75.7335C106.251 76.4443 106.819 77.2327 107.285 78.081C106.703 78.8044 105.958 79.3798 105.111 79.7603C105.03 79.7963 104.964 79.8588 104.924 79.9376C104.884 80.0164 104.871 80.1067 104.89 80.1934C104.908 80.28 104.955 80.3579 105.023 80.4139C105.092 80.47 105.178 80.5008 105.266 80.5013C105.32 80.5013 105.372 80.49 105.421 80.468C106.278 80.0829 107.043 79.5206 107.666 78.8181C108.382 80.3351 108.952 81.9165 109.37 83.541C110.801 88.6813 110.056 92.9575 109.398 96.7304C108.226 103.476 106.369 104.931 105.332 112.885C105.051 115.015 104.892 117.159 104.854 119.307C104.81 122.471 105.053 124.959 106.093 131.977C106.631 135.61 107.207 139.274 107.802 142.864C107.809 142.916 107.826 142.965 107.853 143.01C107.879 143.054 107.914 143.093 107.956 143.124C107.997 143.154 108.045 143.177 108.095 143.189C108.146 143.201 108.198 143.203 108.249 143.194C108.3 143.186 108.349 143.167 108.393 143.139C108.437 143.111 108.474 143.075 108.504 143.033C108.533 142.99 108.554 142.942 108.565 142.891C108.575 142.84 108.575 142.788 108.565 142.737C107.971 139.151 107.396 135.493 106.862 131.863C105.828 124.895 105.585 122.432 105.629 119.32C105.668 117.199 105.826 115.082 106.104 112.979ZM41.6089 54.8387C38.5823 49.6559 38.1294 47.903 38.2958 46.1346C38.3593 45.4672 38.4778 44.2253 39.3512 43.5943C40.3352 42.8913 41.766 43.2846 42.5326 43.585C43.8488 44.0952 44.0369 44.5969 48.9828 50.1251V65.8424C46.303 62.3283 43.8407 58.6535 41.6096 54.8387H41.6089ZM46.1615 74.1509C46.4247 71.0802 48.1985 68.0552 49.3088 68.0552H49.346C49.6332 68.073 50.3463 69.0788 51.5913 71.2219C53.914 75.2054 52.2107 72.9252 56.9336 80.3627C56.7614 80.2144 56.5516 80.1164 56.3274 80.0793C55.4804 79.9245 54.8168 80.5439 54.1045 81.1881C53.3643 81.8562 52.3508 82.7714 52.3237 84.1302C52.3098 84.9819 52.6838 85.5657 53.3047 86.5304C53.5418 86.8914 53.8003 87.2379 54.079 87.5679C53.5265 87.1641 53.0052 86.7192 52.5196 86.2369C50.6227 84.4415 49.4722 83.4334 48.2016 81.3901C46.7529 79.2629 46.0369 76.7215 46.1622 74.1509H46.1615ZM57.4888 82.4036C58.023 83.294 58.4852 84.1503 58.9056 85.016C59.0179 87.2923 57.6668 88.3383 55.694 88.1362C55.0288 87.5409 54.4461 86.8595 53.9613 86.11C53.3845 85.2142 53.0949 84.7643 53.105 84.1441C53.122 83.1221 53.9566 82.3688 54.6302 81.761C55.221 81.2244 55.7312 80.7545 56.1996 80.8435C56.4009 80.8776 56.6503 81.027 57.4895 82.4036H57.4888ZM46.4464 85.5215C46.7028 84.3595 47.185 83.2591 47.8656 82.2828C49.1183 84.1349 49.8291 84.7527 51.9939 86.8006C52.6328 87.4738 53.3656 88.0511 54.1695 88.5148C55.4407 89.5882 56.5102 90.8797 57.3277 92.3288C57.7081 92.982 58.0504 93.6568 58.3528 94.3496C58.2282 94.1947 58.1051 94.0499 57.9897 93.9322C57.5869 93.413 57.0029 93.0651 56.3545 92.9582C55.3751 92.8924 54.6829 93.6628 54.0735 94.341C53.2877 95.2005 52.4763 96.0901 52.5653 97.3312C52.6213 97.9329 52.865 98.5017 53.2621 98.9571C52.7426 98.443 52.2355 97.8778 51.7601 97.3482C49.1059 94.3805 45.4654 90.3118 46.4472 85.5215H46.4464ZM54.5644 99.2521C53.8823 98.5328 53.3899 98.0133 53.3372 97.2762C53.2722 96.3665 53.9388 95.6364 54.6473 94.8613C55.2667 94.1754 55.7413 93.6775 56.3026 93.7309C56.7596 93.8362 57.1639 94.1015 57.4423 94.4789C58.0702 95.1536 58.5637 95.942 58.8964 96.8016C58.904 97.2429 58.8461 97.6828 58.7245 98.107C58.4047 99.191 57.6614 100.524 56.5395 100.708C55.8023 100.341 55.1343 99.8478 54.5652 99.2521H54.5644ZM55.9751 101.899C55.8827 102.476 55.6862 103.031 55.3952 103.537C55.0545 104.124 54.6295 104.853 53.9837 104.954C53.6909 104.947 53.4027 104.88 53.1375 104.756C52.8722 104.631 52.6357 104.453 52.443 104.233C52.0518 103.934 51.7352 103.548 51.518 103.107C51.3008 102.665 51.1889 102.179 51.191 101.686C51.2374 101.224 51.3941 100.779 51.6479 100.39C51.9017 100 52.2453 99.6773 52.6497 99.448C53.4604 100.391 54.5202 101.088 55.708 101.457C55.8095 101.597 55.9001 101.745 55.979 101.899H55.9751ZM45.7364 94.0344C45.9144 93.2291 46.2345 92.462 46.6818 91.769C47.9173 94.0083 49.4457 96.0731 51.2266 97.9088C51.5115 98.227 51.8027 98.5522 52.1 98.8704C51.6309 99.1716 51.2362 99.575 50.9454 100.051C50.6545 100.526 50.4751 101.061 50.4206 101.616C50.4075 102.228 50.5366 102.834 50.7976 103.387C51.0587 103.941 51.4446 104.426 51.925 104.805C52.4247 105.336 53.1012 105.667 53.8273 105.734C54.9306 105.734 55.5384 104.826 56.0657 103.92C56.1571 103.765 56.2399 103.601 56.3158 103.437C56.2934 103.86 56.2013 104.277 56.0432 104.67C55.8386 105.312 55.3969 105.851 54.8083 106.179C53.9094 106.529 52.2161 105.812 50.4934 104.355C47.6651 101.967 44.9699 97.7144 45.7364 94.0344ZM91.6565 112.742H54.2656C53.1437 112.741 52.0682 112.294 51.2749 111.501C50.4817 110.708 50.0355 109.632 50.0343 108.511V104.982C51.311 106.054 53.5409 107.505 55.0894 106.903C55.8032 106.553 56.3607 105.949 56.6526 105.21H89.4599C89.6271 107.853 90.3772 110.426 91.6565 112.745V112.742ZM96.5343 83.4303C97.0344 83.5436 97.5425 83.6182 98.0541 83.6533L98.346 84.2727C97.7266 85.2498 97.1266 86.2532 96.5343 87.2675V83.4303ZM84.8911 64.8095C83.8458 67.1153 84.6696 69.4914 85.2163 71.0647C85.9905 73.2775 87.1302 74.7811 89.4011 77.7736C92.1923 81.4497 93.4156 82.2387 94.3462 82.6917C94.8026 82.9078 95.2747 83.089 95.7585 83.2336V88.6147C95.1104 89.7637 94.4771 90.9274 93.8693 92.1058C91.1517 97.3753 89.415 100.528 89.4336 104.436H56.9259C57.0762 103.946 57.1271 103.431 57.0755 102.922C57.0239 102.412 56.8709 101.918 56.6255 101.469C56.7029 101.456 56.7803 101.459 56.8577 101.439C58.551 101.006 59.2819 98.9471 59.4662 98.3269C60.1971 95.8702 58.9289 93.604 58.0005 91.944C57.3759 90.8401 56.6113 89.8215 55.7258 88.9135C58.5727 89.1458 60.4441 87.0995 59.3865 83.2197C59.1574 82.4851 58.8126 81.7917 58.3652 81.1656C53.2265 73.0963 54.5853 74.9801 52.9091 71.9683V34.7841C52.9091 34.169 53.153 33.579 53.5875 33.1435C54.0219 32.7081 54.6113 32.4627 55.2264 32.4613H93.4427C94.0575 32.4632 94.6465 32.7087 95.0806 33.1441C95.5147 33.5795 95.7585 34.1692 95.7585 34.7841V68.1024C95.5092 67.8338 95.2428 67.5527 94.9385 67.2508C91.0936 63.3973 87.1472 59.8489 84.8911 64.8095ZM93.2119 69.7361C92.6026 69.4746 92.061 69.0774 91.6286 68.5747C89.98 67.0515 88.6468 65.2193 87.7047 63.1821C89.7317 63.1317 92.6034 66.0027 94.3904 67.7927C95.1267 68.5306 95.6191 69.0927 96.2486 69.8058C95.2428 69.9973 94.2079 69.9735 93.2119 69.7361ZM96.5327 68.9619V34.7794C96.5309 33.9605 96.2047 33.1756 95.6256 32.5965C95.0465 32.0174 94.2616 31.6912 93.4427 31.6894H55.2171C54.3983 31.6933 53.6143 32.0213 53.0367 32.6017C52.4591 33.182 52.1348 33.9676 52.1348 34.7864V70.6195C50.7892 68.32 50.2085 67.5953 49.7579 67.377V32.2492C49.7595 30.8893 50.3005 29.5857 51.2621 28.6242C52.2237 27.6627 53.5274 27.122 54.8873 27.1205H93.0494C94.4117 27.1211 95.7185 27.661 96.684 28.6222C97.6495 29.5833 98.1952 30.8876 98.202 32.2499V70.7357C97.6086 70.1792 97.051 69.5858 96.5327 68.9588V68.9619Z" fill="black"/>
<path d="M21.7571 23.203C21.4338 23.2044 21.1174 23.1098 20.8479 22.9312C20.5784 22.7526 20.3681 22.498 20.2434 22.1997C20.1188 21.9014 20.0855 21.5728 20.1478 21.2556C20.2101 20.9384 20.3651 20.6467 20.5933 20.4177C20.8214 20.1887 21.1124 20.0325 21.4294 19.9691C21.7464 19.9056 22.0751 19.9376 22.3739 20.0611C22.6726 20.1846 22.928 20.394 23.1077 20.6628C23.2873 20.9316 23.3831 21.2476 23.383 21.5709C23.3824 22.0025 23.2111 22.4164 22.9065 22.7221C22.6018 23.0279 22.1887 23.2008 21.7571 23.203ZM21.7571 20.7123C21.5869 20.7109 21.4202 20.7601 21.2781 20.8536C21.136 20.9471 21.0249 21.0807 20.9588 21.2375C20.8928 21.3942 20.8748 21.5671 20.9071 21.7341C20.9394 21.9011 21.0207 22.0548 21.1405 22.1756C21.2603 22.2963 21.4132 22.3788 21.58 22.4125C21.7467 22.4462 21.9197 22.4296 22.077 22.3648C22.2343 22.3001 22.3689 22.19 22.4635 22.0487C22.5582 21.9073 22.6087 21.741 22.6087 21.5709C22.6085 21.3445 22.5189 21.1274 22.3594 20.9667C22.1999 20.806 21.9834 20.7149 21.7571 20.713V20.7123Z" fill="black"/>
<path d="M25.7591 21.3324C25.4363 21.3324 25.1207 21.2366 24.8523 21.0573C24.5839 20.878 24.3747 20.6231 24.2512 20.3248C24.1277 20.0266 24.0953 19.6984 24.1583 19.3818C24.2213 19.0652 24.3767 18.7744 24.605 18.5462C24.8332 18.3179 25.1241 18.1625 25.4407 18.0995C25.7573 18.0365 26.0854 18.0688 26.3837 18.1924C26.6819 18.3159 26.9368 18.5251 27.1161 18.7935C27.2955 19.0619 27.3912 19.3774 27.3912 19.7002C27.3906 20.1329 27.2184 20.5477 26.9125 20.8536C26.6065 21.1596 26.1918 21.3317 25.7591 21.3324ZM25.7591 18.8424C25.5894 18.8424 25.4235 18.8927 25.2825 18.9869C25.1414 19.0812 25.0314 19.2152 24.9665 19.3719C24.9016 19.5287 24.8846 19.7012 24.9177 19.8676C24.9508 20.034 25.0325 20.1869 25.1525 20.3068C25.2724 20.4268 25.4253 20.5085 25.5917 20.5416C25.7581 20.5747 25.9306 20.5577 26.0874 20.4928C26.2441 20.4279 26.3781 20.3179 26.4724 20.1768C26.5666 20.0358 26.6169 19.8699 26.6169 19.7002C26.6174 19.5873 26.5955 19.4754 26.5525 19.3709C26.5096 19.2664 26.4465 19.1714 26.3668 19.0914C26.2871 19.0113 26.1924 18.9478 26.0881 18.9044C25.9839 18.861 25.872 18.8386 25.7591 18.8385V18.8424Z" fill="black"/>
<path d="M30.1528 19.4532C29.83 19.4531 29.5145 19.3572 29.2462 19.1777C28.9779 18.9983 28.7688 18.7432 28.6454 18.445C28.522 18.1467 28.4899 17.8185 28.553 17.5019C28.6161 17.1853 28.7717 16.8946 29.0001 16.6665C29.2284 16.4383 29.5193 16.283 29.836 16.2202C30.1526 16.1573 30.4807 16.1898 30.7789 16.3135C31.0771 16.4372 31.3319 16.6465 31.5111 16.915C31.6903 17.1835 31.7859 17.4991 31.7857 17.8219C31.7851 18.2546 31.6128 18.6694 31.3067 18.9753C31.0006 19.2811 30.5856 19.453 30.1528 19.4532ZM30.1528 16.964C29.9832 16.9641 29.8174 17.0146 29.6764 17.1089C29.5355 17.2033 29.4256 17.3373 29.3608 17.4941C29.296 17.6509 29.2791 17.8233 29.3123 17.9897C29.3455 18.1561 29.4273 18.3088 29.5473 18.4287C29.6673 18.5486 29.8201 18.6303 29.9865 18.6633C30.1529 18.6963 30.3254 18.6793 30.4821 18.6144C30.6388 18.5494 30.7727 18.4394 30.867 18.2984C30.9612 18.1573 31.0115 17.9915 31.0115 17.8219C31.0113 17.5943 30.9207 17.3761 30.7597 17.2152C30.5987 17.0543 30.3804 16.964 30.1528 16.964Z" fill="black"/>
<path d="M15.2841 122.731C14.9565 122.731 14.6363 122.634 14.364 122.452C14.0916 122.27 13.8793 122.011 13.754 121.708C13.6286 121.406 13.5959 121.073 13.6598 120.751C13.7237 120.43 13.8814 120.135 14.113 119.904C14.3446 119.672 14.6397 119.514 14.961 119.45C15.2822 119.386 15.6152 119.419 15.9178 119.545C16.2204 119.67 16.4791 119.882 16.6611 120.154C16.843 120.427 16.9402 120.747 16.9402 121.075C16.9398 121.514 16.7652 121.935 16.4547 122.245C16.1442 122.556 15.7232 122.73 15.2841 122.731ZM15.2841 120.193C15.1096 120.193 14.9391 120.245 14.794 120.342C14.649 120.439 14.536 120.577 14.4692 120.738C14.4025 120.899 14.3851 121.077 14.4192 121.248C14.4533 121.419 14.5373 121.576 14.6608 121.699C14.7842 121.823 14.9414 121.906 15.1125 121.94C15.2836 121.974 15.4609 121.957 15.6221 121.89C15.7832 121.823 15.9209 121.71 16.0177 121.565C16.1145 121.42 16.1661 121.249 16.1659 121.075C16.1657 120.841 16.0727 120.617 15.9074 120.452C15.742 120.286 15.5178 120.193 15.2841 120.193Z" fill="black"/>
<path d="M19.9642 122.467C19.6366 122.467 19.3164 122.369 19.0441 122.187C18.7717 122.005 18.5594 121.747 18.4341 121.444C18.3088 121.141 18.276 120.808 18.34 120.487C18.4039 120.166 18.5618 119.871 18.7934 119.639C19.0251 119.408 19.3203 119.25 19.6416 119.186C19.9629 119.122 20.2959 119.155 20.5985 119.281C20.9011 119.406 21.1597 119.618 21.3416 119.891C21.5235 120.163 21.6205 120.484 21.6204 120.811C21.6197 121.25 21.445 121.671 21.1346 121.981C20.8241 122.292 20.4032 122.466 19.9642 122.467ZM19.9642 119.929C19.7898 119.929 19.6193 119.981 19.4743 120.078C19.3293 120.175 19.2162 120.313 19.1495 120.474C19.0827 120.635 19.0653 120.812 19.0993 120.983C19.1333 121.154 19.2173 121.311 19.3407 121.435C19.464 121.558 19.6211 121.642 19.7922 121.676C19.9633 121.71 20.1406 121.693 20.3017 121.626C20.4628 121.559 20.6006 121.446 20.6975 121.301C20.7944 121.156 20.8461 120.986 20.8461 120.811C20.8459 120.577 20.7529 120.353 20.5876 120.188C20.4222 120.023 20.1981 119.93 19.9642 119.929Z" fill="black"/>
<path d="M24.6432 122.068C24.3156 122.068 23.9954 121.971 23.7229 121.789C23.4505 121.607 23.2381 121.349 23.1126 121.046C22.9871 120.743 22.9542 120.41 23.0181 120.089C23.0819 119.768 23.2395 119.473 23.4711 119.241C23.7027 119.009 23.9978 118.851 24.3191 118.787C24.6404 118.724 24.9734 118.756 25.276 118.882C25.5787 119.007 25.8374 119.219 26.0194 119.492C26.2014 119.764 26.2986 120.084 26.2986 120.412C26.2982 120.851 26.1237 121.272 25.8133 121.582C25.503 121.893 25.0822 122.067 24.6432 122.068ZM24.6432 119.53C24.4688 119.53 24.2982 119.581 24.1531 119.678C24.0079 119.775 23.8948 119.913 23.8279 120.074C23.7611 120.235 23.7435 120.412 23.7774 120.583C23.8114 120.754 23.8953 120.912 24.0186 121.035C24.1419 121.158 24.299 121.243 24.4701 121.277C24.6412 121.311 24.8186 121.293 24.9798 121.227C25.1409 121.16 25.2787 121.047 25.3756 120.902C25.4726 120.757 25.5243 120.586 25.5243 120.412C25.5241 120.178 25.4312 119.954 25.2661 119.789C25.1009 119.623 24.8769 119.53 24.6432 119.53Z" fill="black"/>
<path d="M125.161 107.222C124.788 107.265 124.411 107.178 124.093 106.977C123.776 106.775 123.537 106.471 123.416 106.115C123.368 105.912 123.369 105.701 123.421 105.498C123.472 105.296 123.572 105.109 123.711 104.954C123.842 104.807 123.987 104.673 124.144 104.555C124.378 104.375 124.662 104.273 124.957 104.262C125.252 104.252 125.542 104.333 125.788 104.496C126.783 104.118 127.651 103.469 128.295 102.623C128.255 102.558 128.211 102.496 128.163 102.437C127.93 102.176 127.804 101.837 127.807 101.487C127.811 101.138 127.946 100.802 128.184 100.546C128.264 100.459 128.35 100.377 128.44 100.301C128.699 100.079 129.035 99.9676 129.375 99.9924C129.715 100.017 130.032 100.176 130.255 100.434C131.544 101.999 130.512 103.825 129.071 105.264C128.153 106.176 126.559 107.222 125.161 107.222ZM124.64 105.15C124.485 105.26 124.348 105.393 124.233 105.545C124.197 105.603 124.173 105.667 124.162 105.734C124.151 105.801 124.154 105.87 124.17 105.936C124.185 106.002 124.214 106.065 124.254 106.12C124.293 106.175 124.344 106.222 124.402 106.258C125.509 106.918 127.475 105.758 128.517 104.724C129.612 103.631 130.655 102.135 129.678 100.946C129.634 100.894 129.579 100.851 129.518 100.82C129.456 100.789 129.389 100.771 129.321 100.766C129.101 100.733 128.939 100.883 128.779 101.042C128.663 101.154 128.594 101.304 128.585 101.464C128.575 101.624 128.627 101.782 128.729 101.906C128.878 102.084 129.004 102.28 129.103 102.49C129.132 102.552 129.145 102.62 129.139 102.688C129.133 102.756 129.11 102.821 129.07 102.877C128.297 103.985 127.197 104.823 125.923 105.274C125.849 105.319 125.762 105.337 125.676 105.327C125.59 105.317 125.51 105.278 125.449 105.216C125.344 105.11 125.205 105.045 125.057 105.032C124.908 105.02 124.76 105.062 124.64 105.15Z" fill="black"/>
<path d="M22.3213 33.7429C10.96 33.7429 4.93708 24.6144 10.5667 15.5387C15.1347 8.17088 25.5871 4.02166 33.9669 6.24764C42.4348 8.49916 45.5713 16.4027 40.9537 23.8487C37.1545 29.9753 29.4158 33.7421 22.3213 33.7429ZM29.1975 6.41952C22.3461 6.41952 14.8684 10.0717 11.2255 15.9428C6.88355 22.9436 9.78621 30.2703 17.7525 32.3871C25.797 34.531 35.904 30.5196 40.2948 23.4399C45.5853 14.9146 39.9998 6.41952 29.1975 6.41952Z" fill="black"/>
<path d="M10.4856 133.225C2.64474 128.068 2.13451 118.979 9.35053 112.974C13.1324 109.979 17.7692 108.264 22.5902 108.077C33.1239 107.495 42.065 113.405 42.5055 121.271C42.7208 125.105 40.9191 128.813 37.4319 131.714C30.3684 137.589 18.3334 138.385 10.4856 133.225ZM24.0443 108.811C19.0263 108.811 13.7614 110.312 9.84527 113.57C3.03186 119.236 3.50416 127.707 10.9114 132.578C18.3558 137.474 30.0261 136.867 36.9387 131.117C40.2323 128.378 41.9357 124.897 41.7344 121.315C41.3372 114.223 33.5335 108.811 24.0443 108.811Z" fill="black"/>
<path d="M124.951 115.004C117.66 115.004 111.58 111.049 110.816 105.422C109.959 99.0951 116.148 93.0157 124.61 91.8659C128.466 91.2738 132.411 91.9246 135.872 93.7241C142.537 97.3917 143.531 104.718 138.082 110.028C134.653 113.368 129.644 115.004 124.951 115.004ZM124.715 92.6324C116.673 93.7202 110.783 99.4133 111.583 105.318C112.384 111.222 119.578 115.137 127.617 114.049C131.327 113.615 134.803 112.012 137.542 109.472C142.615 104.528 141.708 97.8183 135.498 94.4023C132.182 92.684 128.406 92.0642 124.715 92.6324Z" fill="black"/>
<path d="M129.022 52.7044C116.361 52.7044 109.688 42.5431 115.942 32.4569C118.685 28.2616 122.691 25.0478 127.382 23.2805C137.573 19.2343 148.321 22.13 151.341 29.7354C154.36 37.3409 148.523 46.8185 138.334 50.8648C135.373 52.0581 132.214 52.6823 129.022 52.7044ZM136.692 22.2221C129.036 22.2221 120.685 26.28 116.6 32.865C111.74 40.7035 114.994 48.9113 123.912 51.2836C128.626 52.4131 133.577 52.0143 138.049 50.1447C147.844 46.2572 153.486 37.2287 150.625 30.0211C148.647 25.0489 143.135 22.2221 136.692 22.2221Z" fill="black"/>
</svg>
