<svg width="156" height="156" viewBox="0 0 156 156" fill="none" xmlns="http://www.w3.org/2000/svg">
<path d="M66.8476 25.1617L65.0901 25.3538L64.7076 21.8503C64.6704 21.4941 64.1292 21.5522 64.1695 21.9076L64.552 25.4118L62.7991 25.6031C62.4599 25.6371 62.4886 26.1427 62.8277 26.1427L64.61 25.9499L64.9925 29.4542C65.0305 29.8034 65.5709 29.7562 65.5299 29.3969L65.1474 25.8911L66.9034 25.6999C67.2634 25.6627 67.1976 25.1176 66.8461 25.1617H66.8476Z" fill="black"/>
<path d="M64.5271 133.54L63.2844 133.541L63.3162 130.698C63.32 130.333 62.775 130.341 62.775 130.691L62.7432 133.541H61.4944C61.1366 133.541 61.1366 134.083 61.4944 134.083L62.737 134.081L62.7053 136.926C62.7014 137.291 63.2465 137.283 63.2465 136.933L63.2782 134.081H64.5271C64.8848 134.081 64.8848 133.54 64.5271 133.54Z" fill="black"/>
<path d="M120.801 19.347C122.74 22.2226 122.632 22.125 122.819 22.1297L126.046 22.1823C126.254 22.1854 126.369 22.4262 126.242 22.5919C124.125 25.3335 124.161 25.1864 124.215 25.3676L125.162 28.453C125.223 28.6527 125.031 28.837 124.834 28.7658C121.576 27.5858 121.721 27.5889 121.568 27.6965L118.926 29.5516C118.755 29.6717 118.521 29.5447 118.528 29.3372C118.642 25.8716 118.686 26.0164 118.535 25.9003L115.953 23.96C115.786 23.8346 115.835 23.5729 116.035 23.5148C119.362 22.5563 119.244 22.636 119.306 22.4595L120.353 19.4066C120.42 19.2084 120.683 19.1736 120.801 19.3478V19.347Z" fill="#E8E8E8"/>
<path d="M118.783 29.8367C118.524 29.8367 118.283 29.6199 118.291 29.328L118.399 26.1025L115.813 24.1491C115.492 23.9083 115.58 23.4004 115.972 23.2866L119.074 22.3915L120.132 19.3286C120.264 18.9415 120.778 18.8826 121.001 19.2132L122.809 21.8875L126.05 21.9463C126.454 21.9541 126.675 22.4209 126.427 22.7376L124.444 25.2849L125.389 28.385C125.508 28.776 125.131 29.126 124.755 28.9889L121.721 27.8895C118.838 29.9041 118.997 29.836 118.782 29.836L118.783 29.8367ZM120.575 19.4943L119.533 22.5332C119.48 22.6842 119.358 22.8003 119.204 22.8445L116.102 23.7395C116.102 23.7395 116.092 23.7426 116.09 23.7511C116.089 23.7612 116.097 23.7666 116.097 23.7666L118.679 25.7069C118.806 25.8029 118.88 25.9554 118.873 26.1141L118.765 29.3397C118.765 29.3397 118.765 29.3497 118.773 29.3551C118.782 29.3606 118.79 29.3551 118.79 29.3551L121.432 27.5C121.562 27.4087 121.729 27.387 121.88 27.4412L124.915 28.5406C124.915 28.5406 124.925 28.5437 124.932 28.5375C124.939 28.5306 124.936 28.5205 124.936 28.5205L123.989 25.4351C123.942 25.2826 123.972 25.1153 124.071 24.9899L126.054 22.4426C126.054 22.4426 126.061 22.4341 126.056 22.4256C126.05 22.4171 126.043 22.4171 126.043 22.4171L122.816 22.3644C122.657 22.3613 122.507 22.2816 122.418 22.1492C120.582 19.4385 120.602 19.4168 120.575 19.4943Z" fill="black"/>
<path d="M41.2349 121.934C22.1582 122.88 5.87022 108.131 4.92485 89.054C3.97949 69.9773 18.7305 53.6878 37.8073 52.7424L42.0394 60.6801L38.6125 68.9963C28.4977 69.4972 20.6778 78.1332 21.1787 88.2473C21.6797 98.3621 30.3157 106.181 40.4297 105.68L36.5631 113.251L41.2349 121.934Z" fill="#E8E8E8"/>
<path d="M72.7408 91.4818C63.123 81.4623 51.2739 68.3681 38.6133 68.9953L42.0402 60.679L37.8081 52.7414C57.1497 51.7829 71.0483 66.2668 84.4692 80.1956L72.7408 91.4818Z" fill="white"/>
<path d="M72.7441 91.7173C72.5962 91.7173 72.5714 91.6477 72.1672 91.2272C61.0018 79.6088 50.4425 68.6965 38.6236 69.2339C38.4517 69.2416 38.3301 69.0658 38.3952 68.9063L41.7786 60.6931L37.6 52.8538C37.5195 52.7067 37.6194 52.5162 37.7959 52.5061C57.0902 51.4307 71.3984 66.2576 84.6389 80.0331C84.7302 80.1283 84.7287 80.2762 84.6335 80.3676C72.7975 91.7723 72.8935 91.7181 72.7433 91.7181L72.7441 91.7173ZM72.7456 91.1475L84.1302 80.1911C70.9911 66.5875 57.2931 52.2135 38.1908 52.9614C42.3284 60.7217 42.3237 60.611 42.2571 60.7697L38.9704 68.7437C51.7046 68.3969 63.4352 81.4415 72.7456 91.1475Z" fill="black"/>
<path d="M118.372 117.888C99.0549 118.845 84.955 104.196 72.5166 91.2706L84.2427 79.9858C89.8398 85.8028 95.6273 91.8164 101.594 96.0322C107.364 100.108 112.438 101.888 117.567 101.634L122.637 109.239L118.372 117.889V117.888Z" fill="white"/>
<path d="M72.57 91.646C72.4786 91.5516 72.4817 91.4022 72.5769 91.3116C84.4152 79.9092 84.3161 79.9587 84.4725 79.961C84.5352 79.9618 84.5956 79.9874 84.6398 80.033C90.2299 85.8407 96.0073 91.8489 101.954 96.0515C112.068 103.198 117.583 101.107 117.985 101.716L123.056 109.321C123.103 109.393 123.108 109.482 123.071 109.558L118.806 118.208C118.767 118.286 118.692 118.333 118.605 118.338C99.5534 119.379 85.4953 105.067 72.5707 91.6476L72.57 91.646ZM73.074 91.4935C85.4078 104.309 99.39 118.743 118.444 117.872L122.587 109.469L117.665 102.091C112.531 102.311 107.445 100.513 101.68 96.4402C95.7541 92.2538 90.0131 86.3076 84.4586 80.5363L73.074 91.4927V91.4935Z" fill="black"/>
<path d="M118.595 118.103L122.859 109.452L117.788 101.847C127.903 101.346 135.722 92.71 135.221 82.596C134.72 72.4819 126.084 64.6612 115.97 65.1622L110.875 57.2834L115.164 48.9075C134.241 47.9622 150.531 62.7132 151.478 81.79C152.424 100.867 137.673 117.155 118.596 118.102L118.595 118.103Z" fill="#D142A7"/>
<path d="M84.5294 90.535L74.8133 89.4883L71.7441 80.4667C83.5221 65.5105 95.9163 49.8621 115.164 48.9082L110.875 57.2841L115.969 65.1628C103.295 65.7923 92.9215 79.869 84.5294 90.5358V90.535Z" fill="#E8E8E8"/>
<path d="M41.3243 121.93L36.3784 113.26L40.5176 105.676C52.4418 105.086 61.859 93.1248 71.8314 80.4626L74.8123 89.4881L84.6182 90.5302C72.8867 105.431 60.4909 120.979 41.3243 121.931V121.93Z" fill="#D142A7"/>
<path d="M84.5311 90.7721L74.787 89.7246C74.6941 89.7145 74.6167 89.6518 74.5873 89.5635C71.5375 80.2764 71.4972 80.3972 71.6203 80.2408C83.2868 65.3868 95.9288 49.5425 115.151 48.6707C115.331 48.6622 115.459 48.8503 115.374 49.016L111.147 57.2548L116.169 65.0353C116.268 65.1893 116.165 65.3899 115.98 65.3999C104.168 66.0495 94.7798 77.9691 84.7788 90.6041C84.7122 90.6878 84.6604 90.7729 84.5303 90.7729L84.5311 90.7721ZM74.9898 89.2693L84.4265 90.2867C94.3447 77.6912 103.72 65.794 115.553 64.9501L110.677 57.3965C110.631 57.3253 110.626 57.2362 110.665 57.1596L114.767 49.1678C95.8893 50.3198 83.588 65.8149 72.0733 80.4343L74.9907 89.2693H74.9898Z" fill="black"/>
<path d="M41.117 122.047L36.1734 113.377C36.1331 113.306 36.1308 113.218 36.1718 113.147L40.311 105.563C40.3497 105.49 40.424 105.445 40.5069 105.44C52.2344 104.788 61.5587 93.0397 71.408 80.513C71.6488 80.2064 71.6852 80.1259 71.8478 80.1546C71.9337 80.1701 72.0049 80.2304 72.032 80.3133L74.9905 89.2698L84.5571 90.2988C84.643 90.3073 84.7158 90.3631 84.7499 90.4428C84.8281 90.6263 84.7003 90.703 84.0988 91.4664C72.6785 105.953 60.4794 121.693 41.3361 122.166C41.2432 122.169 41.1634 122.128 41.1177 122.048L41.117 122.047ZM36.6503 113.258L41.4569 121.686C60.3881 120.67 72.5911 105.346 84.0794 90.7239L74.7868 89.7235C74.6939 89.7135 74.6157 89.6508 74.5871 89.5625L71.72 80.88C61.8506 93.4129 52.5209 105.233 40.6617 105.905L36.6495 113.258L36.6503 113.258Z" fill="black"/>
<path d="M118.593 118.335C118.412 118.335 118.307 118.154 118.38 117.996L122.586 109.47L117.591 101.978C117.49 101.827 117.588 101.62 117.776 101.61C127.757 101.061 135.478 92.5891 134.983 82.6067C134.487 72.6227 125.966 64.9553 115.981 65.3997C115.895 65.4036 115.816 65.3618 115.769 65.2906L110.674 57.4125C110.629 57.3413 110.623 57.2515 110.663 57.1756L114.952 48.7998C114.991 48.7239 115.067 48.6751 115.152 48.6713C134.73 47.7917 150.771 62.8191 151.71 81.7767C152.662 100.984 137.81 117.385 118.604 118.338L118.593 118.336V118.335ZM118.212 102.061L123.055 109.321C123.102 109.392 123.107 109.482 123.07 109.558L118.984 117.844C137.734 116.698 152.17 100.616 151.237 81.803C150.299 62.902 134.201 48.2764 115.311 49.1389L111.147 57.2709L116.094 64.9212C126.279 64.4931 134.952 72.3866 135.457 82.5858C135.957 92.6921 128.257 101.341 118.213 102.061H118.212Z" fill="black"/>
<path d="M4.6892 89.0655C3.71596 69.4134 19.1336 53.3082 37.7962 52.5053C37.8875 52.5015 37.9719 52.5502 38.0145 52.6315C42.2938 60.7472 42.3232 60.611 42.2566 60.7697L38.8298 69.0867C38.7942 69.1711 38.7167 69.2284 38.6231 69.233C28.5717 69.7595 20.9206 78.2825 21.413 88.2363C21.9077 98.2202 30.4307 105.89 40.4154 105.444C40.5982 105.435 40.7221 105.626 40.6384 105.789L36.8299 113.248L41.4421 121.824C41.5242 121.973 41.422 122.165 41.2462 122.172C21.6035 123.067 5.62295 107.929 4.6892 89.0655ZM37.6692 52.9869C18.7953 54.0035 4.2231 70.1459 5.16072 89.0423C6.09369 107.85 22.0316 122.446 40.849 121.716L36.3568 113.365C36.2647 113.197 36.267 113.317 40.0376 105.934C29.9692 106.215 21.4447 98.3689 20.9438 88.261C20.4382 78.0719 28.2667 69.3569 38.4512 68.7693L41.7789 60.693L37.67 52.9869H37.6692Z" fill="black"/>
<path d="M89.8384 85.8027L79.4147 98.2837L78.9292 97.7758L89.0518 84.989L89.8384 85.8027Z" fill="black"/>
<path d="M137.303 69.4038L119.293 74.7489L124.772 93.2113L142.782 87.8658L137.303 69.4038Z" fill="white"/>
<path d="M137.528 69.3376C137.491 69.2121 137.36 69.1417 137.234 69.1789L119.224 74.5235C119.103 74.5584 119.026 74.6892 119.065 74.8177L124.545 93.2805C124.575 93.3834 124.67 93.4492 124.772 93.4492L142.849 88.0945C142.974 88.0574 143.045 87.9257 143.008 87.8003L137.528 69.3376H137.528ZM124.931 92.9189L119.587 74.9106L137.143 69.7015L142.487 87.7097L124.931 92.9189Z" fill="black"/>
<path d="M134.826 68.5371L116.817 73.8819L122.297 92.3436L140.306 86.999L134.826 68.5371Z" fill="white"/>
<path d="M135.053 68.4694C135.017 68.3463 134.888 68.2743 134.759 68.3107L116.749 73.6554C116.623 73.6925 116.553 73.8242 116.589 73.9496C122.106 92.5618 122.048 92.479 122.182 92.5533C122.322 92.6261 122.215 92.6152 140.373 87.2272C140.499 87.1901 140.569 87.0584 140.533 86.933L135.053 68.4702V68.4694ZM122.455 92.0508L117.11 74.0425L134.666 68.8333L140.011 86.8417L122.455 92.0508Z" fill="black"/>
<path d="M144.361 88.7843L121.548 95.5551C121.072 95.6953 120.572 95.425 120.431 94.9497L115.802 79.3516C115.662 78.8762 115.932 78.3753 116.408 78.2351L121.565 76.7044C121.851 76.62 122.159 76.6827 122.389 76.8701L124.557 78.6462C124.787 78.8359 125.097 78.8963 125.381 78.8119L140.107 74.4413C140.582 74.3011 141.082 74.5714 141.223 75.0467L144.968 87.6678C145.108 88.1432 144.838 88.6442 144.363 88.7843H144.361Z" fill="#E8E8E8"/>
<path d="M145.196 87.6007L141.451 74.9796C141.273 74.3811 140.641 74.0374 140.04 74.2155L125.315 78.5861C125.103 78.6488 124.876 78.6031 124.708 78.4645L122.54 76.6884C122.249 76.4499 121.858 76.3725 121.497 76.4786L116.34 78.0093C115.728 78.1905 115.4 78.8284 115.575 79.42L120.204 95.018C120.384 95.6266 121.027 95.9595 121.615 95.7822L144.43 89.0114C145.029 88.8341 145.372 88.2015 145.195 87.6007H145.196ZM144.298 88.5561L121.483 95.327C121.133 95.4315 120.764 95.2325 120.661 94.8818L116.031 79.2837C115.927 78.9322 116.125 78.5667 116.476 78.4615L121.633 76.9308C121.822 76.8727 122.058 76.9037 122.24 77.0523L124.408 78.8284C124.699 79.0669 125.089 79.1443 125.45 79.0383L140.176 74.6676C140.525 74.5631 140.894 74.7621 140.998 75.1128L144.742 87.7339C144.847 88.0838 144.648 88.4524 144.298 88.5561Z" fill="black"/>
<path d="M92.1892 31.4673L68.0552 43.706L82.7728 72.7279L106.907 60.4892L92.1892 31.4673Z" fill="white"/>
<path d="M82.7735 72.9689C82.6876 72.9689 82.6039 72.9217 82.5621 72.8389L67.8452 43.8168C67.7863 43.6999 67.8336 43.5582 67.9497 43.4986L92.0854 31.26C92.2054 31.1981 92.3494 31.253 92.4036 31.3645L107.12 60.3866C107.179 60.5035 107.131 60.6452 107.015 60.7048L82.7727 72.9689H82.7735ZM68.3747 43.8114L82.878 72.4122L106.591 60.3881L92.0877 31.7873L68.3747 43.8114Z" fill="black"/>
<path d="M78.6553 41.1982L70.7773 45.1931L74.7722 53.0707L82.6496 49.0759L78.6553 41.1982Z" fill="white"/>
<path d="M82.8678 48.9655C78.7875 40.9381 78.8812 41.0147 78.7286 40.9652C78.5769 40.9187 78.7085 40.9249 70.6656 44.9758C70.5402 45.0393 70.4968 45.1887 70.5572 45.3056L74.5516 53.1821C74.5918 53.2649 74.6785 53.3184 74.7714 53.3184C74.8605 53.3184 74.797 53.3687 82.7594 49.2969C82.8794 49.235 82.9282 49.0871 82.867 48.9663L82.8678 48.9655ZM82.3173 48.9678L74.8806 52.7384L71.11 45.3018L78.5475 41.5312L82.3181 48.9678H82.3173Z" fill="black"/>
<path d="M81.3211 41.464L89.6513 37.2397C89.9378 37.0941 90.2877 37.2087 90.4333 37.4952C90.5788 37.7817 90.4642 38.1316 90.1778 38.2772L81.8476 42.5015C81.5611 42.6471 81.2112 42.5325 81.0656 42.246C80.92 41.9595 81.0346 41.6096 81.3211 41.464Z" fill="#D142A7"/>
<path d="M81.5867 42.7373C80.7977 42.7373 80.5422 41.6742 81.2452 41.3165L89.5754 37.093C89.755 37.0016 89.9579 36.9861 90.1491 37.0489C90.7817 37.2556 90.8521 38.1297 90.256 38.4324C81.6293 42.8155 81.8646 42.7373 81.5874 42.7373H81.5867ZM89.913 37.35C89.7589 37.35 89.889 37.3059 81.397 41.6177C81.0687 41.785 81.109 42.2642 81.4558 42.3788C81.7067 42.4617 81.5851 42.4531 90.1003 38.132C90.4844 37.9369 90.3466 37.3508 89.9122 37.3508L89.913 37.35Z" fill="black"/>
<path d="M82.4012 43.5976L91.9911 38.7346C92.2775 38.589 92.6275 38.7036 92.7731 38.9901C92.9186 39.2765 92.804 39.6265 92.5176 39.7721L82.9277 44.6351C82.6412 44.7807 82.2912 44.6661 82.1457 44.3796C82.0001 44.0931 82.1147 43.7432 82.4012 43.5976Z" fill="#D142A7"/>
<path d="M82.6652 44.8698C81.8747 44.8698 81.6231 43.806 82.3238 43.4491L91.9137 38.5868C92.2791 38.4009 92.7328 38.5426 92.9233 38.9166C93.1091 39.2813 92.9682 39.7358 92.5934 39.9262C82.7055 44.9503 82.9424 44.8698 82.6652 44.8698ZM92.2551 38.8438C92.0979 38.8438 92.2288 38.7989 82.4771 43.7502C82.1488 43.9175 82.1891 44.3967 82.5359 44.5113C82.7883 44.595 82.5762 44.5934 92.4409 39.625C92.8249 39.4315 92.6918 38.8438 92.2551 38.8438Z" fill="black"/>
<path d="M83.4827 45.7299L91.8129 41.5056C92.0994 41.36 92.4493 41.4746 92.5949 41.7611C92.7405 42.0475 92.6259 42.3975 92.3394 42.543L84.0092 46.7674C83.7228 46.9129 83.3728 46.7983 83.2272 46.5119C83.0817 46.2254 83.1963 45.8754 83.4827 45.7299Z" fill="#D142A7"/>
<path d="M83.748 47.0011C82.956 47.0011 82.7074 45.9365 83.4066 45.5803L91.7367 41.3568C92.3244 41.0579 93.0003 41.6185 92.7905 42.2603C92.7278 42.4516 92.5962 42.6057 92.4165 42.697C83.7945 47.0801 84.0252 47.0018 83.748 47.0018V47.0011ZM92.0766 41.6123C91.9241 41.6123 92.0511 41.5697 83.5591 45.8815C83.3562 45.9845 83.275 46.233 83.3779 46.4366C83.4809 46.6395 83.7294 46.7208 83.9331 46.6178C92.5226 42.2565 92.3856 42.4074 92.4692 42.1543C92.5559 41.891 92.3616 41.6131 92.0766 41.6131V41.6123Z" fill="black"/>
<path d="M76.4339 55.062L90.6662 47.8444C90.9527 47.6989 91.3026 47.8134 91.4482 48.0999C91.5937 48.3864 91.4792 48.7364 91.1927 48.8819L76.9604 56.0995C76.6739 56.245 76.324 56.1305 76.1784 55.844C76.0328 55.5575 76.1474 55.2075 76.4339 55.062Z" fill="#D142A7"/>
<path d="M76.6979 56.3341C75.9012 56.3341 75.6635 55.2664 76.3564 54.9133L90.5896 47.6965C90.9566 47.5092 91.4095 47.6539 91.5992 48.0264C91.7866 48.3941 91.641 48.8471 91.2694 49.036C76.7412 56.42 76.9751 56.3341 76.6979 56.3341ZM90.9287 47.952C90.7777 47.952 90.9186 47.9567 76.5097 55.2145C76.3115 55.3144 76.2217 55.5606 76.327 55.7697C76.4292 55.9733 76.6785 56.0538 76.8821 55.9508L91.1153 48.734C91.5009 48.5412 91.3654 47.9528 90.9295 47.9528L90.9287 47.952Z" fill="black"/>
<path d="M77.5169 57.1957L93.1739 49.2558C93.4604 49.1102 93.8103 49.2248 93.9559 49.5113C94.1015 49.7978 93.9869 50.1477 93.7004 50.2933L78.0434 58.2332C77.7569 58.3788 77.407 58.2642 77.2614 57.9777C77.1159 57.6913 77.2304 57.3413 77.5169 57.1957Z" fill="#D142A7"/>
<path d="M77.7801 58.467C76.9834 58.467 76.7464 57.3985 77.4386 57.0463L93.0956 49.1071C93.4626 48.9205 93.9155 49.0645 94.1052 49.4369C94.2934 49.8055 94.1439 50.2592 93.7754 50.4465C77.8234 58.553 78.0572 58.467 77.7801 58.467ZM93.434 49.3626C93.2853 49.3626 93.4278 49.3711 77.5927 57.3474C77.3945 57.4473 77.3047 57.6935 77.41 57.9026C77.5122 58.1062 77.7615 58.1867 77.9651 58.0838L93.6221 50.1446C94.0061 49.9495 93.8683 49.3634 93.434 49.3634V49.3626Z" fill="black"/>
<path d="M80.1448 62.3779L99.2332 52.6982C99.5197 52.5526 99.8697 52.6672 100.015 52.9537C100.161 53.2402 100.046 53.5901 99.7597 53.7357L80.6713 63.4154C80.3849 63.5609 80.0349 63.4463 79.8893 63.1599C79.7438 62.8734 79.8584 62.5234 80.1448 62.3779Z" fill="#D142A7"/>
<path d="M80.4089 63.6506C79.62 63.6506 79.3645 62.5876 80.0675 62.2299L99.1567 52.5502C99.5252 52.362 99.9789 52.5115 100.166 52.88C100.354 53.2478 100.209 53.7007 99.8365 53.8896C80.4608 63.7404 80.6861 63.6506 80.4097 63.6506H80.4089ZM99.4958 52.8072C99.3355 52.8072 99.4555 52.7615 80.2192 62.531C79.891 62.6975 79.9312 63.1775 80.2781 63.2921C80.532 63.3757 80.3292 63.3293 99.6816 53.5884C100.066 53.3957 99.9317 52.8072 99.4958 52.8072Z" fill="black"/>
<path d="M82.2747 66.5805L96.9507 59.1384C97.2371 58.9928 97.5871 59.1074 97.7327 59.3939C97.8782 59.6803 97.7636 60.0303 97.4772 60.1759L82.8012 67.618C82.5147 67.7635 82.1648 67.6489 82.0192 67.3625C81.8737 67.076 81.9883 66.726 82.2747 66.5805Z" fill="#D142A7"/>
<path d="M82.5403 67.8542C81.7513 67.8542 81.4958 66.7919 82.1988 66.4334L96.8748 58.9913C97.2433 58.8032 97.697 58.9526 97.8844 59.3212C98.0718 59.6897 97.9231 60.1434 97.5546 60.3308C82.5829 67.937 82.8175 67.8542 82.5403 67.8542ZM97.2116 59.2484C97.0583 59.2484 97.2139 59.2538 82.3514 66.7346C82.1555 66.8329 82.0633 67.0776 82.1686 67.289C82.267 67.4856 82.5124 67.577 82.723 67.4717L97.3989 60.0296C97.7845 59.8337 97.6436 59.2484 97.2108 59.2484H97.2116Z" fill="black"/>
<path d="M78.598 59.3279L92.9937 52.0275C93.2801 51.882 93.6301 51.9965 93.7757 52.283C93.9212 52.5695 93.8066 52.9195 93.5202 53.065L79.1245 60.3654C78.838 60.511 78.4881 60.3964 78.3425 60.1099C78.1969 59.8235 78.3115 59.4735 78.598 59.3279Z" fill="#D142A7"/>
<path d="M78.8635 60.5993C78.073 60.5993 77.8213 59.5355 78.522 59.1785L92.9177 51.8789C93.2823 51.6931 93.7368 51.834 93.9273 52.2087C94.1154 52.5773 93.9668 53.031 93.5975 53.2184C78.9091 60.6829 79.1414 60.5993 78.8642 60.5993H78.8635ZM93.2568 52.1375C93.1004 52.1375 93.2274 52.0926 78.6753 59.4813C78.347 59.6477 78.3873 60.1278 78.7342 60.2424C78.9904 60.3268 78.8325 60.336 93.4442 52.9187C93.8274 52.7244 93.6919 52.1375 93.256 52.1375H93.2568Z" fill="black"/>
<path d="M81.2083 64.4794L93.3625 58.3163C93.649 58.1708 93.999 58.2854 94.1445 58.5718C94.2901 58.8583 94.1755 59.2083 93.889 59.3538L81.7348 65.5177C81.4483 65.6632 81.0984 65.5486 80.9528 65.2622C80.8073 64.9757 80.9218 64.6257 81.2083 64.4802V64.4794Z" fill="#D142A7"/>
<path d="M81.4751 65.751C80.683 65.751 80.4345 64.6865 81.1336 64.3303L93.2878 58.1673C93.6564 57.9799 94.1101 58.1285 94.2974 58.4971C94.4848 58.8641 94.34 59.3178 93.9676 59.5067C81.5176 65.8362 81.7522 65.751 81.4751 65.751ZM93.6262 58.4243C93.4791 58.4243 93.6215 58.4251 81.2877 64.633C81.0903 64.7321 80.9997 64.9791 81.105 65.1882C81.2072 65.391 81.4565 65.4723 81.6593 65.3693L93.8135 59.2063C94.1968 59.012 94.0605 58.4251 93.6254 58.4251L93.6262 58.4243Z" fill="black"/>
<path d="M76.1081 44.0413C77.158 44.0413 78.0089 44.8922 78.0089 45.942C78.0089 46.9919 77.158 47.8428 76.1081 47.8428C75.0582 47.8428 74.2065 46.9919 74.2065 45.942C74.2065 44.8922 75.0574 44.0413 76.1081 44.0413Z" fill="black"/>
<path d="M75.8185 48.5319L78.3712 47.2373C79.1733 46.8301 80.1559 47.1514 80.5631 47.9543L81.0501 48.9151C81.1128 49.039 81.0633 49.1908 80.9394 49.2543L75.9285 51.7954C75.8046 51.8581 75.6521 51.8085 75.5893 51.6846L75.1023 50.7238C74.6951 49.9209 75.0164 48.9391 75.8193 48.5319H75.8185Z" fill="black"/>
<path d="M107.165 116.557C107.837 111.181 104.025 106.277 98.649 105.603C93.2741 104.931 88.3708 108.743 87.6972 114.119C87.2373 117.789 88.8702 121.239 91.6637 123.271C92.0547 123.555 92.2606 124.032 92.2018 124.512L91.8464 127.348L99.8839 128.355L100.239 125.518C100.3 125.038 100.616 124.627 101.066 124.447C104.275 123.166 106.707 120.225 107.165 116.555V116.557Z" fill="#E8E8E8"/>
<path d="M99.8838 128.589L91.8177 127.584C91.6876 127.567 91.5962 127.449 91.6109 127.32L91.9663 124.484C92.0151 124.09 91.8463 123.698 91.525 123.465C88.5643 121.311 87.0088 117.719 87.4625 114.091C88.1516 108.582 93.1672 104.681 98.6799 105.368C104.177 106.054 108.089 111.088 107.4 116.584C106.947 120.21 104.555 123.311 101.154 124.667C100.784 124.815 100.523 125.153 100.475 125.547L100.119 128.383C100.104 128.5 100.007 128.589 99.8838 128.589V128.589ZM92.1119 127.143L99.6794 128.092L100.004 125.491C100.075 124.924 100.448 124.442 100.978 124.229C104.216 122.93 106.497 119.982 106.93 116.527C107.983 108.102 98.2571 102.569 91.5552 107.781C86.5249 111.691 86.6542 119.329 91.8037 123.081C92.2652 123.417 92.5075 123.977 92.4363 124.542L92.1119 127.143Z" fill="black"/>
<path d="M91.0787 128.302L91.1592 127.659C91.2196 127.174 91.6624 126.83 92.1471 126.891L99.717 127.838C100.201 127.898 100.545 128.339 100.483 128.823L100.403 129.468C100.343 129.952 99.9005 130.297 99.415 130.236L91.8475 129.289C91.362 129.228 91.0183 128.786 91.0787 128.301V128.302Z" fill="white"/>
<path d="M99.5195 130.484L91.8118 129.528C91.1979 129.452 90.7612 128.889 90.8378 128.275L90.9191 127.632C90.9981 127.004 91.5726 126.583 92.1726 126.658L99.7402 127.605C100.354 127.681 100.79 128.245 100.714 128.859L100.633 129.501C100.562 130.068 100.076 130.484 99.5203 130.484H99.5195ZM99.4382 130.005C99.7936 130.049 100.118 129.797 100.162 129.443L100.243 128.8C100.288 128.445 100.035 128.12 99.6806 128.076L92.113 127.129C91.7576 127.086 91.4348 127.334 91.3891 127.692L91.3078 128.335C91.2637 128.69 91.5161 129.014 91.8707 129.058L99.4382 130.005Z" fill="black"/>
<path d="M90.7795 130.702L90.8608 130.056C90.9212 129.572 91.3633 129.228 91.8472 129.289L99.4171 130.236C99.9018 130.296 100.246 130.739 100.186 131.223L100.105 131.867C100.044 132.352 99.6021 132.695 99.1182 132.635L91.5484 131.688C91.0645 131.628 90.7199 131.185 90.7803 130.701L90.7795 130.702Z" fill="white"/>
<path d="M100.185 130.427C100.002 130.19 99.7365 130.041 99.4384 130.004L91.8708 129.057C91.2569 128.981 90.694 129.416 90.6173 130.03L90.536 130.673C90.4989 130.972 90.5686 131.808 91.6409 131.943C91.6347 132.949 92.3733 133.829 93.3969 133.958L96.7509 134.378C97.8008 134.504 98.7121 133.815 98.9491 132.858C99.0482 132.87 99.1264 132.883 99.2208 132.883C99.7636 132.883 100.259 132.481 100.332 131.9C100.417 131.219 100.522 130.866 100.185 130.428V130.427ZM99.8611 131.84C99.8154 132.198 99.4933 132.445 99.1372 132.403L91.5704 131.456C91.215 131.412 90.9626 131.088 91.0068 130.732C91.0865 130.097 91.0648 129.867 91.3335 129.659C91.4706 129.552 91.6409 129.508 91.812 129.528L99.3788 130.475C99.7427 130.521 99.9858 130.85 99.9424 131.198L99.8611 131.84V131.84Z" fill="black"/>
<path d="M97.5533 127.539L100.499 116.221L94.241 115.439L94.3069 127.131C94.3069 127.446 93.8346 127.446 93.8346 127.134L93.7688 115.38L92.8977 115.27C92.4262 115.211 92.005 114.949 91.7441 114.547C91.3391 113.925 91.4499 113.308 91.7511 112.643C92.2984 111.431 94.1195 111.783 94.2271 113.108L94.2372 114.96L100.619 115.758L101.085 113.968C101.514 112.715 103.362 112.814 103.6 114.126C103.633 114.304 103.654 114.497 103.663 114.702C103.709 115.705 102.84 116.514 101.843 116.389L100.972 116.279L98.0101 127.656C97.9342 127.956 97.4697 127.846 97.5517 127.539H97.5533ZM101.092 115.819L101.901 115.922C102.234 115.964 102.57 115.856 102.817 115.628C103.233 115.242 103.233 114.77 103.135 114.212C102.989 113.386 101.812 113.326 101.534 114.114L101.092 115.819ZM92.8985 112.377C92.341 112.377 92.1568 112.802 92.0004 113.324C91.7936 114.012 92.2489 114.714 92.9527 114.802L93.7626 114.904L93.7525 113.141C93.7091 112.658 93.3073 112.377 92.8985 112.377Z" fill="black"/>
<path d="M26.5501 39.1138C27.5969 40.7947 27.0828 43.006 25.4019 44.0528C23.721 45.0996 21.5098 44.5855 20.463 42.9046C19.4162 41.2229 19.9303 39.0124 21.6112 37.9656C23.2921 36.9188 25.5034 37.4329 26.5501 39.1138ZM30.8821 36.6478L32.8711 34.5318L30.9564 32.3972L28.636 34.1493C27.9361 33.6252 27.1641 33.2171 26.3527 32.9314L26.5169 30.0272L23.6784 29.623L23.0273 32.4545C22.1733 32.5017 21.3193 32.6775 20.494 32.9887L18.755 30.6598L16.3207 32.175L17.6432 34.7625C17.0005 35.3664 16.464 36.0548 16.0451 36.8004L13.2168 36.1353L12.3271 38.8599L15.0061 39.9934C14.9046 40.8474 14.9302 41.72 15.0905 42.5794L12.4944 43.8886L13.5652 46.549L16.3478 45.695C16.8348 46.439 17.4202 47.0832 18.0744 47.6213L16.9278 50.2917L19.458 51.6412L21.0398 49.2008C21.8682 49.4493 22.7331 49.5763 23.6018 49.5678L24.4388 52.3504L27.2446 51.7581L26.8877 48.874C27.7123 48.5187 28.4571 48.0433 29.085 47.5036L31.5154 49.097L33.2846 46.8408L31.1569 44.8619C31.5479 44.0853 31.8166 43.2553 31.9583 42.4013L34.847 42.0598L34.7526 39.1943L31.8483 39.0457C31.654 38.2203 31.3342 37.412 30.8805 36.6455L30.8821 36.6478Z" fill="#D142A7"/>
<path d="M34.9854 39.1902C34.98 39.0671 34.884 38.9688 34.7601 38.9618L32.0317 38.8217C31.8404 38.0776 31.5516 37.3584 31.1692 36.684L33.0413 34.6934C33.1257 34.6036 33.1272 34.465 33.0444 34.3736L31.1297 32.239C31.0468 32.1477 30.9082 32.1345 30.8099 32.2088L28.6296 33.8549C28.0017 33.4066 27.3188 33.0411 26.5949 32.7709L26.749 30.0425C26.7559 29.9194 26.6677 29.811 26.5461 29.7939L23.7077 29.3898C23.5861 29.3727 23.4708 29.4509 23.4437 29.571L22.8312 32.2313C22.0601 32.2909 21.3021 32.4496 20.5735 32.7082L18.9399 30.521C18.8671 30.4226 18.73 30.3979 18.6255 30.4613L16.1913 31.9765C16.086 32.0424 16.0488 32.1763 16.1053 32.2863L17.3464 34.7166C16.7936 35.2578 16.3151 35.8664 15.9226 36.533L13.2654 35.9074C13.1454 35.8788 13.0253 35.9477 12.9866 36.0646L12.097 38.7892C12.0583 38.9061 12.1156 39.0331 12.2286 39.0803L14.7457 40.1457C14.6699 40.9153 14.6954 41.6895 14.8216 42.4506L12.3827 43.6801C12.2728 43.7359 12.224 43.866 12.2697 43.9798L13.3405 46.6401C13.3861 46.7547 13.5116 46.8143 13.63 46.7787L16.2431 45.9773C16.6814 46.6169 17.197 47.1937 17.7823 47.6939L16.7046 50.204C16.6574 50.317 16.703 50.4494 16.8114 50.5067L19.3417 51.8562C19.4501 51.9151 19.5833 51.8802 19.6514 51.7765L21.138 49.4831C21.8851 49.693 22.6516 49.8029 23.4212 49.8114L24.2079 52.4245C24.2404 52.5321 24.3465 52.6127 24.4804 52.5871L27.2863 51.9948C27.4063 51.9693 27.4876 51.8562 27.4721 51.7347L27.1369 49.0248C27.8298 48.7104 28.4933 48.2993 29.0973 47.8053L31.3805 49.302C31.4835 49.3693 31.6205 49.3461 31.6964 49.2493L33.4656 46.9932C33.5415 46.8964 33.5299 46.7578 33.44 46.6734L31.4425 44.8129C31.7738 44.1191 32.0139 43.382 32.1563 42.6194L34.8709 42.2981C34.9924 42.2826 35.0822 42.1781 35.0791 42.0542L34.9847 39.1887L34.9854 39.1902ZM31.9287 42.1742C31.8242 42.1858 31.739 42.2671 31.722 42.3701C31.3767 44.4343 30.693 44.7687 30.9934 45.042L32.9608 46.8739L31.4603 48.7886L29.2126 47.3152C28.9664 47.1542 28.9424 47.4345 27.9103 48.0794C26.8814 48.7205 26.6104 48.616 26.6483 48.9117L26.9781 51.579L24.5981 52.0815L23.8238 49.5071C23.7936 49.4057 23.7023 49.3376 23.597 49.3384C21.4701 49.3492 21.0629 48.7313 20.8368 49.0759L19.3742 51.3336L17.228 50.1885L18.2887 47.7171C18.329 47.6211 18.3026 47.5088 18.2214 47.4414C16.6171 46.126 16.6698 45.3525 16.2749 45.471L13.7005 46.2607L12.7923 44.0045L15.194 42.7936C15.2885 42.7464 15.3396 42.6411 15.321 42.5381C14.9362 40.4863 15.4728 39.9343 15.0957 39.7764L12.6181 38.728L13.3745 36.4161L15.9907 37.0316C16.0937 37.0556 16.199 37.0076 16.2509 36.917C17.2915 35.0689 18.0379 35.0271 17.8528 34.6555L16.6295 32.2607L18.6944 30.9754L20.3025 33.1302C20.3668 33.2146 20.4767 33.2471 20.5766 33.2099C22.5494 32.4666 23.1657 32.9087 23.2571 32.5077L23.8594 29.8876L26.2681 30.2291L26.1156 32.9165C26.1086 33.021 26.1729 33.1178 26.2728 33.1534C28.2804 33.8595 28.4508 34.5858 28.7775 34.3372L30.9237 32.7167L32.5489 34.5262L30.7054 36.4881C30.6349 36.564 30.621 36.6794 30.6752 36.7707C31.7483 38.5879 31.4254 39.2677 31.8342 39.2878L34.5201 39.4264L34.6014 41.8568L31.9287 42.1734V42.1742Z" fill="black"/>
<path d="M24.3724 37.2873C22.3083 36.8096 20.2581 38.094 19.7835 40.1443C19.2283 42.546 21.0463 44.83 23.5115 44.8308C25.2257 44.8308 26.8152 43.6624 27.2287 41.8762C27.7048 39.8175 26.4304 37.7665 24.3724 37.2873ZM25.2775 43.8514C22.7496 45.4246 19.5729 43.1367 20.2457 40.2503C20.6111 38.6817 22.004 37.6589 23.5014 37.6589C26.8725 37.6589 28.119 42.0822 25.2775 43.8506V43.8514Z" fill="black"/>
<path d="M17.0759 57.5688C17.8347 58.6063 17.6117 60.0634 16.5734 60.823C15.5359 61.5817 14.0788 61.3587 13.3192 60.3205C12.5605 59.283 12.7835 57.8258 13.8217 57.0663C14.8584 56.3075 16.3164 56.5305 17.0759 57.5688ZM19.7533 55.7624L20.9441 54.2929L19.5992 53.0038L18.1815 54.2519C17.7015 53.9476 17.182 53.7207 16.6423 53.5752L16.6067 51.686L14.7477 51.5645L14.4651 53.4304C13.9139 53.5032 13.3688 53.6588 12.85 53.9004L11.6105 52.4781L10.1084 53.5791L11.0909 55.1911C10.7038 55.6138 10.391 56.0861 10.1556 56.5901L8.29199 56.2975L7.84912 58.1053L9.63845 58.7092C9.61445 59.2675 9.67406 59.8304 9.81962 60.3801L8.20295 61.3541L9.02679 63.0249L10.7859 62.3366C11.1374 62.795 11.5485 63.1836 11.9984 63.5003L11.3859 65.2865L13.0908 66.0375L13.9959 64.3783C14.5441 64.4999 15.1109 64.5394 15.6737 64.4898L16.352 66.2505L18.1397 65.7294L17.7673 63.8789C18.2768 63.6118 18.7429 63.2649 19.1238 62.8848L20.7761 63.7961L21.8112 62.2484L20.3363 61.0715C20.5507 60.5489 20.6847 59.9976 20.7335 59.4378L22.587 59.0739L22.3842 57.2235L20.4965 57.2691C20.3309 56.745 20.0839 56.2355 19.7525 55.7624H19.7533Z" fill="white"/>
<path d="M22.6251 57.198C22.6111 57.0741 22.5066 56.9796 22.3835 56.9866L20.6716 57.0268C20.5175 56.5871 20.31 56.1659 20.0522 55.7733L21.1292 54.4385C21.2074 54.3425 21.1989 54.2032 21.1091 54.1188L19.7642 52.8296C19.6759 52.7452 19.5373 52.7414 19.4444 52.8227L18.1592 53.9562C17.7566 53.7177 17.3269 53.528 16.8786 53.3933L16.8468 51.6799C16.8429 51.5568 16.7485 51.4569 16.6254 51.4484L14.7664 51.3268C14.6433 51.3198 14.5349 51.4066 14.5156 51.5281L14.2585 53.2214C13.797 53.2957 13.3472 53.4274 12.9159 53.6124L11.791 52.3217C11.7097 52.2288 11.5726 52.2133 11.4727 52.2861L9.97069 53.3871C9.87082 53.4599 9.84372 53.5969 9.90798 53.7014L10.7991 55.1625C10.4933 55.5178 10.2324 55.9081 10.021 56.3261L8.32929 56.0606C8.20773 56.042 8.09082 56.1179 8.06217 56.2379L7.61853 58.0458C7.58833 58.1658 7.65569 58.2873 7.7726 58.3268L9.3962 58.8734C9.38923 59.3419 9.44033 59.8087 9.54641 60.264L8.07998 61.1482C7.97468 61.2125 7.93597 61.3464 7.99017 61.4563L8.81396 63.1272C8.86971 63.2371 8.99824 63.2882 9.1136 63.2425L10.7101 62.6169C11.0059 62.9808 11.3442 63.3053 11.7182 63.5848L11.163 65.2053C11.1228 65.3206 11.1785 65.4492 11.2916 65.4979L12.9965 66.249C13.108 66.2977 13.2404 66.2544 13.2992 66.146L14.1199 64.6408C14.5814 64.7268 15.0498 64.7593 15.5151 64.7337L16.1306 66.3318C16.181 66.4588 16.3203 66.5076 16.4202 66.4774L18.208 65.9563C18.3264 65.9222 18.3976 65.8022 18.3736 65.6822L18.0353 64.0029C18.4216 63.7876 18.7948 63.5189 19.1634 63.176L20.6616 64.0044C20.7684 64.0632 20.9054 64.03 20.9728 63.9285L22.008 62.3808C22.0753 62.2794 22.0552 62.1408 21.9592 62.0641L20.6213 60.9949C20.7854 60.5582 20.8969 60.1037 20.9527 59.6368L22.6359 59.307C22.7559 59.283 22.8388 59.17 22.8256 59.0484L22.6227 57.198H22.6251ZM20.1204 60.9763C20.0801 61.0746 20.1087 61.1861 20.1916 61.2519L21.4954 62.2941L20.7026 63.4818L19.2416 62.675C19.0093 62.5465 18.976 62.7764 18.3465 63.2379C17.7295 63.6916 17.4879 63.6583 17.5398 63.9231L17.8696 65.5606L16.5 65.9594C15.4981 63.361 16.3048 64.637 14.0471 64.1414C13.9442 64.1198 13.8389 64.167 13.7885 64.2599L12.9887 65.7279L11.6833 65.1526C12.5869 62.5147 12.384 64.0214 10.9764 62.188C10.9122 62.1052 10.8007 62.0726 10.7024 62.1121L9.14457 62.7215L8.51356 61.4409C10.9091 59.9969 9.77481 61.0243 9.87701 58.7147C9.88166 58.6079 9.81584 58.5134 9.71597 58.4793L8.13108 57.9467L8.47098 56.56C11.2381 56.9943 9.70358 57.0478 11.2668 55.3475C11.338 55.2701 11.3481 55.1532 11.2939 55.0633L10.4244 53.6372L11.5765 52.7932C13.4122 54.8977 12.1998 53.9655 14.4993 53.6612C14.6046 53.648 14.6874 53.5667 14.7021 53.4614L14.9522 51.8107L16.3761 51.9036C16.4295 54.6994 16.1051 53.2059 18.057 54.4478C18.1468 54.5051 18.2614 54.495 18.3411 54.4261L19.5946 53.3221L20.6244 54.31C18.8684 56.4849 19.5776 55.133 20.276 57.3373C20.3077 57.4387 20.4061 57.5069 20.5075 57.503L22.1768 57.4628L22.3324 58.882C19.5807 59.4208 21.0038 58.8409 20.1204 60.9794V60.9763Z" fill="black"/>
<path d="M12.6627 58.5514C12.4258 60.1092 13.6259 61.5083 15.2015 61.5083C17.2649 61.5083 18.5176 59.1345 17.2664 57.4257C15.9223 55.593 13.0057 56.2984 12.6627 58.5522V58.5514ZM16.4349 60.6303C15.5128 61.3093 14.1996 61.1189 13.5121 60.1805C12.8323 59.2583 13.0235 57.946 13.9619 57.2577C14.8903 56.5748 16.2026 56.7784 16.8847 57.7075C17.5661 58.6374 17.3648 59.949 16.4349 60.6303Z" fill="black"/>
<path d="M33.6421 94.6951L31.9033 98.3573L33.5245 99.1269L35.2633 95.4647L33.6421 94.6951Z" fill="white"/>
<path d="M30.7219 98.4301L30.4595 98.9821C30.284 99.3522 30.4414 99.7935 30.811 99.9693L32.9652 100.992C33.3348 101.168 33.7768 101.011 33.9524 100.641L34.2147 100.089C34.3902 99.7184 34.2329 99.2763 33.8632 99.1013L31.7091 98.0786C31.3393 97.9028 30.8974 98.06 30.7219 98.4301Z" fill="white"/>
<path d="M43.1197 76.83C37.8665 74.3354 31.5857 76.5746 29.0919 81.8263C26.5964 87.0812 28.8348 93.3611 34.0881 95.8565C39.3414 98.3512 45.6214 96.1136 48.116 90.8588C50.6106 85.6055 48.373 79.3255 43.1197 76.8308V76.83ZM35.3091 93.2891C31.475 91.4696 29.8406 86.8837 31.6608 83.0481C33.4803 79.2132 38.0678 77.5818 41.9018 79.4014C45.7359 81.2216 47.3704 85.8068 45.5501 89.6409C43.7291 93.4773 39.1432 95.1094 35.3091 93.2891Z" fill="white"/>
<path d="M48.7467 82.7329C47.7828 80.023 45.8208 77.8513 43.2232 76.6187C37.86 74.0729 31.4244 76.3632 28.8787 81.7264C26.4506 86.8465 28.4249 92.7502 32.9892 95.5297C31.7457 98.1483 31.8944 97.8982 31.8169 97.8618C31.3191 97.6264 30.7423 97.8463 30.5146 98.3271L30.2522 98.8799C30.0803 99.2415 30.1523 99.6557 30.4001 99.9399L24.0675 112.031C23.5642 112.989 23.9745 114.159 24.9284 114.61L25.3481 114.809C26.3151 115.267 27.4726 114.827 27.8938 113.844L33.2578 101.297C33.6705 101.31 34.0143 101.076 34.1738 100.74L34.4355 100.188C34.667 99.7006 34.4595 99.1169 33.9717 98.8854C33.8927 98.8482 33.7913 99.1246 35.037 96.5014C43.4284 99.4668 51.8189 91.362 48.7475 82.7329H48.7467ZM34.0065 99.9863L33.7448 100.539C33.6248 100.789 33.3236 100.896 33.0735 100.778C30.7074 99.6565 30.7547 99.7316 30.6594 99.4684C30.5743 99.2214 30.6641 99.1114 30.942 98.53C31.0613 98.2791 31.3632 98.1715 31.6133 98.2915L33.768 99.3151C34.0181 99.4351 34.125 99.7363 34.0065 99.9863ZM33.4909 98.657L32.297 98.0902L33.4042 95.7597C34.1126 96.1499 33.9353 96.0555 34.6004 96.3226L33.4916 98.657H33.4909ZM47.9043 90.7596C45.4693 95.8882 39.3388 98.0887 34.1908 95.6443C29.0536 93.2054 26.8664 87.0703 29.306 81.9292C31.7395 76.8029 37.894 74.6118 43.0196 77.046C48.1544 79.4826 50.3455 85.6186 47.9036 90.7596H47.9043Z" fill="black"/>
<path d="M31.4473 82.9457C29.5736 86.8936 31.2599 91.6289 35.2071 93.5034C41.5296 96.5075 48.4398 90.3398 46.069 83.6859C43.7254 77.1063 34.4909 76.5365 31.4473 82.9457ZM45.3366 89.54C43.5698 93.2595 39.1294 94.8436 35.4099 93.0768C29.3971 90.2214 29.9073 81.5373 36.1052 79.3276C42.2938 77.1109 48.1897 83.5341 45.3366 89.54Z" fill="black"/>
<path d="M35.3089 93.2891C31.4748 91.4697 29.8403 86.8838 31.6606 83.0481C33.4801 79.2133 38.0675 77.5819 41.9016 79.4014C45.7357 81.2217 47.3702 85.8068 45.5499 89.6409C43.7288 93.4773 39.143 95.1094 35.3089 93.2891Z" fill="white"/>
<path d="M38.5988 94.2722C32.8298 94.2722 28.9446 88.2145 31.447 82.9457C33.3261 78.9901 38.0467 77.3084 42.0031 79.1867C45.9588 81.0651 47.642 85.7872 45.7629 89.7429C44.3824 92.6486 41.5053 94.273 38.5988 94.273V94.2722ZM31.8752 83.1501C29.0143 89.18 34.9187 95.5683 41.105 93.3641C44.9832 91.982 47.0071 87.726 45.6243 83.8454C43.3999 77.6034 34.7159 77.1636 31.8752 83.1501Z" fill="black"/>
<path d="M43.4796 88.4002C43.4796 88.4002 39.7113 90.7973 37.0626 89.5384C34.4139 88.2802 33.8882 83.8469 33.8882 83.8469C33.8882 83.8469 37.6565 81.4506 40.3052 82.7087C42.9539 83.9669 43.4796 88.4002 43.4796 88.4002Z" fill="white"/>
<path d="M38.8187 90.1339C36.4325 90.1339 35.0799 88.5421 34.2607 86.3014C33.7938 85.0247 33.6599 83.9198 33.6537 83.8726C33.6421 83.7835 33.6862 83.6937 33.7621 83.6442C33.8008 83.6186 34.7431 83.0255 36.0268 82.5804C37.7518 81.9819 39.2678 81.9509 40.4075 82.4921C42.3873 83.432 43.4379 86.2387 43.7159 88.3694C43.7275 88.4592 43.6833 88.5483 43.6075 88.5978C42.4345 89.3581 40.4214 90.1339 38.8195 90.1339H38.8187ZM34.1453 83.9694C34.2654 84.7405 34.9335 88.2672 37.1642 89.3256C39.3948 90.384 42.5498 88.6745 43.2227 88.2788C43.1027 87.5077 42.4345 83.9818 40.2039 82.9226C37.9725 81.8626 34.8182 83.5737 34.1453 83.9694Z" fill="black"/>
<path d="M38.7574 84.3892C39.7346 84.3892 40.5266 85.1812 40.5266 86.1583C40.5266 87.1354 39.7346 87.9275 38.7574 87.9275C37.7803 87.9275 36.9883 87.1354 36.9883 86.1583C36.9883 85.1812 37.7803 84.3892 38.7574 84.3892Z" fill="black"/>
<path d="M39.1958 85.2788C39.5109 85.2788 39.7657 85.5343 39.7657 85.8487C39.7657 86.163 39.5102 86.4185 39.1958 86.4185C38.8815 86.4185 38.626 86.163 38.626 85.8487C38.626 85.5343 38.8815 85.2788 39.1958 85.2788Z" fill="white"/>
<path d="M32.9409 96.2706L34.5955 96.6748L34.7666 96.2218L33.2591 95.5366L32.9409 96.2706Z" fill="black"/>
<path d="M30.6184 99.9089L30.3936 100.383L32.9317 101.588L33.1566 101.114L30.6184 99.9089Z" fill="black"/>
</svg>
