<svg width="156" height="156" viewBox="0 0 156 156" fill="none" xmlns="http://www.w3.org/2000/svg">
<path d="M66.0119 14.1013H4.77246V64.4416H66.0119V14.1013Z" fill="white"/>
<path d="M66.0124 64.7117H4.77294C4.62351 64.7117 4.50195 64.591 4.50195 64.4408V14.1013C4.50195 13.9519 4.62351 13.8303 4.77294 13.8303H66.0124C66.1618 13.8303 66.2833 13.9511 66.2833 14.1013V64.4415C66.2833 64.5909 66.1618 64.7126 66.0124 64.7126V64.7117ZM5.04393 64.1706H65.7414V14.3723H5.04393V64.1706Z" fill="black"/>
<path d="M49.3753 17.4731C42.253 17.4731 36.4585 23.2669 36.4585 30.39C36.4585 37.5131 42.253 43.3068 49.3753 43.3068C56.4977 43.3068 62.2922 37.5131 62.2922 30.39C62.2922 23.2669 56.5 17.4731 49.3753 17.4731ZM49.6463 18.0174C52.8177 18.0864 55.6986 19.353 57.8534 21.3839L49.6463 29.728V18.0174ZM58.2397 21.7633C60.3519 23.9335 61.6766 26.8741 61.7471 30.119H50.0218L58.2397 21.7633ZM49.3753 42.7648C42.5519 42.7648 37.0005 37.2135 37.0005 30.39C37.0005 23.6563 42.4055 18.163 49.1043 18.0182L49.1059 30.4179C49.1136 30.5015 49.1609 30.582 49.246 30.6284C49.3281 30.6679 49.2484 30.654 61.7479 30.6617C61.6031 37.3613 56.109 42.7664 49.3761 42.7664L49.3753 42.7648Z" fill="black"/>
<path d="M45.6876 56.5504H11.5981C11.4487 56.5504 11.3271 56.4296 11.3271 56.2794V25.8978C11.3271 25.5393 11.8691 25.5393 11.8691 25.8978V56.0092H45.6876C46.0461 56.0092 46.0461 56.5504 45.6876 56.5504Z" fill="black"/>
<path d="M14.0832 61.2146C14.4773 56.0534 16.7141 32.294 21.8899 32.9567C24.8305 33.3376 26.0872 40.5126 27.4173 48.1088C28.5237 54.4283 29.6681 60.9645 31.6502 60.9645C35.1296 60.9645 35.7537 50.5415 37.7698 43.1722C37.8643 42.8292 38.3877 42.9693 38.2925 43.3162C36.1493 51.1532 35.7281 61.5065 31.6502 61.5065C29.2128 61.5065 28.1335 55.3419 26.8831 48.2025C25.7031 41.4634 24.366 33.8246 21.8203 33.494C17.3048 32.973 14.9681 56.7231 14.6244 61.2556C14.5965 61.6195 14.0576 61.5614 14.0839 61.2146H14.0832Z" fill="black"/>
<path d="M151.627 15.6978H91.6655V64.4415H151.627V15.6978Z" fill="white"/>
<path d="M151.628 64.7117H91.666C91.5166 64.7117 91.395 64.5909 91.395 64.4407V15.6977C91.395 15.5483 91.5166 15.4268 91.666 15.4268H151.628C151.777 15.4268 151.899 15.5475 151.899 15.6977V64.4415C151.899 64.5909 151.778 64.7117 151.628 64.7117ZM91.937 64.1705H151.358V15.968H91.937V64.1705Z" fill="black"/>
<path d="M106.276 62.1817H95.6802C95.5307 62.1817 95.4092 62.0609 95.4092 61.9107V37.0332C95.4092 36.8838 95.5307 36.7622 95.6802 36.7622H106.276C106.425 36.7622 106.547 36.883 106.547 37.0332V61.9107C106.547 62.0601 106.425 62.1817 106.276 62.1817ZM95.9512 61.6405H106.005V37.3042H95.9512V61.6405Z" fill="black"/>
<path d="M120.11 62.1814H109.513C109.364 62.1814 109.242 62.0606 109.242 61.9104V21.7639C109.242 21.6145 109.364 21.4929 109.513 21.4929H120.11C120.259 21.4929 120.381 21.6137 120.381 21.7639V61.9104C120.381 62.0598 120.259 62.1814 120.11 62.1814ZM109.785 61.6402H119.839V22.0349H109.785V61.6402Z" fill="black"/>
<path d="M133.943 62.1814H123.347C123.197 62.1814 123.076 62.0607 123.076 61.9105V37.9272C123.076 37.7778 123.197 37.6562 123.347 37.6562H133.943C134.093 37.6562 134.214 37.777 134.214 37.9272V61.9105C134.214 62.0599 134.093 62.1814 133.943 62.1814ZM123.618 61.6402H133.673V38.199H123.618V61.6402Z" fill="black"/>
<path d="M147.776 62.1816H137.18C137.03 62.1816 136.909 62.0608 136.909 61.9106V28.2942C136.909 28.1447 137.029 28.0232 137.18 28.0232H147.776C147.926 28.0232 148.047 28.144 148.047 28.2942V61.9106C148.047 62.0601 147.926 62.1816 147.776 62.1816ZM137.451 61.6404H147.505V28.5652H137.451V61.6404Z" fill="black"/>
<path d="M104.068 27.7798H95.6802C95.5307 27.7798 95.4092 27.6591 95.4092 27.5089V21.7639C95.4092 21.6145 95.5307 21.4929 95.6802 21.4929H104.068C104.217 21.4929 104.339 21.6137 104.339 21.7639V27.5089C104.339 27.6583 104.217 27.7798 104.068 27.7798ZM95.9512 27.2386H103.797V22.0349H95.9512V27.2386Z" fill="black"/>
<path d="M102.357 30.6601H95.68C95.3215 30.6601 95.3215 30.1189 95.68 30.1189H102.357C102.716 30.1189 102.716 30.6601 102.357 30.6601Z" fill="black"/>
<path d="M101.293 32.5766H95.68C95.3215 32.5766 95.3215 32.0354 95.68 32.0354H101.293C101.652 32.0354 101.652 32.5766 101.293 32.5766Z" fill="black"/>
<path d="M111.411 132.901L120.038 130.793C121.168 124.894 121.268 119.069 120.418 113.267L110.244 113.046C109.076 119.124 108.578 127.387 111.411 132.901Z" fill="white"/>
<path d="M111.411 133.171C111.311 133.171 111.217 133.116 111.169 133.025C108.296 127.433 108.791 119.167 109.977 112.994C110.002 112.865 110.087 112.775 110.25 112.775L120.424 112.996C120.556 112.998 120.667 113.096 120.686 113.227C121.55 119.123 121.425 124.991 120.304 130.844C120.284 130.948 120.206 131.031 120.102 131.056L111.411 133.171ZM110.467 113.321C109.357 119.232 108.875 127.167 111.556 132.586L119.805 130.571C120.869 124.911 120.995 119.233 120.183 113.532L110.467 113.321Z" fill="black"/>
<path d="M120.484 128.092C119.419 126.357 117.406 125.305 115.249 125.568C111.572 126.015 109.453 129.949 111.06 133.246C111.401 129.366 116.103 127.004 120.484 128.092Z" fill="#D142A7"/>
<path d="M120.689 128.145C115.921 126.84 110.829 129.678 111.048 133.906C111.121 135.313 111.998 136.57 113.329 137.178C116.945 138.83 124.165 139.274 131.968 139.096C130.878 138.156 132.072 133.53 133.821 133.381C129.111 131.228 125.134 129.362 120.689 128.145L120.689 128.145Z" fill="white"/>
<path d="M133.932 133.134C130 131.332 125.025 128.99 120.654 127.855C119.519 126.091 117.439 125.029 115.216 125.299C111.405 125.763 109.149 129.828 110.785 133.301C110.642 135.202 111.682 136.723 113.216 137.424C117.661 139.455 127.078 139.479 131.973 139.366C132.662 139.352 133.632 137.504 133.95 136.571C134.311 135.512 134.567 133.425 133.932 133.134ZM115.281 125.837C117.087 125.616 118.791 126.371 119.862 127.686C116.193 127.071 112.001 128.696 110.974 132.255C110.142 129.226 112.213 126.211 115.281 125.837ZM113.441 136.931C109.681 135.214 110.903 128.948 117.264 128.163C118.348 128.028 119.51 128.104 120.616 128.406C124.988 129.602 128.941 131.452 133.114 133.356C131.714 134.264 130.891 137.473 131.465 138.835C122.767 139.001 116.542 138.348 113.44 136.931H113.441Z" fill="black"/>
<path d="M116.938 117.987C120.78 117.491 123.415 113.381 122.824 108.806C122.232 104.232 118.64 100.927 114.798 101.423C110.957 101.919 108.322 106.029 108.913 110.603C109.504 115.178 113.097 118.484 116.938 117.987Z" fill="#D142A7"/>
<path d="M116.177 118.307C110.031 118.307 106.392 109.912 109.965 104.338C113.798 98.3582 122.112 101.189 123.092 108.772C123.736 113.758 120.6 118.307 116.177 118.307ZM110.421 104.63C106.887 110.144 110.892 118.486 116.903 117.718C120.59 117.241 123.125 113.259 122.555 108.841C121.636 101.736 113.986 99.0698 110.422 104.63H110.421Z" fill="black"/>
<path d="M105.547 120.143C99.087 121.244 93.8956 127.127 88.7917 127.241C87.817 132.42 86.9994 137.703 87.2696 142.372H111.562L112.945 124.821C112.995 122.333 110.232 119.344 105.547 120.143Z" fill="#D142A7"/>
<path d="M86.003 103.008C88.8476 101.095 96.1302 98.737 102.362 99.838C104.736 100.257 111.717 98.3639 116.692 103.366C121.756 109.635 118.551 121.673 112.945 124.822C112.996 122.334 110.232 119.345 105.547 120.144C99.0693 121.248 94.9232 126.475 89.2046 127.211C81.6959 128.177 79.9283 107.094 86.0038 103.009L86.003 103.008Z" fill="white"/>
<path d="M116.884 103.174C111.831 98.0944 104.625 99.9588 102.41 99.5709C96.0429 98.4467 88.7673 100.823 85.8522 102.783C79.8704 106.805 81.2083 127.055 88.4684 127.505C87.4565 132.135 86.7659 135.986 86.9532 142.318C86.9571 142.464 87.0771 142.581 87.2234 142.581L111.562 142.643C111.704 142.643 111.821 142.535 111.832 142.394L113.203 124.985C118.915 121.629 122.02 109.522 116.884 103.174ZM112.421 128.011C109.015 121.284 105.541 123.049 99.5627 126.324C95.6349 128.475 92.4357 130.258 88.4948 130.019C88.6574 129.194 88.8354 128.361 89.0236 127.501C94.5208 127.065 99.1756 121.505 105.593 120.411C109.972 119.666 112.713 122.38 112.673 124.805L112.421 128.012V128.011ZM97.3243 142.066C100.729 140.665 103.379 139.011 105.548 138.167C107.729 137.323 108.866 140.218 110.037 142.098L97.3243 142.066ZM111.31 142.101L110.683 142.1C109.477 140.33 108.175 136.562 105.351 137.663C102.821 138.647 99.8964 140.568 95.8432 142.062L87.4859 142.04C87.4697 141.407 87.4619 140.798 87.4635 140.212C95.0782 139.813 100.005 135.474 105.465 133.405C107.827 132.511 109.836 135.417 111.038 137.153C111.263 137.478 111.462 137.766 111.634 137.989L111.31 142.101ZM111.7 137.155C110.072 134.825 108.014 131.86 105.273 132.898C99.7865 134.974 94.9187 139.268 87.4666 139.669C87.4836 138.091 87.5626 136.668 87.6919 135.331C94.8854 135.506 100.158 130.373 105.312 128.788C108.363 127.847 110.521 131.212 111.681 133.018C111.794 133.193 111.896 133.353 111.988 133.489L111.699 137.155L111.7 137.155ZM105.154 128.269C99.9188 129.881 94.7538 134.937 87.7476 134.79C87.9071 133.318 88.127 131.939 88.3902 130.554C94.5548 131.313 101.498 124.849 106.028 124.037C109.526 123.412 111.216 126.807 112.126 128.632L112.337 129.053L112.058 132.602C110.879 130.772 108.519 127.236 105.154 128.269ZM113.193 124.353C112.908 121.725 109.973 119.11 105.501 119.875C98.9433 120.992 94.8243 126.211 89.1691 126.941C82.0313 127.833 80.2459 107.204 86.1534 103.232C89.108 101.246 96.3666 99.0553 102.314 100.104C104.652 100.516 111.629 98.6581 116.48 103.535C121.267 109.464 118.524 120.909 113.193 124.354V124.353Z" fill="black"/>
<path d="M96.3873 115.456L115.346 115.05C116.567 115.024 117.519 113.992 117.447 112.774L117.229 109.082C117.164 107.976 116.246 107.087 115.14 107.059L96.3455 107.298C95.1524 107.313 94.2009 108.294 94.2225 109.488L94.2938 113.347C94.3154 114.5 95.2345 115.427 96.3873 115.457V115.456Z" fill="#E9E9E9"/>
<path d="M117.718 112.758L117.5 109.065C117.427 107.82 116.393 106.82 115.147 106.787L96.3415 107.027C95.2522 107.041 94.3726 107.76 94.0683 108.7C93.7904 109.207 93.5124 109.913 93.5217 110.436L93.5929 114.294C93.6169 115.584 94.6459 116.622 95.9343 116.656L114.906 116.251C116.502 116.216 117.811 114.375 117.716 112.759L117.718 112.758ZM115.133 107.328C116.1 107.353 116.903 108.13 116.959 109.097L117.177 112.79C117.24 113.855 116.406 114.756 115.341 114.78L96.3942 115.185C95.3869 115.159 94.584 114.349 94.5654 113.34L94.4942 109.482C94.4748 108.457 95.2886 107.582 96.3493 107.568L115.133 107.328Z" fill="black"/>
<path d="M115.311 113.36C115.574 113.354 115.776 113.135 115.761 112.873L115.543 109.18C115.53 108.951 115.325 108.753 115.096 108.747L96.3678 108.987C96.2409 108.988 96.1317 109.035 96.0434 109.127C95.8599 109.317 95.9079 109.119 95.9854 113.315C95.99 113.561 96.1859 113.758 96.4321 113.765L115.311 113.36Z" fill="white"/>
<path d="M116.031 112.857L115.814 109.165C115.792 108.795 115.474 108.486 115.093 108.476L96.3643 108.716C95.9671 108.721 95.6342 109.045 95.6427 109.461L95.714 113.32C95.7209 113.711 96.0337 114.025 96.4379 114.036L115.318 113.631C115.735 113.622 116.055 113.273 116.031 112.857ZM115.44 113.029C115.353 113.123 115.418 113.576 96.4394 113.496C96.3388 113.496 96.2583 113.412 96.2559 113.311L96.1847 109.452C96.1824 109.34 96.2707 109.261 96.3713 109.259L115.089 109.019C115.176 109.021 115.267 109.11 115.272 109.197C115.505 113.256 115.519 112.943 115.44 113.029H115.44Z" fill="black"/>
<path d="M114.743 110.788L112.877 110.82L111.644 109.815C111.507 109.706 111.327 109.752 111.245 109.879L110.057 111.722L108.418 110.031C108.295 109.904 108.074 109.926 107.984 110.091L107.544 110.908L106.481 110.929C106.323 110.932 106.348 110.945 105.513 111.889C104.762 110.978 104.722 110.876 104.579 110.919L103.212 110.949L102.227 109.711C102.102 109.553 101.863 109.583 101.774 109.755L100.609 112.008L100.17 111.161C100.123 111.07 100.026 111.011 99.9234 111.016L96.6948 111.096C96.5453 111.1 96.4269 111.223 96.4308 111.373C96.4346 111.522 96.5717 111.67 96.7087 111.637L99.7686 111.562L100.369 112.722C100.47 112.916 100.75 112.916 100.851 112.722L102.065 110.376L102.873 111.391C102.982 111.528 103.02 111.495 104.461 111.463C105.369 112.564 105.337 112.574 105.503 112.577C105.681 112.577 105.67 112.532 106.611 111.468C107.747 111.446 107.847 111.489 107.947 111.304L108.287 110.674L109.906 112.344C110.024 112.465 110.23 112.454 110.329 112.302L111.536 110.426L112.611 111.302C112.712 111.385 112.655 111.363 114.753 111.328C115.073 111.323 115.144 110.819 114.743 110.787V110.788Z" fill="black"/>
<path d="M93.003 102.055C93.4297 105.659 91.4871 115.589 88.8027 117.293C84.8285 119.815 83.7918 110.065 84.7673 104.264L93.003 102.055Z" fill="black"/>
<path d="M86.2915 94.6561C88.1443 91.0039 94.0952 97.4473 92.8014 102.178L86.2915 94.6561Z" fill="#D142A7"/>
<path d="M92.8019 102.449C92.6083 102.449 92.719 102.519 86.0875 94.8331C86.0155 94.7495 86.0008 94.631 86.0512 94.5327C88.0975 90.5012 94.4371 97.2294 93.0636 102.25C93.0334 102.361 92.9304 102.449 92.8019 102.449ZM86.6202 94.621L92.6509 101.59C93.3183 97.3456 88.305 91.7981 86.6202 94.621Z" fill="black"/>
<path d="M75.9966 95.6325C75.9966 95.6325 77.3809 104.203 86.9189 111.732C87.409 112.119 87.848 112.403 88.2476 112.242C91.7038 110.842 92.6554 103.992 92.8474 102.191C92.8768 101.918 92.8033 101.644 92.6407 101.421C90.1243 97.9723 86.2663 91.4337 83.7592 90.4775L75.9966 95.6325Z" fill="white"/>
<path d="M88.3486 112.492C87.7865 112.721 87.226 112.32 86.7506 111.944C77.2397 104.438 75.7423 95.7624 75.7283 95.6749C75.7121 95.5696 75.7578 95.465 75.846 95.4054L83.6087 90.2505C83.6822 90.2025 83.7736 90.1916 83.8549 90.2234C86.4672 91.219 90.2765 97.7204 92.8587 101.26C93.0607 101.537 93.1521 101.877 93.1165 102.218C92.8981 104.264 91.9102 111.049 88.3486 112.492ZM76.2966 95.7577C76.5552 96.9919 78.48 104.726 87.0866 111.519C87.538 111.875 87.8887 112.091 88.1458 111.989C91.5122 110.626 92.4282 103.562 92.5776 102.161C92.5993 101.954 92.5443 101.748 92.4212 101.579C90.0233 98.2934 86.1985 91.8733 83.7883 90.7824L76.2966 95.7577Z" fill="black"/>
<path d="M83.3472 88.9915C82.9501 91.38 81.9071 92.8689 78.1621 93.4875C76.7127 93.7276 75.0465 93.0292 74.1453 91.9669C73.2433 95.3566 76.0205 98.6317 79.7989 98.6317C83.0143 98.6317 85.6212 96.2245 85.6212 93.2545C85.6212 91.5178 84.7301 89.974 83.3472 88.9915Z" fill="#D142A7"/>
<path d="M82.2533 70.9485C82.2533 78.6159 84.5706 86.3847 82.9338 90.5456C82.2471 92.2907 80.4516 93.1099 78.1629 93.4877C77.6 93.5806 77.0232 93.5504 76.4766 93.3878C72.4667 92.197 72.6959 88.4357 73.5832 83.7732C74.2258 80.3982 75.4135 77.3848 75.9594 71.0917C75.9594 71.0917 76.4882 71.9806 79.3514 71.9504C81.9126 71.9233 82.2533 70.9485 82.2533 70.9485Z" fill="white"/>
<path d="M83.6417 88.8746C84.2998 84.5171 82.543 77.6588 82.5252 71.0529C82.7691 69.9163 80.3078 69.8621 79.1487 69.8621C78.0477 69.8621 75.6026 69.9914 75.6886 71.08C75.1443 77.3436 73.9605 80.3392 73.3171 83.7227C72.6907 87.0133 72.3051 90.1134 73.8474 92.0451C73.0135 95.5719 75.9263 98.9035 79.7999 98.9035C83.1593 98.9035 85.8932 96.3701 85.8932 93.2553C85.8932 91.49 85.0144 89.9113 83.6417 88.8746ZM73.849 83.8234C74.4707 80.5552 75.6042 77.6324 76.174 71.7148C77.2348 72.3025 80.6515 72.3946 81.9887 71.6545C82.1187 79.0919 84.2379 86.4891 82.6816 90.4455C82.1017 91.9197 80.6515 92.8016 78.1182 93.2197C77.5909 93.3087 77.0497 93.2762 76.5534 93.1275C72.9934 92.0707 72.8556 89.0426 73.849 83.8234ZM74.3042 92.5306C75.0498 93.205 76.164 93.6703 77.0249 93.7779C77.169 95.3334 77.9726 97.2288 79.3229 98.3421C76.1864 98.0959 73.849 95.4611 74.3042 92.5306ZM80.283 98.3413C78.7221 97.4928 77.7504 95.4247 77.5739 93.8097C77.7853 93.8073 77.9966 93.7888 78.2065 93.7547C81.9887 93.1291 83.0811 91.5697 83.5318 89.4777C87.1204 92.4834 85.064 97.9596 80.283 98.3413Z" fill="black"/>
<path d="M83.4491 65.2097C83.3136 64.9728 83.072 64.7204 82.7732 64.5578L82.8003 62.5052C80.6804 62.1785 78.6867 62.0786 77.0135 62.5594C77.0135 62.5594 76.446 64.9658 76.5536 65.9932C76.6473 66.8821 76.5242 68.1154 77.2017 68.6241L77.0066 71.694C77.6809 72.092 80.5588 71.9255 80.9901 71.7993C81.4213 71.6731 81.3315 71.1157 81.3315 71.1157L81.419 69.194C81.7674 69.0902 82.0942 68.8742 82.3404 68.4801C83.2865 66.9657 83.7735 65.7764 83.4491 65.2081V65.2097Z" fill="white"/>
<path d="M85.9721 61.8702C85.1197 61.8764 83.8228 62.574 83.0571 63.5999C83.0671 62.8388 83.0571 62.5825 83.1012 62.2937C83.1949 61.672 83.4264 60.1336 83.469 59.7348C83.5232 59.2316 83.6664 57.2023 83.6664 56.6812C83.6664 56.1601 83.4326 55.9085 83.0733 55.9627C82.7141 56.0169 82.6064 56.3939 82.4802 56.9684C82.354 57.5429 82.1032 59.645 82.0312 59.9323C81.9793 60.1382 81.771 61.3886 81.6572 62.0793C81.5767 62.0707 81.4969 62.0622 81.418 62.0537C81.4064 61.545 81.4033 60.6949 81.4706 59.803C81.5093 59.2989 81.0757 56.3537 81.0757 55.8334C81.0757 55.3131 80.8419 55.0607 80.4827 55.1149C80.1234 55.1691 79.9926 55.5167 79.9438 56.1028C79.8718 56.9653 80.077 59.7077 80.0336 60.0004C79.9446 60.6012 79.8966 61.4219 79.8733 61.96C79.8168 61.9593 79.7611 61.9585 79.7053 61.9585C79.6976 61.4947 79.7007 60.8041 79.7557 60.0825C79.7897 59.6295 79.4003 56.9831 79.4003 56.5147C79.4003 56.0463 79.1672 55.8063 78.8444 55.8551C78.5215 55.9038 78.4038 56.2159 78.3605 56.7431C78.2962 57.5182 78.4805 59.9826 78.441 60.2458C78.3597 60.7948 78.3171 61.5489 78.2962 62.0313C78.2149 62.0406 78.1351 62.0514 78.0562 62.0622C78.0523 61.6945 78.0585 61.1927 78.098 60.6701C78.1258 60.3055 77.8417 58.1739 77.8123 57.7984C77.7767 57.3525 77.5049 57.1163 77.2053 57.2673C76.9707 57.3858 76.8507 57.5576 76.815 57.9819C76.7632 58.606 76.9118 60.5896 76.8801 60.8018C76.8236 61.1835 76.7903 61.6883 76.7709 62.0692C76.7345 62.8109 76.1631 64.8797 76.2831 66.0202C76.3691 66.8316 76.2638 68.034 76.8631 68.6829L76.7345 71.68C76.7283 71.8302 76.8956 71.9773 77.0969 72.0176C78.1499 72.2243 79.9608 72.2576 81.1772 71.9525C81.4822 71.8759 81.5465 71.7396 81.5504 71.6235L81.6231 69.4107C81.9785 69.279 82.3115 69.0359 82.5701 68.6225C83.6857 66.837 84.0411 65.7113 83.6873 65.0795C84.5661 64.1442 85.5099 63.1044 86.3167 62.8976C86.9392 62.7389 86.8726 61.8602 85.9706 61.8671L85.9721 61.8702ZM81.0161 71.4392C79.8927 71.7125 78.2528 71.6777 77.2873 71.4996L77.3926 69.0297C78.1754 69.31 79.01 69.0932 79.4847 69.2752C79.981 69.4641 80.5493 69.5833 81.0781 69.5345L81.0161 71.4392ZM82.1117 68.3383C81.5148 69.2945 80.3309 69.0189 79.679 68.7696C78.9775 68.5001 78.578 68.792 77.6528 68.545C76.7694 68.3073 76.932 67.0012 76.8243 65.966C76.7376 65.143 77.1216 63.3219 77.2432 62.7792C78.5958 62.4238 80.2852 62.4106 82.5275 62.7397L82.5089 64.162C82.08 64.0451 81.5829 64.131 81.1439 64.4864C79.8935 65.5015 79.6341 66.4933 79.624 66.5351C79.5373 66.8804 80.0592 67.0128 80.149 66.6683C80.1513 66.659 80.3867 65.7995 81.4853 64.9076C81.7447 64.6978 82.0219 64.6219 82.3076 64.6722C82.6785 64.7435 83.04 65.0392 83.2158 65.3458C83.3528 65.5859 83.3915 66.2935 82.1125 68.3391L82.1117 68.3383Z" fill="black"/>
<path d="M98.5632 94.2342L97.8377 100.579C97.7649 101.213 98.0266 101.838 98.5283 102.232C101.213 104.343 105.298 104.775 107.916 102.253C108.117 102.06 108.236 101.794 108.244 101.514L108.44 95.0657L98.5632 94.2334V94.2342Z" fill="#D142A7"/>
<path d="M103.457 76.386C100.037 76.386 97.3864 78.0591 96.4349 80.0412C95.4833 82.0233 94.6851 84.4955 94.6851 84.4955L95.7721 86.7339L94.7245 88.8855L96.6207 96.611L103.778 97.0151L109.239 94.6134C110.022 91.5543 111.11 85.1327 111.202 81.7399C111.202 78.7831 107.734 76.386 103.457 76.386Z" fill="white"/>
<path d="M111.203 81.7408C111.11 85.1483 110.013 91.604 109.239 94.6143L103.778 97.016L105.507 89.1605L106.43 87.1327C106.53 86.9128 106.503 86.9662 105.461 84.7379C105.461 84.7379 105.757 81.8004 106.888 79.4444C107.502 78.1638 109.171 77.5924 110.483 79.487C110.944 80.1722 111.203 80.9356 111.203 81.7393V81.7408Z" fill="#D142A7"/>
<path d="M94.6675 84.4491L96.264 84.4336C96.264 84.4336 96.5536 83.3946 97.6213 83.3218C98.8918 83.2351 99.2387 84.4622 99.2387 84.4622L100.693 84.4886C100.693 84.4886 101.16 83.2544 102.513 83.3736C103.866 83.4929 104.026 84.5675 104.026 84.5675L105.452 84.6775L106.527 86.8771L105.471 89.1465L94.7875 88.8476L95.8025 86.7378L94.6675 84.4491Z" fill="#E9E9E9"/>
<path d="M97.6353 92.197C97.4696 91.8795 97.9512 91.6295 98.1161 91.9477C98.9329 93.5171 101.145 93.2678 102.358 91.967C102.605 91.7038 102.999 92.0762 102.755 92.3364C101.299 93.8988 98.6371 94.1233 97.6353 92.197Z" fill="black"/>
<path d="M103.457 76.1157C99.7012 76.1157 97.1013 78.0289 96.1907 79.925C95.2423 81.9009 94.4355 84.3886 94.4278 84.4134C94.3805 84.5589 94.3658 84.4637 95.4467 86.6842C95.4846 86.7624 95.5264 86.6355 94.4812 88.7678C94.4146 88.904 94.4231 88.7879 96.3572 96.676C96.3858 96.7913 96.4865 96.8757 96.605 96.8827L97.9785 96.9601L97.5681 100.548C97.4861 101.27 97.7896 101.997 98.3602 102.446C101.163 104.648 105.406 105.045 108.103 102.448C108.359 102.203 108.504 101.874 108.514 101.524L108.707 95.1445C109.381 94.848 109.458 94.8487 109.5 94.6823C110.24 91.7974 111.423 85.3262 111.472 81.7492C111.519 78.3115 107.352 76.1165 103.456 76.1165L103.457 76.1157ZM96.6793 80.1596C98.4454 76.4827 104.67 75.5993 108.509 77.9979C107.674 78.0436 106.995 78.5949 106.644 79.3281C105.689 81.3156 105.323 83.667 105.222 84.4482C104.888 84.4196 104.546 84.394 104.193 84.3716C103.607 82.7123 101.043 82.6349 100.582 84.2368C100.582 84.2368 99.7538 84.2175 99.4782 84.2128C98.93 82.7712 96.5562 82.549 96.0429 84.2128C95.7378 84.2152 95.3778 84.2183 95.0634 84.2221C95.3197 83.4672 95.9585 81.6609 96.6793 80.1596ZM95.9345 87.0226C96.022 86.8437 96.0227 86.6285 95.9345 86.4473L95.1161 84.7626C95.4955 84.7579 95.9337 84.754 96.2565 84.7517C96.3858 84.7517 96.4973 84.6588 96.5206 84.5311C96.7768 83.1699 98.7249 83.3534 99.0144 84.5442C99.0439 84.6642 99.1507 84.7494 99.2738 84.7509C99.6044 84.7556 100.568 84.778 100.568 84.778C100.803 84.7719 101.007 84.6348 101.075 84.4141C101.436 83.2621 103.353 83.3867 103.709 84.6395C103.752 84.7889 103.885 84.8957 104.039 84.905C104.466 84.9313 104.879 84.9623 105.282 84.9979L106.182 86.9235C106.217 87.0009 106.247 86.8786 105.339 88.8878L95.1517 88.6268L95.9329 87.0226H95.9345ZM96.8372 96.3523L95.0735 89.1665L105.173 89.4251L103.564 96.7325L96.8372 96.3523ZM107.73 102.058C105.107 104.583 101.119 103.922 98.697 102.019C98.2727 101.685 98.0466 101.146 98.1078 100.61L98.1736 100.037C100.806 102.367 104.976 103.187 107.988 101.041C107.972 101.57 108 101.798 107.729 102.059L107.73 102.058ZM108.011 100.291C107.962 100.366 107.9 100.433 107.825 100.488C104.85 102.744 100.764 101.682 98.4291 99.5368C98.3656 99.478 98.306 99.4137 98.2526 99.3456L98.4585 97.5462C101.021 99.9464 105.128 100.756 108.065 98.538L108.011 100.291ZM108.091 97.674C108.041 97.8149 107.953 97.938 107.834 98.0317C104.963 100.291 101.032 99.2457 98.7891 97.1134C98.7504 97.077 98.714 97.0383 98.68 96.9988L103.779 97.2861C103.865 97.2861 103.582 97.3983 108.16 95.3853L108.09 97.674H108.091ZM109.01 94.419L104.158 96.5529L105.754 89.2726L106.676 87.2456C106.756 87.0706 106.756 86.8708 106.675 86.6943L105.739 84.6929C105.793 84.2283 106.133 81.6439 107.132 79.5619C107.414 78.9766 107.929 78.5864 108.48 78.543C109.804 78.4245 110.931 80.2928 110.932 81.7376C110.843 84.9615 109.835 91.1416 109.009 94.4198L109.01 94.419Z" fill="black"/>
<path d="M97.6205 87.1234C98.0541 87.1234 98.4056 86.7719 98.4056 86.3383C98.4056 85.9047 98.0541 85.5532 97.6205 85.5532C97.187 85.5532 96.8354 85.9047 96.8354 86.3383C96.8354 86.7719 97.187 87.1234 97.6205 87.1234Z" fill="white"/>
<path d="M97.6181 87.3942C97.1187 87.3942 96.6595 87.0311 96.5775 86.5C96.4884 85.9247 96.8841 85.3843 97.4593 85.2945C98.0323 85.2054 98.575 85.6019 98.6648 86.1764C98.7632 86.8097 98.2769 87.3942 97.6181 87.3942ZM97.6204 85.8241C97.306 85.8241 97.0645 86.1067 97.1125 86.4171C97.1543 86.6866 97.4005 86.8879 97.6993 86.8469C98.3234 86.7493 98.2522 85.8248 97.6204 85.8248V85.8241Z" fill="black"/>
<path d="M102.216 87.1234C102.649 87.1234 103.001 86.7719 103.001 86.3383C103.001 85.9047 102.649 85.5532 102.216 85.5532C101.782 85.5532 101.431 85.9047 101.431 86.3383C101.431 86.7719 101.782 87.1234 102.216 87.1234Z" fill="white"/>
<path d="M101.173 86.5001C101.083 85.9256 101.476 85.3844 102.055 85.2945C102.983 85.1505 103.62 86.2074 103.068 86.9623C102.514 87.7187 101.315 87.4261 101.174 86.4993L101.173 86.5001ZM102.216 85.8241C101.721 85.8241 101.513 86.4613 101.912 86.7532C102.136 86.9166 102.46 86.8748 102.63 86.6417C102.879 86.3003 102.632 85.8234 102.215 85.8234L102.216 85.8241Z" fill="black"/>
<path d="M99.0089 87.6785C99.0701 87.6011 99.194 87.6282 99.2164 87.725C99.362 88.363 99.4332 89.2626 99.314 90.1693C99.2838 90.4016 99.0639 90.5611 98.8347 90.5185C98.4081 90.4395 97.8026 90.2537 97.7902 89.8325C97.7748 89.3122 98.652 88.1346 99.0089 87.6785Z" fill="#D142A7"/>
<path d="M98.7852 90.7838C97.7562 90.5949 97.5286 90.166 97.5193 89.84C97.5031 89.288 98.2022 88.2659 98.7961 87.5103C98.9974 87.254 99.4069 87.3454 99.4805 87.6628C99.657 88.4324 99.6934 89.3584 99.5827 90.2047C99.5324 90.5887 99.1692 90.855 98.7852 90.7838ZM99.0167 88.1142C98.3067 89.0626 98.0551 89.624 98.0605 89.8237C98.0659 89.9925 98.3888 90.1605 98.8835 90.2519C98.9672 90.2658 99.0353 90.2085 99.0446 90.135C99.1305 89.4792 99.1189 88.7483 99.0159 88.115L99.0167 88.1142Z" fill="black"/>
<path d="M109.947 91.871C108.434 91.871 107.207 89.9725 107.207 87.6312C107.207 85.2898 108.434 83.3914 109.947 83.3914H112.047V91.8717L109.947 91.871Z" fill="white"/>
<path d="M112.027 91.871C113.37 91.871 114.459 89.9725 114.459 87.6312C114.459 85.2898 113.37 83.3914 112.027 83.3914C110.683 83.3914 109.595 85.2898 109.595 87.6312C109.595 89.9725 110.683 91.871 112.027 91.871Z" fill="#E9E9E9"/>
<path d="M114.73 87.6311C114.73 85.1202 113.56 83.1497 112.061 83.1211H109.947C108.287 83.1211 106.936 85.1434 106.936 87.6311C106.936 90.1188 108.287 92.1419 109.947 92.1419H112.061C113.561 92.1117 114.73 90.142 114.73 87.6311ZM109.947 91.6007C108.585 91.6007 107.478 89.8199 107.478 87.6311C107.478 85.4423 108.585 83.6615 109.947 83.6615H110.724C108.858 85.3409 108.858 89.9213 110.724 91.6007H109.947ZM112.028 91.6007C110.856 91.6007 109.867 89.7827 109.867 87.6311C109.867 85.4795 110.856 83.6615 112.028 83.6615C113.199 83.6615 114.189 85.4795 114.189 87.6311C114.189 89.7827 113.199 91.6007 112.028 91.6007Z" fill="black"/>
<path d="M112.027 89.8611C110.851 89.8611 110.851 85.4006 112.027 85.4014C113.203 85.4021 113.203 89.8618 112.027 89.8611Z" fill="white"/>
<path d="M112.027 90.1313C111.175 90.1313 110.874 88.7825 110.874 87.6273C110.874 86.476 111.177 85.1304 112.027 85.1304C113.573 85.1304 113.584 90.1313 112.027 90.1313ZM111.621 89.0729C111.734 89.3965 111.887 89.5893 112.027 89.5901C112.641 89.5916 112.888 86.9135 112.311 85.9131C111.688 84.8369 111.082 87.5367 111.621 89.0729Z" fill="black"/>
<path d="M116.135 88.4348C116.431 88.4418 116.674 88.2002 116.668 87.9044L116.462 76.1885L115.824 76.1738L115.29 86.7655C115.287 86.8336 115.23 86.8863 115.162 86.8847L112.068 86.8135C111.856 86.8089 111.821 88.3349 112.033 88.3403L116.136 88.4348H116.135Z" fill="white"/>
<path d="M116.902 74.078C116.435 73.8527 115.956 73.8403 115.478 74.0455C115.374 74.0904 115.312 74.1988 115.326 74.3126C115.59 76.383 115.557 76.0702 115.552 76.1608L115.025 86.6108L112.073 86.5435C111.671 86.583 111.631 87.104 111.62 87.5585C111.603 88.2801 111.727 88.6045 112.025 88.6115L116.143 88.7067C116.586 88.7067 116.946 88.3405 116.936 87.8976C116.661 74.3839 116.605 76.846 117.043 74.3521C117.063 74.2399 117.006 74.1284 116.903 74.078H116.902ZM116.321 88.0912C116.212 88.1996 116.532 88.1741 112.186 88.0734C112.144 87.838 112.155 87.3216 112.209 87.0893L115.155 87.1567C115.364 87.1497 115.55 86.9964 115.56 86.7804L116.08 76.4519L116.195 76.455C116.397 88.0889 116.438 87.9743 116.321 88.0912Z" fill="black"/>
<path d="M80.4005 64.7523C80.2092 64.2552 79.6355 64.4085 78.9859 64.9815C78.0498 65.8076 76.9597 66.7785 76.9597 66.7785C76.9597 66.7785 77.648 62.2662 77.7246 61.0049C77.8013 59.7429 78.0305 58.4429 77.5334 58.3663C77.0363 58.2896 76.8056 58.8866 76.6531 59.7661C76.4998 60.6457 75.813 64.5223 75.813 64.5223C75.9292 63.2882 76.1831 59.8513 76.0422 58.6334C75.9276 57.6392 75.0852 57.9528 75.0086 58.3732C74.9892 58.4778 74.942 58.8804 74.8816 59.4262C74.767 58.9229 74.3404 58.4909 73.9927 58.6597C73.6985 58.8029 73.8294 59.4386 73.6838 60.4095C73.4213 62.164 73.6668 61.4176 73.3068 60.1114C73.1937 59.7026 72.3467 59.5617 72.3142 60.3096C72.2677 61.3789 72.3962 63.7938 72.2151 64.5177C71.9859 65.4352 72.8306 67.5032 72.7927 68.2682C72.7539 69.0331 72.6386 69.0827 72.5635 69.6827C72.4102 70.906 72.5255 70.6389 72.3722 71.7856C72.054 74.1757 66.5715 83.8918 64.4067 90.0525C66.1372 90.3196 67.2459 90.3792 68.501 91.227C70.0077 92.2452 71.094 94.6066 71.543 95.9585C74.4875 90.6967 76.1227 73.3039 77.0371 69.9498C77.0371 69.9498 77.9863 68.0243 78.605 67.2732C79.6758 65.9733 80.5932 65.247 80.402 64.7492L80.4005 64.7523Z" fill="#E9E9E9"/>
<path d="M71.7636 96.8038C71.663 96.0265 70.425 92.5307 68.4994 91.2292C67.1754 90.3342 66.0148 90.3179 64.1148 90.009C61.895 89.6474 62.3735 90.7864 59.46 93.3925C57.368 95.2638 54.1734 95.2933 51.3776 95.5379C46.6028 95.956 49.7935 95.7168 38.6079 97.9164C37.9622 98.0434 36.8465 97.7306 35.7284 98.3105C35.0827 98.645 34.4432 99.7801 33.2733 101.039C32.0507 102.354 30.949 102.735 30.2111 105.283C29.5569 107.544 29.9123 110.221 30.2932 112.893C30.8646 116.889 30.0648 127.813 32.3109 131.812C32.6895 134.921 32.4704 138.391 33.0588 142.21L61.4661 142.26C60.7143 136.898 58.5797 129.329 58.5193 126.024C58.4597 122.719 58.5425 119.608 58.5425 119.608C59.316 113.07 58.9289 110.308 57.3177 107.785C63.3971 104.141 61.7115 105.853 64.2666 104.916C65.222 104.566 65.9537 103.801 66.7961 103.229C68.024 102.396 69.5563 101.924 70.4428 100.734C70.9027 100.116 71.9177 97.9923 71.7644 96.8038H71.7636Z" fill="#D142A7"/>
<path d="M80.6526 64.6547C80.5357 64.3504 80.3251 64.2413 80.1687 64.2033C79.7127 64.0911 79.1746 64.4533 78.806 64.7785C78.295 65.2291 77.7384 65.7231 77.3381 66.0793C78.3911 58.9902 78.2602 58.2044 77.5734 58.0991C76.6807 57.9527 76.4763 59.1938 76.3842 59.7203C76.2897 60.2631 76.4183 59.5392 76.3099 58.6039C76.1604 57.3047 74.8729 57.602 74.7405 58.3267C74.7327 58.3693 74.7203 58.4575 74.7048 58.583C74.4385 58.3337 74.1288 58.2927 73.8718 58.4189C73.4684 58.6156 73.5249 59.1382 73.4715 59.8458C73.0874 59.3008 72.0801 59.3874 72.0414 60.3018C72.0027 61.1728 72.1126 63.8053 71.9501 64.4557C71.6876 65.5055 72.5578 67.5024 72.5199 68.2581C72.4827 69.006 72.3728 69.0083 72.2923 69.6525C72.1452 70.824 72.2458 70.6706 72.101 71.7545C71.7983 74.0316 66.4142 83.6478 64.2238 89.7536C62.6474 89.5042 62.268 89.8681 61.3567 90.9854C58.1304 94.9449 56.736 94.8311 50.4793 95.3413C48.8836 95.4714 44.8513 95.6425 44.6445 97.1384L45.2306 97.0625C45.8655 96.2557 48.4469 96.0505 50.5219 95.8818C56.6183 95.3855 58.3728 95.5039 61.7764 91.3284C62.9169 89.9293 62.9927 90.1283 65.0252 90.4225C66.401 90.623 67.31 90.7554 68.3467 91.4554C70.201 92.7081 71.3996 96.1086 71.494 96.8403C71.6334 97.9165 70.6803 99.9613 70.2242 100.574C69.2797 101.842 67.7776 102.083 65.8373 103.61C64.9353 104.319 64.1379 104.913 62.6784 104.997C61.9003 105.041 61.3111 105.074 57.1673 107.56C57.2695 107.712 57.3663 107.864 57.4592 108.017C63.4774 104.412 61.74 106.131 64.3585 105.173C65.3674 104.803 66.1114 104.02 66.9468 103.455C68.1616 102.629 69.7249 102.15 70.6578 100.897C71.1433 100.245 72.1963 98.0535 72.0306 96.7698C72.0081 96.5956 71.94 96.3184 71.8316 95.9754C74.7838 90.4628 76.3819 73.4292 77.2893 70.0481C78.3872 67.8469 78.7751 67.4551 79.6678 66.4679C80.3778 65.6828 80.8478 65.1642 80.6526 64.6547ZM79.2667 66.1041C78.4089 67.0541 77.9141 67.5566 76.7945 69.8275C76.1093 71.1716 74.454 89.2743 71.59 95.291C71.0403 93.8702 70.0121 91.9253 68.6502 91.0047C67.4168 90.1716 66.3151 90.0625 64.7696 89.8356C65.8466 86.8609 67.6444 83.1182 69.2704 79.7363C72.2675 73.4997 72.6639 72.5281 72.7367 70.7705C72.8327 68.4021 73.3863 69.1492 72.7855 66.7567C72.595 65.9987 72.3581 65.0573 72.4758 64.585C72.6012 64.0848 72.5888 62.9367 72.578 61.8264C72.5625 60.3096 72.53 60.0828 72.7653 60.051C72.8885 60.0348 73.0232 60.1121 73.0433 60.1849C73.1192 60.459 73.1958 60.8919 73.2663 61.4385C73.1509 62.3018 73.0085 63.3965 72.9419 63.9152C72.8792 64.3968 73.4235 64.4155 73.4831 63.9533C74.0196 59.8056 73.9902 60.356 74.0351 59.5051C74.0483 59.262 74.0638 58.9585 74.1094 58.9051C74.1304 58.895 74.1784 58.8734 74.2643 58.9229C74.526 59.0793 74.5755 59.4626 74.5887 59.5989C74.4091 61.231 74.1412 63.8356 74.1257 63.9881C74.1102 64.1367 74.2186 64.273 74.3673 64.2862C74.5097 64.2986 74.6491 64.1924 74.6646 64.0445C74.8496 62.2421 75.2151 58.7479 75.2739 58.4235C75.294 58.3166 75.6936 57.9892 75.7718 58.6659C75.9042 59.8141 75.6742 63.0907 75.5418 64.4975C75.5101 64.8381 76.018 64.9132 76.0784 64.571C76.92 59.8086 77.0168 58.5676 77.4844 58.6318C77.8754 58.9663 76.776 66.2032 76.6908 66.739C76.6529 66.9899 76.9494 67.1501 77.1391 66.982C79.1204 65.2346 79.6949 64.6431 80.0394 64.7298C80.0596 64.7345 80.1068 64.746 80.1471 64.8498C80.2237 65.048 79.7367 65.5846 79.2667 66.1041Z" fill="black"/>
<path d="M61.2028 142.325C60.6469 140.061 58.6772 129.016 58.2777 127.355C57.9107 125.828 58.2568 119.846 58.2715 119.593C59.2749 111.105 58.2715 109.043 55.365 105.702C52.8788 102.19 51.8321 100.009 50.3525 98.5569C48.8264 97.0564 48.3603 96.8713 46.787 97.1338C46.4278 97.1857 46.3488 96.6576 46.698 96.5988C48.5353 96.2961 49.1725 96.6375 50.7318 98.1697C52.2773 99.6865 53.3016 101.847 55.7908 105.369C58.7949 108.82 59.8394 110.952 58.8119 119.641C58.8096 119.687 58.4573 125.78 58.805 127.23C58.9683 127.912 61.4506 141.062 61.7293 142.198C61.8145 142.547 61.288 142.673 61.2028 142.326V142.325Z" fill="black"/>
<path d="M47.0967 125.316C46.1482 123.968 44.9149 123.729 44.0314 123.95C44.2869 122.297 43.2293 121.414 42.8058 119.969C42.2948 118.229 42.205 116.059 42.5309 113.338C42.8701 110.499 42.4845 107.497 41.4439 104.882C41.3115 104.552 40.8075 104.748 40.9406 105.084C41.9487 107.615 42.3227 110.523 41.9928 113.273C40.9925 121.632 44.0911 121.531 43.4376 124.156C42.4628 124.49 42.1818 124.285 41.8233 123.777C41.6173 123.486 41.1729 123.796 41.3804 124.09C41.9882 124.949 42.6339 125.066 43.9424 124.546C44.6462 124.266 45.7781 124.382 46.6538 125.627C47.3646 126.639 46.8714 128.842 46.5454 129.591L44.551 134.169C44.0934 135.218 43.2045 136.34 42.4357 136.834C40.4265 138.122 38.2873 136.287 36.3648 135.153C32.5996 132.934 31.7479 130.964 31.3825 126.796C31.3244 126.13 31.264 125.441 31.1572 124.734C30.5703 120.832 30.8568 116.776 30.4046 112.827C29.5405 105.272 30.5989 103.922 32.8807 101.812C33.4381 101.296 34.1086 100.491 34.8186 99.639C35.9126 98.3236 35.8879 98.0402 37.8382 98.2438C38.1858 98.2794 38.4862 98.3096 38.7147 98.2717C39.0693 98.2113 38.9733 97.6755 38.6225 97.7382C38.47 97.7653 38.1905 97.7351 37.8947 97.7049C35.7106 97.475 35.582 97.8768 34.4028 99.2921C33.7045 100.131 33.0456 100.922 32.5137 101.414C30.1615 103.589 28.9753 105.087 29.8681 112.888C30.3179 116.825 30.0291 120.862 30.623 124.813C31.0031 127.338 30.7863 129.654 32.0971 131.913C32.2288 135.319 32.3364 139.225 32.8203 142.356C32.8745 142.711 33.411 142.627 33.3553 142.273C32.9023 139.341 32.7878 135.79 32.6716 132.766C33.4195 133.733 34.5027 134.683 36.0899 135.619C37.2467 136.302 38.0759 136.981 39.3612 137.486C40.5171 137.94 41.7033 137.948 42.7299 137.288C43.5917 136.733 44.5455 135.539 45.0488 134.384L47.0433 129.805C47.3716 129.051 47.9941 126.588 47.0982 125.313L47.0967 125.316Z" fill="black"/>
<path d="M49.2123 78.0095C49.8131 78.862 50.599 80.3555 50.9636 81.2892C51.1866 81.8653 51.2671 82.0914 50.9752 82.6349C50.7043 83.1413 50.5339 83.2853 50.8885 84.178C51.8176 86.534 53.4985 87.3338 51.4204 87.9803C51.422 89.5041 51.0627 90.996 51.0496 92.9154C51.0496 92.9154 50.8599 93.843 49.8565 93.8662C48.8538 93.8894 45.5803 93.3521 45.5803 93.3521C45.5803 93.3521 45.8033 96.9973 48.2545 97.7762C46.099 99.9704 40.1218 99.639 36.688 98.8733C36.688 98.8733 38.5539 96.8401 37.6055 89.6635C36.657 82.4878 40.1559 73.604 49.2123 78.0095Z" fill="#E9E9E9"/>
<path d="M52.0044 86.2346C52.0679 86.2222 52.5348 86.3499 52.774 85.362C52.8406 85.0871 52.9947 84.7139 53.0713 84.3036C53.2997 83.0911 52.8228 82.8573 52.4202 82.7349C51.4996 82.4562 50.8996 82.7032 50.7114 83.6083C50.8678 84.4584 51.735 85.8002 52.0044 86.2346Z" fill="white"/>
<path d="M49.2832 88.4931C49.0873 88.1075 49.0517 87.773 49.1779 87.4997C49.387 87.0491 49.9189 86.9484 50.3796 86.8307C50.7318 86.7409 50.8666 87.2581 50.5251 87.3526C49.8221 87.55 49.4272 87.5802 49.7663 88.2484C49.9282 88.5658 49.4435 88.8113 49.2832 88.4931Z" fill="black"/>
<path d="M49.8536 83.253C49.8443 83.1175 49.7707 82.9944 49.6554 82.9216C48.8858 82.4346 46.7566 82.4323 46.0311 82.9309C45.9243 83.0045 45.8577 83.1237 45.8523 83.2538C45.8344 83.6502 45.8577 84.6784 46.0148 85.4039C46.1449 86.0024 46.4926 86.1293 47.1886 86.23C48.1324 86.3663 49.3681 86.405 49.65 85.6431C49.9318 84.8812 49.8838 83.6974 49.8528 83.2538L49.8536 83.253Z" fill="white"/>
<path d="M48.9833 84.4058C48.9477 84.3733 48.1471 83.6974 46.9796 84.4291C46.6722 84.618 46.3896 84.1588 46.6916 83.9692C47.9133 83.205 48.9617 83.6556 49.3457 84.0017C49.612 84.2409 49.2504 84.6389 48.9841 84.4051L48.9833 84.4058Z" fill="black"/>
<path d="M48.58 84.4701C48.6604 84.2472 48.5589 84.0064 48.3533 83.932C48.1478 83.8585 47.916 83.9785 47.8356 84.2015C47.7553 84.4245 47.8568 84.6653 48.0623 84.7396C48.2679 84.8131 48.4996 84.6931 48.58 84.4701Z" fill="black"/>
<path d="M52.4989 82.4763C51.7084 82.2355 51.0464 82.3803 50.729 82.8611C50.6717 82.947 50.5153 83.2118 50.4773 83.3992C50.4316 83.626 50.5114 83.4518 50.1421 83.5788C50.1289 83.2118 50.1374 82.9044 49.8006 82.6923C48.928 82.1402 46.6912 82.148 45.8783 82.707C45.7017 82.8278 45.591 83.0275 45.5817 83.2412C45.574 83.4054 45.5732 83.6872 45.5872 84.017L43.0724 84.2416C42.7309 84.2725 42.7526 84.782 43.0964 84.782L45.622 84.5575C45.7459 85.9681 45.9371 86.3228 47.1511 86.497C48.1592 86.641 49.5536 86.6851 49.9052 85.7359C50.0747 85.2798 50.1328 84.6922 50.1459 84.1804C50.2381 84.1254 50.3798 84.0604 50.5036 84.0658C50.6794 84.0859 50.3767 84.1363 51.7742 86.377C51.8439 86.4892 51.943 86.5241 52.0305 86.5039C52.5949 86.5574 52.9038 85.9759 53.037 85.4246C53.1044 85.1474 53.2546 84.7952 53.3374 84.3523C53.5937 82.9904 53.0238 82.6334 52.4989 82.4747V82.4763ZM49.3972 85.5485C49.1866 86.1176 48.1027 86.0882 47.2286 85.9612C46.5372 85.8613 46.3691 85.7521 46.2809 85.3464C46.126 84.6318 46.1082 83.6183 46.1237 83.2652C46.1415 82.8479 48.6323 82.5932 49.5118 83.1506C49.5536 83.177 49.5807 83.2227 49.5838 83.2714C49.6078 83.6222 49.6659 84.823 49.3972 85.5485ZM52.8055 84.254C52.7304 84.6535 52.5848 84.9926 52.5105 85.2992C52.4215 85.6693 52.2984 85.8861 52.1435 85.9465C51.7672 85.3472 51.4475 84.8447 51.1633 84.1363C51.2028 84.0472 51.1935 83.9412 51.1292 83.8591C51.0131 83.7097 51.0286 83.7979 50.9876 83.6106C51.1037 83.0469 51.4715 82.7302 52.3417 82.9958C52.6212 83.0802 53.0037 83.1963 52.8055 84.2547V84.254Z" fill="black"/>
<path d="M47.5522 89.9827C47.9401 90.2815 48.3342 90.5866 48.6145 90.9876C48.7399 91.1673 48.8576 91.3786 49.0651 91.4491C49.6218 91.6388 50.2087 91.0596 50.1777 90.7143C49.8928 90.561 48.9885 90.455 48.6757 90.3566C48.2994 90.2382 47.9301 90.0949 47.5522 89.9827Z" fill="white"/>
<path d="M49.2924 91.7579C48.8604 91.7579 48.6568 91.5318 48.4392 91.2128C48.1465 90.7839 47.8477 90.5531 47.3862 90.197C47.1508 90.0166 47.339 89.6387 47.6286 89.7224C48.0079 89.8362 48.3742 89.9786 48.7559 90.0986C49.0694 90.1977 49.9567 90.2876 50.3051 90.4765C50.7426 90.7126 50.1379 91.7571 49.2916 91.7571L49.2924 91.7579ZM48.6908 90.6429C48.9053 90.9 49.009 91.1447 49.1515 91.1934C49.4117 91.2786 49.7136 91.0928 49.8491 90.8845C49.5061 90.7908 49.0137 90.7235 48.6908 90.6429Z" fill="black"/>
<path d="M46.0989 81.6276C48.5261 80.0566 49.6643 81.3543 49.7123 81.4116C49.9407 81.6818 49.5358 82.0348 49.2996 81.7631C49.2601 81.7182 48.393 80.7875 46.3938 82.0828C46.0934 82.2764 45.7992 81.8227 46.0989 81.6276Z" fill="black"/>
<path d="M51.1397 84.0781C50.8354 83.3116 50.957 83.235 51.2132 82.7635C51.5717 82.1046 51.4432 81.7794 51.2156 81.1917C50.8524 80.2626 50.1355 78.9015 49.5594 78.039C50.1827 77.3778 49.8575 76.0306 48.6845 75.9926C48.6025 75.6078 48.3384 75.2439 47.9482 74.9954C46.9316 74.3497 45.8175 74.6477 44.7831 73.9409C44.1776 73.5274 43.3592 73.4647 42.6818 73.7899C42.4717 73.89 42.2755 73.8805 42.0933 73.7612C41.2022 73.1774 39.9796 73.2045 39.1078 73.8092C38.4149 73.4012 37.3913 73.642 36.9988 74.3806C36.8253 74.7074 36.744 75.1626 36.5125 75.2354C36.1494 75.3508 36.1417 75.1131 35.6787 75.7379C35.2985 76.2505 34.5297 75.7495 33.8383 77.2338C32.7226 79.6277 31.4861 84.1068 33.9304 85.7064C34.2881 85.941 34.2866 85.941 34.3516 86.2042C34.5568 87.0327 34.8641 87.3393 35.6098 88.0013C36.1107 88.4457 36.6689 88.9218 36.6294 89.5676C36.5822 90.3209 36.7889 90.8962 37.5283 91.0464C37.6669 92.5678 37.9046 96.8091 36.5118 98.7448C36.4545 98.8237 36.3778 99.1071 36.7185 99.176C40.455 99.9255 44.4277 100.339 47.8483 98.4908C48.0442 98.3855 48.2208 98.2624 48.3741 98.123C48.5034 98.0069 48.4894 97.7979 48.3446 97.6988C46.4082 96.3732 46.2124 95.6346 45.8817 93.6819C47.2684 93.9715 49.5997 94.7063 50.7998 93.7509C51.1219 93.4954 51.3031 93.1392 51.2992 92.7737C51.269 90.6043 51.6445 89.3934 51.6507 88.1871C51.8435 88.1197 52.034 88.0369 52.195 87.9308C53.4818 87.0861 51.972 86.1934 51.1381 84.0766L51.1397 84.0781ZM51.8992 87.4794C51.4757 87.7574 50.8269 87.8154 50.4413 87.9873C50.1177 88.1344 50.3329 88.6269 50.6643 88.4821C50.7951 88.4225 50.8912 88.4046 51.1064 88.3489C51.0352 89.8448 50.7278 90.4781 50.7588 92.783C50.7595 92.8752 50.734 93.1144 50.4653 93.3281C50.1401 93.5859 49.2699 93.939 47.0942 93.4032C43.8339 92.6003 42.8103 92.879 42.156 91.9538C41.9501 91.6604 41.5065 91.9739 41.714 92.2666C42.3875 93.2197 43.3399 93.1949 45.3189 93.5705C45.5945 95.5649 45.8717 96.5854 47.7345 97.9318C44.7831 99.8009 40.3133 99.2473 37.1807 98.7061C38.3878 96.597 38.2368 92.8667 38.0757 91.0665C38.6719 90.9922 39.3881 90.6368 39.6111 90.3356C39.9796 89.8386 39.697 89.2865 39.639 88.8382C40.7732 89.5893 41.7457 89.357 42.1731 88.7445C42.379 88.4503 41.9331 88.1406 41.7294 88.4348C41.4979 88.7647 40.9242 88.9714 40.0687 88.4689C39.0621 87.8766 38.2856 86.4868 38.4071 85.4958C38.5689 84.178 40.4953 84.1943 41.1216 85.615C41.1658 85.7157 41.2649 85.8001 41.3733 85.7768C43.3933 85.749 43.7835 84.7517 42.856 83.4835C42.6462 83.1978 42.5749 83.1018 42.784 82.7526C42.9698 82.4414 42.8629 82.0751 42.5083 81.7492C42.8691 81.3512 42.897 80.6583 42.5122 80.258C43.1742 80.1542 43.5691 79.5642 43.4723 79.0238C45.0819 79.2027 45.3963 80.3602 47.0067 78.9596C47.599 79.0261 48.5219 78.8465 48.9191 78.3734C48.9826 78.3618 49.043 78.3456 49.1019 78.3262C49.6531 79.15 50.3654 80.4995 50.7115 81.3861C50.9694 82.0542 50.9577 82.1069 50.6604 82.6442C50.4986 82.9369 50.3561 83.1885 50.4444 83.6569C50.6031 84.5249 51.3789 85.7435 51.7738 86.3769C52.2802 87.1883 52.2267 87.2649 51.8992 87.4794Z" fill="black"/>
<path d="M45.2134 127.723C45.2134 127.723 53.3423 132.019 56.5237 133.858C59.7051 135.696 62.6031 136.208 64.2306 136.192C67.8695 136.154 68.2961 135.276 69.1556 135.958C70.2635 136.837 70.2953 136.761 71.0726 137.468C71.3947 137.76 71.5255 138.445 71.891 139.08C72.409 139.981 73.3071 140.814 73.7213 141.104C73.7213 141.104 74.0674 141.495 73.8437 141.917C73.6199 142.34 72.4252 142.216 71.7036 141.743C71.7036 141.743 71.1268 143.106 69.3352 141.714C67.5436 140.321 66.6687 139.591 66.6687 139.591C66.6687 139.591 64.4636 140.275 63.6421 140.201C62.8206 140.126 60.4824 139.28 60.4824 139.28L48.8137 137.837C48.8137 137.837 44.9819 137.439 40.3418 135.349C41.9073 132.474 43.4489 129.127 45.2134 127.723Z" fill="#E9E9E9"/>
<path d="M73.7635 140.88C73.7032 140.801 72.7175 140.158 71.8426 138.245C71.4996 137.497 71.464 137.337 70.2717 136.466C68.8927 135.461 69.0313 135.258 67.5897 135.558C64.0544 136.295 60.7592 135.992 56.6596 133.623C53.8699 132.011 47.2083 128.473 45.6636 127.655C45.8154 127.552 45.9091 127.505 45.9091 127.505C46.2319 127.347 45.995 126.862 45.6745 127.017C45.6172 127.044 44.2522 127.714 43.0955 129.849C42.3979 131.136 40.2756 135.056 39.6849 135.449C39.4658 135.594 39.5633 135.945 39.8351 135.945C39.9969 135.945 40.1657 135.753 40.2911 135.606C45.9935 137.962 48.3728 138.104 53.8854 138.687C59.9943 139.33 60.2606 139.398 61.645 139.991C63.2314 140.671 63.7842 140.527 65.6742 140.081C66.9896 139.77 66.8588 139.829 67.424 140.346C68.2184 141.072 69.7707 142.554 70.9058 142.554C71.2619 142.554 71.6661 142.303 71.7335 141.933C72.2429 142.176 72.8693 142.47 73.2657 142.47C74.2777 142.47 74.8746 141.349 73.7635 140.88ZM73.8154 141.627C73.7736 141.779 73.5142 141.966 73.1449 141.92C72.8639 141.882 71.8597 141.402 71.2774 141.102C70.5396 140.557 69.3511 139.456 68.9082 138.835C68.6999 138.542 68.2586 138.857 68.4677 139.149C68.9903 139.881 70.2786 141.041 70.9732 141.551C71.1528 141.683 71.2155 141.794 71.1985 141.847C71.1729 141.926 71.0204 142.013 70.9073 142.013C69.9821 142.013 68.4305 140.53 67.7925 139.947C67.1112 139.325 67.1003 139.188 65.5518 139.555C63.6735 139.995 63.2647 140.097 61.861 139.494C60.503 138.912 60.3853 138.828 53.9443 138.15C48.6445 137.59 46.3318 137.488 40.6341 135.161C41.2411 134.301 42.1702 132.698 43.5724 130.108C44.1291 129.082 44.7376 128.42 45.1945 128.02C46.1661 128.535 53.4449 132.393 56.3886 134.093C60.256 136.329 63.3677 136.495 64.2341 136.463C67.7445 136.427 68.2935 135.619 68.988 136.171C70.0626 137.024 70.1493 136.995 70.8919 137.67C71.1466 137.902 71.3866 138.639 71.7304 139.234C71.9386 139.596 72.1756 139.949 72.4171 140.262C71.7211 139.862 71.0653 139.258 70.0859 137.846C69.8815 137.551 69.4355 137.861 69.6407 138.154C71.1791 140.372 71.9193 140.681 73.6404 141.415C73.7806 141.475 73.8402 141.547 73.8177 141.628L73.8154 141.627Z" fill="black"/>
<path d="M119.209 139.882L124.71 113.826H146.892L141.024 142.329H105.88V139.882H119.209Z" fill="white"/>
<path d="M105.609 139.882V142.329C105.609 142.479 105.731 142.6 105.88 142.6H141.024C141.158 142.6 141.272 142.503 141.292 142.369L147.157 113.882C147.26 113.398 147.949 113.556 124.71 113.556C124.582 113.556 124.472 113.645 124.445 113.77L118.99 139.612H105.88C105.731 139.612 105.609 139.732 105.609 139.882ZM146.558 114.097L141.172 139.612H119.543L124.929 114.097H146.558ZM140.791 142.058H119.157L119.443 140.153H141.077L140.791 142.058H140.791ZM106.151 140.153H118.895L118.609 142.058H106.151V140.153Z" fill="black"/>
<path d="M37.1904 139.882L31.6901 113.825H9.50781L15.3759 142.329L50.5199 142.328V139.882H37.1904Z" fill="white"/>
<path d="M50.5197 139.612H37.4101L31.9547 113.77C31.9284 113.645 31.8177 113.556 31.69 113.556H9.50765C9.33344 113.556 9.20724 113.715 9.24286 113.882L15.1078 142.369C15.1279 142.503 15.2418 142.6 15.3757 142.6H50.5197C50.6692 142.6 50.7907 142.479 50.7907 142.329V139.883C50.7907 139.733 50.6692 139.612 50.5197 139.612ZM31.4701 114.097L36.8565 139.612H15.2278L9.84135 114.097H31.4701ZM15.3223 140.153H36.9564L37.2421 142.058H15.608L15.3223 140.153ZM50.248 142.058H37.7903L37.5046 140.153H50.248V142.058Z" fill="black"/>
<path d="M151.754 142.599H4.6463C4.28782 142.599 4.28782 142.058 4.6463 142.058H151.754C152.113 142.058 152.113 142.599 151.754 142.599Z" fill="black"/>
</svg>
