<svg width="156" height="155" viewBox="0 0 156 155" fill="none" xmlns="http://www.w3.org/2000/svg">
<path d="M97.1865 25.0936L113.965 17.8636L108.753 50.3272L139.307 62.4791L112.664 81.7502L125.677 111.947L112.171 109.78" stroke="black" stroke-width="0.679185" stroke-linecap="round" stroke-linejoin="round"/>
<path d="M54.688 28.8967L64.4978 4.2345L82.8994 29.6725" stroke="black" stroke-width="0.679185" stroke-linecap="round" stroke-linejoin="round"/>
<path d="M48.837 116.228L41.3423 119.458L31.5945 123.659L36.8036 91.1952L6.25244 79.0434L32.8921 59.7723L19.8824 29.5757L36.3182 32.2151" stroke="black" stroke-width="0.679185" stroke-linecap="round" stroke-linejoin="round"/>
<path d="M123.93 39.9839L121.685 40.7318L121.286 43.0631L119.88 41.1615L117.541 41.5022L118.914 39.579L117.868 37.4567L120.124 38.1706L121.817 36.5176L121.835 38.8837L123.93 39.9839Z" fill="black"/>
<path d="M95.9392 33.9912C96.034 33.7781 96.1527 33.5765 96.2931 33.3903C97.3337 32.054 100.636 32.3172 100.636 36.845C100.636 41.3729 101.006 44.49 101.081 45.8264C101.156 47.1627 101.004 52.5809 101.081 55.177C101.158 57.7731 102.194 65.4025 101.971 68.2975L102.103 68.4345C102.589 67.9622 103.032 67.517 103.407 67.1601C104.898 65.744 104.303 64.18 108.549 62.7631C112.796 61.3462 115.926 63.0612 115.926 64.18C115.926 65.2988 112.037 67.085 111.513 68.2789C110.988 69.4728 108.683 71.7793 107.862 72.9732C107.041 74.1671 107.397 79.9608 104.27 82.3455C102.776 83.4828 101.129 85.5911 99.315 87.6003C99.4032 87.91 105.211 107.639 107.016 112.368L107.088 112.569C99.4675 115.399 89.132 125.311 85.5379 126.709L85.524 126.384C85.3366 125.756 84.8109 123.951 84.135 121.612C82.1761 114.831 78.9413 103.572 78.9413 103.572C78.9707 102.678 78.9901 101.981 78.9901 101.565C78.9901 98.6233 80.3497 98.0566 80.8003 91.6001C81.2509 85.1436 77.9704 71.2125 74.4592 66.5693C74.4592 66.5693 74.2873 66.001 73.9946 65.0781C73.9946 65.0781 74.7402 60.7648 75.2017 58.7873C75.6631 56.8099 76.1246 50.7506 77.3773 48.5781C78.4744 46.7043 79.1483 44.6132 79.3517 42.4514C79.4183 40.9354 81.1247 35.2973 81.6667 34.1785C81.8662 33.7464 82.2198 33.4043 82.6583 33.2193C83.0969 33.0342 83.5887 33.0196 84.0374 33.1782L84.2875 33.2231C84.501 31.8495 84.7884 30.4885 85.1485 29.1459C85.8778 26.93 87.3853 25.136 90.0867 25.8522L90.1966 25.8677C90.4054 25.33 90.7171 24.8383 91.1141 24.4199C93.0079 22.598 95.1944 23.7625 95.7039 27.115C96.0114 29.3935 96.0903 31.697 95.9392 33.9912Z" fill="#FFD997"/>
<path d="M103.579 13.6687L99.4343 14.0388L97.803 17.8636L96.1724 14.0388L92.0278 13.6687L95.1636 10.9348L94.2352 6.88159L97.803 9.01698L101.371 6.88159L100.443 10.9348L103.579 13.6687Z" fill="#D142A7"/>
<path d="M85.528 126.384L85.5419 126.709C85.3651 126.782 85.1804 126.834 84.9914 126.863C84.5715 126.959 84.1356 126.961 83.7148 126.869C83.294 126.777 82.8985 126.594 82.5564 126.332C81.4802 125.34 81.985 123.242 84.0794 121.63L84.139 121.613C84.8149 123.951 85.3406 125.759 85.528 126.384Z" fill="black"/>
<path d="M59.7308 41.2979C60.2253 41.1418 60.7487 41.0993 61.2619 41.1737C61.7751 41.2481 62.2648 41.4375 62.6946 41.7276C65.0638 43.0818 66.8423 48.246 69.0435 52.0554C70.7383 54.9867 73.0348 61.9991 74.0033 65.076C74.2929 65.9989 74.4679 66.5672 74.4679 66.5672C77.9791 71.2127 81.2627 85.1407 80.809 91.5979C80.3553 98.0552 78.998 98.6204 78.998 101.563C78.998 101.979 78.9795 102.676 78.95 103.569C78.7596 108.954 78.0984 121.408 78.0867 121.626L53.6978 113.664L54.6687 99.4442C54.6687 99.4442 45.9778 90.9669 43.885 88.3515C41.7922 85.7361 35.6446 81.0983 34.0729 79.3199C32.7215 77.5869 31.4668 75.7807 30.3147 73.9094C29.5853 72.9137 25.2046 70.0521 25.073 68.9898C24.9414 67.9275 25.4059 66.4007 29.5853 66.0709C33.7647 65.741 37.0367 71.5859 38.1632 72.117C39.2898 72.6481 42.1251 74.5636 44.0514 74.631L44.3758 74.6171C44.2527 71.6563 43.9949 65.4592 43.9577 63.6622C43.9066 61.2744 43.0588 59.0399 43.0588 55.4992C43.0588 51.9586 40.5565 44.3082 40.4814 42.1968C40.4063 40.0854 38.1586 36.6222 38.0812 34.0021C38.0442 33.6025 38.1105 33.2001 38.2737 32.8334C38.4369 32.4667 38.6915 32.1481 39.0131 31.9081C39.3348 31.668 39.7127 31.5146 40.1106 31.4625C40.5085 31.4104 40.9132 31.4613 41.2858 31.6105L41.3586 31.5865C40.8809 30.0813 40.8058 28.6544 41.9966 27.8654C44.2659 26.3603 46.9518 27.2917 49.0275 31.5617L49.1297 31.6105C49.9853 30.693 51.6646 30.7542 52.7563 31.1862C55.7047 32.3561 56.5386 35.7543 57.5126 37.2083C58.3264 38.5298 59.0669 39.8951 59.7308 41.2979Z" fill="#FFD997"/>
<path d="M79.7129 122.159L76.1722 136.467C76.1722 136.467 78.8047 141.69 79.7129 151.342H37.9312C37.9312 151.342 37.8398 133.699 48.9666 128.361L51.8987 113.076L53.6957 113.664L78.0846 121.626L79.7129 122.159Z" fill="#D142A7"/>
<path d="M32.0821 46.644L26.2156 47.495L24.1956 53.0665L21.5748 47.7497L15.6494 47.5484L19.8954 43.4146L18.2563 37.7169L23.5011 40.4771L28.4129 37.1587L27.4064 42.9989L32.0821 46.644Z" fill="black"/>
<path d="M78.0823 121.628L79.7129 122.159L76.1722 136.467C76.1722 136.467 78.8047 141.69 79.7129 151.342H37.9312C37.9312 151.342 37.8398 133.699 48.9666 128.361L51.8987 113.076L53.6957 113.664L78.0846 121.626" stroke="black" stroke-width="0.679185" stroke-linecap="round" stroke-linejoin="round"/>
<path d="M58.9372 115.648L55.793 126.862" stroke="black" stroke-width="0.679185" stroke-linecap="round" stroke-linejoin="round"/>
<path d="M66.0107 117.958L62.5498 129.469" stroke="black" stroke-width="0.679185" stroke-linecap="round" stroke-linejoin="round"/>
<path d="M73.4248 120.381L70.5005 131.13" stroke="black" stroke-width="0.679185" stroke-linecap="round" stroke-linejoin="round"/>
<path d="M53.6924 113.664L54.6633 99.4441C54.6633 99.4441 45.9778 90.9669 43.8857 88.3514C41.7937 85.736 35.6446 81.0983 34.0729 79.3198C32.7215 77.5869 31.4668 75.7806 30.3147 73.9093C29.5853 72.9136 25.2046 70.052 25.073 68.9897C24.9414 67.9275 25.4059 66.4006 29.5853 66.0708C33.7647 65.741 37.0367 71.5858 38.1632 72.1169C39.2898 72.6481 42.1251 74.5636 44.0514 74.6309" stroke="black" stroke-width="0.679185" stroke-linecap="round" stroke-linejoin="round"/>
<path d="M59.7307 41.3009C59.545 41.372 59.3758 41.4803 59.2335 41.6191C59.0912 41.758 58.9787 41.9245 58.9031 42.1084C58.8275 42.2922 58.7902 42.4896 58.7937 42.6884C58.7971 42.8872 58.8412 43.0832 58.9231 43.2644C59.5534 45.0452 61.0182 48.3961 61.0182 49.1789C61.24 51.4642 61.8971 53.686 62.9539 55.7244C64.3166 58.1873 64.0022 61.5375 64.9437 64.5741" stroke="black" stroke-width="0.679185" stroke-linecap="round" stroke-linejoin="round"/>
<path d="M78.082 121.628C78.0921 121.41 78.7549 108.956 78.9453 103.572C78.9747 102.678 78.9941 101.981 78.9941 101.566C78.9941 98.6234 80.3537 98.0567 80.8043 91.6002C81.2549 85.1437 77.9744 71.2126 74.4632 66.5694C74.4632 66.5694 74.2913 66.0011 73.9986 65.0782C73.03 62.0014 70.7336 54.989 69.0388 52.0576C66.8391 48.2483 65.0607 43.0841 62.6899 41.7299C62.2601 41.4398 61.7703 41.2504 61.2571 41.176C60.7439 41.1016 60.2206 41.1441 59.7261 41.3002" stroke="black" stroke-width="0.679185" stroke-linecap="round" stroke-linejoin="round"/>
<path d="M43.9098 82.6087C42.6757 80.5268 44.4518 76.2157 44.4518 76.2157L44.3821 74.6169C44.259 71.6562 44.0012 65.4591 43.964 63.662C43.9129 61.2742 43.0651 59.0397 43.0651 55.4991C43.0651 51.9584 40.5565 44.3081 40.4814 42.1967C40.4063 40.0853 38.1587 36.6221 38.0812 34.002C38.0443 33.6024 38.1106 33.1999 38.2738 32.8333C38.4369 32.4666 38.6915 32.148 39.0132 31.9079C39.3348 31.6679 39.7127 31.5144 40.1107 31.4623C40.5086 31.4102 40.9133 31.4612 41.2859 31.6103" stroke="black" stroke-width="0.679185" stroke-linecap="round" stroke-linejoin="round"/>
<path d="M47.7884 64.2737C47.8395 62.6891 48.1681 61.1257 48.7593 59.6545C48.7593 59.6545 47.8682 52.6019 47.2999 49.2796C46.7316 45.9572 43.9791 37.6913 43.0051 35.4205C42.5467 34.3474 41.7903 32.9312 41.3583 31.5794C40.8805 30.0743 40.8054 28.6473 41.9962 27.8583C44.2656 26.3532 46.9515 27.2846 49.0272 31.5546" stroke="black" stroke-width="0.679185" stroke-linecap="round" stroke-linejoin="round"/>
<path d="M59.7309 41.301C59.0671 39.8968 58.3266 38.5302 57.5126 37.2075C56.5386 35.7511 55.7048 32.3553 52.7564 31.1854C51.6647 30.7533 49.9854 30.6922 49.1298 31.6096C48.4082 32.3839 48.2712 33.8496 49.5696 36.379C52.4095 41.908 52.7293 44.257 53.7033 46.0378C54.6773 47.8186 55.7288 55.1159 56.3776 58.1161C57.0264 61.1164 56.5386 62.4914 57.0272 63.8704" stroke="black" stroke-width="0.679185" stroke-linecap="round" stroke-linejoin="round"/>
<path d="M74.0015 65.0759C74.0015 65.0759 74.7471 60.7625 75.2085 58.7851C75.67 56.8077 76.1314 50.7484 77.3842 48.5758C78.4813 46.702 79.1551 44.6109 79.3585 42.4492C79.4251 40.9332 81.1315 35.2951 81.6735 34.1763C81.873 33.7441 82.2267 33.4021 82.6652 33.217C83.1037 33.032 83.5955 33.0173 84.0443 33.176" stroke="black" stroke-width="0.679185" stroke-linecap="round" stroke-linejoin="round"/>
<path d="M79.6245 57.0058C80.0891 56.7434 81.7971 56.2176 81.7971 55.6896C81.7971 55.1616 81.3325 50.2846 81.7971 47.5538C82.2616 44.823 83.0498 40.2092 83.3773 38.5616C83.5593 37.6472 83.9193 35.3593 84.2948 33.2193C84.5082 31.8457 84.7956 30.4846 85.1558 29.1421C85.8851 26.9262 87.3926 25.1322 90.0939 25.8484" stroke="black" stroke-width="0.679185" stroke-linecap="round" stroke-linejoin="round"/>
<path d="M86.8239 54.2867C86.8239 54.2867 86.5313 45.0351 86.8239 42.9958C87.1166 40.9564 88.645 36.7297 88.7177 34.6888C88.7766 33.0304 89.077 28.4894 90.2035 25.8623C90.4123 25.3247 90.724 24.8329 91.121 24.4145C93.0148 22.5927 95.2013 23.7571 95.7108 27.1097C96.0175 29.389 96.0953 31.6933 95.9431 33.9881" stroke="black" stroke-width="0.679185" stroke-linecap="round" stroke-linejoin="round"/>
<path d="M87.9873 54.1844C89.2814 54.1576 90.5752 54.2475 91.8531 54.4531" stroke="black" stroke-width="0.679185" stroke-linecap="round" stroke-linejoin="round"/>
<path d="M95.9394 57.7027C95.9394 57.7027 94.5458 55.476 93.7344 55.253C93.7344 55.253 94.1796 49.875 94.4018 47.5546C94.624 45.2342 94.6031 44.0705 94.8369 41.1283C95.0405 38.5586 95.207 35.5971 95.9394 33.9982C96.0342 33.7852 96.1529 33.5836 96.2933 33.3974C97.3339 32.0611 100.636 32.3243 100.636 36.8521C100.636 41.3799 101.006 44.4971 101.081 45.8334C101.156 47.1698 101.004 52.588 101.081 55.1841C101.159 57.7801 102.195 65.4096 101.972 68.3045" stroke="black" stroke-width="0.679185" stroke-linecap="round" stroke-linejoin="round"/>
<path d="M86.2443 76.8522C83.0629 79.2632 81.7482 84.5266 82.1857 87.598" stroke="black" stroke-width="0.679185" stroke-linecap="round" stroke-linejoin="round"/>
<path d="M93.2752 76.8522C93.3479 75.8031 95.3594 72.5249 97.3717 71.9295C97.7512 71.8105 98.1152 71.6465 98.4557 71.441C99.7821 70.5821 101.005 69.5733 102.101 68.4346C102.586 67.9623 103.03 67.5171 103.405 67.1601C104.896 65.744 104.301 64.1801 108.547 62.7632C112.794 61.3463 115.924 63.0613 115.924 64.18C115.924 65.2988 112.035 67.085 111.51 68.2789C110.986 69.4728 108.68 71.7793 107.86 72.9732C107.039 74.1671 107.395 79.9608 104.268 82.3455C102.774 83.4829 101.127 85.5912 99.3128 87.6004C97.3276 89.7946 95.1465 91.8711 92.7464 92.4348C89.8172 93.0927 86.7474 92.6069 84.1646 91.0768" stroke="black" stroke-width="0.679185" stroke-linecap="round" stroke-linejoin="round"/>
<path d="M78.9453 103.569C78.9453 103.569 82.1801 114.831 84.139 121.609C84.8149 123.948 85.3406 125.754 85.528 126.382" stroke="black" stroke-width="0.679185" stroke-linecap="round" stroke-linejoin="round"/>
<path d="M99.3159 87.598C99.4042 87.9077 105.212 107.636 107.017 112.366" stroke="black" stroke-width="0.679185" stroke-linecap="round" stroke-linejoin="round"/>
<path d="M82.5053 126.384L93.7319 151.342H130.586L112.159 112.025C110.74 111.598 108.999 111.861 107.089 112.567C99.4676 115.397 89.1321 125.309 85.538 126.706C85.3614 126.78 85.1765 126.832 84.9875 126.861C84.5676 126.957 84.1316 126.959 83.7108 126.867C83.2899 126.775 82.8944 126.592 82.5525 126.33C81.4763 125.338 81.9811 123.24 84.0755 121.628" fill="black"/>
<path d="M82.5053 126.384L93.7319 151.342H130.586L112.159 112.025C110.74 111.598 108.999 111.861 107.089 112.567C99.4676 115.397 89.1321 125.309 85.538 126.706C85.3614 126.78 85.1765 126.832 84.9875 126.861C84.5676 126.957 84.1316 126.959 83.7108 126.867C83.2899 126.775 82.8944 126.592 82.5525 126.33C81.4763 125.338 81.9811 123.24 84.0755 121.628" stroke="black" stroke-width="0.679185" stroke-linecap="round" stroke-linejoin="round"/>
<path d="M32.0821 46.644L26.2156 47.495L24.1956 53.0665L21.5748 47.7497L15.6494 47.5484L19.8954 43.4146L18.2563 37.7169L23.5011 40.4771L28.4129 37.1587L27.4064 42.9989L32.0821 46.644Z" stroke="black" stroke-width="0.679185" stroke-linecap="round" stroke-linejoin="round"/>
<path d="M97.803 17.8636L96.1724 14.0388L92.0278 13.6687L95.1636 10.9348L94.2352 6.88159L97.803 9.01698L101.371 6.88159L100.443 10.9348L103.579 13.6687L99.4343 14.0388L97.803 17.8636Z" stroke="black" stroke-width="0.679185" stroke-linecap="round" stroke-linejoin="round"/>
<path d="M43.6595 15.1282L43.6703 12.3889L41.2593 11.085L43.8693 10.2481L44.3625 7.55212L45.9667 9.77655L48.6813 9.4142L47.0638 11.6247L48.2469 14.0953L45.6446 13.239L43.6595 15.1282Z" fill="#D142A7" stroke="black" stroke-width="0.679185" stroke-linecap="round" stroke-linejoin="round"/>
<path d="M117.541 41.5022L118.914 39.579L117.868 37.4567L120.124 38.1706L121.817 36.5176L121.835 38.8837L123.93 39.9839L121.685 40.7318L121.286 43.0631L119.88 41.1615L117.541 41.5022Z" stroke="black" stroke-width="0.679185" stroke-linecap="round" stroke-linejoin="round"/>
<path d="M39.5962 33.1589C41.4761 32.6417 41.9724 35.2378 42.5492 36.7204L40.2264 37.4606" stroke="black" stroke-width="0.679185" stroke-linecap="round" stroke-linejoin="round"/>
<path d="M60.291 42.7116C61.9464 42.004 62.7245 44.319 63.4352 45.6011L61.67 46.0324" stroke="black" stroke-width="0.679185" stroke-linecap="round" stroke-linejoin="round"/>
<path d="M50.3257 32.8104C52.0399 31.8813 53.113 34.3024 54.0034 35.6163L51.3709 36.5927" stroke="black" stroke-width="0.679185" stroke-linecap="round" stroke-linejoin="round"/>
<path d="M43.2871 29.0631C46.4011 28.0465 46.4685 31.9495 47.0453 33.4307L44.1806 34.4372" stroke="black" stroke-width="0.679185" stroke-linecap="round" stroke-linejoin="round"/>
<path d="M26.3037 69.1345C27.5673 68.2279 28.8092 69.5689 30.542 71.3505L30.0108 72.0264" stroke="black" stroke-width="0.679185" stroke-linecap="round" stroke-linejoin="round"/>
<path d="M114.612 64.5393C112.568 64.5393 110.521 66.8946 110.521 66.8946L111.085 67.2515" stroke="black" stroke-width="0.679185" stroke-linecap="round" stroke-linejoin="round"/>
<path d="M93.9619 72.3778C95.4114 71.8636 96.9238 71.5485 98.458 71.4409" stroke="black" stroke-width="0.679185" stroke-linecap="round" stroke-linejoin="round"/>
</svg>
