<svg width="156" height="156" viewBox="0 0 156 156" fill="none" xmlns="http://www.w3.org/2000/svg">
<path d="M23.0728 14.8713H128.712V98.7584H23.0728V14.8713Z" fill="white"/>
<path d="M29.5312 29.8036C29.5313 30.2825 29.7215 30.7417 30.0601 31.0803C30.3987 31.4189 30.8579 31.6092 31.3368 31.6092C31.8157 31.6092 32.2749 31.4189 32.6135 31.0803C32.9521 30.7417 33.1424 30.2825 33.1424 29.8036C33.1424 29.3247 32.9521 28.8655 32.6135 28.5269C32.2749 28.1883 31.8157 27.998 31.3368 27.998C30.8579 27.998 30.3987 28.1883 30.0601 28.5269C29.7215 28.8655 29.5312 29.3247 29.5312 29.8036Z" fill="#FFD997"/>
<path d="M29.5312 38.7446C29.5313 39.2235 29.7215 39.6828 30.0601 40.0214C30.3987 40.36 30.8579 40.5502 31.3368 40.5502C31.8157 40.5502 32.2749 40.36 32.6135 40.0214C32.9521 39.6828 33.1424 39.2235 33.1424 38.7446C33.1424 38.2658 32.9521 37.8065 32.6135 37.4679C32.2749 37.1293 31.8157 36.9391 31.3368 36.9391C30.8579 36.9391 30.3987 37.1293 30.0601 37.4679C29.7215 37.8065 29.5312 38.2658 29.5312 38.7446Z" fill="#FFD997"/>
<path d="M29.5312 47.6865C29.5313 48.1653 29.7215 48.6246 30.0601 48.9632C30.3987 49.3018 30.8579 49.492 31.3368 49.492C31.8157 49.492 32.2749 49.3018 32.6135 48.9632C32.9521 48.6246 33.1424 48.1653 33.1424 47.6865C33.1424 47.2076 32.9521 46.7484 32.6135 46.4098C32.2749 46.0711 31.8157 45.8809 31.3368 45.8809C30.8579 45.8809 30.3987 46.0711 30.0601 46.4098C29.7215 46.7484 29.5312 47.2076 29.5312 47.6865Z" fill="#FFD997"/>
<path fill-rule="evenodd" clip-rule="evenodd" d="M105.34 46.2928C104.089 48.645 102.19 50.5894 99.8681 51.8954C97.5459 53.2015 94.898 53.8146 92.2382 53.662C89.5783 53.5095 87.0179 52.5977 84.8602 51.0347C82.7026 49.4717 81.0382 47.323 80.0643 44.8432C79.0903 42.3633 78.8475 39.6563 79.3648 37.0427C79.882 34.4291 81.1376 32.0186 82.9827 30.0967C84.8278 28.1747 87.1852 26.822 89.7755 26.1986C92.3658 25.5753 95.0805 25.7075 97.598 26.5796C96.6031 29.4977 93.0299 39.7504 93.0299 39.7504L105.34 46.2928Z" fill="#D142A7"/>
<path d="M128.759 14.4246H23.1186C23.0159 14.4246 22.9174 14.4654 22.8448 14.538C22.7722 14.6106 22.7314 14.7091 22.7314 14.8117V98.6988C22.7314 98.8015 22.7722 98.8999 22.8448 98.9725C22.9174 99.0451 23.0159 99.0859 23.1186 99.0859H128.759C128.862 99.0859 128.96 99.0451 129.033 98.9725C129.105 98.8999 129.146 98.8015 129.146 98.6988V14.8117C129.146 14.7091 129.105 14.6106 129.033 14.538C128.96 14.4654 128.862 14.4246 128.759 14.4246ZM128.372 98.3117H23.5057V15.1989H128.372V98.3117Z" fill="black"/>
<path d="M31.3372 31.9955C31.7709 31.9955 32.1948 31.8669 32.5554 31.6259C32.916 31.385 33.197 31.0426 33.363 30.6419C33.5289 30.2412 33.5724 29.8004 33.4878 29.375C33.4032 28.9497 33.1943 28.559 32.8877 28.2523C32.581 27.9457 32.1903 27.7368 31.765 27.6522C31.3396 27.5676 30.8988 27.6111 30.4981 27.777C30.0974 27.943 29.755 28.224 29.5141 28.5846C29.2731 28.9452 29.1445 29.3691 29.1445 29.8028C29.1451 30.3841 29.3764 30.9415 29.7874 31.3526C30.1985 31.7636 30.7559 31.9949 31.3372 31.9955ZM31.3372 28.3844C31.6178 28.3844 31.892 28.4676 32.1252 28.6234C32.3585 28.7793 32.5403 29.0008 32.6477 29.26C32.755 29.5192 32.7831 29.8044 32.7284 30.0795C32.6737 30.3547 32.5386 30.6074 32.3402 30.8058C32.1418 31.0041 31.8891 31.1392 31.6139 31.194C31.3388 31.2487 31.0536 31.2206 30.7944 31.1132C30.5352 31.0059 30.3137 30.8241 30.1578 30.5908C30.002 30.3576 29.9188 30.0833 29.9188 29.8028C29.9192 29.4267 30.0688 29.0662 30.3347 28.8003C30.6006 28.5343 30.9611 28.3848 31.3372 28.3844Z" fill="black"/>
<path d="M31.3372 40.9373C31.7709 40.9373 32.1948 40.8087 32.5554 40.5678C32.916 40.3268 33.197 39.9844 33.363 39.5837C33.5289 39.1831 33.5724 38.7422 33.4878 38.3169C33.4032 37.8915 33.1943 37.5008 32.8877 37.1942C32.581 36.8875 32.1903 36.6787 31.765 36.5941C31.3396 36.5095 30.8988 36.5529 30.4981 36.7189C30.0974 36.8848 29.755 37.1659 29.5141 37.5264C29.2731 37.887 29.1445 38.311 29.1445 38.7446C29.1451 39.326 29.3764 39.8833 29.7874 40.2944C30.1985 40.7055 30.7559 40.9367 31.3372 40.9373ZM31.3372 37.3262C31.6178 37.3262 31.892 37.4094 32.1252 37.5652C32.3585 37.7211 32.5403 37.9426 32.6477 38.2018C32.755 38.461 32.7831 38.7462 32.7284 39.0213C32.6737 39.2965 32.5386 39.5492 32.3402 39.7476C32.1418 39.946 31.8891 40.0811 31.6139 40.1358C31.3388 40.1905 31.0536 40.1624 30.7944 40.0551C30.5352 39.9477 30.3137 39.7659 30.1578 39.5327C30.002 39.2994 29.9188 39.0252 29.9188 38.7446C29.9192 38.3686 30.0688 38.008 30.3347 37.7421C30.6006 37.4762 30.9611 37.3266 31.3372 37.3262Z" fill="black"/>
<path d="M31.3372 49.8791C31.7709 49.8791 32.1948 49.7505 32.5554 49.5096C32.916 49.2687 33.197 48.9262 33.363 48.5256C33.5289 48.1249 33.5724 47.684 33.4878 47.2587C33.4032 46.8333 33.1943 46.4426 32.8877 46.136C32.581 45.8293 32.1903 45.6205 31.765 45.5359C31.3396 45.4513 30.8988 45.4947 30.4981 45.6607C30.0974 45.8266 29.755 46.1077 29.5141 46.4683C29.2731 46.8289 29.1445 47.2528 29.1445 47.6865C29.1451 48.2678 29.3764 48.8252 29.7874 49.2362C30.1985 49.6473 30.7559 49.8785 31.3372 49.8791ZM31.3372 46.268C31.6178 46.268 31.892 46.3512 32.1252 46.5071C32.3585 46.6629 32.5403 46.8845 32.6477 47.1436C32.755 47.4028 32.7831 47.688 32.7284 47.9632C32.6737 48.2383 32.5386 48.4911 32.3402 48.6894C32.1418 48.8878 31.8891 49.0229 31.6139 49.0776C31.3388 49.1324 31.0536 49.1043 30.7944 48.9969C30.5352 48.8896 30.3137 48.7078 30.1578 48.4745C30.002 48.2412 29.9188 47.967 29.9188 47.6865C29.9192 47.3104 30.0688 46.9498 30.3347 46.6839C30.6006 46.418 30.9611 46.2684 31.3372 46.268Z" fill="black"/>
<path d="M37.539 29.9569H66.5533C66.6591 29.9496 66.7581 29.9021 66.83 29.8243C66.902 29.7464 66.9415 29.644 66.9404 29.538C66.9397 29.4888 66.929 29.4403 66.9088 29.3954C66.8887 29.3505 66.8597 29.3102 66.8234 29.2769C66.7872 29.2437 66.7445 29.2181 66.6981 29.2019C66.6516 29.1857 66.6024 29.1791 66.5533 29.1826H37.539C37.4332 29.1894 37.334 29.2365 37.2619 29.3143C37.1899 29.3921 37.1505 29.4947 37.1519 29.6007C37.1526 29.6499 37.1634 29.6985 37.1835 29.7434C37.2036 29.7883 37.2326 29.8287 37.2689 29.862C37.3051 29.8954 37.3477 29.9209 37.3942 29.9373C37.4406 29.9536 37.4899 29.9602 37.539 29.9569Z" fill="black"/>
<path d="M37.539 39.1008H66.5533C66.6591 39.0939 66.7582 39.0466 66.8302 38.9689C66.9022 38.8911 66.9417 38.7887 66.9404 38.6827C66.9397 38.6335 66.929 38.5849 66.9089 38.54C66.8887 38.4951 66.8597 38.4547 66.8235 38.4214C66.7872 38.388 66.7446 38.3624 66.6982 38.3461C66.6517 38.3298 66.6024 38.3232 66.5533 38.3265H37.539C37.4331 38.3335 37.3339 38.3808 37.2619 38.4587C37.1898 38.5367 37.1505 38.6393 37.1519 38.7454C37.1526 38.7946 37.1634 38.8431 37.1835 38.888C37.2036 38.9329 37.2327 38.9732 37.2689 39.0065C37.3052 39.0397 37.3478 39.0653 37.3942 39.0815C37.4407 39.0977 37.4899 39.1043 37.539 39.1008Z" fill="black"/>
<path d="M37.539 48.1038H66.5533C66.6591 48.0968 66.7582 48.0496 66.8302 47.9719C66.9022 47.8941 66.9417 47.7917 66.9404 47.6857C66.9397 47.6365 66.929 47.5879 66.9089 47.543C66.8887 47.498 66.8597 47.4577 66.8235 47.4244C66.7872 47.391 66.7446 47.3654 66.6982 47.3491C66.6517 47.3328 66.6024 47.3262 66.5533 47.3295H37.539C37.4331 47.3365 37.3339 47.3838 37.2619 47.4617C37.1898 47.5397 37.1505 47.6423 37.1519 47.7484C37.1526 47.7976 37.1634 47.8461 37.1835 47.891C37.2036 47.9359 37.2327 47.9762 37.2689 48.0095C37.3052 48.0427 37.3478 48.0683 37.3942 48.0845C37.4407 48.1007 37.4899 48.1073 37.539 48.1038Z" fill="black"/>
<path d="M73.143 27.5575H81.35L82.7313 29.8028C81.0553 31.5382 79.8447 33.669 79.2121 35.9972C78.5794 38.3255 78.5451 40.7758 79.1123 43.1208C79.6795 45.4659 80.8299 47.6297 82.4567 49.4114C84.0836 51.1931 86.1341 52.535 88.418 53.3126C90.7019 54.0902 93.1453 54.2783 95.5213 53.8594C97.8973 53.4405 100.129 52.4282 102.009 50.9165C103.89 49.4047 105.358 47.4425 106.277 45.2119C107.197 42.9813 107.538 40.5546 107.269 38.157H111.928C112.031 38.157 112.129 38.1162 112.202 38.0436C112.275 37.971 112.315 37.8725 112.315 37.7698C112.315 37.6672 112.275 37.5687 112.202 37.4961C112.129 37.4235 112.031 37.3827 111.928 37.3827H107.161C106.792 35.1791 105.911 33.0932 104.587 31.2932C104.571 31.2649 104.551 31.2388 104.528 31.2158C103.736 30.1525 102.802 29.2034 101.752 28.3952L103.1 26.2033H111.31C111.413 26.2033 111.512 26.1625 111.584 26.0899C111.657 26.0173 111.698 25.9188 111.698 25.8162C111.698 25.7135 111.657 25.615 111.584 25.5424C111.512 25.4698 111.413 25.429 111.31 25.429H102.886C102.82 25.429 102.755 25.446 102.697 25.4782C102.639 25.5105 102.591 25.557 102.556 25.6133L101.126 27.9361C98.4482 26.0971 95.2236 25.2253 91.984 25.4646C88.7443 25.7039 85.6829 27.0398 83.3043 29.2523L81.9013 26.9721C81.8667 26.9159 81.8183 26.8695 81.7607 26.8372C81.7031 26.805 81.6383 26.788 81.5723 26.7879H73.143C73.0403 26.7879 72.9418 26.8286 72.8692 26.9012C72.7966 26.9738 72.7559 27.0723 72.7559 27.175C72.7559 27.2777 72.7966 27.3761 72.8692 27.4487C72.9418 27.5213 73.0403 27.5621 73.143 27.5621V27.5575ZM101.759 41.4011C101.797 41.4345 101.842 41.46 101.89 41.4761C101.938 41.4922 101.989 41.4987 102.04 41.4951C102.091 41.4915 102.14 41.4779 102.186 41.4551C102.231 41.4324 102.272 41.4008 102.305 41.3624L105.086 38.157H106.49C106.803 40.7887 106.335 43.4542 105.144 45.8221L93.7551 39.6985L104.161 32.0257C105.279 33.6295 106.035 35.4575 106.375 37.3827H104.91C104.854 37.3826 104.799 37.3945 104.749 37.4175C104.698 37.4404 104.653 37.474 104.617 37.5159L101.72 40.856C101.653 40.9335 101.619 41.0344 101.627 41.1365C101.634 41.2387 101.681 41.3338 101.759 41.4011ZM99.2035 31.8004C99.2468 31.827 99.295 31.8449 99.3452 31.8529C99.3954 31.8609 99.4467 31.859 99.4962 31.8472C99.5456 31.8354 99.5923 31.814 99.6335 31.7842C99.6747 31.7544 99.7096 31.7167 99.7362 31.6734L101.344 29.0572C102.223 29.7413 103.014 30.5302 103.701 31.4063L93.7961 38.7067L97.7533 27.048C98.8018 27.4396 99.7976 27.9597 100.718 28.5965L99.0758 31.2661C99.0222 31.3535 99.0055 31.4586 99.0293 31.5583C99.0531 31.6581 99.1155 31.7443 99.2027 31.798L99.2035 31.8004ZM97.0209 26.801L92.6657 39.628C92.643 39.6976 92.6404 39.7723 92.6584 39.8433C92.6763 39.9142 92.7141 39.9787 92.7672 40.0291C92.8446 40.1011 92.1981 39.7388 104.777 46.5026C103.827 48.1641 102.536 49.6055 100.988 50.7317C99.4401 51.8578 97.6714 52.6433 95.7981 53.0364C93.9248 53.4295 91.9895 53.4212 90.1197 53.012C88.2498 52.6029 86.4879 51.8023 84.9499 50.6629C83.4119 49.5234 82.1328 48.0711 81.1968 46.4015C80.2608 44.7318 79.6892 42.8829 79.5196 40.9763C79.35 39.0698 79.5863 37.1489 80.2129 35.3403C80.8395 33.5317 81.8421 31.8764 83.1548 30.4834L84.7188 33.026C84.7448 33.0706 84.7794 33.1096 84.8206 33.1406C84.8618 33.1717 84.9089 33.1942 84.9589 33.2068C85.009 33.2194 85.061 33.2219 85.112 33.2141C85.1631 33.2062 85.212 33.1883 85.256 33.1613C85.3 33.1343 85.3381 33.0988 85.3682 33.0568C85.3982 33.0149 85.4196 32.9673 85.431 32.917C85.4424 32.8666 85.4437 32.8145 85.4346 32.7637C85.4256 32.7129 85.4065 32.6644 85.3785 32.6211L83.7162 29.9189C85.4571 28.2647 87.6071 27.1038 89.9452 26.5555C92.2833 26.0071 94.7252 26.0911 97.0201 26.7987L97.0209 26.801Z" fill="black"/>
<path d="M72.7551 62.6233L75.465 61.4805C71.8005 65.1063 66.6997 69.8037 65.4315 70.0197C64.7346 70.1374 64.6363 69.8928 64.4427 69.4003C64.4039 69.206 64.3235 69.0224 64.207 68.862C64.0904 68.7017 63.9406 68.5685 63.7677 68.4715C63.5949 68.3746 63.4031 68.3162 63.2055 68.3004C63.008 68.2846 62.8093 68.3117 62.6233 68.3799C59.9776 68.9559 54.6895 74.8549 51.474 75.2258C49.9913 75.3985 49.8675 74.9548 49.6375 74.1542C49.5605 73.6371 49.3181 73.1587 48.9466 72.7908C48.575 72.4229 48.0944 72.1852 47.5765 72.1133C44.9355 71.5837 35.5934 80.4683 32.614 83.381V81.0582C32.6404 81.0057 32.6548 80.9479 32.6561 80.8892C32.6575 80.8304 32.6457 80.772 32.6218 80.7183C32.6218 71.7572 32.6218 91.6105 32.6512 56.5292C32.6524 56.479 32.6437 56.4292 32.6254 56.3824C32.6072 56.3357 32.5799 56.2931 32.545 56.2571C32.5101 56.221 32.4684 56.1923 32.4223 56.1726C32.3762 56.1528 32.3266 56.1424 32.2765 56.142C32.2253 56.1415 32.1746 56.1512 32.1271 56.1704C32.0797 56.1896 32.0366 56.2181 32.0002 56.2541C31.9639 56.2901 31.935 56.3329 31.9153 56.3801C31.8956 56.4274 31.8855 56.478 31.8855 56.5292V59.9754H30.3517C30.2476 59.9776 30.1485 60.0208 30.076 60.0956C30.0036 60.1704 29.9635 60.2707 29.9646 60.3749C29.965 60.4252 29.9753 60.475 29.995 60.5214C30.0147 60.5677 30.0433 60.6097 30.0793 60.645C30.1153 60.6802 30.1579 60.708 30.2046 60.7268C30.2513 60.7455 30.3013 60.7549 30.3517 60.7543H31.8777V64.8532H30.3517C30.2476 64.8554 30.1485 64.8986 30.076 64.9734C30.0036 65.0482 29.9635 65.1485 29.9646 65.2527C29.965 65.303 29.9753 65.3528 29.995 65.3992C30.0147 65.4455 30.0433 65.4875 30.0793 65.5228C30.1153 65.558 30.1579 65.5858 30.2046 65.6046C30.2513 65.6233 30.3013 65.6327 30.3517 65.632H31.8715V70.0701H30.3517C30.2476 70.0723 30.1485 70.1155 30.076 70.1903C30.0036 70.2651 29.9635 70.3654 29.9646 70.4696C29.9664 70.571 30.008 70.6677 30.0804 70.7388C30.1528 70.8099 30.2502 70.8497 30.3517 70.8497H31.8584V75.2877H30.3486C30.2443 75.2896 30.1451 75.3326 30.0725 75.4075C29.9999 75.4824 29.96 75.583 29.9615 75.6873C29.9619 75.7376 29.9722 75.7874 29.9919 75.8337C30.0116 75.8801 30.0403 75.9221 30.0762 75.9574C30.1122 75.9926 30.1548 76.0204 30.2015 76.0392C30.2482 76.0579 30.2982 76.0672 30.3486 76.0666H31.8452V80.5085H30.3517C30.2476 80.5107 30.1485 80.554 30.076 80.6287C30.0036 80.7035 29.9635 80.8039 29.9646 80.908C29.965 80.9584 29.9753 81.0082 29.995 81.0545C30.0147 81.1009 30.0433 81.1429 30.0793 81.1781C30.1153 81.2134 30.1579 81.2412 30.2046 81.2599C30.2513 81.2787 30.3013 81.288 30.3517 81.2874H31.8382V84.1521C31.763 84.2113 31.7129 84.2967 31.6979 84.3913C31.6829 84.4858 31.7041 84.5825 31.7573 84.6621C31.8105 84.7417 31.8917 84.7983 31.9848 84.8206C32.0779 84.8429 32.176 84.8292 32.2594 84.7824H36.562V86.3673C36.5642 86.471 36.6071 86.5697 36.6814 86.6421C36.7556 86.7145 36.8554 86.7548 36.9591 86.7544C37.061 86.7532 37.1583 86.7119 37.2299 86.6394C37.3015 86.5669 37.3416 86.4691 37.3416 86.3673V84.7669H41.7781V86.368C41.7805 86.4718 41.8236 86.5705 41.898 86.6429C41.9724 86.7153 42.0722 86.7556 42.1761 86.7552C42.2778 86.7537 42.3749 86.7123 42.4463 86.6399C42.5177 86.5674 42.5578 86.4698 42.5578 86.368V84.7421H46.9965V86.3727C46.9988 86.4764 47.0417 86.5751 47.1159 86.6475C47.1902 86.7199 47.29 86.7603 47.3937 86.7598C47.4955 86.7584 47.5925 86.717 47.664 86.6445C47.7354 86.5721 47.7754 86.4744 47.7754 86.3727V84.705H52.2127V86.3642C52.2151 86.468 52.2582 86.5667 52.3326 86.639C52.407 86.7114 52.5068 86.7517 52.6106 86.7513C52.7124 86.7499 52.8095 86.7085 52.8809 86.636C52.9523 86.5636 52.9924 86.4659 52.9923 86.3642V84.681H57.0905V86.3696C57.0929 86.4734 57.1359 86.5721 57.2104 86.6445C57.2848 86.7169 57.3846 86.7572 57.4884 86.7567C57.5902 86.7553 57.6872 86.7139 57.7587 86.6414C57.8301 86.569 57.8701 86.4713 57.8701 86.3696V84.6593H62.3151V86.375C62.3175 86.4788 62.3606 86.5775 62.435 86.6499C62.5094 86.7223 62.6093 86.7626 62.7131 86.7621C62.8148 86.7607 62.9119 86.7193 62.9833 86.6469C63.0547 86.5744 63.0948 86.4768 63.0948 86.375V84.6198H67.5312V86.3642C67.5339 86.468 67.5771 86.5667 67.6516 86.6391C67.7262 86.7115 67.8261 86.7517 67.93 86.7513C68.0317 86.7499 68.1288 86.7085 68.2002 86.636C68.2717 86.5636 68.3117 86.4659 68.3117 86.3642V84.5958H72.7481V86.3696C72.7508 86.4735 72.794 86.5721 72.8685 86.6445C72.9431 86.7169 73.043 86.7572 73.1469 86.7567C73.2485 86.7551 73.3454 86.7136 73.4166 86.6412C73.4879 86.5687 73.5278 86.4712 73.5278 86.3696V84.5718H76.8075C76.9124 84.5678 77.0116 84.5229 77.0839 84.4469C77.1562 84.3708 77.196 84.2695 77.1947 84.1645C77.1947 83.9516 77.0205 83.9013 76.8075 83.9013H33.0755C37.9463 79.1288 45.5812 72.5275 47.4255 72.886C48.5272 73.1059 48.6968 73.6967 48.8966 74.3811C49.1358 75.2165 49.4316 76.2571 51.5654 76.007C55.1393 75.5943 60.3214 69.686 62.792 69.1479C63.4509 69.0024 63.5322 69.2068 63.7266 69.6976C63.7688 69.8939 63.8512 70.0792 63.9687 70.242C64.0862 70.4048 64.2361 70.5414 64.409 70.6434C64.582 70.7453 64.7741 70.8103 64.9734 70.8342C65.1727 70.8581 65.3748 70.8405 65.567 70.7824C67.3609 70.4773 73.8878 64.1401 76.2323 61.8142L75.6508 64.4327C75.6318 64.5317 75.6521 64.6343 75.7075 64.7185C75.7628 64.8028 75.8489 64.8621 75.9473 64.8839C76.0457 64.9056 76.1488 64.8882 76.2345 64.8352C76.3203 64.7821 76.382 64.6978 76.4065 64.6L77.3116 60.5282C77.3269 60.4589 77.3229 60.3867 77.3 60.3195C77.2771 60.2523 77.2361 60.1927 77.1816 60.1472C77.1271 60.1018 77.0611 60.0721 76.9909 60.0616C76.9207 60.0511 76.849 60.0601 76.7835 60.0876L72.4578 61.9087C72.3631 61.9485 72.2882 62.0243 72.2494 62.1194C72.2106 62.2145 72.2112 62.3211 72.2511 62.4158C72.2909 62.5105 72.3667 62.5854 72.4618 62.6242C72.5569 62.663 72.6635 62.6624 72.7582 62.6225L72.7551 62.6233Z" fill="black"/>
<path fill-rule="evenodd" clip-rule="evenodd" d="M111.92 91.9674C114.204 89.4581 115.261 77.3713 115.261 77.3713C112.156 72.2504 108.932 74.6753 108.932 74.6753C108.027 78.5466 107.294 81.9122 107.294 81.9122C106.485 81.4584 105.651 81.0512 104.795 80.6928C103.784 80.3057 98.5854 75.4689 97.7554 74.1744C96.9254 72.8798 96.3516 71.2856 95.2545 70.2923C94.258 69.3611 92.9578 68.8225 91.5946 68.7763C90.266 68.7244 87.9084 67.81 87.3564 67.8185C86.8044 67.8271 86.6557 68.6478 87.3881 69.2316C88.1206 69.8153 91.2067 70.595 91.2067 70.595C90.0612 70.673 88.9104 70.6108 87.7799 70.41C86.442 70.0832 83.4743 69.0767 83.2041 69.6357C82.9339 70.1947 84.2354 71.3112 88.2228 72.1907C88.0971 72.5789 88.11 72.9987 88.2592 73.3784C88.2592 73.3784 87.6785 74.1798 88.1361 74.666C88.0861 74.9756 88.1322 75.293 88.2681 75.5755C88.4041 75.8581 88.6233 76.0922 88.8964 76.2463C90.5475 76.9427 92.3116 77.3325 94.1024 77.3968C94.1024 77.3968 96.2649 79.8953 98.535 82.4356C100.805 84.976 106.199 94.0579 111.92 91.9674Z" fill="#FFD997"/>
<path fill-rule="evenodd" clip-rule="evenodd" d="M122.025 57.6294L121.907 54.8049C121.907 54.8049 123.164 55.8285 126.475 55.463C128.683 55.191 130.782 54.3486 132.566 53.0187L132.81 54.9249C132.81 54.9249 144.756 59.1764 146.669 62.0264C148.583 64.8764 150.221 73.2453 150.879 79.5864C149.485 79.0359 148.467 78.9058 145.52 79.1683C142.574 79.4308 142.098 80.9398 142.098 80.9398L141.459 76.6737C141.459 76.6737 137.813 84.0716 136.769 86.7451L137.822 90.0659L112.305 90.6667C112.237 86.8504 114.67 80.0463 114.67 80.0463C112.235 76.5196 111.708 74.3819 111.708 74.3819C110.934 73.4388 108.946 74.5994 108.946 74.5994C109.96 70.2737 111.183 65.344 111.837 63.7955C113.111 60.7845 122.025 57.6294 122.025 57.6294Z" fill="#D142A7"/>
<path fill-rule="evenodd" clip-rule="evenodd" d="M121.754 53.9656L121.827 54.6446C121.827 54.6446 124.877 57.7695 132.707 53.0048L132.328 49.3178L130.093 47.1584C130.529 46.8693 130.88 46.4682 131.108 45.997C132.325 43.7084 132.162 42.0391 130.945 41.9539C130.541 41.8864 130.126 41.9406 129.753 42.1096C129.379 42.2786 129.065 42.5548 128.849 42.9031C128.321 43.5187 127.641 35.1715 124.44 33.8111C121.238 32.4507 119.508 33.7259 119.508 33.7259C119.508 33.7259 114.515 38.2259 115.695 42.7545C115.117 43.4446 114.641 44.2147 114.283 45.0408C114.206 45.6479 115.418 46.1201 115.418 46.1201C115.418 46.1201 114.803 47.7739 114.972 48.1518C115.347 48.715 115.764 49.2489 116.22 49.7491C116.022 50.2147 115.944 50.7221 115.992 51.2256C116.161 51.6855 116.574 51.478 116.821 51.9564C117.068 52.4349 116.413 54.3566 118.457 54.6276C119.589 54.6306 120.711 54.4055 121.754 53.9656Z" fill="#FFD997"/>
<path fill-rule="evenodd" clip-rule="evenodd" d="M115.351 48.5753C115.312 48.5242 115.289 48.4625 115.286 48.3983C115.282 48.334 115.298 48.2702 115.332 48.2153C115.365 48.1604 115.415 48.1168 115.473 48.0905C115.532 48.0641 115.597 48.056 115.661 48.0674C116.707 48.2201 117.708 48.599 118.593 49.1777C118.454 49.6973 118.181 50.1715 117.802 50.5531C117.423 50.9348 116.951 51.2107 116.433 51.3533C115.995 51.3378 115.98 50.8694 116.1 50.583C116.189 50.3247 116.25 50.0576 116.282 49.7862L115.351 48.5753Z" fill="white"/>
<path fill-rule="evenodd" clip-rule="evenodd" d="M131.664 31.8081C131.5 31.468 131.414 31.0959 131.412 30.7185C131.41 30.3412 131.492 29.9682 131.652 29.6263C131.811 29.2845 132.045 28.9824 132.336 28.7419C132.627 28.5014 132.967 28.3285 133.333 28.2357C136.173 27.2834 137.354 28.6716 138.963 31.0129C140.572 33.3543 141.847 33.0368 141.31 35.7947C140.802 38.4047 138.755 39.5514 136.139 39.3563C136.177 40.0779 136.182 40.8467 136.157 41.655C136.057 44.7458 132.295 49.4525 132.295 49.4525C131.403 48.645 130.021 47.2072 130.021 47.2072C130.742 46.6311 131.282 45.8597 131.576 44.9851C132.067 43.5914 132.176 42.3487 131.299 42.0429C130.264 41.6782 128.848 42.9116 128.848 42.9116C124.862 42.5059 125.761 38.229 125.761 38.229C125.102 37.6926 124.585 37.0027 124.254 36.2198C123.923 35.4369 123.789 34.5849 123.865 33.7383C122.426 33.4565 120.946 33.4565 119.508 33.7383C119.508 33.7383 118.854 32.5769 124.124 31.078C125.365 30.6872 126.673 30.5504 127.968 30.6759C129.263 30.8013 130.52 31.1864 131.664 31.8081Z" fill="#D142A7"/>
<path fill-rule="evenodd" clip-rule="evenodd" d="M150.882 79.5865C151.54 85.9276 151.691 91.4379 149.808 93.1978C147.925 94.9577 145.826 95.4152 142.9 95.334C138.653 95.1588 134.424 94.6717 130.248 93.8768C129.844 93.829 129.434 93.8674 129.046 93.9894C128.658 94.1113 128.3 94.3142 127.996 94.5845C126.89 95.5136 124.114 98.3938 121.541 98.3783C118.968 98.3628 118.976 97.2889 118.976 97.2889C118.976 97.2889 117.582 97.2355 117.195 96.2406C116.754 96.1514 116.352 95.9241 116.049 95.5915C115.745 95.259 115.555 94.8385 115.507 94.3909C115.507 94.3909 114.515 93.8931 114.48 93.187C114.48 93.187 118.893 92.8695 121.506 90.666L119.942 88.55C121.064 88.1963 122.242 88.0565 123.416 88.1381C124.759 88.385 126.994 89.0207 128.706 88.9897C130.418 88.9588 134.911 88.4594 136.809 88.241C138.706 88.0227 141.776 86.9589 143.365 86.8474C142.786 84.8586 142.35 82.8308 142.062 80.7796C143.774 78.4305 149.002 79.094 150.882 79.5865Z" fill="#FFD997"/>
<path fill-rule="evenodd" clip-rule="evenodd" d="M114.522 93.1033C117.478 93.6251 121.58 90.7449 121.58 90.7449C121.58 90.7449 118.062 86.42 117.345 85.6202C117.189 85.4066 116.957 85.2606 116.697 85.2119C116.437 85.1633 116.169 85.2157 115.946 85.3585L111.391 87.9909C111.2 88.1078 111.062 88.2949 111.007 88.5119C110.953 88.729 110.985 88.9589 111.098 89.1523C112.171 90.5267 113.314 91.8454 114.522 93.1033Z" fill="white"/>
<path fill-rule="evenodd" clip-rule="evenodd" d="M118.68 42.7321C118.013 42.2714 118.408 41.2525 118.408 41.2525C118.408 41.2525 118.569 40.9025 120.923 41.9191L118.68 42.7321Z" fill="white"/>
<path d="M151.302 79.3588C150.623 72.8156 148.925 64.686 146.994 61.8104C145.159 59.0781 134.905 55.268 133.175 54.6439L132.695 49.5656C133.306 48.779 136.451 44.598 136.544 41.662C136.565 40.9564 136.564 40.295 136.54 39.6776C139.455 39.9246 141.304 38.6068 141.761 35.4402C142.126 32.9207 140.755 32.9362 139.284 30.79C137.609 28.3542 136.282 26.8351 133.211 27.8649C132.511 28.0245 131.899 28.4466 131.502 29.0442C131.104 29.6418 130.951 30.3692 131.073 31.0765C128.845 30.1027 126.341 29.9652 124.019 30.6894C122.639 31.0827 119.12 32.1473 119.097 33.5781C118.245 34.3957 114.319 38.4319 115.276 42.6601C114.682 43.3475 114.216 44.1357 113.901 44.9875C113.818 45.6316 114.486 46.0892 114.935 46.3207C114.647 46.9402 114.538 47.6277 114.619 48.3059C114.958 48.8485 115.347 49.3586 115.78 49.8296C115.586 50.3132 115.534 50.8427 115.631 51.3549C115.68 51.4916 115.76 51.6153 115.865 51.7164C115.969 51.8176 116.095 51.8936 116.233 51.9387C116.511 52.0556 116.499 52.0889 116.509 52.5542C116.524 53.3285 116.554 54.7616 118.407 55.0078C119.446 55.0224 120.478 54.8436 121.451 54.4805L121.622 57.3584C120.082 57.926 112.688 60.7775 111.479 63.6423C110.351 66.3165 107.616 78.6202 107.023 81.32C106.344 80.9497 105.644 80.6175 104.928 80.3251C104.004 79.9735 98.8816 75.215 98.0764 73.9599C97.2511 72.6724 96.6696 71.0487 95.5105 70.0004C94.4461 69.0092 93.0596 68.4354 91.606 68.3846C90.6795 68.2757 89.7664 68.0734 88.8806 67.7806C88.3823 67.6111 87.8682 67.4923 87.3461 67.426C86.4588 67.44 86.0755 68.6788 87.1432 69.5289C87.5164 69.7797 87.9216 69.9792 88.3479 70.122C87.8346 70.03 87.3277 69.9051 86.8304 69.748C84.3667 69.0574 83.1697 68.8034 82.8515 69.46C82.8005 69.5711 82.7759 69.6926 82.7797 69.8148C82.7834 69.937 82.8154 70.0568 82.8732 70.1646C83.2812 71.0069 85.0543 71.8424 87.7618 72.4765C87.7167 72.7641 87.736 73.0582 87.8184 73.3374C87.6763 73.5476 87.5935 73.7922 87.5786 74.0455C87.5638 74.2988 87.6174 74.5514 87.734 74.7768C87.6974 75.1443 87.7731 75.5143 87.951 75.838C88.1288 76.1617 88.4006 76.4239 88.7304 76.5901C90.3767 77.2858 92.1327 77.6861 93.9179 77.7724C94.391 78.3143 96.2871 80.4977 98.2429 82.6865C100.675 85.408 105.605 93.811 111.342 92.5342C108.963 100.556 100.16 130.588 98.9769 139.661C98.9698 139.716 98.9745 139.772 98.9908 139.825C99.007 139.878 99.0344 139.926 99.0711 139.968C99.1078 140.009 99.1529 140.042 99.2034 140.065C99.254 140.087 99.3087 140.098 99.364 140.098L111.74 139.951C111.811 139.95 111.88 139.93 111.94 139.893C112 139.856 112.049 139.803 112.081 139.74C112.158 139.592 119.008 126.163 121.252 122.416L124.516 139.007C124.532 139.099 124.577 139.182 124.646 139.245C124.714 139.308 124.802 139.346 124.894 139.354H138.25C138.294 139.362 138.338 139.36 138.381 139.35C138.424 139.34 138.465 139.322 138.501 139.296C138.537 139.27 138.567 139.237 138.589 139.199C138.612 139.161 138.627 139.118 138.632 139.074C138.807 138.162 142.903 116.655 141.962 109.722C141.154 103.755 139.686 97.1937 139.295 95.4926C140.77 95.6165 142.054 95.6947 142.887 95.7179C146.195 95.8062 148.27 95.1597 150.07 93.4773C151.772 91.89 152.151 87.5372 151.302 79.3588ZM136.495 38.8964C136.433 37.8402 136.233 36.7966 135.9 35.7924C137.4 36.6193 139.276 37.1087 140.791 36.2965C140.214 38.2948 138.834 39.1271 136.495 38.8964ZM131.974 29.7781C132.123 29.4876 132.332 29.2323 132.588 29.0289C132.843 28.8256 133.139 28.679 133.456 28.5989C135.943 27.765 136.947 28.7599 138.643 31.2313C140.178 33.4658 141.256 33.249 141.016 35.1878C138.948 37.1435 135.629 34.7348 135.219 34.4228C134.908 33.9865 134.558 33.5796 134.173 33.2072C135.44 33.3048 136.992 33.1824 137.909 32.2952C137.983 32.2233 138.025 32.125 138.027 32.022C138.028 31.919 137.989 31.8196 137.917 31.7458C137.845 31.672 137.747 31.6297 137.644 31.6284C137.541 31.627 137.441 31.6666 137.367 31.7385C136.213 32.8557 133.55 32.371 133.09 32.2804C132.733 32.0107 132.359 31.764 131.971 31.5418C131.76 30.9727 131.761 30.3465 131.974 29.7781ZM124.231 31.4357C126.083 30.865 128.065 30.8794 129.908 31.4771C131.751 32.0747 133.365 33.2264 134.529 34.7751C135.471 36.0913 135.878 38.3328 135.775 41.638C135.697 44.1071 133.087 47.7655 132.251 48.8757C131.68 48.3338 131.006 47.6524 130.62 47.2568C130.963 46.9512 131.246 46.5834 131.454 46.1728C132.331 44.5252 132.567 43.0998 132.103 42.2621C131.991 42.0589 131.829 41.8881 131.631 41.766C131.434 41.644 131.208 41.5748 130.977 41.5653C130.552 41.5346 130.126 41.6025 129.732 41.7637C129.338 41.9249 128.987 42.1749 128.706 42.4944C126.743 42.2187 125.96 40.8127 126.077 38.8732C127.491 39.3351 129.005 39.4015 130.454 39.0652C130.504 39.055 130.551 39.0351 130.593 39.0067C130.636 38.9782 130.672 38.9417 130.7 38.8992C130.728 38.8568 130.747 38.8092 130.757 38.7592C130.767 38.7093 130.767 38.6579 130.756 38.608C130.746 38.5581 130.726 38.5108 130.698 38.4686C130.669 38.4264 130.633 38.3902 130.59 38.3621C130.548 38.3341 130.5 38.3146 130.45 38.3049C130.4 38.2953 130.349 38.2955 130.299 38.3057C129.428 38.4822 126.965 38.7509 126.02 37.9294L125.997 37.9108C125.394 37.4126 124.92 36.7759 124.616 36.055C124.312 35.3342 124.187 34.5505 124.252 33.7709C124.263 33.672 124.236 33.5724 124.177 33.4928C124.117 33.4132 124.028 33.3597 123.93 33.3435C122.674 33.1217 121.392 33.0815 120.125 33.2243C120.523 32.841 121.558 32.1953 124.23 31.4357H124.231ZM132.229 52.8244C130.505 54.0222 128.521 54.7943 126.44 55.0775C123.808 55.3702 122.55 54.7477 122.233 54.5556L122.212 54.2189C124.44 53.3981 126.693 52.1539 126.917 51.4664C127.134 50.7943 127.944 48.5862 128.275 47.6896C128.814 47.8822 129.405 47.8748 129.939 47.6687C130.332 48.0736 131.237 48.9965 131.927 49.633L132.229 52.8244ZM116.357 51.1033C116.324 50.6856 116.4 50.2665 116.577 49.8869C116.603 49.8207 116.61 49.7486 116.597 49.6787C116.585 49.6088 116.553 49.5437 116.506 49.4905C116.219 49.1661 115.834 48.7093 115.581 48.3794C116.573 48.429 117.533 48.7429 118.363 49.2884C117.937 49.9643 117.07 51.0978 116.357 51.1033ZM118.504 54.2421C116.795 54.0144 117.502 52.4373 117.162 51.7769C117.145 51.7445 117.127 51.713 117.108 51.6824C117.996 51.0985 118.724 50.2996 119.221 49.3597C119.267 49.2764 119.281 49.179 119.26 49.0861C119.239 48.9933 119.184 48.9115 119.107 48.8564C118.027 48.0519 116.719 47.613 115.373 47.6036C115.477 47.1447 115.612 46.6935 115.778 46.2534C115.799 46.1969 115.806 46.1365 115.799 46.0768C116.29 46.2115 116.318 46.5174 116.621 46.5174C116.697 46.5175 116.773 46.4948 116.836 46.4521C116.9 46.4093 116.95 46.3486 116.979 46.2775C117.008 46.2064 117.016 46.1282 117.001 46.0529C116.985 45.9776 116.948 45.9086 116.893 45.8546C116.715 45.665 116.498 45.5152 116.258 45.4148C116.018 45.3145 115.76 45.266 115.499 45.2724C115.419 45.2795 115.344 45.3117 115.283 45.3644C115.222 45.4171 115.179 45.4876 115.161 45.5658C114.868 45.3939 114.648 45.1942 114.661 45.0881C114.998 44.3292 115.447 43.6247 115.992 42.9976C116.288 42.6071 116.495 42.1568 116.6 41.6781C116.705 41.1994 116.705 40.7036 116.599 40.225C116.571 40.1362 116.512 40.0604 116.432 40.0117C116.353 39.9629 116.259 39.9443 116.167 39.9595C116.126 39.9664 116.089 39.9742 116.05 39.9819C116.703 37.0351 119.232 34.518 119.689 34.0813C120.933 33.864 122.204 33.8556 123.451 34.0566C123.423 34.8727 123.578 35.6848 123.904 36.4335C124.23 37.1823 124.718 37.8489 125.335 38.3846C125.025 40.6439 125.877 42.6655 128.159 43.185C128.147 43.2679 128.162 43.3526 128.202 43.4263C128.242 43.4999 128.305 43.5587 128.381 43.5936C128.457 43.6285 128.543 43.6377 128.624 43.6199C128.706 43.6021 128.78 43.5581 128.835 43.4947C129.434 42.7979 129.947 42.2691 130.911 42.3387C131.014 42.3384 131.116 42.3665 131.205 42.4198C131.293 42.4732 131.366 42.5499 131.414 42.6415C131.657 43.0797 131.632 44.1737 130.759 45.8159C130.641 46.0889 130.468 46.3349 130.251 46.5387C130.035 46.7426 129.778 46.9 129.499 47.0013C129.075 47.1046 128.628 47.0495 128.241 46.8464C128.192 46.817 128.138 46.7988 128.081 46.7929C128.024 46.7871 127.967 46.7939 127.913 46.8127C127.86 46.8316 127.811 46.8621 127.77 46.902C127.729 46.942 127.698 46.9904 127.678 47.0439C127.628 47.1794 126.448 50.3731 126.172 51.2248C125.778 52.0424 120.281 54.479 118.507 54.2421H118.504ZM112.193 63.9465C113.122 61.7461 118.956 59.1833 121.672 58.1683L121.71 58.7653C121.713 58.8161 121.726 58.8658 121.748 58.9116C121.77 58.9574 121.802 58.9983 121.84 59.0321C121.878 59.0658 121.922 59.0917 121.97 59.1083C122.019 59.1249 122.07 59.1319 122.12 59.1288C122.171 59.1257 122.221 59.1126 122.267 59.0903C122.313 59.0679 122.353 59.0368 122.387 58.9987C122.421 58.9605 122.447 58.9161 122.463 58.868C122.48 58.8198 122.487 58.7689 122.484 58.718L122.283 55.446C123.642 55.9192 125.095 56.0571 126.519 55.8479C128.581 55.5645 130.557 54.8344 132.308 53.7086C132.331 54.1582 132.377 54.6063 132.446 55.0512V55.0597C132.464 55.1062 132.49 55.149 132.524 55.1859L132.532 55.1952C132.568 55.2328 132.612 55.2624 132.661 55.2819C133.368 55.5815 144.558 59.5759 146.347 62.2424C148.136 64.9089 149.796 72.7722 150.481 78.9972C149.135 78.6638 147.742 78.5617 146.362 78.6953C144.079 78.8098 142.911 79.4292 142.316 79.9875C141.851 77.098 141.552 74.2665 141.293 71.3523C141.284 71.2496 141.234 71.1547 141.155 71.0885C141.076 71.0223 140.974 70.9902 140.872 70.9992C140.769 71.0082 140.674 71.0577 140.608 71.1367C140.542 71.2157 140.51 71.3177 140.519 71.4204C140.669 73.1075 140.838 74.8403 141.055 76.6079C140.591 77.5563 137.387 84.0879 136.405 86.605C136.336 86.7831 136.393 86.8504 136.684 87.8647C134.784 88.0831 130.365 88.5716 128.687 88.6026C126.93 88.4801 125.187 88.1974 123.48 87.7579C122.317 87.6554 121.145 87.7787 120.028 88.121C119.454 87.4528 118.18 85.9732 117.632 85.3616C117.418 85.0793 117.106 84.8877 116.758 84.825C116.41 84.7623 116.05 84.8331 115.752 85.0232L113.163 86.5214C113.57 84.3505 114.199 82.227 115.039 80.1841C115.067 80.1208 115.077 80.0512 115.069 79.9824C115.061 79.9136 115.035 79.8483 114.993 79.7931C114.968 79.7606 112.503 76.4886 112.14 74.3339C111.846 72.5856 115.062 66.8817 116.326 64.8315C116.354 64.7882 116.372 64.7399 116.381 64.6894C116.39 64.6389 116.388 64.5871 116.377 64.5372C116.365 64.4872 116.344 64.44 116.314 64.3983C116.284 64.3567 116.246 64.3214 116.203 64.2944C116.159 64.2675 116.111 64.2495 116.06 64.2415C116.009 64.2335 115.958 64.2357 115.908 64.2478C115.858 64.26 115.811 64.2819 115.77 64.3123C115.729 64.3427 115.694 64.381 115.667 64.425C115.229 65.135 111.702 70.9287 111.375 73.7308C110.742 73.5918 110.081 73.6715 109.499 73.9568C110.224 70.5757 111.125 67.2344 112.196 63.9465H112.193ZM142.87 86.5113C141.437 86.7157 139.092 87.4474 137.459 87.7501L137.178 86.7668C137.996 84.7104 140.197 80.1493 141.239 78.0038C141.618 80.869 142.164 83.7097 142.873 86.5113H142.87ZM114.739 92.7719C114.107 92.0975 112.364 90.2169 111.642 89.2746L116.306 86.5648L120.236 91.0771C118.53 91.9883 116.665 92.5637 114.742 92.7719H114.739ZM88.125 71.7673C84.6896 70.9884 83.7117 70.1197 83.5708 69.8533C84.61 69.9536 85.6347 70.1694 86.626 70.4967C87.5623 70.8115 88.5411 70.9817 89.5287 71.0015C89.0249 71.1847 88.5517 71.4428 88.125 71.7673ZM91.222 71.5125C92.508 71.5938 92.7898 71.8958 92.7976 71.9523C92.7976 71.9523 92.6683 72.2078 91.6261 72.4393C90.5871 72.1651 89.4837 72.2784 88.5221 72.7583C88.5274 72.6403 88.5427 72.523 88.5678 72.4076C89.3214 71.8121 90.2578 71.4959 91.2181 71.5125H91.222ZM88.5763 73.603C90.3114 72.6096 92.0334 73.2228 92.069 73.6324C92.0736 73.6866 91.9916 73.7942 91.7748 73.8933C91.2567 73.6049 90.6587 73.4932 90.0714 73.5751C89.4694 73.7176 88.8924 73.9499 88.3596 74.2642C88.3588 74.0264 88.4334 73.7944 88.5725 73.6015L88.5763 73.603ZM100.311 84.0391C98.5766 81.769 99.5684 83.0806 94.8702 77.6841C95.0488 77.6539 95.225 77.611 95.3975 77.5556C95.4462 77.5397 95.4913 77.5143 95.5302 77.4809C95.569 77.4475 95.6008 77.4067 95.6238 77.3609C95.6468 77.3151 95.6604 77.2652 95.6639 77.2141C95.6675 77.163 95.6608 77.1117 95.6444 77.0632C95.6279 77.0146 95.602 76.9699 95.5681 76.9314C95.5342 76.893 95.493 76.8617 95.447 76.8393C95.4009 76.8169 95.3508 76.8038 95.2997 76.8009C95.2485 76.798 95.1973 76.8053 95.149 76.8223C94.8042 76.9176 94.4511 76.9793 94.0944 77.0066C92.3637 76.9388 90.6592 76.5612 89.0618 75.8917C88.9056 75.8141 88.773 75.6962 88.6777 75.5501C88.5824 75.4041 88.5279 75.2351 88.5198 75.0609C89.0383 74.7416 89.6 74.4983 90.1876 74.3385C90.6293 74.2769 91.0786 74.3737 91.4558 74.6119C91.5154 74.6622 91.5332 74.6986 91.5046 74.759C90.9071 75.0464 90.2462 75.1765 89.5844 75.1368C89.5336 75.1363 89.4831 75.1458 89.436 75.1648C89.3888 75.1838 89.3459 75.2119 89.3095 75.2474C89.2732 75.283 89.2443 75.3254 89.2244 75.3722C89.2044 75.419 89.1939 75.4692 89.1934 75.5201C89.1929 75.5709 89.2024 75.6213 89.2214 75.6685C89.2404 75.7157 89.2685 75.7586 89.3041 75.7949C89.3397 75.8312 89.3821 75.8602 89.4288 75.8801C89.4756 75.9 89.5258 75.9105 89.5767 75.911C90.3029 75.911 91.5471 75.8181 92.0543 75.3033C92.1594 75.2015 92.2355 75.0735 92.2747 74.9325C92.3139 74.7915 92.3148 74.6426 92.2773 74.5011C92.5272 74.3685 92.7161 74.1443 92.8045 73.8755C93.941 73.8635 95.0427 74.2678 95.9015 75.0121C95.977 75.0794 96.0759 75.1145 96.1769 75.1099C96.278 75.1052 96.3732 75.0612 96.4422 74.9872C96.5112 74.9133 96.5485 74.8153 96.5462 74.7141C96.5438 74.613 96.5019 74.5168 96.4296 74.4462C95.3911 73.5341 94.0433 73.0533 92.6621 73.1021C92.6319 73.0581 92.5986 73.0164 92.5622 72.9774C93.0833 72.7823 93.5989 72.4579 93.5641 71.9206C93.5199 71.2764 92.8448 70.8877 91.5549 70.7592C91.5796 70.7076 91.5925 70.6511 91.5927 70.5939C91.593 70.5367 91.5806 70.4802 91.5564 70.4284C91.5322 70.3765 91.4968 70.3307 91.4527 70.2942C91.4087 70.2577 91.3571 70.2314 91.3017 70.2172C90.0298 69.9377 88.7966 69.5043 87.6294 68.9265C87.3012 68.6656 87.2423 68.3846 87.2888 68.2591C87.3066 68.2072 87.329 68.2034 87.3623 68.2034C87.7882 68.1647 90.1187 69.1038 91.5797 69.1611C92.8514 69.2069 94.0639 69.7097 94.9949 70.5772C96.0316 71.5156 96.5821 73.0603 97.4291 74.3811C98.2413 75.6486 103.5 80.6123 104.657 81.0521C106.863 81.8929 108.605 82.9567 109.353 85.2152C109.386 85.3128 109.455 85.3935 109.547 85.4397C109.639 85.4859 109.745 85.4937 109.843 85.4614C109.94 85.4292 110.021 85.3595 110.067 85.2678C110.113 85.176 110.121 85.0696 110.089 84.9721C109.644 83.682 108.821 82.5555 107.728 81.7388C107.912 80.9026 108.53 78.1061 109.268 74.9432C109.637 74.7241 110.739 74.1411 111.401 74.5917C111.806 76.6388 113.711 79.3518 114.242 80.0796C113.34 82.318 112.685 84.6477 112.287 87.0278L111.186 87.665C110.91 87.8335 110.711 88.1031 110.632 88.4163C110.552 88.7295 110.598 89.0614 110.759 89.3412C111.095 89.8419 111.468 90.3163 111.875 90.7604C111.819 90.9455 111.729 91.2513 111.606 91.664C107.221 93.0754 102.9 87.4304 100.307 84.0376L100.311 84.0391ZM149.548 92.9167C147.89 94.4652 146.037 95.0343 142.914 94.9483C138.688 94.7763 134.48 94.2918 130.326 93.4989C129.865 93.4393 129.397 93.479 128.953 93.6155C128.508 93.752 128.099 93.9821 127.751 94.2902C126.286 95.5213 123.895 98.0004 121.547 97.9935C120.933 98.0266 120.32 97.9174 119.755 97.6745C120.544 97.6794 121.321 97.4788 122.009 97.0922C122.052 97.0642 122.088 97.0281 122.117 96.986C122.145 96.9439 122.165 96.8966 122.175 96.8467C122.186 96.7969 122.186 96.7456 122.176 96.6956C122.167 96.6457 122.147 96.5981 122.119 96.5557C122.091 96.5132 122.055 96.4767 122.013 96.4482C121.971 96.4197 121.924 96.3998 121.874 96.3896C121.824 96.3794 121.773 96.3791 121.723 96.3887C121.673 96.3984 121.625 96.4177 121.583 96.4457C120.62 97.0814 118.956 96.8607 118.818 96.8847C118.537 96.8467 118.266 96.7561 118.019 96.6176C119.061 96.6538 120.091 96.3847 120.982 95.8434C121.059 95.7794 121.109 95.6878 121.12 95.5879C121.132 95.4879 121.103 95.3876 121.042 95.308C120.981 95.2284 120.891 95.1759 120.791 95.1615C120.691 95.1471 120.59 95.172 120.509 95.2309C119.487 96.0207 117.204 95.8202 117.122 95.8248C116.867 95.7507 116.631 95.6195 116.434 95.4409C116.236 95.2624 116.082 95.0412 115.983 94.7943C117.331 94.9056 118.686 94.7075 119.946 94.2151C120.039 94.1721 120.111 94.0938 120.147 93.9975C120.182 93.9011 120.178 93.7946 120.135 93.7014C120.092 93.6082 120.014 93.5359 119.918 93.5004C119.821 93.4649 119.715 93.4691 119.622 93.5121C118.323 93.9757 116.936 94.1377 115.565 93.9859C115.36 93.8628 115.176 93.7058 115.023 93.5214C116.288 93.3665 119.582 92.7959 121.759 90.9664C121.835 90.903 121.883 90.8132 121.894 90.7154C121.906 90.6176 121.88 90.519 121.821 90.4399L120.593 88.7791C121.871 88.3727 123.243 88.3694 124.523 88.7698C125.895 89.1208 127.301 89.3253 128.716 89.3799C130.448 89.3474 134.987 88.8441 136.856 88.6289C137.988 88.4548 139.11 88.2131 140.213 87.905C141.247 87.5956 142.305 87.3722 143.376 87.2368C143.396 87.2363 143.417 87.234 143.437 87.2298C144.563 87.0242 145.723 87.1418 146.784 87.569C146.834 87.592 146.888 87.6039 146.943 87.6038C147.032 87.6037 147.117 87.5735 147.186 87.5182C147.254 87.4628 147.302 87.3857 147.321 87.2995C147.34 87.2133 147.329 87.1233 147.29 87.0443C147.25 86.9653 147.185 86.9021 147.105 86.8652C146.013 86.4213 144.824 86.2659 143.654 86.4138C143.185 84.6028 142.81 82.8058 142.501 81.0327C142.61 80.7695 143.263 79.6298 146.411 79.4718C149.189 79.3317 150.272 79.7149 150.582 79.8644C151.065 84.729 151.439 91.1437 149.544 92.9152L149.548 92.9167Z" fill="black"/>
<path d="M120.43 39.944C120.467 39.9794 120.511 40.007 120.56 40.0252C120.608 40.0433 120.66 40.0516 120.711 40.0496C120.763 40.0475 120.813 40.0352 120.86 40.0133C120.907 39.9915 120.949 39.9605 120.983 39.9222C121.018 39.8839 121.044 39.8391 121.061 39.7904C121.078 39.7416 121.085 39.69 121.082 39.6385C121.079 39.5871 121.065 39.5367 121.043 39.4905C121.02 39.4443 120.988 39.4032 120.949 39.3695C119.477 38.0447 117.267 39.4926 117.173 39.5553C117.09 39.6129 117.032 39.701 117.013 39.8007C116.994 39.9004 117.014 40.0036 117.07 40.0882C117.127 40.1727 117.214 40.2319 117.313 40.2528C117.412 40.2738 117.516 40.2549 117.601 40.2002C117.619 40.1886 119.409 39.0242 120.43 39.944Z" fill="black"/>
<path d="M121.08 41.5637C118.655 40.5162 117.829 40.935 117.685 41.0287C117.598 41.086 117.538 41.1745 117.515 41.2755C117.493 41.3766 117.511 41.4824 117.565 41.5707C117.591 41.6133 117.626 41.6502 117.666 41.6791C117.707 41.7081 117.754 41.7286 117.803 41.7393C117.852 41.7501 117.902 41.7509 117.951 41.7417C118.001 41.7326 118.048 41.7137 118.089 41.6861C118.122 41.6732 118.156 41.6639 118.191 41.6582C118.113 42.1227 118.336 42.7127 118.748 42.7127C119.16 42.7127 119.299 42.156 119.213 41.7379C119.748 41.8683 120.27 42.0471 120.773 42.2722C120.82 42.2925 120.87 42.3035 120.921 42.3044C120.972 42.3053 121.022 42.2962 121.07 42.2776C121.117 42.259 121.16 42.2312 121.197 42.1959C121.234 42.1605 121.263 42.1183 121.283 42.0716C121.304 42.025 121.315 41.9748 121.315 41.9239C121.316 41.873 121.307 41.8224 121.289 41.775C121.27 41.7276 121.242 41.6844 121.207 41.6477C121.172 41.6111 121.129 41.5817 121.083 41.5614L121.08 41.5637Z" fill="black"/>
<path d="M127.237 80.9948C127.282 81.0191 127.331 81.0343 127.382 81.0396C127.432 81.0449 127.483 81.0402 127.532 81.0257C127.581 81.0113 127.626 80.9874 127.666 80.9553C127.705 80.9233 127.738 80.8839 127.762 80.8392C127.787 80.7945 127.802 80.7455 127.807 80.6949C127.812 80.6443 127.808 80.5932 127.793 80.5445C127.779 80.4957 127.755 80.4503 127.723 80.4108C127.691 80.3713 127.651 80.3385 127.607 80.3142C125.35 79.0886 124.095 77.5982 123.878 75.8847C123.491 72.8512 126.473 70.0353 126.503 70.0074C126.542 69.9735 126.575 69.9319 126.598 69.8852C126.621 69.8384 126.635 69.7874 126.638 69.7353C126.641 69.6832 126.633 69.631 126.616 69.5819C126.598 69.5327 126.57 69.4877 126.535 69.4495C126.499 69.4112 126.456 69.3805 126.409 69.3593C126.361 69.338 126.31 69.3267 126.257 69.3259C126.205 69.325 126.153 69.3348 126.105 69.3545C126.057 69.3742 126.013 69.4035 125.976 69.4407C125.841 69.5653 122.676 72.5493 123.111 75.9784C123.358 77.9536 124.747 79.6422 127.237 80.9948Z" fill="black"/>
<path d="M118.87 111.544C118.675 109.584 119.179 98.537 119.179 98.4286C119.184 98.3332 119.153 98.2396 119.092 98.1661C119.055 98.1367 119.02 98.1065 118.987 98.0755C118.929 98.0422 118.864 98.0243 118.797 98.0235C118.731 98.0227 118.665 98.039 118.607 98.0709C118.549 98.1028 118.499 98.1492 118.464 98.2056C118.429 98.262 118.409 98.3265 118.406 98.393C118.385 98.8498 117.898 109.605 118.112 111.695L119.609 116.646C118.021 119.666 108.162 137.185 107.007 139.236L107.902 139.225C109.632 136.15 117.673 121.851 119.926 117.694L121.024 121.333C121.093 121.211 121.19 121.106 121.306 121.027C121.422 120.948 121.555 120.897 121.694 120.877L118.87 111.544Z" fill="#D142A7"/>
<path d="M113.792 92.8873C113.624 92.7054 113.421 92.4855 113.2 92.2439C112.46 94.1493 110.927 101.078 110.054 103.097C109.726 103.558 109.281 103.924 108.764 104.157C108.669 104.489 108.573 104.825 108.476 105.163C108.997 104.931 110.404 104.234 110.764 103.402C111.609 101.451 113.041 95.1233 113.792 92.8873Z" fill="#D142A7"/>
<path d="M140.7 106.544C140.658 106.289 140.616 106.035 140.572 105.782C139.821 106.118 136.392 106.388 133.588 105.927C131.694 105.618 131.233 105.135 131.123 104.942C130.325 103.556 129.961 97.011 129.874 94.2391C129.61 94.245 129.348 94.2937 129.1 94.3832C129.163 96.2475 129.474 103.635 130.448 105.329C131.454 107.079 137.17 107.059 139.286 106.821C139.1 109.388 137.715 128.16 136.163 138.94C136.156 138.99 136.159 139.041 136.171 139.091C136.184 139.14 136.206 139.186 136.236 139.227C136.267 139.268 136.305 139.302 136.349 139.328C136.392 139.354 136.441 139.371 136.491 139.378C136.541 139.386 136.593 139.383 136.642 139.37C136.691 139.358 136.737 139.336 136.778 139.305C136.819 139.275 136.853 139.237 136.879 139.193C136.905 139.149 136.922 139.101 136.93 139.05C138.528 127.954 139.949 108.431 140.07 106.705C140.283 106.666 140.494 106.612 140.7 106.544Z" fill="#D142A7"/>
<path fill-rule="evenodd" clip-rule="evenodd" d="M37.1918 123.76L34.0762 140.462L35.7377 140.337L38.6048 123.261L37.1918 123.76Z" fill="white"/>
<path fill-rule="evenodd" clip-rule="evenodd" d="M25.4876 140.443H24.2991L18.8662 123.284C18.8662 123.284 14.4413 128.521 11.0609 129.666C7.68055 130.81 8.36189 130.246 8.56397 129.356C8.76605 128.466 12.1325 119.103 16.5752 117.905C21.0178 116.706 25.4876 140.443 25.4876 140.443Z" fill="white"/>
<path fill-rule="evenodd" clip-rule="evenodd" d="M27.9023 140.443H26.9097C26.9097 140.443 29.5259 113.63 32.6817 110.514C35.8376 107.398 44.8011 101.378 45.5211 102.349C46.2412 103.321 39.7413 111.259 33.6751 113.621L27.9023 140.443Z" fill="white"/>
<path fill-rule="evenodd" clip-rule="evenodd" d="M30.0726 117.498L29.1056 110.076C29.1056 110.076 29.5655 108.964 28.1765 99.4568C26.5149 88.1001 15.8271 82.6734 15.8271 82.6734C15.8271 82.6734 17.8665 100.651 27.4796 110.735L29.1056 123.897L30.0726 117.498Z" fill="white"/>
<path fill-rule="evenodd" clip-rule="evenodd" d="M51.6603 108.536C48.3659 110.593 44.8241 112.225 41.1196 113.391C41.1196 113.391 44.3219 105.054 49.902 100.289C55.482 95.5244 69.002 88.9851 70.4514 90.491C71.9008 91.9969 56.6836 105.305 51.6603 108.536Z" fill="white"/>
<path fill-rule="evenodd" clip-rule="evenodd" d="M30.9574 140.45H29.1069L32.8822 123.918C32.8822 123.918 32.4711 119.234 41.121 113.393C50.3516 107.161 53.9248 108.614 57.0497 108.034C60.1745 107.454 61.5589 106.725 59.957 109.242C58.2335 111.952 56.1453 115.44 50.124 118.597C45.0139 121.275 34.656 124.618 34.656 124.618L30.9574 140.45Z" fill="white"/>
<path fill-rule="evenodd" clip-rule="evenodd" d="M26.1613 140.443L24.5485 123.472C24.5485 123.472 7.00243 113.624 4.24609 93.8582C4.24609 93.8582 28.7062 100.877 26.2596 123.284L27.1639 136.591L26.1613 140.443Z" fill="white"/>
<path d="M49.6503 99.9973C44.3482 104.525 41.2241 112.076 40.8037 113.141C32.6152 118.705 32.4689 123.257 32.4906 123.885L28.7974 140.067H28.3793L34.0135 113.901C39.6361 111.61 45.3114 104.986 45.9006 102.941C46.1004 102.244 45.7798 101.893 45.3207 101.857C43.4849 101.702 35.2438 107.432 32.4093 110.235C31.6443 110.99 30.9173 113.028 30.2514 115.71L29.4996 110.094C29.6042 109.588 29.7443 107.513 28.5574 99.398C26.8858 87.9754 16.109 82.3807 16.0006 82.325C15.9384 82.2933 15.8687 82.279 15.7991 82.2836C15.7294 82.2883 15.6623 82.3117 15.6048 82.3514C15.5474 82.391 15.5017 82.4455 15.4727 82.509C15.4437 82.5725 15.4324 82.6427 15.44 82.7121C15.4609 82.8933 17.5917 100.824 27.1088 110.904L28.6851 123.645C28.1432 126.966 27.6786 130.385 27.3248 133.264L26.6442 123.325C29.0978 100.853 4.60049 93.5547 4.35273 93.4835C4.29072 93.4657 4.22525 93.4637 4.16227 93.4776C4.09929 93.4916 4.0408 93.5211 3.9921 93.5634C3.94341 93.6057 3.90606 93.6595 3.88345 93.7199C3.86084 93.7803 3.85368 93.8454 3.86263 93.9093C5.36623 104.69 11.2954 112.587 16.3916 117.549C11.7461 118.905 8.41678 128.241 8.18837 129.266C8.09004 129.702 7.80589 130.174 8.15044 130.514C8.46014 130.819 8.94327 130.789 11.187 130.03C14.0231 129.07 17.4755 125.428 18.7066 124.054L23.7748 140.058H18.8684C18.7657 140.058 18.6673 140.099 18.5947 140.171C18.5221 140.244 18.4813 140.342 18.4813 140.445C18.4804 140.549 18.5204 140.65 18.5927 140.725C18.6651 140.801 18.764 140.845 18.8684 140.848H41.8404C41.8904 140.85 41.9402 140.842 41.9869 140.824C42.0336 140.806 42.0762 140.779 42.1123 140.745C42.1484 140.71 42.1772 140.669 42.197 140.623C42.2168 140.577 42.2272 140.527 42.2276 140.477C42.2276 140.375 42.1868 140.276 42.1142 140.204C42.0416 140.131 41.9431 140.09 41.8404 140.09H36.0715L38.9285 123.579C42.8113 122.269 46.61 120.722 50.303 118.945C54.446 116.943 57.874 113.716 60.1236 109.702C60.3613 109.309 61.3454 108.042 60.8979 107.396C60.4503 106.749 59.3346 107.217 56.9817 107.653C55.9481 107.845 54.6001 107.808 53.2103 107.939C58.6618 103.979 70.6194 93.5377 70.9291 90.8959C71.3789 87.0309 55.0879 95.3525 49.6503 99.9973ZM27.7576 110.467C19.4661 101.77 16.8406 86.9302 16.3141 83.3973C18.6516 84.8026 26.4181 90.1279 27.7916 99.5133C28.2895 102.92 28.5481 105.234 28.6774 106.799C26.5737 100.432 21.5907 92.3848 21.3421 91.9861C21.2869 91.9012 21.2006 91.8413 21.1017 91.8193C21.0028 91.7973 20.8992 91.8149 20.8132 91.8684C20.7272 91.9219 20.6655 92.007 20.6415 92.1054C20.6175 92.2039 20.6331 92.3078 20.6848 92.3949C20.756 92.5087 27.7793 103.854 28.7231 110.134L29.7575 117.862C29.543 118.869 29.3371 119.925 29.1381 121.014C27.7568 109.845 27.8923 110.609 27.7576 110.467ZM32.9536 110.789C36.1706 107.614 43.8752 102.634 45.1867 102.625C45.0489 103.881 39.3969 110.979 33.5381 113.259C33.4783 113.283 33.4253 113.32 33.3836 113.369C33.342 113.418 33.3132 113.476 33.2997 113.539L27.5872 140.068H27.3356C27.7243 136.159 30.1787 113.53 32.9536 110.789ZM4.7205 94.4188C8.38813 95.6715 28.0471 103.354 25.873 123.312L26.8354 137.453C26.5149 140.355 26.5923 140.067 26.5141 140.067L24.9339 123.436C24.928 123.374 24.9071 123.314 24.873 123.261C24.8389 123.209 24.7926 123.166 24.738 123.135C22.7668 121.938 20.9038 120.571 19.1704 119.05C18.7768 118.426 18.218 117.924 17.556 117.598C12.5195 112.868 6.39908 105.12 4.7205 94.4188ZM25.6694 139.362C25.0245 136.152 22.9077 126.281 20.2899 120.97C21.5299 121.961 22.8298 122.875 24.1821 123.706L25.6694 139.362ZM19.2369 123.17C19.2159 123.104 19.1777 123.045 19.1261 122.999C19.0746 122.953 19.0116 122.921 18.9438 122.908C18.876 122.894 18.8058 122.899 18.7405 122.922C18.6753 122.945 18.6173 122.985 18.5726 123.037C18.5293 123.089 14.1803 128.204 10.9393 129.302C10.2455 129.562 9.53226 129.768 8.80623 129.916C9.92115 126.277 13.0476 119.26 16.6765 118.278C16.8343 118.236 17.0006 118.238 17.1573 118.284C17.6691 118.762 18.17 119.209 18.6532 119.625C21.7378 124.044 24.4988 137.437 25.0191 140.066H24.587L19.2369 123.17ZM31.4399 140.079L34.9837 124.919C35.2787 124.822 35.8725 124.625 36.6715 124.354L33.7573 140.072L31.4399 140.079ZM35.2856 140.079H34.5439L37.5116 124.066L38.0915 123.866L35.2856 140.079ZM54.9253 108.614C56.1451 108.595 57.3584 108.433 58.5403 108.13C59.0949 107.982 59.6634 107.892 60.2367 107.862C60.0458 108.37 59.7881 108.851 59.4701 109.291C57.2603 113.162 53.944 116.285 49.9468 118.259C44.9258 120.891 34.643 124.22 34.5392 124.253C34.4755 124.273 34.4182 124.31 34.3729 124.359C34.3276 124.409 34.2958 124.469 34.2806 124.534L30.6479 140.072H29.591C33.5041 122.926 33.2741 123.98 33.2656 123.885C33.2656 123.84 32.9722 119.361 41.3364 113.715C48.4827 108.89 52.2061 108.728 54.9253 108.614ZM51.5132 108.177C49.3401 108.618 47.2447 109.38 45.2959 110.437C48.0523 107.241 57.437 98.2815 65.5256 94.2082C65.6174 94.1621 65.6871 94.0814 65.7194 93.9839C65.7517 93.8864 65.7439 93.7801 65.6978 93.6883C65.6517 93.5965 65.5711 93.5268 65.4736 93.4944C65.3761 93.4621 65.2697 93.4699 65.1779 93.516C56.3878 97.9416 44.404 109.496 43.7683 111.276C43.1969 111.607 42.6 111.971 41.9775 112.369C43.0738 109.922 45.9432 104.184 50.1528 100.59C56.3035 95.3363 69.1351 89.6904 70.1587 90.7442C70.6186 92.3043 57.3719 104.376 51.5132 108.173V108.177Z" fill="black"/>
<path d="M34.6067 122.544C34.6361 122.586 34.6735 122.622 34.7167 122.649C34.7599 122.676 34.8081 122.695 34.8585 122.703C34.9089 122.712 34.9605 122.71 35.0103 122.699C35.0601 122.687 35.1071 122.666 35.1487 122.636C35.2849 122.54 48.9187 112.916 54.4639 111.1C54.5135 111.085 54.5597 111.061 54.5997 111.028C54.6396 110.995 54.6726 110.954 54.6966 110.909C54.7207 110.863 54.7353 110.813 54.7396 110.761C54.7439 110.71 54.7378 110.658 54.7217 110.608C54.7056 110.559 54.6798 110.514 54.6458 110.475C54.6119 110.436 54.5704 110.404 54.5239 110.381C54.4775 110.358 54.4269 110.345 54.3752 110.342C54.3236 110.339 54.2718 110.347 54.2231 110.364C48.5711 112.213 35.2648 121.603 34.7012 122.002C34.6592 122.031 34.6234 122.069 34.5959 122.112C34.5684 122.155 34.5497 122.203 34.5409 122.254C34.5321 122.304 34.5334 122.356 34.5447 122.405C34.556 122.455 34.5771 122.503 34.6067 122.544Z" fill="black"/>
<path d="M25.06 122.259C25.1262 122.259 25.1913 122.242 25.249 122.209C25.3068 122.177 25.3553 122.13 25.3899 122.074C25.4245 122.018 25.4441 121.953 25.4468 121.887C25.4495 121.821 25.4353 121.755 25.4054 121.696C21.3847 113.722 10.4368 101.008 10.3268 100.881C10.2936 100.842 10.2531 100.811 10.2076 100.788C10.1622 100.765 10.1127 100.751 10.062 100.748C10.0112 100.744 9.96028 100.75 9.912 100.766C9.86372 100.782 9.81906 100.808 9.78058 100.841C9.74209 100.874 9.71053 100.915 9.6877 100.96C9.66487 101.005 9.65121 101.055 9.64751 101.106C9.64381 101.156 9.65013 101.207 9.66612 101.256C9.68211 101.304 9.70746 101.349 9.7407 101.387C9.84987 101.514 20.7351 114.151 24.7147 122.046C24.747 122.11 24.7963 122.163 24.8573 122.201C24.9182 122.239 24.9884 122.258 25.06 122.259Z" fill="black"/>
</svg>
