<svg width="156" height="156" viewBox="0 0 156 156" fill="none" xmlns="http://www.w3.org/2000/svg">
<path d="M77.3306 145.998C77.0085 146 77.0031 145.512 77.3252 145.511C78.0135 145.509 78.7096 145.486 79.3963 145.459C79.7177 145.446 79.7386 145.93 79.4172 145.945C78.7274 145.977 78.0244 145.995 77.3306 145.998ZM75.2425 145.98C74.5487 145.972 73.8426 145.933 73.1528 145.891C72.8307 145.872 72.864 145.387 73.1822 145.407C73.8674 145.451 74.5642 145.478 75.2533 145.496C75.57 145.503 75.5638 145.984 75.2433 145.98H75.2425ZM81.4814 145.822C81.1748 145.822 81.1539 145.36 81.4644 145.336C82.1496 145.284 82.8433 145.221 83.5262 145.142C83.8429 145.105 83.9033 145.589 83.5796 145.626C83.0322 145.688 81.644 145.822 81.4806 145.822H81.4814ZM71.0917 145.733C70.8757 145.717 69.8715 145.613 68.9927 145.5C68.6737 145.459 68.7364 144.976 69.0554 145.017C69.7352 145.105 70.4274 145.184 71.1142 145.248C71.4192 145.276 71.3975 145.733 71.0917 145.733ZM85.6159 145.356C85.3116 145.356 85.2884 144.916 85.5795 144.873C86.2632 144.773 86.9515 144.659 87.6243 144.535C87.941 144.477 88.0269 144.954 87.7126 145.012C87.4818 145.054 85.7599 145.356 85.6159 145.356ZM66.9634 145.195C66.8295 145.195 65.2353 144.889 64.8698 144.817C64.5555 144.754 64.6484 144.277 64.9651 144.34C65.6402 144.474 66.327 144.599 67.0029 144.713C67.2948 144.762 67.2592 145.195 66.9634 145.195V145.195ZM89.7055 144.608C89.4221 144.608 89.3687 144.192 89.6552 144.128C90.3264 143.979 91.0047 143.819 91.6705 143.649C91.9818 143.57 92.101 144.04 91.7906 144.119C91.6496 144.155 89.8534 144.608 89.7055 144.608ZM62.8839 144.378C62.8119 144.378 61.059 143.921 60.8042 143.85C60.4945 143.764 60.6223 143.298 60.9328 143.382C61.594 143.562 62.2683 143.737 62.9396 143.897C63.2191 143.963 63.1703 144.377 62.8839 144.377V144.378ZM93.7362 143.576C93.4622 143.576 93.4002 143.179 93.6704 143.099C94.3293 142.904 94.9967 142.7 95.6479 142.48C95.9522 142.377 96.1062 142.841 95.8004 142.941C95.5975 143.008 93.8307 143.576 93.7362 143.576ZM58.874 143.273C58.7184 143.273 56.9732 142.659 56.8114 142.602C56.5087 142.495 56.6713 142.036 56.9748 142.144C57.6213 142.372 58.2856 142.594 58.9468 142.8C59.2116 142.883 59.1512 143.273 58.874 143.273ZM97.6842 142.263C97.4178 142.263 97.3481 141.888 97.6005 141.793C98.2439 141.553 98.8943 141.298 99.5292 141.037C99.8242 140.916 100.013 141.362 99.715 141.486C99.5764 141.543 97.8088 142.263 97.6842 142.263ZM54.937 141.887C54.8309 141.887 53.0826 141.146 52.9131 141.072C52.6173 140.943 52.8109 140.5 53.1059 140.626C53.7415 140.897 54.3872 141.168 55.026 141.419C55.2738 141.515 55.2041 141.887 54.9377 141.887H54.937ZM101.53 140.681C101.267 140.681 101.188 140.327 101.428 140.218C102.053 139.933 102.681 139.635 103.296 139.332C103.585 139.189 103.8 139.623 103.513 139.767C103.378 139.835 101.684 140.681 101.531 140.681L101.53 140.681ZM51.1075 140.228C51.0053 140.228 49.2075 139.313 49.1301 139.273C48.8452 139.125 49.0666 138.694 49.3538 138.841C49.9663 139.155 50.5903 139.47 51.2128 139.765C51.4466 139.876 51.3653 140.228 51.1067 140.228H51.1075ZM105.249 138.836C104.996 138.836 104.91 138.498 105.132 138.378C105.736 138.051 106.343 137.709 106.935 137.364C107.213 137.201 107.459 137.621 107.181 137.783C107.063 137.852 105.386 138.836 105.249 138.836L105.249 138.836ZM47.4081 138.31C47.2726 138.31 45.6483 137.316 45.4864 137.217C45.2116 137.05 45.464 136.636 45.7381 136.805C46.3226 137.165 46.9266 137.516 47.5282 137.856C47.7442 137.979 47.6582 138.311 47.4081 138.311V138.31ZM108.7 136.288C109.28 135.921 109.862 135.539 110.429 135.149C110.692 134.969 110.971 135.369 110.703 135.552C110.132 135.943 109.542 136.325 108.96 136.699C108.692 136.871 108.43 136.459 108.7 136.288ZM43.7188 136.096C43.1343 135.721 42.5575 135.317 41.993 134.916C41.7306 134.729 42.0132 134.334 42.2741 134.52C42.8339 134.919 43.4107 135.312 43.986 135.692C44.2507 135.867 43.9937 136.273 43.7188 136.096ZM112.117 133.952C112.669 133.545 113.223 133.124 113.765 132.698C114.019 132.498 114.318 132.882 114.067 133.08C113.521 133.51 112.966 133.938 112.407 134.344C112.149 134.531 111.854 134.146 112.117 133.952ZM40.309 133.673C39.7624 133.246 39.2065 132.814 38.6699 132.375C38.4214 132.172 38.7311 131.796 38.9789 132.001C39.5077 132.438 40.0582 132.868 40.604 133.287C40.8611 133.485 40.5576 133.866 40.309 133.672V133.673ZM115.366 131.385C115.889 130.941 116.414 130.482 116.924 130.018C117.162 129.802 117.489 130.162 117.249 130.378C116.735 130.842 116.207 131.308 115.68 131.755C115.44 131.959 115.119 131.595 115.367 131.386L115.366 131.385ZM37.0773 131.023C36.5562 130.563 36.0359 130.092 35.5319 129.616C35.2973 129.394 35.6326 129.043 35.8648 129.262C36.3642 129.734 36.8791 130.202 37.3978 130.658C37.6379 130.869 37.3196 131.236 37.0773 131.022V131.023ZM118.433 128.602C118.929 128.122 119.418 127.624 119.894 127.13C120.117 126.898 120.466 127.236 120.244 127.467C119.765 127.966 119.268 128.461 118.772 128.95C118.544 129.174 118.203 128.825 118.433 128.602ZM34.0368 128.156C33.5514 127.659 33.0605 127.156 32.5936 126.647C32.3768 126.41 32.7314 126.08 32.9505 126.317C33.4182 126.821 33.899 127.323 34.3829 127.813C34.6113 128.045 34.2583 128.382 34.036 128.155L34.0368 128.156ZM121.303 125.608C121.761 125.096 122.216 124.565 122.659 124.04C122.868 123.792 123.235 124.105 123.032 124.35C122.589 124.883 122.13 125.416 121.666 125.932C121.453 126.168 121.088 125.848 121.303 125.608H121.303ZM31.2031 125.087C30.7486 124.565 30.3003 124.023 29.8675 123.483C29.6662 123.232 30.0432 122.928 30.2453 123.178C30.6773 123.712 31.1233 124.248 31.5701 124.77C31.7799 125.014 31.4082 125.324 31.2023 125.087H31.2031ZM124.147 122.819C123.961 122.819 123.829 122.593 123.958 122.427C124.379 121.883 124.801 121.326 125.202 120.767C125.388 120.508 125.785 120.791 125.594 121.053C124.316 122.809 124.297 122.819 124.147 122.819ZM28.5892 121.834C28.1781 121.278 27.7638 120.71 27.3682 120.141C27.1847 119.878 27.5834 119.6 27.7669 119.864C28.1603 120.429 28.5675 120.992 28.9779 121.543C29.173 121.804 28.775 122.085 28.5892 121.834ZM126.392 119.064C126.776 118.492 127.156 117.906 127.519 117.323C127.689 117.05 128.102 117.307 127.932 117.579C127.566 118.168 127.183 118.759 126.796 119.335C126.62 119.595 126.211 119.335 126.392 119.064ZM26.206 118.409C25.8267 117.826 25.4604 117.228 25.1043 116.636C24.9386 116.361 25.3551 116.111 25.5208 116.386C25.8731 116.972 26.2386 117.564 26.6118 118.143C26.7875 118.416 26.3764 118.669 26.206 118.409ZM128.582 115.541C128.924 114.944 129.263 114.334 129.586 113.724C129.737 113.44 130.165 113.668 130.015 113.95C129.689 114.564 129.349 115.182 129.003 115.782C128.845 116.056 128.423 115.819 128.582 115.541ZM24.066 114.828C23.7292 114.225 23.4056 113.604 23.0912 112.985C22.9464 112.7 23.3785 112.479 23.5248 112.767C23.8353 113.379 24.1628 113.994 24.4911 114.595C24.6436 114.874 24.2209 115.106 24.066 114.828ZM130.527 111.875C130.831 111.254 131.126 110.62 131.401 109.991C131.53 109.699 131.977 109.893 131.846 110.188C131.563 110.821 131.267 111.459 130.963 112.088C130.822 112.379 130.389 112.157 130.528 111.875H130.527ZM22.183 111.11C21.8896 110.483 21.6078 109.84 21.3399 109.205C21.2152 108.909 21.6627 108.72 21.7874 109.018C22.053 109.649 22.3332 110.285 22.6236 110.907C22.7591 111.196 22.3208 111.404 22.183 111.11ZM132.212 108.076C132.467 107.434 132.72 106.783 132.953 106.135C133.061 105.835 133.519 105.997 133.409 106.3C133.174 106.952 132.92 107.611 132.661 108.257C132.541 108.555 132.094 108.373 132.212 108.076ZM20.5633 107.272C20.3179 106.622 20.0763 105.962 19.8525 105.307C19.7488 105.002 20.2079 104.844 20.3124 105.149C20.5347 105.799 20.77 106.456 21.017 107.098C21.1324 107.398 20.6779 107.572 20.5641 107.272H20.5633ZM133.627 104.169C133.84 103.513 134.042 102.845 134.229 102.186C134.316 101.879 134.783 102.01 134.696 102.32C134.507 102.985 134.302 103.658 134.089 104.319C133.989 104.63 133.53 104.468 133.627 104.169ZM19.2107 103.318C19.0102 102.654 18.8166 101.977 18.6385 101.308C18.5557 100.997 19.0241 100.875 19.1069 101.184C19.285 101.848 19.4763 102.517 19.6745 103.177C19.7674 103.487 19.3036 103.624 19.2115 103.319L19.2107 103.318ZM134.76 100.181C134.926 99.5137 135.08 98.8331 135.221 98.1603C135.287 97.8467 135.763 97.9451 135.697 98.261C135.554 98.9392 135.399 99.6244 135.232 100.297C135.156 100.604 134.682 100.498 134.761 100.181H134.76ZM18.1383 99.2791C17.9881 98.6016 17.8403 97.9141 17.7079 97.2343C17.6467 96.9192 18.1236 96.8271 18.1848 97.1422C18.3164 97.8166 18.4581 98.4979 18.6114 99.1699C18.6834 99.4843 18.2073 99.5927 18.1376 99.2791H18.1383ZM135.613 96.1256C135.73 95.4489 135.837 94.7606 135.932 94.0792C135.976 93.7626 136.458 93.8268 136.413 94.1466C136.316 94.8334 136.21 95.5286 136.09 96.2107C136.034 96.529 135.559 96.4407 135.613 96.1256ZM17.3509 95.1771C17.2425 94.4919 17.1465 93.7966 17.0645 93.1083C17.0265 92.7878 17.5089 92.7313 17.5468 93.0495C17.6281 93.7316 17.7249 94.423 17.831 95.1012C17.8805 95.4187 17.4005 95.4946 17.3502 95.1779L17.3509 95.1771ZM136.182 92.022C136.253 91.3407 136.313 90.6447 136.359 89.9579C136.38 89.635 136.864 89.673 136.843 89.9912C136.797 90.6849 136.733 91.3856 136.664 92.0724C136.631 92.3999 136.15 92.3302 136.181 92.022H136.182ZM16.8515 91.0302C16.7935 90.3419 16.7447 89.6389 16.7091 88.9452C16.6928 88.6231 17.1783 88.6014 17.1945 88.9212C17.2294 89.6095 17.2758 90.3055 17.337 90.9884C17.3664 91.3159 16.8779 91.3415 16.8515 91.0302ZM136.466 87.8875C136.511 86.7029 136.515 85.1335 136.466 83.7755C136.455 83.4495 136.941 83.4426 136.952 83.7585C136.997 85.0042 137 86.5613 136.95 87.9023C136.938 88.2313 136.455 88.1965 136.466 87.8883V87.8875ZM16.6363 86.857C16.6317 86.5102 16.6317 85.1142 16.6363 84.7634C16.6409 84.4406 17.1264 84.4522 17.1218 84.7704C17.1171 85.1173 17.1171 86.5032 17.1218 86.8462C17.1264 87.1706 16.6402 87.1698 16.6363 86.8562V86.857ZM16.7075 82.6753C16.7431 81.9831 16.7896 81.2809 16.8515 80.5887C16.8802 80.2666 17.3633 80.3146 17.3354 80.6305C17.2751 81.3172 17.2294 82.0125 17.193 82.6993C17.1759 83.0252 16.6913 82.9873 16.7075 82.6753ZM136.36 81.7075C136.309 81.0207 136.255 80.3254 136.185 79.6433C136.153 79.3236 136.636 79.2732 136.669 79.593C136.74 80.2798 136.8 80.9804 136.847 81.6726C136.868 82.0001 136.384 82.0195 136.361 81.7075H136.36ZM17.066 78.509C17.1481 77.8184 17.2464 77.1231 17.354 76.4379C17.4044 76.1189 17.8836 76.1956 17.8341 76.5122C17.728 77.192 17.6335 77.8827 17.5499 78.5656C17.5112 78.8807 17.0273 78.8311 17.066 78.5083V78.509ZM135.938 77.5885C135.848 76.9063 135.736 76.2188 135.619 75.5421C135.564 75.2254 136.044 75.1426 136.098 75.4593C136.215 76.1414 136.322 76.8351 136.418 77.5234C136.463 77.8416 135.98 77.9082 135.938 77.5892V77.5885ZM17.711 74.3784C17.8434 73.6986 17.9874 73.0103 18.1414 72.3321C18.2127 72.02 18.6881 72.1261 18.6153 72.4412C18.4589 73.1133 18.318 73.7962 18.1887 74.4705C18.1275 74.7888 17.6506 74.6928 17.7117 74.3784H17.711ZM135.467 73.704C135.169 73.704 135.287 73.5608 134.769 71.4912C134.691 71.1784 135.164 71.0662 135.239 71.3751C135.403 72.0487 135.562 72.7331 135.704 73.4114C135.736 73.5608 135.622 73.7048 135.466 73.7048L135.467 73.704ZM18.8801 70.6117C18.7252 70.6117 18.6021 70.463 18.6439 70.3051C18.8236 69.6361 19.0171 68.9594 19.2161 68.2951C19.3075 67.9901 19.7759 68.1271 19.6807 68.4376C19.0512 70.4917 19.1642 70.6124 18.8793 70.6124L18.8801 70.6117ZM134.471 69.6632C134.193 69.6632 134.301 69.5595 133.637 67.5038C133.539 67.1988 133.999 67.0501 134.099 67.3544C134.314 68.0133 134.515 68.6861 134.704 69.3543C134.748 69.5068 134.633 69.6632 134.472 69.6632H134.471ZM19.8603 66.3037C20.084 65.6503 20.3217 64.9883 20.571 64.3387C20.6864 64.0383 21.1386 64.2109 21.0255 64.5121C20.7824 65.1586 20.5424 65.8136 20.3194 66.4617C20.2133 66.7698 19.7573 66.6034 19.8595 66.3037H19.8603ZM133.197 65.7037C132.931 65.7037 133.035 65.6061 132.23 63.6086C132.111 63.312 132.561 63.1285 132.682 63.4282C132.94 64.0716 133.192 64.7281 133.426 65.3793C133.482 65.5341 133.371 65.7037 133.197 65.7037ZM21.5776 62.7399C21.4088 62.7399 21.2834 62.5657 21.3538 62.4015C21.6279 61.7651 21.9074 61.1194 22.2016 60.4899C22.3387 60.198 22.7777 60.4047 22.6422 60.6943C21.7425 62.6183 21.8354 62.7391 21.5768 62.7391L21.5776 62.7399ZM131.65 61.8448C131.402 61.8448 131.505 61.7697 130.557 59.8186C130.417 59.5306 130.854 59.3169 130.995 59.6072C131.297 60.2297 131.593 60.8677 131.872 61.5026C131.943 61.6652 131.825 61.844 131.65 61.844V61.8448ZM23.3312 58.9623C23.1516 58.9623 23.0332 58.7734 23.116 58.61C23.4296 57.9922 23.761 57.3727 24.0939 56.7626C24.2472 56.4824 24.6746 56.7146 24.5189 56.9965C23.459 58.9143 23.5635 58.9615 23.3312 58.9615V58.9623ZM129.836 58.0982C129.609 58.0982 129.719 58.0773 128.62 56.1541C128.461 55.8753 128.883 55.6338 129.041 55.9133C129.385 56.5157 129.726 57.1312 130.049 57.7428C130.134 57.9031 130.019 58.0982 129.836 58.0982ZM25.3451 55.3179C25.1546 55.3179 25.0385 55.1112 25.1353 54.9501C25.4922 54.3578 25.8623 53.7585 26.2401 53.1755C26.4151 52.9053 26.8239 53.1686 26.6497 53.4388C25.4395 55.3117 25.5611 55.3171 25.3451 55.3171V55.3179ZM127.763 54.4887C127.548 54.4887 127.679 54.484 126.434 52.6328C126.256 52.3664 126.658 52.0962 126.837 52.3626C127.224 52.9386 127.604 53.5301 127.97 54.1178C128.071 54.2812 127.953 54.4887 127.763 54.4887ZM27.6036 51.8229C27.4077 51.8229 27.2931 51.6023 27.4038 51.4412C27.7971 50.8729 28.2137 50.3046 28.6287 49.7487C28.8191 49.4932 29.2109 49.7812 29.0173 50.0398C27.6771 51.8353 27.8049 51.8229 27.6036 51.8229ZM125.446 51.034C125.246 51.034 125.329 50.9829 124.008 49.2718C123.812 49.0178 124.195 48.7213 124.391 48.9752C124.815 49.5242 125.239 50.0863 125.643 50.6491C125.758 50.8086 125.646 51.034 125.446 51.034ZM30.099 48.4944C29.9008 48.4944 29.7815 48.2598 29.9116 48.0988C30.3475 47.5607 30.7943 47.0179 31.2503 46.4945C31.4624 46.2506 31.8248 46.5719 31.6165 46.812C30.2368 48.3945 30.3119 48.4944 30.099 48.4944ZM122.898 47.7418C122.689 47.7418 122.781 47.6783 121.358 46.0873C121.143 45.8472 121.505 45.5236 121.72 45.7628C122.186 46.2801 122.643 46.8151 123.083 47.3446C123.212 47.4995 123.104 47.7418 122.898 47.7418ZM32.8205 45.3463C32.6207 45.3463 32.4961 45.0978 32.6439 44.9367C33.1131 44.4265 33.6025 43.9217 34.0902 43.4277C34.314 43.2016 34.6624 43.5408 34.4332 43.7715C32.9165 45.2952 33.014 45.3463 32.8205 45.3463ZM120.127 44.6402C119.952 44.6402 120.053 44.617 118.494 43.0909C118.264 42.8664 118.604 42.5195 118.834 42.744C119.329 43.2287 119.825 43.7266 120.302 44.2291C120.449 44.3831 120.341 44.6402 120.127 44.6402ZM35.7549 42.3925C35.5365 42.3925 35.4258 42.1223 35.5869 41.9713C36.0909 41.4952 36.612 41.0244 37.1338 40.5661C37.3746 40.3547 37.6983 40.7186 37.4544 40.9323C35.8431 42.3484 35.9322 42.3925 35.7549 42.3925ZM117.147 41.7336C116.974 41.7336 117.088 41.7081 115.428 40.299C115.184 40.0915 115.497 39.7221 115.742 39.9296C116.272 40.3787 116.799 40.8433 117.311 41.3101C117.476 41.4603 117.367 41.7336 117.147 41.7336H117.147ZM38.8798 39.6486C38.6583 39.6486 38.5468 39.3637 38.7272 39.2166C39.263 38.7783 39.8143 38.3417 40.3663 37.9228C40.6226 37.7277 40.9153 38.1132 40.6613 38.3076C38.9254 39.6377 39.04 39.6486 38.8798 39.6486ZM113.974 39.04C113.808 39.04 113.874 38.9843 112.176 37.7284C111.916 37.5364 112.205 37.147 112.464 37.3367C113.025 37.7486 113.582 38.1775 114.125 38.6064C114.307 38.7497 114.204 39.04 113.974 39.04ZM42.1889 37.1284C41.9613 37.1284 41.8513 36.8264 42.0488 36.6863C42.6132 36.2845 43.1939 35.8865 43.773 35.5087C44.0425 35.3329 44.3088 35.7371 44.0401 35.9144C42.3151 37.0525 42.3476 37.1284 42.1897 37.1284H42.1889ZM110.486 36.5284C109.923 36.135 109.337 35.7541 108.755 35.3871C108.484 35.216 108.745 34.8049 109.015 34.9775C109.6 35.3515 110.188 35.7363 110.76 36.1273C111.026 36.3092 110.747 36.7095 110.486 36.5276V36.5284ZM45.6645 34.8428C45.4245 34.8428 45.3246 34.5215 45.5376 34.3922C46.126 34.0345 46.733 33.6783 47.34 33.3361C47.6195 33.1782 47.8588 33.6009 47.5793 33.7596C45.7172 34.8134 45.8047 34.8436 45.6645 34.8436V34.8428ZM107.111 34.3419C106.998 34.3419 106.425 33.964 105.18 33.2889C104.899 33.1364 105.129 32.7082 105.413 32.8623C106.021 33.1921 106.633 33.5382 107.234 33.8889C107.447 34.0136 107.359 34.3419 107.111 34.3419ZM49.1781 32.342C49.7936 32.0222 50.4231 31.7102 51.0494 31.4144C51.3382 31.2782 51.5512 31.7141 51.2577 31.8534C50.6368 32.1476 50.0119 32.4566 49.4018 32.7748C49.1154 32.9242 48.8939 32.4906 49.1781 32.3428V32.342ZM103.34 32.3311C102.727 32.0253 102.096 31.7264 101.467 31.44C101.173 31.306 101.377 30.8655 101.667 30.9979C102.299 31.2867 102.936 31.5894 103.556 31.896C103.838 32.0354 103.634 32.4775 103.341 32.3311H103.34ZM53.0447 31.0203C52.7876 31.0203 52.7048 30.6603 52.9495 30.5535C53.582 30.2786 54.2324 30.0115 54.8797 29.7591C55.1801 29.6422 55.3535 30.0943 55.0562 30.2097C53.1748 30.9437 53.1717 31.0196 53.0439 31.0196L53.0447 31.0203ZM99.66 30.6371C99.5524 30.6371 99.6662 30.6193 97.6338 29.8582C97.3334 29.7459 97.5038 29.2891 97.8034 29.4037C98.4522 29.6507 99.1088 29.9046 99.7514 30.1687C99.9953 30.2693 99.9233 30.6371 99.6593 30.6371H99.66ZM56.9183 29.5028C56.645 29.5028 56.5815 29.1219 56.8385 29.0313C57.4904 28.8013 58.1563 28.5799 58.8191 28.3739C59.1257 28.2787 59.2697 28.7417 58.9631 28.8369C57.9132 29.1637 56.9911 29.5028 56.9183 29.5028ZM95.7524 29.1823C95.6394 29.1823 95.7586 29.1606 93.6952 28.5489C93.3855 28.4568 93.5257 27.9915 93.8323 28.082C94.4997 28.2795 95.1709 28.4908 95.8283 28.7084C96.0877 28.7944 96.0273 29.1823 95.7516 29.1823H95.7524ZM60.8832 28.2632C60.6014 28.2632 60.5472 27.8598 60.819 27.7863C61.4871 27.6051 62.1669 27.4294 62.8397 27.2675C63.1518 27.1924 63.2664 27.6663 62.9528 27.7414C61.7473 28.0302 60.9684 28.2632 60.8832 28.2632ZM91.7565 28.0069C91.6582 28.0069 91.3856 27.8993 89.6753 27.5176C89.3594 27.4472 89.4663 26.9733 89.7791 27.0422C90.4573 27.1924 91.1417 27.3558 91.8153 27.5277C92.0902 27.5981 92.0399 28.0062 91.7565 28.0062V28.0069ZM64.9264 27.3024C64.6314 27.3024 64.5926 26.8789 64.8776 26.8223C65.5543 26.6876 66.2441 26.5606 66.9293 26.4461C67.2445 26.3934 67.3273 26.8711 67.0091 26.9245C65.0231 27.259 65.0131 27.3024 64.9264 27.3024ZM87.6839 27.1119C87.5957 27.1119 87.2202 27.0066 85.5919 26.7689C85.2752 26.7225 85.3441 26.2401 85.6631 26.2881C86.3491 26.3926 87.0452 26.5049 87.7288 26.6296C88.0176 26.6822 87.9774 27.1119 87.6839 27.1119ZM69.026 26.6249C68.7241 26.6249 68.6939 26.1797 68.995 26.141C69.6803 26.052 70.3794 25.9769 71.0716 25.9087C71.3914 25.877 71.4386 26.3609 71.118 26.3926C69.3605 26.5684 69.1034 26.6249 69.026 26.6249ZM83.5556 26.5018C83.3799 26.5018 83.122 26.4344 81.4675 26.3059C81.1469 26.2811 81.1833 25.7996 81.5038 25.822C82.1976 25.8716 82.8967 25.9397 83.5835 26.0179C83.8855 26.052 83.8583 26.5018 83.5556 26.5018ZM73.1698 26.2308C72.8578 26.2308 72.8431 25.7647 73.1543 25.7469C73.8465 25.7082 74.5488 25.6672 75.2409 25.6586C75.5669 25.6548 75.5708 26.1364 75.2549 26.1425C74.0904 26.165 73.2767 26.2308 73.1698 26.2308ZM79.4087 26.1805C79.2175 26.1805 78.4518 26.1325 77.3275 26.1271C77.0078 26.1255 77.0093 25.6401 77.3291 25.6416C78.0244 25.6439 78.7289 25.6672 79.4188 25.695C79.7308 25.7074 79.7254 26.1805 79.4087 26.1805Z" fill="black"/>
<path d="M28.2129 27.0359C28.9872 27.0359 29.6143 27.663 29.6143 28.4373C29.6143 29.2115 28.9872 29.8387 28.2129 29.8387C27.4387 29.8387 26.8115 29.2115 26.8115 28.4373C26.8115 27.663 27.4387 27.0359 28.2129 27.0359Z" fill="white"/>
<path d="M28.2129 30.0798C27.3054 30.0798 26.5684 29.3427 26.5684 28.4353C26.5684 27.5279 27.3054 26.7908 28.2129 26.7908C29.1203 26.7908 29.8574 27.5279 29.8574 28.4353C29.8574 29.3427 29.1203 30.0798 28.2129 30.0798ZM28.2129 27.277C27.5749 27.277 27.0546 27.7973 27.0546 28.4353C27.0546 29.0733 27.5749 29.5936 28.2129 29.5936C28.8509 29.5936 29.3711 29.0733 29.3711 28.4353C29.3711 27.7973 28.8509 27.277 28.2129 27.277Z" fill="black"/>
<path d="M125.573 17.3624C126.726 19.7425 126.643 19.6077 126.736 19.624L129.147 20.0057C129.249 20.0212 129.289 20.1497 129.215 20.2209C127.307 22.0528 127.407 21.9351 127.423 22.028L127.805 24.4391C127.82 24.5413 127.713 24.6195 127.621 24.5707C125.288 23.3334 125.432 23.3807 125.349 23.424L123.174 24.532C123.082 24.5784 122.974 24.501 122.992 24.3988C123.422 21.9111 123.459 21.9622 123.381 21.884L121.655 20.1582C121.582 20.0854 121.624 19.9585 121.726 19.943C124.343 19.559 124.195 19.6193 124.239 19.5357L125.347 17.3609C125.394 17.2687 125.528 17.2695 125.573 17.3624Z" fill="#D142A7"/>
<path d="M129.185 19.7651L126.835 19.392L125.791 17.2535C125.664 16.9933 125.276 16.9631 125.13 17.2481L124.049 19.3695L121.692 19.7009C121.394 19.7419 121.267 20.1112 121.483 20.3273L123.165 22.0097L122.752 24.3534C122.701 24.6522 123.013 24.886 123.284 24.7467L125.405 23.6658C127.694 24.8822 127.552 24.8257 127.681 24.8257C127.893 24.8257 128.085 24.6305 128.047 24.3975L127.674 22.0476L129.385 20.3946C129.602 20.1856 129.488 19.8139 129.186 19.7651H129.185ZM127.291 21.7387C127.102 21.923 127.152 21.8758 127.527 24.2434C125.408 23.1169 125.534 23.1649 125.406 23.1649C125.273 23.1649 125.438 23.1006 123.271 24.2055C123.688 21.8401 123.734 21.8881 123.552 21.7062L121.991 20.1453L124.177 19.8387C124.433 19.8046 124.373 19.8015 125.457 17.6739C126.514 19.8402 126.446 19.8201 126.699 19.8612L128.879 20.2065L127.292 21.7395L127.291 21.7387Z" fill="black"/>
<path d="M81.3562 132.169L79.8542 131.932L79.186 130.565C79.0706 130.326 78.7284 130.32 78.603 130.562L77.9124 131.918L76.4049 132.13C76.1378 132.168 76.0302 132.494 76.2199 132.683L77.2953 133.759L77.0313 135.257C76.9825 135.519 77.262 135.725 77.4997 135.602L78.8562 134.912C80.304 135.681 80.2398 135.664 80.3528 135.664C80.5293 135.664 80.7066 135.498 80.6733 135.282L80.4357 133.78L81.5304 132.724C81.7232 132.543 81.6226 132.211 81.3555 132.169H81.3562Z" fill="black"/>
<path d="M108.955 85.8196C108.955 103.572 94.5626 117.963 76.8091 117.963C59.0555 117.963 44.666 103.572 44.666 85.8196C44.666 68.0676 59.0586 53.675 76.8106 53.675C94.5626 53.675 108.955 68.0684 108.955 85.8196Z" fill="white"/>
<path d="M76.8221 53.3631C58.9601 53.3561 44.4661 67.7727 44.3546 85.6121C44.2432 103.477 58.6837 118.247 76.7602 118.274C86.1696 118.288 95.5838 114.24 102.108 106.129C102.165 106.093 102.209 106.039 102.234 105.972C106.872 100.134 109.259 93.0039 109.272 85.8305C109.303 68.1265 94.9527 53.3693 76.8229 53.3623L76.8221 53.3631ZM108.64 85.5076H93.0512C93.0218 79.2679 92.1205 73.3055 90.4629 68.1877C94.8064 67.7169 98.6916 67.0193 101.82 66.1289C106.219 71.7043 108.573 78.3945 108.639 85.5076H108.64ZM77.121 53.994C82.2922 54.2015 86.8556 59.5579 89.6251 67.6465C85.7361 68.039 81.4986 68.2519 77.121 68.2612V53.994ZM76.4961 68.2612C72.1185 68.2519 67.8803 68.039 63.992 67.6472C66.7615 59.5586 71.3249 54.2015 76.4961 53.994V68.2612ZM76.4961 68.8875V85.5076H61.1907C61.2209 79.1386 62.174 73.211 63.7891 68.255C67.7386 68.6592 72.0465 68.8782 76.4961 68.8875ZM76.4961 86.1316V102.75C72.0465 102.76 67.7378 102.979 63.7884 103.384C62.1733 98.4275 61.2209 92.5006 61.1907 86.1316H76.4961ZM76.4961 103.376V117.645C71.3241 117.438 66.7607 112.081 63.9912 103.991C67.8803 103.599 72.1185 103.386 76.4961 103.376ZM77.121 103.376C81.4994 103.385 85.7368 103.598 89.6259 103.991C86.8564 112.08 82.2922 117.438 77.121 117.645V103.376ZM77.121 102.749V86.1309H92.4264C92.3962 92.4991 91.4438 98.4252 89.8288 103.382C85.8793 102.978 81.5706 102.759 77.1202 102.749H77.121ZM77.121 85.5068V68.8868C81.5714 68.8767 85.8793 68.6576 89.8288 68.2534C91.4438 73.2102 92.3969 79.1371 92.4264 85.5068H77.121ZM101.395 65.5986C98.3091 66.4541 94.5045 67.1254 90.2616 67.5791C88.5327 62.4992 85.3691 56.4345 80.5122 54.1993C88.662 55.1408 96.1095 59.1746 101.395 65.5978L101.395 65.5986ZM73.1057 54.2C68.2496 56.4353 65.0837 62.4992 63.3555 67.5807C59.1134 67.1269 55.3095 66.4564 52.2241 65.6001C57.5115 59.1754 64.9575 55.1423 73.1065 54.2008L73.1057 54.2ZM51.7975 66.1289C54.927 67.0193 58.8115 67.7161 63.1535 68.1869C61.4958 73.3039 60.5946 79.2671 60.5659 85.5068H44.9795C45.0461 78.3938 47.3998 71.7043 51.7975 66.1289ZM44.9795 86.1316H60.5659C60.5953 92.3713 61.4966 98.3331 63.1535 103.45C58.8177 103.92 54.9379 104.616 51.8115 105.505C47.5933 100.16 45.0499 93.4367 44.9795 86.1324V86.1316ZM52.2381 106.034C55.3204 105.18 59.1196 104.511 63.3548 104.057C65.0814 109.135 68.2449 115.196 73.0964 117.435C64.7275 116.458 57.3388 112.222 52.2381 106.034ZM80.5199 117.435C85.3714 115.195 88.5358 109.135 90.2623 104.056C94.4975 104.509 98.2967 105.179 101.38 106.033C96.279 112.222 88.8896 116.458 80.5199 117.434V117.435ZM101.807 105.503C98.68 104.615 94.7994 103.919 90.4636 103.449C92.1205 98.3323 93.0218 92.3706 93.0512 86.1316H108.639C108.569 93.4359 106.025 100.16 101.807 105.503Z" fill="black"/>
<path d="M38.559 46.2397H6.22314V78.5748H38.559V46.2397Z" fill="white"/>
<path d="M38.8017 46.2397C38.8017 46.1065 38.6925 45.9966 38.5594 45.9966H4.48921C4.35526 45.9966 4.24609 46.1058 4.24609 46.2397V78.5748C4.24609 78.7087 4.35526 78.8179 4.48921 78.8179H38.5586C38.6918 78.8179 38.8009 78.7087 38.8009 78.5748V46.2397H38.8017ZM38.3163 78.3324H6.46665V46.482H38.3163V78.3324Z" fill="black"/>
<path d="M28.3133 58.757C28.1383 58.6795 27.9618 58.6679 27.7906 58.7097C27.8448 57.3695 27.8208 56.2399 27.7906 55.7529C27.5808 52.3346 25.711 50.426 22.2424 50.426C18.7737 50.426 16.5137 52.7294 16.3743 56.0788C16.3542 56.5635 16.3759 57.5375 16.4672 58.7051C16.3015 58.6679 16.1327 58.6834 15.964 58.7577C14.7917 59.2703 15.4893 61.7804 16.876 61.9554C17.1664 63.5504 17.4219 64.6846 18.5097 65.7717C18.5964 66.5738 18.7938 69.2156 17.7393 70.0185C18.6599 71.4733 20.9408 72.1151 22.4986 73.4213C23.612 72.3993 25.893 71.4384 26.8608 70.0185C25.6212 69.2264 25.7342 66.9067 25.8279 66.014C26.9219 64.9479 27.2587 63.4784 27.4933 61.9616C28.633 61.8919 29.5559 59.3013 28.3125 58.757H28.3133Z" fill="#FCFCFC"/>
<path d="M20.3416 63.6294C21.7027 63.8183 23.0128 63.8981 24.0704 63.4753C24.0704 63.4753 22.9175 65.5488 21.8344 65.1268C20.9029 64.7637 20.3408 63.6302 20.3408 63.6302L20.3416 63.6294Z" fill="white"/>
<path d="M21.0929 59.7055C21.5342 58.3467 21.2772 57.9046 21.6078 57.9348C21.703 57.9433 21.7735 58.0285 21.7642 58.1237C21.6898 58.8654 21.5404 59.4539 21.4227 59.8147C21.216 60.4465 22.3216 60.9621 23.0564 60.0075C23.1965 59.8255 23.4706 60.0346 23.332 60.2173C22.3882 61.4623 20.7561 60.7414 21.0929 59.7055Z" fill="black"/>
<path d="M24.3643 63.1593C22.9645 63.8306 20.8655 63.6432 19.8892 63.3033C19.6732 63.229 19.5593 63.5557 19.7761 63.6308C19.8861 63.6688 20.0216 63.7083 20.1764 63.7454C20.3514 64.066 20.8121 64.6529 21.3626 65.074C22.4798 65.9249 23.5142 64.728 24.2931 63.5681C24.3674 63.5379 24.4402 63.5062 24.5122 63.4713C24.719 63.3722 24.5703 63.0594 24.3628 63.1593H24.3643ZM21.5755 64.7984C21.1504 64.4732 20.8338 64.0884 20.6549 63.8422C21.639 64.0079 22.7779 64.0141 23.7426 63.7539C23.1418 64.5816 22.3683 65.4054 21.5755 64.7984Z" fill="black"/>
<path d="M19.5893 58.2354C19.8309 58.2354 20.0268 58.4684 20.0268 58.7556C20.0268 59.0429 19.8309 59.2759 19.5893 59.2759C19.3477 59.2759 19.1519 59.0429 19.1519 58.7556C19.1519 58.4684 19.3477 58.2354 19.5893 58.2354Z" fill="black"/>
<path d="M24.7026 58.2354C24.9442 58.2354 25.14 58.4684 25.14 58.7556C25.14 59.0429 24.9442 59.2759 24.7026 59.2759C24.461 59.2759 24.2651 59.0429 24.2651 58.7556C24.2651 58.4684 24.461 58.2354 24.7026 58.2354Z" fill="black"/>
<path d="M17.6865 56.9616C17.7422 56.9074 19.0476 55.6477 20.7672 56.3166C21.0452 56.425 20.8818 56.8447 20.6038 56.7363C19.1583 56.175 18.0488 57.2372 18.0024 57.2829C17.7918 57.4896 17.4751 57.1683 17.6865 56.9624V56.9616Z" fill="black"/>
<path d="M26.2892 57.283C26.2412 57.2357 25.131 56.1766 23.6878 56.7363C23.4098 56.844 23.2472 56.4243 23.5244 56.3167C25.2448 55.6493 26.5509 56.9082 26.6067 56.9616C26.818 57.1676 26.5029 57.492 26.2892 57.2822V57.283Z" fill="black"/>
<path d="M38.6627 78.3063L37.6918 75.7969C36.892 73.6043 35.0555 71.983 32.7885 71.4611L26.9506 69.8732C25.639 69.0331 25.9743 66.7057 26.0277 66.0243C27.0799 64.9698 27.4066 63.5994 27.6466 62.119C28.2188 61.999 28.6323 61.4052 28.8669 60.8725C29.4243 59.6019 28.8382 58.504 27.9742 58.5141C28.0183 57.2436 27.9927 56.1937 27.9649 55.7438C27.745 52.1521 25.766 50.2544 22.2431 50.2544C18.7203 50.2544 16.3495 52.5384 16.2017 56.0737C16.1846 56.4918 16.1993 57.3969 16.2799 58.5149C15.4104 58.528 14.8738 59.6453 15.4127 60.8725C15.7247 61.5832 16.2566 61.9959 16.7282 62.1074C17.0108 63.6087 17.2616 64.6988 18.2674 65.7743C18.3974 66.2404 18.7234 69.0075 17.6596 69.8631L11.6824 71.4611C9.40838 71.9845 7.5734 73.6066 6.77205 75.7993L5.85301 78.3125C5.8112 78.4263 5.89714 78.544 6.01483 78.5448C6.18749 78.544 6.12168 78.5843 7.09646 75.917C7.85677 73.8358 9.59962 72.2958 11.7637 71.7956L15.82 70.7124C16.7351 73.5539 18.5507 76.4752 18.5693 76.5046C18.5956 76.5472 18.6406 76.5758 18.6886 76.5844C18.7946 76.606 18.5221 76.7981 22.2648 73.701V76.6587C22.2648 76.8871 22.6117 76.8886 22.6117 76.6571V73.8505L25.8659 76.5441C25.9518 76.6153 26.071 76.5875 26.1245 76.5023C26.1415 76.4729 27.9409 73.5803 28.8599 70.7519L32.7025 71.7972C34.8619 72.295 36.6055 73.835 37.3666 75.9201L38.3398 78.4333C38.4211 78.6485 38.744 78.5192 38.6627 78.3071V78.3063ZM27.9602 58.8625C28.0609 58.8579 28.1553 58.8772 28.2444 58.9167C29.2161 59.3464 28.5951 61.368 27.7055 61.7373C27.8433 60.7742 27.9207 59.773 27.961 58.8625H27.9602ZM16.3062 58.8625C16.3782 59.7483 16.4905 60.7424 16.6592 61.7226C15.3004 61.176 15.1982 58.8161 16.3062 58.8625ZM17.449 63.6822C16.6925 61.0459 16.5021 57.2335 16.5485 56.0892C16.6871 52.7552 18.9232 50.6013 22.2424 50.6013C25.5616 50.6013 27.4105 52.3859 27.6172 55.7647C27.6799 56.7829 27.7334 61.4625 26.8159 64.1112C25.9572 66.5934 23.4525 67.2554 22.1069 67.2554C20.5839 67.2554 18.1179 66.0135 17.4482 63.6822H17.449ZM18.6971 66.1862C19.7725 67.1168 21.1244 67.6 22.1084 67.6C23.0383 67.6 24.4877 67.3019 25.6452 66.3681C25.5523 67.219 25.4803 69.167 26.6091 70.0559C25.3402 71.5897 23.4208 72.3624 22.4777 73.2055C20.7303 72.0821 18.982 71.3303 17.9747 70.0474C18.9115 69.1469 18.7877 67.0216 18.6971 66.1862ZM18.7621 76.1508C18.3665 75.4934 16.9349 73.029 16.1568 70.6226L17.6712 70.2185C18.6831 71.5386 20.4244 72.3229 22.11 73.3797L18.7621 76.1508ZM25.9325 76.1492L22.6976 73.4719C23.6507 72.6109 25.591 71.863 26.9173 70.2239L28.5246 70.6613C27.7442 73.053 26.3258 75.4942 25.9325 76.1492Z" fill="black"/>
<path d="M17.0981 62.6089C17.0981 62.6089 17.9916 61.5737 21.708 61.5265C25.4252 61.48 27.1657 61.6202 27.2602 63.1253C27.3547 64.6304 26.4604 66.5126 25.5677 67.2652C24.6742 68.0178 21.7568 68.2539 20.439 68.0178C19.1228 67.7824 17.0981 66.1828 17.0981 62.6081V62.6089ZM24.4837 65.5348C24.9274 65.1616 25.5212 64.0745 25.6443 63.0974C25.6792 62.8218 25.4918 62.5647 25.2177 62.5144C24.8515 62.4478 23.8233 62.7498 22.8973 62.7297C22.6666 62.725 22.4459 62.327 22.1726 62.327C21.8582 62.327 21.8582 62.7049 21.5083 62.7087C20.2579 62.7227 19.4821 62.5252 18.9169 62.6708C18.6482 62.7397 18.4802 63.0053 18.5336 63.2794C18.9107 65.2127 19.8762 65.8576 20.5544 65.9676C20.6899 65.9892 20.995 66.0318 21.5122 66.0318C22.9329 66.0318 23.8349 66.158 24.4853 65.534L24.4837 65.5348Z" fill="#D142A7"/>
<path d="M25.2434 62.3419C24.8377 62.2645 23.7925 62.5765 22.8951 62.5533C22.8486 62.5517 22.7495 62.4681 22.6768 62.4062C21.9118 61.755 21.7856 62.5347 21.5022 62.5347C20.2433 62.551 19.476 62.3466 18.8713 62.5037C18.5159 62.5974 18.2922 62.9528 18.3611 63.3136C18.8225 65.6898 20.1341 66.0785 20.5259 66.1404C20.9928 66.2147 21.5084 66.2186 22.6094 66.2186C23.451 66.2186 24.089 66.1489 24.5969 65.665C25.0808 65.2539 25.6824 64.1351 25.8109 63.117C25.8582 62.7476 25.6081 62.4077 25.2442 62.3419H25.2434ZM25.1861 62.6872C25.3681 62.7221 25.495 62.8916 25.471 63.0775C25.3828 63.7727 24.8989 64.9899 24.3646 65.4134C23.8629 65.8919 23.1707 65.8834 22.1255 65.8679C21.4743 65.8617 21.0377 65.8733 20.5816 65.8005C20.2464 65.7463 19.1206 65.4033 18.7033 63.2493C18.5949 62.6803 19.5008 62.7825 20.1202 62.8282C21.6424 62.942 21.7283 62.9249 21.99 62.6253C22.1177 62.479 22.165 62.4263 22.4569 62.6756C22.7712 62.9435 22.8293 63.0047 24.3801 62.7639C24.7216 62.712 25.0444 62.6617 25.1869 62.6872H25.1861Z" fill="black"/>
<path d="M27.4342 63.1178C27.325 61.3726 25.1866 61.3123 21.7071 61.3556C17.9558 61.4021 17.005 62.452 16.9671 62.4969C16.9408 62.5278 16.9253 62.5682 16.9253 62.61C16.9253 66.249 19.008 67.9415 20.4079 68.1916C21.6769 68.4161 24.6879 68.2372 25.679 67.4025C26.588 66.636 27.5333 64.6895 27.4342 63.1186V63.1178ZM25.4552 67.1346C24.6175 67.8407 21.7543 68.0784 20.469 67.8493C19.1946 67.6224 17.3 66.0577 17.2722 62.6843C17.4889 62.4985 18.5714 61.7404 21.7109 61.7009C25.6101 61.6521 27.0084 61.862 27.0881 63.1388C27.1803 64.606 26.3023 66.4223 25.456 67.1346H25.4552Z" fill="black"/>
<path d="M20.2969 50.416C20.2969 50.416 23.6943 50.6777 25.0392 49.7068L20.2969 50.416Z" fill="#D142A7"/>
<path d="M22.1909 51.9546C23.2091 52.0815 26.3587 52.0653 27.3908 50.9744L22.1909 51.9546Z" fill="#D142A7"/>
<path d="M27.5292 50.897C27.149 49.9935 25.9009 49.8564 25.0508 49.7225C25.441 48.8886 18.5014 48.4179 17.6877 50.8947C13.818 51.6078 15.9642 58.758 15.9642 58.758C16.8066 58.4111 16.3598 58.7619 16.541 56.9602C16.692 55.462 18.1329 55.9823 19.566 52.3673C20.4943 53.6146 22.7435 53.3591 24.8232 53.2748C25.1406 53.9964 25.616 54.5964 26.974 55.7376C27.787 56.4205 27.7847 57.3218 27.7421 58.3825C27.7351 58.5652 27.8489 58.5815 28.2817 58.7603C28.2817 58.7603 30.5557 52.4726 27.5292 50.8962V50.897Z" fill="#D142A7"/>
<path d="M27.6605 50.7667C27.244 49.8786 26.0873 49.7021 25.2395 49.5697H25.2271C24.9592 48.5701 18.4926 48.3735 17.5558 50.7404C14.561 51.3923 14.9272 55.9015 15.7967 58.8057C15.8106 58.8545 15.8455 58.8925 15.8888 58.9134C15.9817 58.9583 16.015 58.9234 16.4355 58.7484C16.8334 58.5828 16.5795 58.2731 16.7134 56.9739C16.8528 55.6445 18.354 55.852 19.6223 52.693C20.7209 53.7832 23.0251 53.5184 24.7145 53.4495C25.0722 54.2036 25.632 54.8315 26.8638 55.8659C27.6234 56.507 27.6102 57.3788 27.57 58.3722C27.563 58.5355 27.6605 58.688 27.8108 58.75L28.2165 58.918C28.3156 58.959 28.4162 58.8917 28.4433 58.8119C29.2934 56.2066 30.0623 52.086 27.6613 50.7659L27.6605 50.7667ZM28.1777 58.5262L27.9439 58.4294C27.7705 58.359 28.3334 56.6463 27.0876 55.6003C24.7176 53.6097 25.1543 53.091 24.8237 53.0972C23.0685 53.1328 20.6025 53.4549 19.7105 52.2579C19.6339 52.151 19.4605 52.1704 19.4101 52.2982C18.8991 53.6035 18.306 54.6836 17.02 55.718C15.9585 56.5689 16.4687 58.3629 16.3069 58.4271L16.0816 58.5208C15.3492 55.7846 14.9388 51.575 17.7207 51.0624C17.7834 51.0501 17.8353 51.0067 17.8547 50.9463C18.3347 49.4806 21.1189 49.2639 21.9597 49.2306C23.5408 49.1717 24.6727 49.4357 24.8678 49.6115C23.5454 50.4779 20.3423 50.2441 20.3098 50.2417C20.0822 50.2255 20.0543 50.5662 20.2835 50.5871C21.482 50.697 23.9449 50.6366 25.0653 49.8964L25.1884 49.9158C25.9634 50.0358 26.9157 50.1813 27.2974 50.8193C26.4008 51.846 23.3271 51.9203 22.2137 51.7817C21.9853 51.7531 21.9419 52.0976 22.1703 52.127C23.5617 52.3036 26.5247 52.1534 27.5212 51.0872C30.0042 52.4933 28.5045 57.5274 28.1762 58.5255L28.1777 58.5262Z" fill="black"/>
<path d="M96.059 10.7419H62.4263V44.3747H96.059V10.7419Z" fill="white"/>
<path d="M83.5275 36.2875L89.1919 37.8298C91.3064 38.3176 93.0322 39.8421 93.7762 41.8799L94.7076 44.2871H63.5967C63.5967 44.2871 64.7728 39.9389 66.7758 38.7976C68.7787 37.6564 75.7276 36.0676 75.7276 36.0676L83.5275 36.2875Z" fill="#D142A7"/>
<path d="M96.3021 10.7419C96.3021 10.6087 96.1929 10.4995 96.0597 10.4995H60.623C60.4898 10.4995 60.3799 10.6087 60.3799 10.7419V44.3753C60.3799 44.5085 60.4891 44.6184 60.623 44.6184H96.0597C96.1929 44.6184 96.3021 44.5093 96.3021 44.3753V10.7419ZM95.8166 44.1323H62.6693V10.985H95.8166V44.1323Z" fill="black"/>
<path d="M84.5285 25.4783C84.7329 24.2379 84.8444 23.1958 84.8165 22.7343C84.6152 19.46 82.4582 17.5205 79.1343 17.5205C75.8105 17.5205 73.3847 19.8587 73.2508 23.0672C73.2314 23.5241 73.3646 24.4121 73.5806 25.479C72.5973 25.1631 72.0662 26.3145 72.5671 27.4549C72.9318 28.2849 73.6913 28.7526 74.2643 28.5009L74.2813 28.4932C74.7281 30.2275 74.9286 31.1845 75.8143 32.1918C75.836 33.0202 75.8143 35.5319 74.8202 36.2891C77.3714 42.9446 80.9081 43.0762 83.5584 36.2891C82.3095 35.4901 82.3808 32.9962 82.4334 32.2344C83.2502 31.255 83.5832 29.8659 83.9045 28.5458C84.4635 28.7092 85.1603 28.2485 85.5049 27.465C86.0058 26.3253 85.4762 25.2081 84.527 25.479L84.5285 25.4783Z" fill="#FCFCFC"/>
<path d="M77.2915 29.3045C78.4033 29.4957 79.5616 29.5251 80.8058 29.2681C80.8058 29.2681 78.7525 32.5238 77.2915 29.3045Z" fill="white"/>
<path d="M77.9082 26.9594C77.7525 26.7891 78.0096 26.5568 78.1629 26.7256C78.6878 27.3024 79.3939 27.3287 79.9057 26.6629C80.0459 26.4809 80.3199 26.69 80.1814 26.8727C79.524 27.7391 78.5547 27.6694 77.9074 26.9594H77.9082Z" fill="black"/>
<path d="M81.0455 28.9176C79.6805 29.5091 77.6822 29.2505 76.7616 28.8897C76.5471 28.8068 76.4209 29.1297 76.6354 29.2141C76.7391 29.2544 76.8661 29.2969 77.0132 29.338C77.1712 29.7305 77.8184 30.4212 78.0979 30.6534C79.1385 31.509 80.1706 30.4103 80.9658 29.3225C81.0393 29.2962 81.1121 29.2675 81.1841 29.2366C81.3901 29.1475 81.2615 28.8247 81.0471 28.9176H81.0455ZM78.317 30.3863C77.9299 30.0658 77.645 29.6941 77.4816 29.4518C78.4146 29.6438 79.48 29.6895 80.4067 29.4835C79.8013 30.2493 79.0479 30.9856 78.317 30.3863Z" fill="black"/>
<path d="M76.592 24.5159C76.8235 24.5159 77.0117 24.7389 77.0117 25.0137C77.0117 25.2886 76.8235 25.5116 76.592 25.5116C76.3605 25.5116 76.1724 25.2886 76.1724 25.0137C76.1724 24.7389 76.3605 24.5159 76.592 24.5159Z" fill="black"/>
<path d="M81.49 24.5159C81.7215 24.5159 81.9096 24.7389 81.9096 25.0137C81.9096 25.2886 81.7215 25.5116 81.49 25.5116C81.2585 25.5116 81.0703 25.2886 81.0703 25.0137C81.0703 24.7389 81.2585 24.5159 81.49 24.5159Z" fill="black"/>
<path d="M82.4454 24.9524C82.3076 24.9524 81.5921 24.3237 80.687 24.8572C80.4873 24.9749 80.3139 24.6744 80.5097 24.5591C81.1369 24.1898 81.8562 24.2114 82.536 24.6303C82.6862 24.7232 82.618 24.9532 82.4454 24.9532V24.9524Z" fill="black"/>
<path d="M75.6272 24.9524C75.4507 24.9524 75.3872 24.7209 75.5351 24.6295C76.2164 24.2106 76.9365 24.1866 77.5613 24.5583C77.7595 24.676 77.5799 24.9733 77.384 24.8564C76.4835 24.3198 75.7519 24.9516 75.6272 24.9516V24.9524Z" fill="black"/>
<path d="M82.935 17.4869L82.952 17.4884C84.4811 14.8901 82.3814 11.7056 79.025 11.7056C75.6887 11.7056 73.5611 14.8699 75.0995 17.4915H75.1328C73.6277 18.5476 71.7099 20.7922 73.0741 24.6967C73.1252 24.8423 73.3342 24.8361 73.3776 24.6882C74.3261 21.4549 76.7843 21.6888 76.8641 18.3711C76.8679 18.1992 77.19 18.0947 77.2992 18.3192C78.9599 21.7352 82.5804 21.0539 84.7885 23.7847C84.8729 23.8892 85.0355 23.8466 85.068 23.7243C85.8036 20.9393 84.6778 18.8016 82.935 17.4869Z" fill="black"/>
<path d="M74.7615 23.2878C74.8142 23.236 76.0692 22.025 77.7238 22.6669C78.0019 22.7745 77.8385 23.1949 77.5605 23.0865C76.1831 22.5507 75.1216 23.565 75.0782 23.6084C74.873 23.8135 74.5471 23.4984 74.7608 23.2878H74.7615Z" fill="black"/>
<path d="M83.0018 23.6084C82.9538 23.5611 81.8939 22.5523 80.5196 23.0865C80.2416 23.1949 80.079 22.7745 80.357 22.6669C82.01 22.025 83.2658 23.236 83.3193 23.2878C83.5314 23.4946 83.2148 23.8182 83.0018 23.6084Z" fill="black"/>
<path d="M94.8697 44.2258L93.9398 41.8217C93.1717 39.7197 91.4111 38.1634 89.2378 37.6625L83.6546 36.1434C82.3307 35.2964 82.5714 32.5292 82.5931 32.3101C83.3666 31.3686 83.6717 30.2142 84.0387 28.7423C84.3174 28.7694 84.5868 28.6811 84.8237 28.5364C86.2538 27.6584 86.1965 25.1815 84.7425 25.2636C84.9221 24.1255 85.0173 23.1778 84.9902 22.7241C84.7835 19.3576 82.5064 17.3477 79.1345 17.3477C75.7627 17.3477 73.2169 19.7517 73.0776 23.0624C73.0605 23.4875 73.1728 24.2865 73.3633 25.2667C71.8798 25.1343 71.8008 27.6429 73.2464 28.5364C73.5243 28.7067 73.8441 28.7957 74.1615 28.7214C74.5518 30.2204 74.7445 31.1959 75.6295 32.2412C75.6411 32.4355 75.7898 35.2801 74.7453 36.1294L69.0159 37.6617C66.8356 38.165 65.0749 39.7204 64.3069 41.8225L63.4258 44.2297C63.3839 44.3435 63.4699 44.4619 63.5891 44.4619C63.7556 44.4619 63.689 44.5161 64.6313 41.9379C65.3591 39.9473 67.0268 38.4723 69.0979 37.9954L74.7159 36.4949C77.3274 43.1821 81.002 43.1736 83.66 36.505L89.1534 37.9985C91.2191 38.4739 92.869 39.955 93.6161 41.9425C94.5847 44.5192 94.5421 44.4612 94.7086 44.4612C94.8278 44.4612 94.9138 44.3396 94.8697 44.225V44.2258ZM85.344 27.3912C85.1242 27.893 84.6441 28.4109 84.1223 28.3993C84.3453 27.4671 84.538 26.4962 84.6852 25.6159C85.4881 25.5013 85.7157 26.5473 85.344 27.3912ZM73.4283 28.2391C72.2305 27.5004 72.284 25.3867 73.4345 25.6205C73.6079 26.4699 73.8309 27.4276 74.0748 28.3831C73.8774 28.4256 73.6521 28.3761 73.4283 28.2383V28.2391ZM74.9288 30.2149C74.1553 27.5198 73.3819 24.1131 73.4252 23.0756C73.5553 19.9569 75.9578 17.6937 79.1353 17.6937C82.391 17.6937 84.4498 19.5821 84.6441 22.7465C84.7099 23.8413 83.9883 28.1477 83.1297 30.6261C82.3632 32.8428 80.4965 33.6317 79.0052 33.6317C77.72 33.6317 75.6055 32.5718 74.9296 30.2149H74.9288ZM75.0295 36.3431C75.9307 35.5209 76.005 33.5086 75.9919 32.6275C76.8923 33.4978 78.0274 33.9793 79.0045 33.9793C80.0505 33.9793 81.2692 33.6193 82.2199 32.7127C82.1866 33.5969 82.2494 35.5248 83.3488 36.354C80.7063 42.9947 77.4304 42.5046 75.0287 36.3439L75.0295 36.3431Z" fill="black"/>
<path d="M151.111 45.6104H118.769V77.9524H151.111V45.6104Z" fill="white"/>
<path d="M151.353 45.6103C151.353 45.4771 151.244 45.3672 151.11 45.3672H117.033C116.9 45.3672 116.79 45.4764 116.79 45.6103V77.9523C116.79 78.0855 116.899 78.1954 117.033 78.1954H151.11C151.243 78.1954 151.353 78.0863 151.353 77.9523V45.6103ZM150.868 77.71H119.011V45.8526H150.868V77.71Z" fill="black"/>
<path d="M145.113 66.7218C145.023 67.2212 144.179 67.6494 142.873 67.9862C142.798 68.0056 142.718 67.9746 142.675 67.9095C141.504 66.1357 141.555 66.1172 141.477 66.1319C141.398 66.1466 141.437 66.1365 141.101 68.1782C141.083 68.2843 141 68.3656 140.894 68.3826C137.576 68.9138 132.914 69.0554 129.266 68.6776C129.169 68.6675 129.091 68.5924 129.079 68.4972L128.795 66.4276C128.787 66.3618 128.695 66.3456 128.663 66.4036C127.533 68.4771 127.57 68.4585 127.414 68.4329C125.35 68.0938 123.877 67.5124 123.61 66.6916C123.218 65.4861 124.888 63.9322 126.552 55.6152C127.925 48.7499 133.638 50.7088 133.638 50.7088C133.638 50.7088 135.943 49.1843 139.017 51.0107C141.218 52.3184 142.62 55.5417 143.551 58.7447C144.551 62.1847 145.314 65.6185 145.113 66.7211V66.7218Z" fill="black"/>
<path d="M140.299 59.9222C140.496 58.7275 140.603 57.7233 140.576 57.2797C140.383 54.13 138.307 52.2656 135.113 52.2656C131.918 52.2656 129.585 54.5171 129.457 57.6025C129.438 58.0408 129.565 58.8917 129.771 59.9152C128.825 59.6133 128.318 60.7204 128.8 61.816C129.15 62.6135 129.881 63.0649 130.432 62.8225L130.446 62.8156C130.873 64.4725 131.064 65.4 131.921 66.3733C131.937 67.283 131.885 69.615 130.966 70.3157C133.419 76.7157 136.82 76.8404 139.368 70.3157C138.273 69.6158 138.215 67.4332 138.246 66.4623C139.057 65.52 139.374 64.2146 139.701 62.8705C140.239 63.0308 140.911 62.5872 141.243 61.8315C141.726 60.7344 141.215 59.6574 140.3 59.9222H140.299Z" fill="#FCFCFC"/>
<path d="M133.269 64.122C134.446 64.273 135.614 64.2815 136.769 64.0686C136.769 64.0686 135.717 65.9531 134.507 65.5048C133.538 65.1456 133.269 64.1228 133.269 64.1228V64.122Z" fill="white"/>
<path d="M134.037 61.7781C133.893 61.6008 134.161 61.3802 134.307 61.5598C134.744 62.0987 135.307 62.1289 135.729 61.501C135.858 61.3105 136.146 61.5048 136.017 61.6953C135.444 62.5439 134.601 62.4742 134.037 61.7781Z" fill="black"/>
<path d="M136.947 63.7819C135.638 64.351 133.718 64.1025 132.833 63.7556C132.616 63.672 132.494 63.9964 132.706 64.08C132.805 64.1187 132.927 64.159 133.067 64.1992C133.221 64.581 133.837 65.2398 134.11 65.4659C135.092 66.2773 136.035 65.2213 136.777 64.2171C136.881 64.1822 136.983 64.1443 137.083 64.1009C137.29 64.0119 137.16 63.6898 136.946 63.7819H136.947ZM134.332 65.1988C133.966 64.8961 133.697 64.5461 133.538 64.3131C134.398 64.4888 135.36 64.5353 136.231 64.3618C135.67 65.0703 135.003 65.757 134.331 65.1996L134.332 65.1988Z" fill="black"/>
<path d="M134.949 51.8431C132.218 51.8477 130.53 51.6503 129.241 54.6637C128.715 55.8916 128.596 57.5199 129.46 59.6173C130.287 56.0287 132.853 56.4251 132.933 53.0873C132.936 52.9162 133.245 52.8233 133.349 53.037C134.984 56.4228 138.644 55.616 140.735 58.5349C141.131 57.2466 141.118 56.0968 140.822 55.1034C139.844 51.8144 138.285 51.8376 134.95 51.8431H134.949Z" fill="black"/>
<path d="M131.584 57.3501C131.417 57.3501 131.345 57.1256 131.49 57.0312C131.541 56.9979 132.738 56.2391 134.003 56.9754C134.202 57.0908 134.027 57.3912 133.828 57.2758C132.702 56.6208 131.696 57.3501 131.584 57.3501Z" fill="black"/>
<path d="M138.41 57.3951C138.369 57.3649 137.376 56.6681 136.265 57.2372C136.061 57.3417 135.901 57.0351 136.105 56.9282C137.405 56.25 138.564 57.0792 138.613 57.1141C138.8 57.248 138.591 57.5291 138.41 57.3951Z" fill="black"/>
<path d="M150.252 77.9456L149.357 75.6336C148.616 73.6097 146.924 72.1131 144.83 71.6308L139.464 70.1705C138.46 69.4729 138.324 67.7007 138.443 66.4921C139.186 65.587 139.48 64.4736 139.833 63.0637C140.481 63.1194 141.104 62.5589 141.395 61.8953C141.916 60.7123 141.371 59.6655 140.513 59.7065C140.686 58.614 140.777 57.7051 140.75 57.2699C140.553 54.0282 138.358 52.0925 135.113 52.0925C131.867 52.0925 129.417 54.406 129.283 57.5944C129.266 58.0194 129.376 58.7921 129.555 59.7088C128.573 59.6291 128.172 60.8284 128.64 61.8945C128.94 62.5798 129.624 63.1976 130.328 63.0451C130.697 64.4674 130.884 65.4151 131.735 66.4224C131.746 66.6043 131.892 69.3506 130.883 70.1605L125.38 71.63C123.281 72.1139 121.587 73.6105 120.848 75.6344L120.002 77.9502C119.961 78.0632 120.045 78.1817 120.164 78.1825C120.332 78.1817 120.272 78.2134 121.172 75.7521C121.872 73.8405 123.472 72.4251 125.463 71.966L130.861 70.5244C133.374 76.9514 136.911 76.9421 139.467 70.5313L144.747 71.9676C146.731 72.4236 148.315 73.8459 149.032 75.756C149.961 78.2251 149.922 78.1825 150.09 78.1825C150.211 78.1825 150.297 78.0617 150.253 77.9463L150.252 77.9456ZM141.075 61.7544C140.821 62.3343 140.334 62.7214 139.915 62.7214C140.128 61.828 140.313 60.8989 140.455 60.0549C141.206 59.9543 141.44 60.9252 141.075 61.7552L141.075 61.7544ZM128.957 61.7544C128.597 60.9306 128.826 59.897 129.626 60.0665C129.798 60.9027 130.017 61.8303 130.24 62.7098C129.794 62.8035 129.241 62.4048 128.956 61.7544H128.957ZM131.074 64.4705C130.33 61.8791 129.586 58.6048 129.628 57.6075C129.753 54.6119 132.06 52.4386 135.112 52.4386C138.238 52.4386 140.217 54.2542 140.402 57.2916C140.467 58.3431 139.773 62.483 138.947 64.8661C138.211 66.9945 136.418 67.7525 134.987 67.7525C133.752 67.7525 131.723 66.7344 131.074 64.4713V64.4705ZM131.171 70.368C132.032 69.5774 132.107 67.6612 132.096 66.8072C132.961 67.6395 134.05 68.0994 134.987 68.0994C135.99 68.0994 137.156 67.7556 138.07 66.8916C138.039 67.7494 138.106 69.5829 139.155 70.3788C136.617 76.7517 133.477 76.2825 131.172 70.3687L131.171 70.368Z" fill="black"/>
<path d="M132.443 57.9612C133.391 57.9612 134.158 58.7292 134.158 59.6769C134.158 60.6246 133.39 61.3919 132.443 61.3919C131.496 61.3919 130.728 60.6238 130.728 59.6769C130.728 58.73 131.496 57.9612 132.443 57.9612Z" fill="white"/>
<path d="M137.648 57.9612C138.595 57.9612 139.363 58.7292 139.363 59.6769C139.363 60.6246 138.595 61.3919 137.648 61.3919C136.7 61.3919 135.933 60.6238 135.933 59.6769C135.933 58.73 136.701 57.9612 137.648 57.9612Z" fill="white"/>
<path d="M140.494 59.368L139.573 59.4361C139.455 58.4791 138.637 57.7358 137.648 57.7358C136.703 57.7358 135.914 58.4149 135.742 59.3099C135.279 59.0978 134.813 59.0985 134.349 59.3122C134.178 58.4156 133.389 57.7358 132.443 57.7358C131.452 57.7358 130.634 58.4814 130.517 59.4407L129.472 59.3904C129.171 59.3819 129.155 59.8248 129.451 59.841L130.514 59.8921C130.622 60.8607 131.445 61.6172 132.443 61.6172C133.47 61.6172 134.312 60.815 134.379 59.8046C134.826 59.5406 135.263 59.5406 135.712 59.8039C135.777 60.815 136.62 61.6179 137.648 61.6179C138.647 61.6179 139.471 60.8592 139.577 59.8883L140.527 59.8178C140.819 59.7977 140.797 59.3517 140.495 59.3687L140.494 59.368ZM132.443 61.1665C131.62 61.1665 130.953 60.4984 130.953 59.6769C130.953 58.8554 131.62 58.1872 132.443 58.1872C133.265 58.1872 133.932 58.8546 133.932 59.6769C133.932 60.4991 133.264 61.1665 132.443 61.1665ZM137.648 61.1665C136.826 61.1665 136.158 60.4984 136.158 59.6769C136.158 58.8554 136.826 58.1872 137.648 58.1872C138.47 58.1872 139.138 58.8546 139.138 59.6769C139.138 60.4991 138.47 61.1665 137.648 61.1665Z" fill="black"/>
<path d="M143.65 109.684H110.158V143.177H143.65V109.684Z" fill="white"/>
<path d="M143.604 142.658C143.723 142.884 143.563 143.175 143.291 143.175C110.214 143.175 110.304 143.236 110.192 143.071C110.097 142.93 110.117 142.983 110.792 141.361H142.929L143.605 142.659L143.604 142.658Z" fill="#D142A7"/>
<path d="M141.674 138.552C141.731 138.698 141.941 139.093 141.818 139.093L112.032 139.173C111.954 139.173 111.767 138.956 112.001 138.594C112.233 138.233 114.089 136.716 114.089 136.716L139.48 136.665L141.674 138.552Z" fill="#D142A7"/>
<path d="M143.893 109.684C143.893 109.551 143.783 109.441 143.649 109.441H108.36C108.227 109.441 108.117 109.55 108.117 109.684V143.177C108.117 143.31 108.226 143.42 108.36 143.42H143.649C143.783 143.42 143.893 143.311 143.893 143.177V109.684ZM143.407 142.934H110.4V109.927H143.407V142.934Z" fill="black"/>
<path d="M133.342 122.749C133.189 122.682 133.023 122.662 132.855 122.685C132.989 121.355 133.034 120.242 133.003 119.746C132.787 116.204 130.452 114.109 126.86 114.109C123.267 114.109 120.643 116.638 120.499 120.106C120.479 120.594 120.548 121.536 120.694 122.669C119.702 122.505 119.267 123.713 119.764 124.846C120.091 125.59 120.712 126.065 121.268 126.05C121.651 127.839 121.858 128.84 123.05 129.953C123.114 131.22 123.298 133.563 122.196 134.404C124.953 141.6 128.778 141.741 131.643 134.404C130.478 133.658 130.474 131.35 130.559 130.146C131.074 129.677 131.509 129.084 131.766 128.34C131.998 127.67 132.194 126.886 132.358 126.067C133.799 125.937 134.581 123.294 133.342 122.749H133.342Z" fill="#FCFCFC"/>
<path d="M124.798 127.464C126.139 127.67 127.429 127.667 128.654 127.391C128.654 127.391 127.183 129.57 126.163 129.044C125.42 128.661 124.798 127.464 124.798 127.464Z" fill="white"/>
<path d="M125.545 124.593C125.389 124.422 125.648 124.192 125.8 124.359C126.376 124.992 127.148 125.015 127.706 124.29C127.846 124.108 128.12 124.317 127.982 124.499C127.276 125.43 126.233 125.35 125.545 124.593Z" fill="black"/>
<path d="M128.933 127.077C127.454 127.719 125.287 127.438 124.29 127.048C124.075 126.965 123.95 127.288 124.163 127.372C124.276 127.416 124.415 127.463 124.576 127.508C124.735 127.923 125.454 128.689 125.749 128.934C126.871 129.861 127.989 128.649 128.834 127.491C128.914 127.462 128.992 127.431 129.069 127.398C129.278 127.308 129.146 126.986 128.932 127.079L128.933 127.077ZM125.969 128.666C125.533 128.305 125.217 127.884 125.043 127.622C126.069 127.838 127.253 127.89 128.275 127.654C127.614 128.496 126.774 129.332 125.969 128.666Z" fill="black"/>
<path d="M124.111 121.673C124.361 121.673 124.564 121.914 124.564 122.21C124.564 122.507 124.361 122.748 124.111 122.748C123.861 122.748 123.658 122.507 123.658 122.21C123.658 121.914 123.861 121.673 124.111 121.673Z" fill="black"/>
<path d="M129.408 121.673C129.658 121.673 129.861 121.914 129.861 122.21C129.861 122.507 129.658 122.748 129.408 122.748C129.158 122.748 128.955 122.507 128.955 122.21C128.955 121.914 129.158 121.673 129.408 121.673Z" fill="black"/>
<path d="M122.146 120.357C122.202 120.301 123.553 118.998 125.329 119.688C125.607 119.796 125.443 120.216 125.165 120.108C123.656 119.522 122.473 120.665 122.463 120.677C122.259 120.881 121.929 120.569 122.146 120.357Z" fill="black"/>
<path d="M131.056 120.679C131.007 120.631 129.852 119.527 128.352 120.11C128.074 120.217 127.911 119.798 128.188 119.69C129.965 119 131.314 120.302 131.371 120.357C131.583 120.563 131.268 120.887 131.056 120.678V120.679Z" fill="black"/>
<path d="M132.334 114.593C133.04 114.053 133.144 113.188 132.571 112.133C131.591 113.03 130.65 113.517 129.769 113.378C130.173 112.514 130.192 111.675 129.665 110.866C128.048 112.342 122.985 112.027 122.142 114.592C118.135 115.331 120.169 122.737 120.169 122.737L120.735 122.501C120.701 121.904 120.715 121.358 120.766 120.859C120.813 120.411 121.035 120 121.386 119.716C123.053 118.365 123.812 116.806 124.086 116.114C125.405 116.662 127.89 116.761 129.486 116.354C129.814 117.1 130.541 118.418 131.943 119.599C132.797 120.319 132.805 121.296 132.736 122.501L133.303 122.737C133.303 122.737 135.469 116.226 132.334 114.592V114.593Z" fill="black"/>
<path d="M143.863 142.989L142.857 140.389C142.028 138.121 140.129 136.441 137.782 135.901L131.73 134.253C130.369 133.372 130.729 130.606 130.797 130.16C131.858 129.126 132.154 127.949 132.511 126.205C134.272 125.827 134.773 122.603 133.048 122.495C133.168 121.226 133.205 120.185 133.178 119.735C132.955 116.103 130.498 113.936 126.86 113.936C123.223 113.936 120.476 116.529 120.327 120.102C120.307 120.583 120.368 121.451 120.496 122.492C118.653 122.541 119.277 126.042 121.129 126.227C121.499 127.914 121.705 128.889 122.861 130.005C123.016 131.177 123.045 133.499 122.115 134.246L115.924 135.9C113.57 136.443 111.671 138.12 110.842 140.389L109.89 142.992C109.848 143.105 109.934 143.224 110.052 143.224C110.22 143.224 110.177 143.217 110.829 141.434H142.89L143.539 143.112C143.62 143.327 143.947 143.202 143.864 142.988L143.863 142.989ZM141.666 138.873H129.248C129.754 138.36 130.244 137.678 130.712 136.834H139.314C140.247 137.321 141.052 138.019 141.666 138.873ZM131.747 134.617C131.747 134.617 138.261 136.387 138.532 136.487H130.899C131.191 135.927 131.473 135.304 131.747 134.617ZM132.585 125.831C132.777 124.822 132.917 123.78 133.014 122.839C134.255 122.891 133.901 125.362 132.585 125.831ZM119.918 124.787C119.542 123.928 119.72 122.839 120.525 122.839H120.54C120.664 123.781 120.838 124.838 121.053 125.868C120.623 125.777 120.176 125.371 119.918 124.786V124.787ZM121.89 127.84C121.111 125.125 120.623 121.342 120.674 120.116C120.814 116.736 123.417 114.283 126.861 114.283C130.389 114.283 132.621 116.328 132.831 119.757C132.909 121.015 132.513 125.656 131.604 128.284C130.676 130.965 127.466 131.544 126.72 131.544C125.843 131.544 122.622 130.389 121.89 127.84ZM123.245 130.348C124.477 131.361 125.998 131.89 126.72 131.89C127.544 131.89 129.144 131.51 130.402 130.508C130.303 131.455 130.233 133.571 131.433 134.469C128.662 141.446 125.095 141.375 122.404 134.457C123.407 133.544 123.323 131.252 123.246 130.347L123.245 130.348ZM122.09 134.611C122.359 135.3 122.638 135.926 122.928 136.487H115.172C115.555 136.345 115.467 136.382 122.09 134.611ZM114.427 136.814C114.504 136.855 114.438 136.834 123.112 136.834C123.575 137.679 124.06 138.36 124.563 138.873H112.032C112.655 138.007 113.474 137.302 114.427 136.813V136.814ZM110.955 141.089C111.208 140.396 111.363 139.913 111.798 139.22H124.936C126.215 140.297 127.595 140.295 128.875 139.22H141.9C142.311 139.872 142.456 140.314 142.756 141.089H110.955Z" fill="black"/>
<path d="M47.9052 112.359H15.1396V145.124H47.9052V112.359Z" fill="white"/>
<path d="M48.1482 112.357C48.1482 112.224 48.039 112.114 47.9051 112.114H13.3828C13.2496 112.114 13.1396 112.223 13.1396 112.357V145.124C13.1396 145.257 13.2488 145.367 13.3828 145.367H47.9059C48.039 145.367 48.149 145.258 48.149 145.124V112.357H48.1482ZM47.6627 144.882H15.3827V112.602H47.6627V144.882Z" fill="black"/>
<path d="M39.4174 133.15C39.556 133.007 39.6024 133.112 37.5336 123.118C37.4995 122.953 37.9757 123.207 31.4852 119.932C31.3984 119.888 31.2947 119.901 31.2196 119.961L24.88 125.194C24.8158 125.246 24.7832 125.33 24.7933 125.411C25.8958 134.172 25.7797 136.043 27.0704 136.043C27.7494 136.043 27.4831 134.518 31.6392 134.676C34.665 134.711 34.9244 135.454 35.838 135.657C36.7137 135.849 38.7987 133.787 39.4158 133.15L39.4174 133.15Z" fill="black"/>
<path d="M33.9515 135.205C33.7742 134.247 33.792 132.856 33.8153 132.165C34.8652 130.764 35.6526 126.65 35.507 123.78C35.356 120.807 34.4347 119.245 31.1983 119.245C27.9619 119.245 27.1466 121.134 27.0166 124.259C26.9151 126.636 27.1296 130.477 28.617 132.335C28.6487 133.033 28.7029 134.706 28.5519 135.685C28.4203 136.545 28.3452 137.147 27.1242 137.385C29.6095 143.868 33.0542 143.996 35.6371 137.385C34.3797 137.121 34.142 136.228 33.9515 135.204V135.205Z" fill="#FCFCFC"/>
<path d="M29.7095 130.591C30.6703 130.744 31.6745 130.768 32.75 130.562C32.75 130.562 30.9738 133.169 29.7095 130.591Z" fill="white"/>
<path d="M30.3965 128.542C30.2215 128.394 30.4453 128.128 30.6203 128.277C31.0035 128.603 31.5091 128.588 31.8498 128.246C32.0124 128.083 32.2555 128.33 32.0944 128.491C31.602 128.978 30.9137 128.984 30.3965 128.542Z" fill="black"/>
<path d="M32.9531 130.25C31.777 130.721 30.0512 130.515 29.2568 130.227C29.0431 130.149 28.9216 130.474 29.1391 130.553C29.2266 130.585 29.3335 130.618 29.4558 130.65C29.6145 130.99 30.1457 131.51 30.3981 131.703C31.3047 132.401 32.2098 131.496 32.9036 130.638C32.9632 130.618 33.0228 130.596 33.0809 130.573C33.2969 130.485 33.1622 130.164 32.9523 130.25H32.9531ZM29.9467 130.758C30.7024 130.894 31.5718 130.928 32.3267 130.787C31.3427 131.901 30.7821 131.849 29.9467 130.758Z" fill="black"/>
<path d="M29.2415 126.101C29.6936 126.101 29.6936 126.885 29.2415 126.885C28.7893 126.885 28.7893 126.101 29.2415 126.101Z" fill="black"/>
<path d="M33.2351 126.101C33.6873 126.101 33.6873 126.885 33.2351 126.885C32.783 126.885 32.783 126.101 33.2351 126.101Z" fill="black"/>
<path d="M27.8622 125.183C27.8723 125.172 28.861 124.112 30.1742 124.742C30.3817 124.842 30.2291 125.154 30.0247 125.054C28.9516 124.533 28.1534 125.38 28.1185 125.417C27.9606 125.583 27.7035 125.347 27.8615 125.183H27.8622Z" fill="black"/>
<path d="M34.3596 125.417C34.324 125.378 33.4986 124.516 32.2854 125.155C32.0833 125.261 31.9199 124.956 32.1243 124.849C33.5776 124.083 34.6043 125.172 34.6135 125.182C34.7684 125.36 34.5067 125.576 34.3604 125.418L34.3596 125.417Z" fill="black"/>
<path d="M28.4619 126.543C28.2861 126.543 28.2226 126.317 28.3666 126.224C28.7816 125.955 29.4366 125.713 30.1931 126.077C30.4006 126.177 30.248 126.488 30.0436 126.389C29.1866 125.973 28.5966 126.543 28.4619 126.543Z" fill="black"/>
<path d="M34.0018 126.597C33.6387 126.32 33.0588 126.068 32.3937 126.387C32.187 126.486 32.0383 126.174 32.2443 126.075C32.8838 125.768 33.5845 125.854 34.2093 126.32C34.3959 126.459 34.1814 126.735 34.001 126.597H34.0018Z" fill="black"/>
<path d="M46.6673 145.119L45.7607 142.776C45.0112 140.726 43.2962 139.21 41.1763 138.722L35.7976 137.258C34.8352 136.996 34.421 136.778 34.126 135.176C33.9564 134.259 33.9696 132.921 33.9913 132.222C34.1895 131.948 34.3544 131.646 34.4697 131.319C35.1944 129.259 35.8417 126.919 35.6822 123.773C35.5382 120.95 34.6362 119.072 31.2001 119.072C27.764 119.072 26.975 121.143 26.8449 124.253C26.7443 126.66 26.9626 130.502 28.4492 132.399C28.4949 133.45 28.5212 134.725 28.3787 135.698C28.2579 136.523 28.1813 136.983 27.1686 137.201L21.4724 138.722C19.3455 139.211 17.6306 140.727 16.8811 142.776L16.0224 145.122C15.9806 145.236 16.0666 145.354 16.1858 145.354C16.3492 145.354 16.2857 145.419 17.207 142.897C17.9155 140.958 19.5383 139.523 21.5552 139.058L27.0238 137.596C29.5718 144.11 33.1512 144.098 35.7426 137.602L41.0904 139.059C43.1027 139.522 44.7077 140.963 45.4355 142.899C46.3777 145.405 46.3375 145.355 46.5039 145.355C46.6379 145.355 46.7099 145.228 46.6689 145.121L46.6673 145.119ZM27.8104 130.368C27.311 128.626 27.0958 126.517 27.1895 124.266C27.3141 121.274 28.0288 119.418 31.1993 119.418C33.6158 119.418 35.1503 120.147 35.3361 123.786C35.4925 126.873 34.8553 129.173 34.143 131.201C33.6212 132.689 31.9178 133.638 31.0158 133.608C30.0619 133.58 28.4383 132.556 27.8104 130.368ZM27.3629 137.512C28.4956 137.225 28.6017 136.571 28.7209 135.751C28.8549 134.832 28.8417 133.742 28.8115 132.813C29.5517 133.568 30.3987 133.947 31.005 133.955C31.3952 133.961 32.5573 133.777 33.632 132.65C33.6212 133.396 33.639 134.451 33.7838 135.237C33.9781 136.281 34.2367 137.176 35.405 137.505C32.9205 143.7 29.7631 143.603 27.3621 137.511L27.3629 137.512Z" fill="black"/>
<path d="M24.2512 130.357C24.2512 130.357 24.1591 134.291 24.8458 135.982L24.2512 130.357Z" fill="#D142A7"/>
<path d="M31.9068 117.925C29.4563 117.545 29.2302 118.6 27.8312 119.116C26.7526 119.513 24.1782 121.964 22.7923 126.786C22.0289 129.442 21.6333 133.236 22.4609 134.893C23.2878 136.548 26.4901 136.121 27.2412 135.844C26.4832 133.57 26.6822 129.699 26.6651 126.781C26.6512 124.365 29.0421 123.164 29.1195 119.93C29.1234 119.757 29.4369 119.663 29.5407 119.88C31.1418 123.215 35.816 122.538 35.8764 126.387C35.9213 129.268 35.967 133.268 35.7014 135.471C38.0087 136.107 40.4243 135.465 40.4352 134.895C40.6566 122.762 35.8369 118.534 31.9068 117.925Z" fill="#D142A7"/>
<path d="M25.3109 136.278C24.1387 136.278 22.824 135.999 22.3084 134.969C21.4637 133.281 21.8438 129.467 22.6274 126.737C24.0566 121.761 26.7123 119.344 27.7715 118.953C29.1357 118.449 29.4199 117.359 31.9377 117.749C34.2744 118.11 36.385 119.617 37.8801 121.991C39.7948 125.031 40.7278 129.373 40.614 134.891C40.5962 135.755 37.7686 136.208 35.6603 135.63C35.5775 135.608 35.5233 135.528 35.5334 135.443C35.7819 133.405 35.7618 129.883 35.7068 126.384C35.648 122.63 30.9544 123.338 29.3881 119.949C29.3742 119.919 29.3339 119.906 29.2944 119.946C29.2077 121.677 28.5094 122.853 27.8931 123.892C26.6666 125.96 26.8563 126.067 26.837 128.446C26.8161 131.026 26.7983 133.95 27.4091 135.783C27.4386 135.872 27.3913 135.968 27.3054 136C26.9771 136.12 26.1835 136.277 25.3109 136.277V136.278ZM30.9622 118.011C29.4385 118.011 29.1063 118.835 27.8923 119.279C27.4239 119.45 26.535 120.109 25.5664 121.397C22.2759 125.771 21.5814 132.744 22.6181 134.815C23.318 136.212 26.0387 136.009 27.0251 135.731C26.319 133.404 26.5118 129.61 26.494 126.781C26.4785 124.305 28.785 123.106 28.9484 119.92C28.9669 119.558 29.5221 119.433 29.7009 119.802C31.2889 123.074 35.9917 122.393 36.0544 126.381C36.1079 129.81 36.1257 133.259 35.8965 135.337C37.6811 135.786 39.5571 135.475 40.1409 135.037C40.2331 134.968 40.2664 134.912 40.2679 134.886C40.5041 129.439 39.465 125.159 37.5867 122.176C35.7602 119.276 33.182 118.011 30.963 118.011H30.9622Z" fill="black"/>
<path d="M24.6849 136.047C23.9819 134.347 24.0748 130.515 24.0779 130.353C24.0826 130.124 24.4271 130.133 24.4248 130.36C24.4248 130.398 24.3365 134.279 25.0055 135.916C25.093 136.13 24.7701 136.254 24.6849 136.047Z" fill="black"/>
<path d="M37.9807 133.684C38.1998 130.716 37.8018 127.88 37.5386 126.455C37.4976 126.231 37.8367 126.167 37.8785 126.392C38.1441 127.834 38.5513 130.704 38.326 133.709C38.309 133.937 37.9644 133.911 37.9807 133.683V133.684Z" fill="black"/>
<path d="M24.6276 127.147C24.7267 125.213 25.9647 122.658 26.0166 122.551C26.1141 122.348 26.4292 122.491 26.3286 122.703C26.3162 122.73 25.0697 125.3 24.9737 127.162C24.962 127.385 24.6144 127.384 24.6268 127.147H24.6276Z" fill="black"/>
<path d="M35.7403 122.335C34.2955 120.807 32.3917 119.874 31.9341 119.874C31.7041 119.874 31.7034 119.527 31.9333 119.527C32.5806 119.527 34.6091 120.632 35.9935 122.098C36.1514 122.265 35.8952 122.499 35.7403 122.335Z" fill="black"/>
</svg>
