<svg width="804.47287" height="781.84651" xmlns="http://www.w3.org/2000/svg" data-name="Layer 1">
 <g>
  <title>Layer 1</title>
  <path stroke="null" d="m746.09768,193.232a394.14134,385.68455 0 0 0 -25.90429,-39.77905q-9.93898,-13.39671 -21.00394,-25.8993l-0.01845,0a396.95126,388.43418 0 0 0 -43.41985,-42.05478q-4.77571,-3.96889 -9.68064,-7.77515a394.37175,385.91001 0 0 0 -97.19533,-55.57478l0.31007,49.97264l3.3441,569.65935l-289.8459,0l-16.30075,-568.58455l1.2144,-49.17455c-142.10242,58.48288 -241.87936,195.98645 -241.87936,356.30282a395.15926,386.68063 0 0 0 12.83682,98.06159a388.38006,380.04688 0 0 0 13.09514,39.92359q2.76854,7.11145 5.84155,14.09654c0.98747,2.26663 1.99338,4.51521 3.03619,6.75477c1.3381,2.92585 2.73162,5.84267 4.16204,8.72337q1.66109,3.39997 3.41451,6.75478q2.25634,4.4024 4.66041,8.73247c1.23656,2.26663 2.51008,4.51522 3.80212,6.75471a396.45091,387.94457 0 0 0 78.83859,96.49026q13.41359,11.90666 27.91605,22.5761a394.91353,386.44017 0 0 0 474.47137,0q7.89032,-5.79755 15.45768,-11.98337q5.02488,-4.09083 9.88366,-8.33512c0.85826,-0.74949 1.71652,-1.49903 2.56556,-2.25761a396.4965,387.98917 0 0 0 73.88294,-88.14605a387.4678,379.1542 0 0 0 20.00725,-37.16935q2.36706,-5.03896 4.58649,-10.16832a389.40875,381.0535 0 0 0 17.14648,-48.21353q1.06594,-3.8063 2.05795,-7.63966l0,-0.00903c0.11071,-0.44248 0.23071,-0.89406 0.34142,-1.33653c0.68294,-2.69107 1.33816,-5.40019 1.9657,-8.10937l0,-0.00897q3.04542,-13.09869 5.14025,-26.51341c0.17536,-1.14681 0.35071,-2.29372 0.51683,-3.44055c0.06458,-0.41536 0.12923,-0.8308 0.17535,-1.24626l0,-0.00903q1.49504,-10.36236 2.42705,-20.87833q1.43967,-16.51225 1.44888,-33.40362a393.02671,384.59383 0 0 0 -49.29835,-187.09273z" fill="#a3dbff" id="svg_1"/>
  <path stroke="null" d="m697.09779,630.68512c17.97158,-30.50085 24.88322,-73.4632 10.90352,-107.10092a139.18857,174.82952 0 0 1 -65.89914,86.927c-11.37617,7.00556 -24.60997,13.3096 -29.87567,27.78427c-3.27659,9.0064 -2.65263,19.64115 -0.01876,28.974c2.63418,9.33322 7.11412,17.63762 11.54677,25.82651l0.23348,2.4545c27.90633,-14.5331 55.13823,-34.36452 73.10981,-64.86536z" fill="none" id="svg_2"/>
  <path d="m718.34807,543.85403a149.43215,149.43215 0 0 1 -17.08597,66.52502a64.35041,64.35041 0 0 1 -14.42368,14.0881a36.90789,36.90789 0 0 1 -18.45223,6.06852c-6.131,0.43935 -12.45317,0.17877 -18.37058,2.10082a22.59884,22.59884 0 0 0 -13.52083,12.6002c-3.27617,7.23152 -3.75856,15.20895 -3.95919,23.02661c-0.22276,8.68 -0.31661,17.69937 -4.41086,25.58989c-0.49607,0.95605 1.0164,1.66989 1.51172,0.71528c7.12328,-13.72815 2.49794,-29.782 6.743,-44.21354c1.98081,-6.734 6.003,-12.91193 12.7258,-15.61049c5.8788,-2.35978 12.39853,-2.09664 18.61012,-2.48784a39.38351,39.38351 0 0 0 18.26339,-5.26147a59.49058,59.49058 0 0 0 14.91211,-13.48158a144.97586,144.97586 0 0 0 22.71061,-39.2091a152.08212,152.08212 0 0 0 10.41289,-50.59568c0.03424,-1.073 -1.63232,-0.9206 -1.66634,0.14537l-13.99996,19.99989z" fill="none" id="svg_3"/>
  <circle cx="404.82382" cy="75.91002" r="52.98539" fill="#ffffaa" id="svg_22"/>
  <path d="m551.66875,75.06812a194.72746,194.72746 0 0 0 -15.1,-14.33343c-10.32216,-8.75332 -21.74968,-16.19639 -34.48756,-20.88507a79.52764,79.52764 0 0 0 -14.79692,-3.89536c-0.60613,-0.098 -1.20334,-0.19608 -1.80953,-0.27633a0.66947,0.66947 0 0 0 -0.13368,0a1.60874,1.60874 0 0 0 -0.28524,-0.05348c-1.239,-0.16044 -2.47807,-0.28525 -3.726,-0.37436a64.56723,64.56723 0 0 0 -20.00261,1.80061a66.52042,66.52042 0 0 0 -11.05315,3.85072a98.94821,98.94821 0 0 0 -10.36677,5.87422a62.28526,62.28526 0 0 1 -5.52653,2.98611a68.93083,68.93083 0 0 1 -17.38194,5.56227a78.04106,78.04106 0 0 1 -12.30111,1.21226c-3.58332,0.07133 -6.96169,0.19608 -10.35785,1.4886a24.82174,24.82174 0 0 0 -15.12672,16.38359a1.59657,1.59657 0 0 0 0.7131,1.756c0.91809,0.65967 1.80947,1.4084 2.7811,1.99674a8.72679,8.72679 0 0 0 2.70978,0.73981q2.29982,0.48141 4.60849,0.936q8.49037,1.68465 17.05213,2.98611q17.2215,2.6073 34.63908,3.67249a1.72945,1.72945 0 0 0 0.21392,0.01784a389.85446,389.85446 0 0 0 39.39908,0.38329c1.98776,-0.08025 3.96666,-0.17829 5.95442,-0.29417q12.42138,-0.69531 24.7804,-2.19282q11.43195,-1.39053 22.77479,-3.44964q8.10266,-1.47075 16.143,-3.28028a1.5786,1.5786 0 0 0 0.68632,-2.61172z" fill="#e6e6e6" id="svg_23"/>
  <path d="m441.53856,145.71903a173.06819,173.06819 0 0 0 -25.235,-22.21321c-3.0218,-2.12149 -6.13271,-4.11818 -9.33274,-5.94556a98.90557,98.90557 0 0 0 -12.19415,-5.96334c-0.93594,-0.38329 -1.8808,-0.74873 -2.82566,-1.09638a78.98582,78.98582 0 0 0 -16.60645,-4.17166c-0.04456,-0.00892 -0.08911,0 -0.13367,-0.00892c-0.08917,-0.0178 -0.18721,-0.03564 -0.27633,-0.05349a61.346,61.346 0 0 0 -8.28989,-0.50809c-1.98777,0 -3.98445,0.107 -5.96335,0.30309a65.94589,65.94589 0 0 0 -9.48426,1.64012c-1.54212,0.38334 -3.07527,0.829 -4.58171,1.33707a65.44149,65.44149 0 0 0 -6.46252,2.5137c-0.03563,0.01785 -0.0624,0.02677 -0.098,0.04456a96.29,96.29 0 0 0 -10.26873,5.82967c-0.07133,0.04456 -0.15152,0.08912 -0.22285,0.13367a64.77405,64.77405 0 0 1 -11.83757,5.54443a72.09357,72.09357 0 0 1 -10.857,2.87022a76.88018,76.88018 0 0 1 -12.30106,1.2034c-3.58337,0.07132 -6.96168,0.19607 -10.34892,1.49751a24.83453,24.83453 0 0 0 -15.13565,16.3836a1.60706,1.60706 0 0 0 0.7131,1.756c0.91809,0.65961 1.8184,1.39947 2.7811,1.98781a8.55268,8.55268 0 0 0 2.70979,0.73981c1.5332,0.32094 3.06635,0.64182 4.60842,0.94486q8.49047,1.68473 17.06106,2.97724q11.75292,1.77832 23.60382,2.84351q5.61564,0.52147 11.24031,0.85575q14.427,0.869 28.88073,0.6774q2.98173,-0.04007 5.96335,-0.13367q17.70291,-0.52148 35.29874,-2.65636a388.25605,388.25605 0 0 0 38.90878,-6.72992a1.57187,1.57187 0 0 0 0.68631,-2.60282z" fill="#e6e6e6" id="svg_24"/>
  <path d="m294.29168,3.28252l46.67889,645.05617l-93.35778,8.28628l0,-645.13551c11.12449,-8.6896 27.09337,-10.04911 46.67889,-8.20694z" fill="#31a2ed" id="svg_25"/>
  <path stroke="null" d="m532.00073,1.16487l-44.67889,645.05617l89.35778,8.28625l0,-645.13548c-10.64785,-8.6896 -25.93254,-10.04911 -44.67889,-8.20694z" fill="#31a2ed" id="svg_26"/>
  <path stroke="null" stroke-width="0.5" d="m580.7372,10.00626c-2.93183,-7.10277 -9.16529,-12.00629 -16.3731,-12.00629l-300.37163,0c-10.0223,0 -18.16827,9.5019 -18.16827,21.19252l0,641.13314a23.18462,22.90919 0 0 0 6.26056,15.9944a17.21384,17.00935 0 0 0 7.86632,4.66152a15.0157,14.83732 0 0 0 4.04139,0.53666l300.37163,0a15.01567,14.83729 0 0 0 4.04143,-0.53666c8.08277,-2.14666 14.12682,-10.58576 14.12682,-20.65592l0,-641.13311a24.63451,24.34186 0 0 0 -1.79516,-9.18626zm-4.23084,650.31934c0,7.80777 -5.44865,14.16341 -12.14225,14.16341l-300.37164,0c-5.54791,0 -10.24783,-4.36685 -11.68219,-10.31216a16.64846,16.45068 0 0 1 -0.46008,-3.85125l0,-641.13308c0,-7.80777 5.44873,-14.15288 12.14225,-14.15288l300.37165,0a10.30167,10.17929 0 0 1 3.60839,0.64187c4.93451,1.78886 8.53387,7.1659 8.53387,13.511l0,641.13309z" fill="#ccc" id="svg_27"/>
  <rect stroke-width="0.5" x="250.56764" y="188.99984" width="326.75223" height="5.95901" fill="#e5e5e5" id="svg_28"/>
  <rect x="252.56764" y="73.048" width="326.75223" height="5.95901" fill="#ccc" id="svg_29"/>
  <rect x="251.39116" y="294.19898" width="326.75223" height="5.95901" fill="#ccc" id="svg_30"/>
  <rect x="360.87817" y="2.67414" width="5.95901" height="375.9441" fill="#ccc" id="svg_31"/>
  <rect x="481.52091" y="2.67414" width="5.95901" height="375.9441" fill="#ccc" id="svg_32"/>
  <path d="m422.19269,358.75489l5.959,0a10.92484,10.92484 0 0 1 10.92484,10.92484l0,0a0,0 0 0 1 0,0l-27.8087,0a0,0 0 0 1 0,0l0,0a10.92484,10.92484 0 0 1 10.92486,-10.92484z" fill="#ccc" id="svg_35"/>
  <circle id="b6ad44ff-295b-418b-9346-03b76e49c34f" data-name="ab6171fa-7d69-4734-b81c-8dff60f9761b" cx="430.90136" cy="313.85207" r="61.54786" fill="#ce9292" stroke="null"/>
  <path id="e8f77054-5a04-4fda-83df-6cd2e0c3cac3" data-name="bf427902-b9bf-4946-b5d7-5c1c7e04535e" d="m362.24287,253.30921c0.46535,-7.06792 5.13947,-14.30051 19.98981,-18.07989c0,0 25.4858,-32.58965 60.11807,-15.4992c0,0 16.78957,-2.88853 29.23943,14.53128c0,0 12.34335,-7.27988 17.5511,5.62372c0,0 14.4767,26.32034 9.147,53.1671s-8.05769,30.19715 -8.05769,30.19715s6.79346,-55.532 -32.335,-51.68136s-70.63065,-9.90956 -79.49168,20.218c-7.35786,25.0167 -6.431,38.00921 -6.431,38.00921s-24.605,-24.95631 -16.23922,-44.60756c4.2788,-10.05087 5.79153,-20.97838 6.50918,-31.87845z" fill="#2f2e41"/>
  <path stroke="null" d="m232.25176,695.54294l359.58722,0c-2.40322,-25.96852 -3.97403,-125.23509 -3.97403,-131.76855c0,-28.81577 -24.90512,-60.26272 -24.90512,-60.26272l-8.91485,-4.665l-74.44692,-21.99l-19.2662,-23.69329a21.42355,20.28268 0 0 0 -17.15841,-7.93164l-60.85986,0.43221a21.48847,20.34414 0 0 0 -14.43291,5.41489l-37.68657,33.09942l-55.27471,24.98975l-0.09401,-0.0889l-0.57731,0.40668l-8.20324,5.59286l-5.27638,3.61s-13.84214,15.72348 -24.90512,62.88118c-1.66478,7.09268 -2.83292,98.91055 -3.61157,113.97311z" fill="#31a2ed" id="svg_36"/>
  <polygon points="514.774 688.412 346.303 688.412 349.868 671.476 511.208 671.476 514.774 688.412" fill="#2f2e41" id="svg_38"/>
  <path d="m633.19099,621.31864l-43.83814,0a6.77113,6.77113 0 0 0 -5.19677,2.40674a9.82887,9.82887 0 0 0 -1.854,-0.17829a10.39795,10.39795 0 1 0 0,20.79589a10.28084,10.28084 0 0 0 4.52818,-1.05182l0.73094,8.98514l2.90591,35.51267a6.48256,6.48256 0 0 0 0.55265,1.27467a6.83429,6.83429 0 0 0 5.999,3.56553l28.50637,0a6.85893,6.85893 0 0 0 6.00791,-3.56553a7.02917,7.02917 0 0 0 0.54373,-1.27467l7.66591,-57.60108a6.85442,6.85442 0 0 0 -6.55169,-8.86925zm-50.88894,20.05608a7.42969,7.42969 0 0 1 0,-14.85937c0.13367,0 0.25848,0.03569 0.39221,0.04461a6.80645,6.80645 0 0 0 0.107,3.62793l3.13763,10.19741a7.30755,7.30755 0 0 1 -3.63684,0.98942z" fill="#3f3d56" id="svg_39"/>
  <path stroke="#000000" d="m598.67844,374.12396l-364.03559,0a11.81737,11.73235 0 0 0 -11.79856,11.7136l0,243.88543a11.80984,11.72488 0 0 0 11.79856,11.7136l364.03559,0a11.80984,11.72488 0 0 0 11.79856,-11.7136l0,-243.88541a11.81737,11.73235 0 0 0 -11.79856,-11.71361l0,-0.00001z" fill="#ffffff" id="svg_40"/>
  <path d="m460.67591,576.90002l-64.91934,0a3.4638,3.4638 0 0 0 -3.45856,3.46748l0,102.55345l71.84542,0l0,-102.55345a3.46567,3.46567 0 0 0 -3.46752,-3.46748zm-32.24126,58.26961a7.70188,7.70188 0 0 1 -7.66591,-7.66586l0,-11.82865a7.66589,7.66589 0 0 1 15.33177,0l0,11.82865a7.70176,7.70176 0 0 1 -7.66586,7.66586z" fill="#2f2e41" id="svg_41"/>
  <path d="m392.07516,679.64067l0,9.89437a1.93827,1.93827 0 0 0 1.93434,1.93428l68.42246,0a1.944,1.944 0 0 0 1.93428,-1.93428l0,-9.89437l-72.29108,0z" fill="#3f3d56" id="svg_42"/>
  <circle cx="497.49562" cy="614.25492" r="4.38092" fill="#2f2e41" id="svg_43"/>
  <path d="m325.70292,610.416a1.53308,1.53308 0 0 0 -1.5332,1.53315l0,7.88876a1.53318,1.53318 0 0 0 3.06635,0l0,-7.88876a1.533,1.533 0 0 0 -1.53315,-1.53315z" fill="#2f2e41" id="svg_44"/>
  <path d="m334.02843,610.416a1.53307,1.53307 0 0 0 -1.53315,1.53315l0,7.88876a1.53318,1.53318 0 0 0 3.06636,0l0,-7.88876a1.53308,1.53308 0 0 0 -1.53321,-1.53315z" fill="#2f2e41" id="svg_45"/>
  <path d="m342.35392,610.416a1.53308,1.53308 0 0 0 -1.5332,1.53315l0,7.88876a1.53318,1.53318 0 0 0 3.06635,0l0,-7.88876a1.533,1.533 0 0 0 -1.53315,-1.53315z" fill="#2f2e41" id="svg_46"/>
  <path d="m350.67943,610.416a1.53307,1.53307 0 0 0 -1.53315,1.53315l0,7.88876a1.53318,1.53318 0 0 0 3.06635,0l0,-7.88876a1.53308,1.53308 0 0 0 -1.5332,-1.53315z" fill="#2f2e41" id="svg_47"/>
  <circle cx="357.32206" cy="660.77906" r="23.17592" fill="#ce9292" id="svg_48"/>
  <circle cx="519.23077" cy="665.23596" r="23.17592" fill="#ce9292" id="svg_49"/>
  <path stroke="null" d="m755.18245,385.2387c-2.16661,-3.68485 -4.73398,-7.61917 -8.75464,-8.82238c-4.65621,-1.39339 -9.4393,1.3746 -13.49646,4.10609a393.28889,404.42463 0 0 0 -35.00014,26.51783l0.01223,0.14301c8.70588,-0.61737 15.9311,23.18692 24.63697,22.56955c6.28999,-0.44605 14.27674,-25.37528 19.83535,-28.4351c2.10931,-1.16108 4.16541,-2.71205 6.55562,-2.82013c2.96962,-0.13425 5.55892,1.99843 7.59371,4.22659c12.03666,13.18031 15.51983,33.33617 29.02375,44.91607a428.55472,440.68898 0 0 0 -30.40638,-62.40153z" fill="#3f3d56" id="svg_50"/>
  <path transform="rotate(0.155061 727.336 402.233)" stroke="null" d="m768.58919,407.92868q8.81806,14.4685 18.70574,28.36242l0,0.0071c-0.03903,0.32626 -0.09371,0.65253 -0.14834,0.97875q-1.19443,-1.65961 -2.36551,-3.33343q-8.87665,-12.6492 -16.87114,-25.78078q-3.79424,-6.24483 -7.4011,-12.58895q-2.78714,-4.91501 -5.45714,-9.88677c-0.50748,-0.95035 -0.99933,-1.90076 -1.49114,-2.85821c-1.15548,-2.24122 -2.29528,-4.49658 -3.51318,-6.70941c-1.38969,-2.52489 -3.08384,-5.16327 -5.63674,-6.85831a7.69049,6.98645 0 0 0 -4.00504,-1.40434a11.18552,10.16153 0 0 0 -5.80069,1.51068a186.68174,169.59181 0 0 0 -36.71669,23.00058a191.3243,173.80937 0 0 0 -29.82307,30.07879c-0.26546,0.34042 -0.89001,0.01415 -0.62455,-0.33338c1.05393,-1.34753 2.11569,-2.6738 3.2087,-3.99302a192.23296,174.63484 0 0 1 49.0675,-41.57551q4.76624,-2.80853 9.71983,-5.35474c1.66291,-0.85819 3.33364,-1.70215 5.03558,-2.49653a12.27913,11.15503 0 0 1 5.34,-1.50358c6.47992,-0.0922 9.83695,6.57465 12.14003,11.05703q1.07736,2.11708 2.19379,4.22708q4.20404,7.97889 8.73613,15.83015q2.78714,4.84063 5.70706,9.62438z" fill="#3f3d56" id="svg_51"/>
  <path d="m701.48596,394.70812c-0.42974,-0.47907 -0.85681,-0.95813 -1.28935,-1.43719c-3.41092,-3.77229 -7.07087,-7.50077 -11.75483,-9.66341a17.054,17.054 0 0 0 -7.14492,-1.65619a20.39007,20.39007 0 0 0 -7.41853,1.61788c-1.11693,0.44621 -2.20925,0.95264 -3.285,1.49192c-1.2292,0.61868 -2.43649,1.27843 -3.63815,1.94364q-3.38365,1.87245 -6.67949,3.90915q-6.55777,4.05288 -12.7048,8.72443q-3.18657,2.4227 -6.2416,5.00417q-2.84149,2.398 -5.568,4.92477c-0.3887,0.35861 -0.96909,-0.22174 -0.58038,-0.58035c0.47906,-0.44622 0.9636,-0.88969 1.44815,-1.32769q2.05313,-1.856 4.172,-3.64089q3.86385,-3.26037 7.9278,-6.26888q6.31959,-4.68114 13.07427,-8.72717q3.37542,-2.02026 6.84376,-3.87083c0.69814,-0.3723 1.40444,-0.73639 2.11889,-1.08132a33.77784,33.77784 0 0 1 5.037,-2.05039a17.91885,17.91885 0 0 1 7.60753,-0.74733a19.80629,19.80629 0 0 1 7.019,2.42816c4.599,2.57052 8.16587,6.54537 11.63707,10.42443c0.35044,0.39423 -0.22727,0.97729 -0.58042,0.58309z" fill="#3f3d56" id="svg_52"/>
  <path d="m667.83197,412.85795a5.29671,5.29671 0 0 1 -3.28523,-0.941c-2.54532,-1.92814 -2.47829,-6.55914 0.20369,-14.15852a15.98328,15.98328 0 0 1 8.6518,-9.299a14.81054,14.81054 0 0 1 11.92832,-0.07094q0.49358,0.21414 0.97321,0.46048l0,0a35.12828,35.12828 0 0 1 6.09952,4.32765a40.29836,40.29836 0 0 0 5.08018,3.75224l0.59716,0.34994l-0.56582,0.39868c-14.43969,10.16557 -24.22922,15.18047 -29.68283,15.18047z" fill="#3f3d56" id="svg_53"/>
  <path d="m720.69052,331.0277a20.506,20.506 0 0 1 -20.114,-16.53093a20.5022,20.5022 0 1 0 24.18308,16.12561a20.59223,20.59223 0 0 1 -4.06908,0.40532z" fill="#3f3d56" id="svg_54"/>
  <path stroke="null" d="m753.97224,467.60103c4.18036,3.68141 8.19661,7.43414 12.79066,10.26873c-0.08563,0.43677 -0.17834,0.88246 -0.26394,1.31923c-0.56355,-0.32981 -1.11286,-0.67746 -1.66211,-1.034c-4.65831,-3.04857 -8.66743,-7.19346 -13.04037,-10.79468a28.13574,35.15678 0 0 0 -7.03378,-4.40342a23.20481,28.99538 0 0 0 -8.03965,-1.17663c-11.32114,0.6953 -21.02291,9.13666 -31.54506,13.38857c-5.15054,2.08585 -10.62919,3.20008 -16.00082,1.88972c-5.37167,-1.3103 -10.1441,-4.87583 -14.888,-8.10263c-4.67968,-3.19116 -9.78023,-6.40011 -15.24465,-6.40011c-4.4514,0.00887 -9.13108,2.23732 -11.51371,7.15777a0.53428,0.66761 0 0 1 -0.92027,-0.67746a11.22843,14.03039 0 0 1 1.94752,-3.03959c3.11027,-3.68141 7.68294,-5.13437 11.88468,-4.70652c5.43585,0.55265 10.39376,3.76166 15.09482,6.98845c4.98647,3.42288 10.09416,7.10429 15.85817,7.85307c5.69266,0.74873 11.32827,-1.11422 16.60715,-3.619c10.22256,-4.858 20.30958,-12.9518 31.68065,-12.0515c5.36448,0.42787 9.95856,3.33378 14.28871,7.14z" fill="#3f3d56" id="svg_60"/>
  <path d="m766.01114,275.7234l-24.88742,0a11.18437,11.18437 0 0 0 -11.1779,11.17791l0,24.88741a11.18437,11.18437 0 0 0 11.1779,11.17791l24.88742,0a11.18437,11.18437 0 0 0 11.1779,-11.17791l0,-24.923a11.18257,11.18257 0 0 0 -11.1779,-11.14232zm9.39514,36.06532a9.40781,9.40781 0 0 1 -9.39514,9.39515l-24.88742,0a9.40781,9.40781 0 0 1 -9.39514,-9.39515l0,-24.88741a9.4078,9.4078 0 0 1 9.39514,-9.39514l24.88742,0a9.4061,9.4061 0 0 1 9.39514,9.3595l0,24.92305z" fill="none" id="svg_62"/>
  <path d="m699.7861,283.85112l0,1.78276l1.78277,0l0,-1.78276l-1.78277,0zm0,0l0,1.78276l1.78277,0l0,-1.78276l-1.78277,0zm37.88372,-31.04686a11.125,11.125 0 0 0 -1.8184,-0.15152l-24.88741,0a11.18437,11.18437 0 0 0 -11.17791,11.17791l0,24.88741a10.979,10.979 0 0 0 0.59721,3.60116a11.18194,11.18194 0 0 0 10.5807,7.57674l24.88741,0a11.18437,11.18437 0 0 0 11.17791,-11.1779l0,-24.88739a11.17845,11.17845 0 0 0 -9.35951,-11.02641zm7.57675,35.9138a9.40781,9.40781 0 0 1 -9.39515,9.39514l-24.88741,0a9.40854,9.40854 0 0 1 -9.39514,-9.39514l0,-24.88739a9.4078,9.4078 0 0 1 9.39514,-9.39515l24.88741,0a9.39873,9.39873 0 0 1 9.39515,9.39515l0,24.88739zm-45.46047,-4.867l0,1.78276l1.78277,0l0,-1.78276l-1.78277,0z" fill="none" id="svg_63"/>
  <path d="m913.61778,231.32985l0,0c0,-14.95017 16.29224,-27.06968 36.38974,-27.06968l16.5408,0l0,0l79.3958,0l148.86709,0c9.65118,0 18.90705,2.85197 25.73146,7.92853c6.82437,5.07655 10.65829,11.96184 10.65829,19.14116l0,67.67422l0,0l0,40.60452l0,0c0,14.95018 -16.29223,27.06968 -36.38975,27.06968l-148.86709,0l-103.72082,68.83191l24.32502,-68.83191l-16.5408,0c-20.09749,0 -36.38974,-12.1195 -36.38974,-27.06968l0,0l0,-40.60452l0,0l-0.00001,-67.67422l0.00001,-0.00001z" id="svg_76" fill="#ffffff" stroke-width="3" stroke="#31a2ed"/>
  <text fill="#31a2ed" stroke-width="0" x="273.71582" y="476.04405" id="svg_77" font-size="70" font-family="sans-serif" text-anchor="start" xml:space="preserve" font-weight="normal" font-style="normal" stroke="#31a2ed" transform="matrix(1 0 0 1.05113 0 -27.7066)">A</text>
  <text fill="#31a2ed" x="434.48804" y="482.95832" id="svg_78" font-size="70" font-family="sans-serif" text-anchor="start" xml:space="preserve" font-weight="normal" font-style="normal" stroke-width="0.5" stroke="#31a2ed" transform="matrix(1 0 0 1.1193 0 -64.7494)">U</text>
  <text fill="#31a2ed" x="511.73804" y="482.72925" id="svg_79" font-size="70" font-family="sans-serif" text-anchor="start" xml:space="preserve" font-weight="normal" font-style="normal" stroke-width="0.5" stroke="#31a2ed" transform="matrix(1 0 0 1.13037 0 -70.5431)">A</text>
  <ellipse fill="#ffffff" stroke-width="3" cx="377.58661" cy="444.2839" id="svg_80" rx="27.81967" ry="29.153" stroke="#31a2ed"/>
  <text style="cursor: move;" fill="#31a2ed" stroke-width="0.5" x="369.57134" y="455.71257" id="svg_82" font-size="35" font-family="sans-serif" text-anchor="start" xml:space="preserve" font-weight="normal" font-style="normal">?</text>
  <rect fill="#ffffff" x="262.2345" y="508.08006" width="322.00213" height="34.00022" id="svg_85" stroke="#333333" stroke-width="1.5"/>
  <text style="cursor: move;" fill="#000000" x="269.90128" y="532.41355" id="svg_86" font-size="18" font-family="sans-serif" text-anchor="start" xml:space="preserve" stroke="null">How to level up your SPARC search</text>
  <line stroke="#000000" fill="none" stroke-width="2.5" x1="564.75146" y1="515.89058" x2="564.75146" y2="536.05865" id="svg_89"/>
  <line fill="none" stroke-width="3" x1="392.32118" y1="470.85541" x2="413.63273" y2="497.085" id="svg_91" stroke="#31a2ed"/>
 </g>

</svg>