<svg xmlns="http://www.w3.org/2000/svg" viewBox="0 0 103 99" fill="none">
    <circle cx="2" cy="2" r="2" fill="#D6D7D9"/>
    <circle cx="13" cy="2" r="2" fill="#D6D7D9"/>
    <circle cx="24" cy="2" r="2" fill="#D6D7D9"/>
    <circle cx="35" cy="2" r="2" fill="#D6D7D9"/>
    <circle cx="46" cy="2" r="2" fill="#D6D7D9"/>
    <circle cx="57" cy="2" r="2" fill="#D6D7D9"/>
    <circle cx="68" cy="2" r="2" fill="#D6D7D9"/>
    <circle cx="79" cy="2" r="2" fill="#D6D7D9"/>
    <circle cx="90" cy="2" r="2" fill="#D6D7D9"/>
    <circle cx="101" cy="2" r="2" fill="#D6D7D9"/>

    <circle cx="2" cy="13" r="2" fill="#D6D7D9"/>
    <circle cx="13" cy="13" r="2" fill="#D6D7D9"/>
    <circle cx="24" cy="13" r="2" fill="#D6D7D9"/>
    <circle cx="35" cy="13" r="2" fill="#D6D7D9"/>
    <circle cx="46" cy="13" r="2" fill="#D6D7D9"/>
    <circle cx="57" cy="13" r="2" fill="#D6D7D9"/>
    <circle cx="68" cy="13" r="2" fill="#D6D7D9"/>
    <circle cx="79" cy="13" r="2" fill="#D6D7D9"/>
    <circle cx="90" cy="13" r="2" fill="#D6D7D9"/>
    <circle cx="101" cy="13" r="2" fill="#D6D7D9"/>

    <circle cx="2" cy="24" r="2" fill="#D6D7D9"/>
    <circle cx="13" cy="24" r="2" fill="#D6D7D9"/>
    <circle cx="24" cy="24" r="2" fill="#D6D7D9"/>
    <circle cx="35" cy="24" r="2" fill="#D6D7D9"/>
    <circle cx="46" cy="24" r="2" fill="#D6D7D9"/>
    <circle cx="57" cy="24" r="2" fill="#D6D7D9"/>
    <circle cx="68" cy="24" r="2" fill="#D6D7D9"/>
    <circle cx="79" cy="24" r="2" fill="#D6D7D9"/>
    <circle cx="90" cy="24" r="2" fill="#D6D7D9"/>
    <circle cx="101" cy="24" r="2" fill="#D6D7D9"/>

    <circle cx="2" cy="35" r="2" fill="#D6D7D9"/>
    <circle cx="13" cy="35" r="2" fill="#D6D7D9"/>
    <circle cx="24" cy="35" r="2" fill="#D6D7D9"/>
    <circle cx="35" cy="35" r="2" fill="#D6D7D9"/>
    <circle cx="46" cy="35" r="2" fill="#D6D7D9"/>
    <circle cx="57" cy="35" r="2" fill="#D6D7D9"/>
    <circle cx="68" cy="35" r="2" fill="#D6D7D9"/>
    <circle cx="79" cy="35" r="2" fill="#D6D7D9"/>
    <circle cx="90" cy="35" r="2" fill="#D6D7D9"/>
    <circle cx="101" cy="35" r="2" fill="#D6D7D9"/>

    <circle cx="2" cy="46" r="2" fill="#D6D7D9"/>
    <circle cx="13" cy="46" r="2" fill="#D6D7D9"/>
    <circle cx="24" cy="46" r="2" fill="#D6D7D9"/>
    <circle cx="35" cy="46" r="2" fill="#D6D7D9"/>
    <circle cx="46" cy="46" r="2" fill="#D6D7D9"/>
    <circle cx="57" cy="46" r="2" fill="#D6D7D9"/>
    <circle cx="68" cy="46" r="2" fill="#D6D7D9"/>
    <circle cx="79" cy="46" r="2" fill="#D6D7D9"/>
    <circle cx="90" cy="46" r="2" fill="#D6D7D9"/>
    <circle cx="101" cy="46" r="2" fill="#D6D7D9"/>
    <circle cx="101" cy="46" r="2" fill="#D6D7D9"/>

    <circle cx="2" cy="57" r="2" fill="#D6D7D9"/>
    <circle cx="13" cy="57" r="2" fill="#D6D7D9"/>
    <circle cx="24" cy="57" r="2" fill="#D6D7D9"/>
    <circle cx="35" cy="57" r="2" fill="#D6D7D9"/>
    <circle cx="46" cy="57" r="2" fill="#D6D7D9"/>
    <circle cx="57" cy="57" r="2" fill="#D6D7D9"/>
    <circle cx="68" cy="57" r="2" fill="#D6D7D9"/>
    <circle cx="79" cy="57" r="2" fill="#D6D7D9"/>
    <circle cx="90" cy="57" r="2" fill="#D6D7D9"/>
    <circle cx="101" cy="57" r="2" fill="#D6D7D9"/>

    <circle cx="2" cy="68" r="2" fill="#D6D7D9"/>
    <circle cx="13" cy="68" r="2" fill="#D6D7D9"/>
    <circle cx="24" cy="68" r="2" fill="#D6D7D9"/>
    <circle cx="35" cy="68" r="2" fill="#D6D7D9"/>
    <circle cx="46" cy="68" r="2" fill="#D6D7D9"/>
    <circle cx="57" cy="68" r="2" fill="#D6D7D9"/>
    <circle cx="68" cy="68" r="2" fill="#D6D7D9"/>
    <circle cx="79" cy="68" r="2" fill="#D6D7D9"/>
    <circle cx="90" cy="68" r="2" fill="#D6D7D9"/>
    <circle cx="101" cy="68" r="2" fill="#D6D7D9"/>

    <circle cx="2" cy="79" r="2" fill="#D6D7D9"/>
    <circle cx="13" cy="79" r="2" fill="#D6D7D9"/>
    <circle cx="24" cy="79" r="2" fill="#D6D7D9"/>
    <circle cx="35" cy="79" r="2" fill="#D6D7D9"/>
    <circle cx="46" cy="79" r="2" fill="#D6D7D9"/>
    <circle cx="57" cy="79" r="2" fill="#D6D7D9"/>
    <circle cx="68" cy="79" r="2" fill="#D6D7D9"/>
    <circle cx="79" cy="79" r="2" fill="#D6D7D9"/>
    <circle cx="90" cy="79" r="2" fill="#D6D7D9"/>
    <circle cx="101" cy="79" r="2" fill="#D6D7D9"/>
    
    <circle cx="2" cy="90" r="2" fill="#D6D7D9"/>
    <circle cx="13" cy="90" r="2" fill="#D6D7D9"/>
    <circle cx="24" cy="90" r="2" fill="#D6D7D9"/>
    <circle cx="35" cy="90" r="2" fill="#D6D7D9"/>
    <circle cx="46" cy="90" r="2" fill="#D6D7D9"/>
    <circle cx="57" cy="90" r="2" fill="#D6D7D9"/>
    <circle cx="68" cy="90" r="2" fill="#D6D7D9"/>
    <circle cx="79" cy="90" r="2" fill="#D6D7D9"/>
    <circle cx="90" cy="90" r="2" fill="#D6D7D9"/>
    <circle cx="101" cy="90" r="2" fill="#D6D7D9"/>
</svg>